<svg xmlns="http://www.w3.org/2000/svg" xmlns:xlink="http://www.w3.org/1999/xlink" viewBox="0 0 329.08 258.78"><defs><style>.cls-1{fill:none;}.cls-2{fill:#757575;}.cls-3{clip-path:url(#clip-path);}.cls-4{clip-path:url(#clip-path-2);}.cls-5{fill:#fec447;}</style><clipPath id="clip-path" transform="translate(-510.85 -1018.34)"><path class="cls-1" d="M690.61,1116.65l31-79.53L637.22,1050a85.56,85.56,0,0,1,53.39,66.63Z"/></clipPath><clipPath id="clip-path-2" transform="translate(-510.85 -1018.34)"><rect class="cls-1" width="1352.25" height="2403.99"/></clipPath></defs><title>kytebi</title><g id="Layer_2" data-name="Layer 2"><g id="Layer_1-2" data-name="Layer 1"><path class="cls-2" d="M523.14,1181.32v60.54H510.85v-125h12.29V1174l56.23-57.14h16.25l-59.33,60.71,61.1,64.29H581.15Zm116.06,68.23c-6.71,17.13-20,28.73-35.93,27.48V1266c11.48,1.25,19.68-7,24.45-18.56l2.29-5.54-39.56-89.76h12.36L636,1226.9l28.61-74.79H677Zm78.39-29.92c0,15.8,8.41,14.42,26.18,13.69V1244c-24.72,3.68-38.47-2.31-38.47-24.37v-55.76H684.74l4.54-11.76h16v-22l12.29-3.68v25.64H746l-4.54,11.76H717.59Zm110.35-28.52c-2.47-20.18-16.57-30.45-31.74-30.45-18.51,0-31.73,12.47-34,30.45Zm11.64,11.75H762.17c2.47,18.72,16.4,30.47,35.09,30.47,13.93,0,23.63-6.78,28.39-15.61l10.23,6.24c-7.41,12.48-21,21.11-38.8,21.11-27.86,0-46.9-20.36-46.9-48.08,0-27,18.69-48.08,46-48.08,27,0,43.73,23.31,43.73,48.45C839.93,1199.2,839.75,1201,839.58,1202.86Z" transform="translate(-510.85 -1018.34)"/><g class="cls-3"><g class="cls-4"><rect class="cls-5" x="107.59" width="121.94" height="117.1"/></g></g></g></g></svg>