<?xml version="1.0" encoding="UTF-8"?>
<svg width="181px" height="39px" viewBox="0 0 181 39" version="1.1" xmlns="http://www.w3.org/2000/svg" xmlns:xlink="http://www.w3.org/1999/xlink">
    <!-- Generator: Sketch 60.1 (88133) - https://sketch.com -->
    <title>Extensionofvisionandexperience</title>
    <desc>Created with Sketch.</desc>
    <g id="Page-1" stroke="none" stroke-width="1" fill="none" fill-rule="evenodd">
        <g id="SquareLab_Draft-Copy-5" transform="translate(-560.000000, -3871.000000)" fill="#FFFFFF" fill-rule="nonzero">
            <g id="Story_04" transform="translate(0.000000, 3228.000000)">
                <path d="M569.468,657 L569.468,654.696 L563.726,654.696 L563.726,651.708 L568.892,651.708 L568.892,649.404 L563.726,649.404 L563.726,646.416 L569.468,646.416 L569.468,644.112 L561.296,644.112 L561.296,657 L569.468,657 Z M573.338,657 L574.94,654.48 L575.066,654.48 L576.722,657 L579.494,657 L576.398,652.518 L579.494,648.18 L576.614,648.18 L575.102,650.628 L574.976,650.628 L573.374,648.18 L570.584,648.18 L573.608,652.518 L570.548,657 L573.338,657 Z M584.57,657.144 C584.954,657.144 585.305,657.111 585.623,657.045 C585.941,656.979 586.238,656.88 586.514,656.748 L586.514,656.748 L585.848,654.678 C585.74,654.75 585.626,654.807 585.506,654.849 C585.386,654.891 585.224,654.912 585.02,654.912 C584.708,654.912 584.468,654.816 584.3,654.624 C584.18,654.504 584.099,654.357 584.057,654.183 C584.015,654.009 583.994,653.82 583.994,653.616 L583.994,653.616 L583.994,650.196 L586.154,650.196 L586.154,648.18 L583.994,648.18 L583.994,645.48 L581.636,645.48 L581.636,648.18 L580.088,648.18 L580.088,650.196 L581.636,650.196 L581.636,654.066 C581.636,655.062 581.918,655.83 582.482,656.37 C582.722,656.61 583.019,656.799 583.373,656.937 C583.727,657.075 584.126,657.144 584.57,657.144 Z M592.058,657.288 C593.054,657.288 593.897,657.066 594.587,656.622 C595.277,656.178 595.826,655.596 596.234,654.876 L596.234,654.876 L594.272,653.904 C594.068,654.276 593.789,654.585 593.435,654.831 C593.081,655.077 592.634,655.2 592.094,655.2 C591.818,655.2 591.548,655.161 591.284,655.083 C591.02,655.005 590.777,654.879 590.555,654.705 C590.333,654.531 590.147,654.315 589.997,654.057 C589.847,653.799 589.748,653.49 589.7,653.13 L589.7,653.13 L596.342,653.13 C596.342,653.058 596.348,652.992 596.36,652.932 C596.36,652.872 596.366,652.806 596.378,652.734 L596.378,652.734 L596.378,652.518 C596.378,651.858 596.282,651.246 596.09,650.682 C595.898,650.118 595.616,649.629 595.244,649.215 C594.872,648.801 594.41,648.477 593.858,648.243 C593.306,648.009 592.676,647.892 591.968,647.892 C591.296,647.892 590.681,648.018 590.123,648.27 C589.565,648.522 589.082,648.861 588.674,649.287 C588.266,649.713 587.948,650.211 587.72,650.781 C587.492,651.351 587.378,651.954 587.378,652.59 C587.378,653.274 587.495,653.901 587.729,654.471 C587.963,655.041 588.29,655.536 588.71,655.956 C589.13,656.376 589.625,656.703 590.195,656.937 C590.765,657.171 591.386,657.288 592.058,657.288 Z M594.092,651.456 L589.826,651.456 C589.982,650.94 590.252,650.538 590.636,650.25 C591.02,649.962 591.464,649.818 591.968,649.818 C592.328,649.818 592.637,649.872 592.895,649.98 C593.153,650.088 593.369,650.226 593.543,650.394 C593.717,650.562 593.849,650.742 593.939,650.934 C594.029,651.126 594.08,651.3 594.092,651.456 L594.092,651.456 Z M600.248,657 L600.248,652.68 C600.248,652.32 600.293,651.981 600.383,651.663 C600.473,651.345 600.605,651.069 600.779,650.835 C600.953,650.601 601.163,650.415 601.409,650.277 C601.655,650.139 601.94,650.07 602.264,650.07 C602.804,650.07 603.215,650.223 603.497,650.529 C603.779,650.835 603.92,651.306 603.92,651.942 L603.92,651.942 L603.92,657 L606.278,657 L606.278,651.654 C606.278,651.09 606.209,650.577 606.071,650.115 C605.933,649.653 605.729,649.257 605.459,648.927 C605.189,648.597 604.844,648.342 604.424,648.162 C604.004,647.982 603.518,647.892 602.966,647.892 C602.366,647.892 601.832,648.021 601.364,648.279 C600.896,648.537 600.524,648.888 600.248,649.332 L600.248,649.332 L600.104,649.332 L600.104,648.18 L597.89,648.18 L597.89,657 L600.248,657 Z M611.714,657.288 C612.278,657.288 612.791,657.21 613.253,657.054 C613.715,656.898 614.111,656.685 614.441,656.415 C614.771,656.145 615.026,655.836 615.206,655.488 C615.386,655.14 615.476,654.774 615.476,654.39 C615.476,653.742 615.257,653.181 614.819,652.707 C614.381,652.233 613.712,651.888 612.812,651.672 L612.812,651.672 L611.462,651.348 C611.102,651.252 610.817,651.144 610.607,651.024 C610.397,650.904 610.292,650.742 610.292,650.538 C610.292,650.322 610.418,650.145 610.67,650.007 C610.922,649.869 611.216,649.8 611.552,649.8 C611.876,649.8 612.2,649.878 612.524,650.034 C612.848,650.19 613.094,650.442 613.262,650.79 L613.262,650.79 L615.296,649.962 C614.984,649.242 614.498,648.717 613.838,648.387 C613.178,648.057 612.428,647.892 611.588,647.892 C611.084,647.892 610.613,647.955 610.175,648.081 C609.737,648.207 609.356,648.387 609.032,648.621 C608.708,648.855 608.453,649.14 608.267,649.476 C608.081,649.812 607.988,650.196 607.988,650.628 C607.988,651.012 608.066,651.348 608.222,651.636 C608.378,651.924 608.576,652.17 608.816,652.374 C609.056,652.578 609.323,652.746 609.617,652.878 C609.911,653.01 610.196,653.106 610.472,653.166 L610.472,653.166 L611.714,653.436 C612.23,653.556 612.593,653.691 612.803,653.841 C613.013,653.991 613.118,654.186 613.118,654.426 C613.118,654.642 612.992,654.828 612.74,654.984 C612.488,655.14 612.146,655.218 611.714,655.218 C611.294,655.218 610.913,655.107 610.571,654.885 C610.229,654.663 609.956,654.324 609.752,653.868 L609.752,653.868 L607.646,654.768 C607.766,655.08 607.94,655.389 608.168,655.695 C608.396,656.001 608.675,656.271 609.005,656.505 C609.335,656.739 609.725,656.928 610.175,657.072 C610.625,657.216 611.138,657.288 611.714,657.288 Z M619.418,646.47 L619.418,644.112 L617.06,644.112 L617.06,646.47 L619.418,646.47 Z M619.418,657 L619.418,648.18 L617.06,648.18 L617.06,657 L619.418,657 Z M625.754,657.288 C626.594,657.288 627.374,657.078 628.094,656.658 C628.814,656.238 629.387,655.671 629.813,654.957 C630.239,654.243 630.452,653.46 630.452,652.608 C630.452,651.756 630.239,650.967 629.813,650.241 C629.387,649.515 628.814,648.942 628.094,648.522 C627.374,648.102 626.594,647.892 625.754,647.892 C624.902,647.892 624.116,648.102 623.396,648.522 C622.676,648.942 622.106,649.515 621.686,650.241 C621.266,650.967 621.056,651.756 621.056,652.608 C621.056,653.46 621.266,654.243 621.686,654.957 C622.106,655.671 622.676,656.238 623.396,656.658 C624.116,657.078 624.902,657.288 625.754,657.288 Z M625.754,655.164 C625.286,655.164 624.854,655.05 624.458,654.822 C624.062,654.594 623.75,654.282 623.522,653.886 C623.294,653.49 623.18,653.064 623.18,652.608 C623.18,652.14 623.294,651.708 623.522,651.312 C623.75,650.916 624.062,650.604 624.458,650.376 C624.854,650.148 625.286,650.034 625.754,650.034 C626.222,650.034 626.651,650.148 627.041,650.376 C627.431,650.604 627.74,650.916 627.968,651.312 C628.196,651.708 628.31,652.14 628.31,652.608 C628.31,653.064 628.196,653.49 627.968,653.886 C627.74,654.282 627.431,654.594 627.041,654.822 C626.651,655.05 626.222,655.164 625.754,655.164 Z M634.304,657 L634.304,652.68 C634.304,652.32 634.349,651.981 634.439,651.663 C634.529,651.345 634.661,651.069 634.835,650.835 C635.009,650.601 635.219,650.415 635.465,650.277 C635.711,650.139 635.996,650.07 636.32,650.07 C636.86,650.07 637.271,650.223 637.553,650.529 C637.835,650.835 637.976,651.306 637.976,651.942 L637.976,651.942 L637.976,657 L640.334,657 L640.334,651.654 C640.334,651.09 640.265,650.577 640.127,650.115 C639.989,649.653 639.785,649.257 639.515,648.927 C639.245,648.597 638.9,648.342 638.48,648.162 C638.06,647.982 637.574,647.892 637.022,647.892 C636.422,647.892 635.888,648.021 635.42,648.279 C634.952,648.537 634.58,648.888 634.304,649.332 L634.304,649.332 L634.16,649.332 L634.16,648.18 L631.946,648.18 L631.946,657 L634.304,657 Z M650.414,657.288 C651.254,657.288 652.034,657.078 652.754,656.658 C653.474,656.238 654.047,655.671 654.473,654.957 C654.899,654.243 655.112,653.46 655.112,652.608 C655.112,651.756 654.899,650.967 654.473,650.241 C654.047,649.515 653.474,648.942 652.754,648.522 C652.034,648.102 651.254,647.892 650.414,647.892 C649.562,647.892 648.776,648.102 648.056,648.522 C647.336,648.942 646.766,649.515 646.346,650.241 C645.926,650.967 645.716,651.756 645.716,652.608 C645.716,653.46 645.926,654.243 646.346,654.957 C646.766,655.671 647.336,656.238 648.056,656.658 C648.776,657.078 649.562,657.288 650.414,657.288 Z M650.414,655.164 C649.946,655.164 649.514,655.05 649.118,654.822 C648.722,654.594 648.41,654.282 648.182,653.886 C647.954,653.49 647.84,653.064 647.84,652.608 C647.84,652.14 647.954,651.708 648.182,651.312 C648.41,650.916 648.722,650.604 649.118,650.376 C649.514,650.148 649.946,650.034 650.414,650.034 C650.882,650.034 651.311,650.148 651.701,650.376 C652.091,650.604 652.4,650.916 652.628,651.312 C652.856,651.708 652.97,652.14 652.97,652.608 C652.97,653.064 652.856,653.49 652.628,653.886 C652.4,654.282 652.091,654.594 651.701,654.822 C651.311,655.05 650.882,655.164 650.414,655.164 Z M659.972,657 L659.972,650.196 L662.168,650.196 L662.168,648.18 L659.972,648.18 L659.972,647.46 C659.972,647.064 660.074,646.755 660.278,646.533 C660.482,646.311 660.758,646.2 661.106,646.2 C661.31,646.2 661.481,646.218 661.619,646.254 C661.757,646.29 661.886,646.338 662.006,646.398 L662.006,646.398 L662.672,644.292 C662.444,644.196 662.186,644.118 661.898,644.058 C661.61,643.998 661.298,643.968 660.962,643.968 C660.47,643.968 660.02,644.043 659.612,644.193 C659.204,644.343 658.85,644.559 658.55,644.841 C658.25,645.123 658.019,645.471 657.857,645.885 C657.695,646.299 657.614,646.776 657.614,647.316 L657.614,647.316 L657.614,648.18 L656.03,648.18 L656.03,650.196 L657.614,650.196 L657.614,657 L659.972,657 Z M566.156,677 L569.954,668.18 L567.29,668.18 L565.076,673.796 L564.95,673.796 L562.754,668.18 L560.072,668.18 L563.834,677 L566.156,677 Z M573.536,666.47 L573.536,664.112 L571.178,664.112 L571.178,666.47 L573.536,666.47 Z M573.536,677 L573.536,668.18 L571.178,668.18 L571.178,677 L573.536,677 Z M579.188,677.288 C579.752,677.288 580.265,677.21 580.727,677.054 C581.189,676.898 581.585,676.685 581.915,676.415 C582.245,676.145 582.5,675.836 582.68,675.488 C582.86,675.14 582.95,674.774 582.95,674.39 C582.95,673.742 582.731,673.181 582.293,672.707 C581.855,672.233 581.186,671.888 580.286,671.672 L580.286,671.672 L578.936,671.348 C578.576,671.252 578.291,671.144 578.081,671.024 C577.871,670.904 577.766,670.742 577.766,670.538 C577.766,670.322 577.892,670.145 578.144,670.007 C578.396,669.869 578.69,669.8 579.026,669.8 C579.35,669.8 579.674,669.878 579.998,670.034 C580.322,670.19 580.568,670.442 580.736,670.79 L580.736,670.79 L582.77,669.962 C582.458,669.242 581.972,668.717 581.312,668.387 C580.652,668.057 579.902,667.892 579.062,667.892 C578.558,667.892 578.087,667.955 577.649,668.081 C577.211,668.207 576.83,668.387 576.506,668.621 C576.182,668.855 575.927,669.14 575.741,669.476 C575.555,669.812 575.462,670.196 575.462,670.628 C575.462,671.012 575.54,671.348 575.696,671.636 C575.852,671.924 576.05,672.17 576.29,672.374 C576.53,672.578 576.797,672.746 577.091,672.878 C577.385,673.01 577.67,673.106 577.946,673.166 L577.946,673.166 L579.188,673.436 C579.704,673.556 580.067,673.691 580.277,673.841 C580.487,673.991 580.592,674.186 580.592,674.426 C580.592,674.642 580.466,674.828 580.214,674.984 C579.962,675.14 579.62,675.218 579.188,675.218 C578.768,675.218 578.387,675.107 578.045,674.885 C577.703,674.663 577.43,674.324 577.226,673.868 L577.226,673.868 L575.12,674.768 C575.24,675.08 575.414,675.389 575.642,675.695 C575.87,676.001 576.149,676.271 576.479,676.505 C576.809,676.739 577.199,676.928 577.649,677.072 C578.099,677.216 578.612,677.288 579.188,677.288 Z M586.892,666.47 L586.892,664.112 L584.534,664.112 L584.534,666.47 L586.892,666.47 Z M586.892,677 L586.892,668.18 L584.534,668.18 L584.534,677 L586.892,677 Z M593.228,677.288 C594.068,677.288 594.848,677.078 595.568,676.658 C596.288,676.238 596.861,675.671 597.287,674.957 C597.713,674.243 597.926,673.46 597.926,672.608 C597.926,671.756 597.713,670.967 597.287,670.241 C596.861,669.515 596.288,668.942 595.568,668.522 C594.848,668.102 594.068,667.892 593.228,667.892 C592.376,667.892 591.59,668.102 590.87,668.522 C590.15,668.942 589.58,669.515 589.16,670.241 C588.74,670.967 588.53,671.756 588.53,672.608 C588.53,673.46 588.74,674.243 589.16,674.957 C589.58,675.671 590.15,676.238 590.87,676.658 C591.59,677.078 592.376,677.288 593.228,677.288 Z M593.228,675.164 C592.76,675.164 592.328,675.05 591.932,674.822 C591.536,674.594 591.224,674.282 590.996,673.886 C590.768,673.49 590.654,673.064 590.654,672.608 C590.654,672.14 590.768,671.708 590.996,671.312 C591.224,670.916 591.536,670.604 591.932,670.376 C592.328,670.148 592.76,670.034 593.228,670.034 C593.696,670.034 594.125,670.148 594.515,670.376 C594.905,670.604 595.214,670.916 595.442,671.312 C595.67,671.708 595.784,672.14 595.784,672.608 C595.784,673.064 595.67,673.49 595.442,673.886 C595.214,674.282 594.905,674.594 594.515,674.822 C594.125,675.05 593.696,675.164 593.228,675.164 Z M601.778,677 L601.778,672.68 C601.778,672.32 601.823,671.981 601.913,671.663 C602.003,671.345 602.135,671.069 602.309,670.835 C602.483,670.601 602.693,670.415 602.939,670.277 C603.185,670.139 603.47,670.07 603.794,670.07 C604.334,670.07 604.745,670.223 605.027,670.529 C605.309,670.835 605.45,671.306 605.45,671.942 L605.45,671.942 L605.45,677 L607.808,677 L607.808,671.654 C607.808,671.09 607.739,670.577 607.601,670.115 C607.463,669.653 607.259,669.257 606.989,668.927 C606.719,668.597 606.374,668.342 605.954,668.162 C605.534,667.982 605.048,667.892 604.496,667.892 C603.896,667.892 603.362,668.021 602.894,668.279 C602.426,668.537 602.054,668.888 601.778,669.332 L601.778,669.332 L601.634,669.332 L601.634,668.18 L599.42,668.18 L599.42,677 L601.778,677 Z M617.906,677.27 C618.878,677.27 619.736,676.988 620.48,676.424 L620.48,676.424 L620.48,677 L622.784,677 L622.784,668.18 L620.48,668.18 L620.48,668.756 C620.168,668.48 619.784,668.267 619.328,668.117 C618.872,667.967 618.398,667.892 617.906,667.892 C617.066,667.892 616.286,668.102 615.566,668.522 C614.846,668.942 614.273,669.512 613.847,670.232 C613.421,670.952 613.208,671.738 613.208,672.59 C613.208,673.442 613.421,674.225 613.847,674.939 C614.273,675.653 614.846,676.22 615.566,676.64 C616.286,677.06 617.066,677.27 617.906,677.27 Z M617.906,675.236 C617.426,675.236 616.982,675.116 616.574,674.876 C616.166,674.636 615.842,674.312 615.602,673.904 C615.362,673.496 615.242,673.052 615.242,672.572 C615.242,672.092 615.362,671.648 615.602,671.24 C615.842,670.832 616.166,670.508 616.574,670.268 C616.982,670.028 617.426,669.908 617.906,669.908 C618.386,669.908 618.83,670.028 619.238,670.268 C619.646,670.508 619.97,670.832 620.21,671.24 C620.45,671.648 620.57,672.092 620.57,672.572 C620.57,673.052 620.45,673.496 620.21,673.904 C619.97,674.312 619.646,674.636 619.238,674.876 C618.83,675.116 618.386,675.236 617.906,675.236 Z M627.05,677 L627.05,672.68 C627.05,672.32 627.095,671.981 627.185,671.663 C627.275,671.345 627.407,671.069 627.581,670.835 C627.755,670.601 627.965,670.415 628.211,670.277 C628.457,670.139 628.742,670.07 629.066,670.07 C629.606,670.07 630.017,670.223 630.299,670.529 C630.581,670.835 630.722,671.306 630.722,671.942 L630.722,671.942 L630.722,677 L633.08,677 L633.08,671.654 C633.08,671.09 633.011,670.577 632.873,670.115 C632.735,669.653 632.531,669.257 632.261,668.927 C631.991,668.597 631.646,668.342 631.226,668.162 C630.806,667.982 630.32,667.892 629.768,667.892 C629.168,667.892 628.634,668.021 628.166,668.279 C627.698,668.537 627.326,668.888 627.05,669.332 L627.05,669.332 L626.906,669.332 L626.906,668.18 L624.692,668.18 L624.692,677 L627.05,677 Z M639.038,677.27 C640.01,677.27 640.868,676.988 641.612,676.424 L641.612,676.424 L641.612,677 L643.916,677 L643.916,664.112 L641.612,664.112 L641.612,668.756 C641.3,668.48 640.916,668.267 640.46,668.117 C640.004,667.967 639.53,667.892 639.038,667.892 C638.198,667.892 637.418,668.102 636.698,668.522 C635.978,668.942 635.405,669.512 634.979,670.232 C634.553,670.952 634.34,671.738 634.34,672.59 C634.34,673.442 634.553,674.225 634.979,674.939 C635.405,675.653 635.978,676.22 636.698,676.64 C637.418,677.06 638.198,677.27 639.038,677.27 Z M639.038,675.236 C638.558,675.236 638.114,675.116 637.706,674.876 C637.298,674.636 636.974,674.312 636.734,673.904 C636.494,673.496 636.374,673.052 636.374,672.572 C636.374,672.092 636.494,671.648 636.734,671.24 C636.974,670.832 637.298,670.508 637.706,670.268 C638.114,670.028 638.558,669.908 639.038,669.908 C639.518,669.908 639.962,670.028 640.37,670.268 C640.778,670.508 641.102,670.832 641.342,671.24 C641.582,671.648 641.702,672.092 641.702,672.572 C641.702,673.052 641.582,673.496 641.342,673.904 C641.102,674.312 640.778,674.636 640.37,674.876 C639.962,675.116 639.518,675.236 639.038,675.236 Z M653.96,677.288 C654.956,677.288 655.799,677.066 656.489,676.622 C657.179,676.178 657.728,675.596 658.136,674.876 L658.136,674.876 L656.174,673.904 C655.97,674.276 655.691,674.585 655.337,674.831 C654.983,675.077 654.536,675.2 653.996,675.2 C653.72,675.2 653.45,675.161 653.186,675.083 C652.922,675.005 652.679,674.879 652.457,674.705 C652.235,674.531 652.049,674.315 651.899,674.057 C651.749,673.799 651.65,673.49 651.602,673.13 L651.602,673.13 L658.244,673.13 C658.244,673.058 658.25,672.992 658.262,672.932 C658.262,672.872 658.268,672.806 658.28,672.734 L658.28,672.734 L658.28,672.518 C658.28,671.858 658.184,671.246 657.992,670.682 C657.8,670.118 657.518,669.629 657.146,669.215 C656.774,668.801 656.312,668.477 655.76,668.243 C655.208,668.009 654.578,667.892 653.87,667.892 C653.198,667.892 652.583,668.018 652.025,668.27 C651.467,668.522 650.984,668.861 650.576,669.287 C650.168,669.713 649.85,670.211 649.622,670.781 C649.394,671.351 649.28,671.954 649.28,672.59 C649.28,673.274 649.397,673.901 649.631,674.471 C649.865,675.041 650.192,675.536 650.612,675.956 C651.032,676.376 651.527,676.703 652.097,676.937 C652.667,677.171 653.288,677.288 653.96,677.288 Z M655.994,671.456 L651.728,671.456 C651.884,670.94 652.154,670.538 652.538,670.25 C652.922,669.962 653.366,669.818 653.87,669.818 C654.23,669.818 654.539,669.872 654.797,669.98 C655.055,670.088 655.271,670.226 655.445,670.394 C655.619,670.562 655.751,670.742 655.841,670.934 C655.931,671.126 655.982,671.3 655.994,671.456 L655.994,671.456 Z M661.718,677 L663.32,674.48 L663.446,674.48 L665.102,677 L667.874,677 L664.778,672.518 L667.874,668.18 L664.994,668.18 L663.482,670.628 L663.356,670.628 L661.754,668.18 L658.964,668.18 L661.988,672.518 L658.928,677 L661.718,677 Z M671.132,681.05 L671.132,676.406 C671.444,676.682 671.828,676.895 672.284,677.045 C672.74,677.195 673.214,677.27 673.706,677.27 C674.546,677.27 675.326,677.06 676.046,676.64 C676.766,676.22 677.339,675.65 677.765,674.93 C678.191,674.21 678.404,673.424 678.404,672.572 C678.404,671.72 678.191,670.937 677.765,670.223 C677.339,669.509 676.766,668.942 676.046,668.522 C675.326,668.102 674.546,667.892 673.706,667.892 C672.734,667.892 671.876,668.174 671.132,668.738 L671.132,668.738 L671.132,668.162 L668.828,668.162 L668.828,681.05 L671.132,681.05 Z M673.706,675.236 C673.226,675.236 672.782,675.116 672.374,674.876 C671.966,674.636 671.642,674.312 671.402,673.904 C671.162,673.496 671.042,673.052 671.042,672.572 C671.042,672.092 671.162,671.648 671.402,671.24 C671.642,670.832 671.966,670.508 672.374,670.268 C672.782,670.028 673.226,669.908 673.706,669.908 C674.186,669.908 674.63,670.028 675.038,670.268 C675.446,670.508 675.77,670.832 676.01,671.24 C676.25,671.648 676.37,672.092 676.37,672.572 C676.37,673.052 676.25,673.496 676.01,673.904 C675.77,674.312 675.446,674.636 675.038,674.876 C674.63,675.116 674.186,675.236 673.706,675.236 Z M683.948,677.288 C684.944,677.288 685.787,677.066 686.477,676.622 C687.167,676.178 687.716,675.596 688.124,674.876 L688.124,674.876 L686.162,673.904 C685.958,674.276 685.679,674.585 685.325,674.831 C684.971,675.077 684.524,675.2 683.984,675.2 C683.708,675.2 683.438,675.161 683.174,675.083 C682.91,675.005 682.667,674.879 682.445,674.705 C682.223,674.531 682.037,674.315 681.887,674.057 C681.737,673.799 681.638,673.49 681.59,673.13 L681.59,673.13 L688.232,673.13 C688.232,673.058 688.238,672.992 688.25,672.932 C688.25,672.872 688.256,672.806 688.268,672.734 L688.268,672.734 L688.268,672.518 C688.268,671.858 688.172,671.246 687.98,670.682 C687.788,670.118 687.506,669.629 687.134,669.215 C686.762,668.801 686.3,668.477 685.748,668.243 C685.196,668.009 684.566,667.892 683.858,667.892 C683.186,667.892 682.571,668.018 682.013,668.27 C681.455,668.522 680.972,668.861 680.564,669.287 C680.156,669.713 679.838,670.211 679.61,670.781 C679.382,671.351 679.268,671.954 679.268,672.59 C679.268,673.274 679.385,673.901 679.619,674.471 C679.853,675.041 680.18,675.536 680.6,675.956 C681.02,676.376 681.515,676.703 682.085,676.937 C682.655,677.171 683.276,677.288 683.948,677.288 Z M685.982,671.456 L681.716,671.456 C681.872,670.94 682.142,670.538 682.526,670.25 C682.91,669.962 683.354,669.818 683.858,669.818 C684.218,669.818 684.527,669.872 684.785,669.98 C685.043,670.088 685.259,670.226 685.433,670.394 C685.607,670.562 685.739,670.742 685.829,670.934 C685.919,671.126 685.97,671.3 685.982,671.456 L685.982,671.456 Z M692.354,677 L692.354,673.508 C692.354,672.872 692.48,672.266 692.732,671.69 C692.936,671.246 693.215,670.874 693.569,670.574 C693.923,670.274 694.37,670.124 694.91,670.124 C695.114,670.124 695.354,670.154 695.63,670.214 L695.63,670.214 L695.63,668.144 C695.462,668.096 695.336,668.066 695.252,668.054 C695.084,668.03 694.958,668.018 694.874,668.018 C694.31,668.018 693.806,668.156 693.362,668.432 C692.918,668.708 692.582,669.086 692.354,669.566 L692.354,669.566 L692.354,668.198 L690.032,668.198 L690.032,677 L692.354,677 Z M699.608,666.47 L699.608,664.112 L697.25,664.112 L697.25,666.47 L699.608,666.47 Z M699.608,677 L699.608,668.18 L697.25,668.18 L697.25,677 L699.608,677 Z M705.944,677.288 C706.94,677.288 707.783,677.066 708.473,676.622 C709.163,676.178 709.712,675.596 710.12,674.876 L710.12,674.876 L708.158,673.904 C707.954,674.276 707.675,674.585 707.321,674.831 C706.967,675.077 706.52,675.2 705.98,675.2 C705.704,675.2 705.434,675.161 705.17,675.083 C704.906,675.005 704.663,674.879 704.441,674.705 C704.219,674.531 704.033,674.315 703.883,674.057 C703.733,673.799 703.634,673.49 703.586,673.13 L703.586,673.13 L710.228,673.13 C710.228,673.058 710.234,672.992 710.246,672.932 C710.246,672.872 710.252,672.806 710.264,672.734 L710.264,672.734 L710.264,672.518 C710.264,671.858 710.168,671.246 709.976,670.682 C709.784,670.118 709.502,669.629 709.13,669.215 C708.758,668.801 708.296,668.477 707.744,668.243 C707.192,668.009 706.562,667.892 705.854,667.892 C705.182,667.892 704.567,668.018 704.009,668.27 C703.451,668.522 702.968,668.861 702.56,669.287 C702.152,669.713 701.834,670.211 701.606,670.781 C701.378,671.351 701.264,671.954 701.264,672.59 C701.264,673.274 701.381,673.901 701.615,674.471 C701.849,675.041 702.176,675.536 702.596,675.956 C703.016,676.376 703.511,676.703 704.081,676.937 C704.651,677.171 705.272,677.288 705.944,677.288 Z M707.978,671.456 L703.712,671.456 C703.868,670.94 704.138,670.538 704.522,670.25 C704.906,669.962 705.35,669.818 705.854,669.818 C706.214,669.818 706.523,669.872 706.781,669.98 C707.039,670.088 707.255,670.226 707.429,670.394 C707.603,670.562 707.735,670.742 707.825,670.934 C707.915,671.126 707.966,671.3 707.978,671.456 L707.978,671.456 Z M714.134,677 L714.134,672.68 C714.134,672.32 714.179,671.981 714.269,671.663 C714.359,671.345 714.491,671.069 714.665,670.835 C714.839,670.601 715.049,670.415 715.295,670.277 C715.541,670.139 715.826,670.07 716.15,670.07 C716.69,670.07 717.101,670.223 717.383,670.529 C717.665,670.835 717.806,671.306 717.806,671.942 L717.806,671.942 L717.806,677 L720.164,677 L720.164,671.654 C720.164,671.09 720.095,670.577 719.957,670.115 C719.819,669.653 719.615,669.257 719.345,668.927 C719.075,668.597 718.73,668.342 718.31,668.162 C717.89,667.982 717.404,667.892 716.852,667.892 C716.252,667.892 715.718,668.021 715.25,668.279 C714.782,668.537 714.41,668.888 714.134,669.332 L714.134,669.332 L713.99,669.332 L713.99,668.18 L711.776,668.18 L711.776,677 L714.134,677 Z M726.284,677.288 C727.316,677.288 728.177,677.051 728.867,676.577 C729.557,676.103 730.094,675.494 730.478,674.75 L730.478,674.75 L728.318,673.814 C728.114,674.234 727.841,674.555 727.499,674.777 C727.157,674.999 726.74,675.11 726.248,675.11 C725.936,675.11 725.642,675.05 725.366,674.93 C725.09,674.81 724.847,674.642 724.637,674.426 C724.427,674.21 724.262,673.946 724.142,673.634 C724.022,673.322 723.962,672.974 723.962,672.59 C723.962,672.206 724.022,671.858 724.142,671.546 C724.262,671.234 724.427,670.97 724.637,670.754 C724.847,670.538 725.09,670.37 725.366,670.25 C725.642,670.13 725.936,670.07 726.248,670.07 C726.728,670.07 727.127,670.175 727.445,670.385 C727.763,670.595 728.024,670.904 728.228,671.312 L728.228,671.312 L730.388,670.412 C730.064,669.668 729.554,669.062 728.858,668.594 C728.162,668.126 727.304,667.892 726.284,667.892 C725.6,667.892 724.973,668.009 724.403,668.243 C723.833,668.477 723.341,668.801 722.927,669.215 C722.513,669.629 722.189,670.124 721.955,670.7 C721.721,671.276 721.604,671.906 721.604,672.59 C721.604,673.274 721.721,673.901 721.955,674.471 C722.189,675.041 722.513,675.536 722.927,675.956 C723.341,676.376 723.833,676.703 724.403,676.937 C724.973,677.171 725.6,677.288 726.284,677.288 Z M736.094,677.288 C737.09,677.288 737.933,677.066 738.623,676.622 C739.313,676.178 739.862,675.596 740.27,674.876 L740.27,674.876 L738.308,673.904 C738.104,674.276 737.825,674.585 737.471,674.831 C737.117,675.077 736.67,675.2 736.13,675.2 C735.854,675.2 735.584,675.161 735.32,675.083 C735.056,675.005 734.813,674.879 734.591,674.705 C734.369,674.531 734.183,674.315 734.033,674.057 C733.883,673.799 733.784,673.49 733.736,673.13 L733.736,673.13 L740.378,673.13 C740.378,673.058 740.384,672.992 740.396,672.932 C740.396,672.872 740.402,672.806 740.414,672.734 L740.414,672.734 L740.414,672.518 C740.414,671.858 740.318,671.246 740.126,670.682 C739.934,670.118 739.652,669.629 739.28,669.215 C738.908,668.801 738.446,668.477 737.894,668.243 C737.342,668.009 736.712,667.892 736.004,667.892 C735.332,667.892 734.717,668.018 734.159,668.27 C733.601,668.522 733.118,668.861 732.71,669.287 C732.302,669.713 731.984,670.211 731.756,670.781 C731.528,671.351 731.414,671.954 731.414,672.59 C731.414,673.274 731.531,673.901 731.765,674.471 C731.999,675.041 732.326,675.536 732.746,675.956 C733.166,676.376 733.661,676.703 734.231,676.937 C734.801,677.171 735.422,677.288 736.094,677.288 Z M738.128,671.456 L733.862,671.456 C734.018,670.94 734.288,670.538 734.672,670.25 C735.056,669.962 735.5,669.818 736.004,669.818 C736.364,669.818 736.673,669.872 736.931,669.98 C737.189,670.088 737.405,670.226 737.579,670.394 C737.753,670.562 737.885,670.742 737.975,670.934 C738.065,671.126 738.116,671.3 738.128,671.456 L738.128,671.456 Z" id="Extensionofvisionandexperience"></path>
            </g>
        </g>
    </g>
</svg>