<?xml version="1.0" encoding="UTF-8"?>
<svg width="116px" height="38px" viewBox="0 0 116 38" version="1.1" xmlns="http://www.w3.org/2000/svg" xmlns:xlink="http://www.w3.org/1999/xlink">
    <!-- Generator: Sketch 60.1 (88133) - https://sketch.com -->
    <title>Easily,simply,palpitate</title>
    <desc>Created with Sketch.</desc>
    <g id="Page-1" stroke="none" stroke-width="1" fill="none" fill-rule="evenodd">
        <g id="SquareLab_Draft-Copy-5" transform="translate(-1159.000000, -1830.000000)" fill="#FFFFFF" fill-rule="nonzero">
            <g id="Story_02" transform="translate(0.000000, 1080.000000)">
                <g id="Copy" transform="translate(560.000000, 484.240278)">
                    <path d="M608.468,278.856019 L608.468,276.552019 L602.726,276.552019 L602.726,273.564019 L607.892,273.564019 L607.892,271.260019 L602.726,271.260019 L602.726,268.272019 L608.468,268.272019 L608.468,265.968019 L600.296,265.968019 L600.296,278.856019 L608.468,278.856019 Z M614.606,279.126019 C615.578,279.126019 616.436,278.844019 617.18,278.280019 L617.18,278.280019 L617.18,278.856019 L619.484,278.856019 L619.484,270.036019 L617.18,270.036019 L617.18,270.612019 C616.868,270.336019 616.484,270.123019 616.028,269.973019 C615.572,269.823019 615.098,269.748019 614.606,269.748019 C613.766,269.748019 612.986,269.958019 612.266,270.378019 C611.546,270.798019 610.973,271.368019 610.547,272.088019 C610.121,272.808019 609.908,273.594019 609.908,274.446019 C609.908,275.298019 610.121,276.081019 610.547,276.795019 C610.973,277.509019 611.546,278.076019 612.266,278.496019 C612.986,278.916019 613.766,279.126019 614.606,279.126019 Z M614.606,277.092019 C614.126,277.092019 613.682,276.972019 613.274,276.732019 C612.866,276.492019 612.542,276.168019 612.302,275.760019 C612.062,275.352019 611.942,274.908019 611.942,274.428019 C611.942,273.948019 612.062,273.504019 612.302,273.096019 C612.542,272.688019 612.866,272.364019 613.274,272.124019 C613.682,271.884019 614.126,271.764019 614.606,271.764019 C615.086,271.764019 615.53,271.884019 615.938,272.124019 C616.346,272.364019 616.67,272.688019 616.91,273.096019 C617.15,273.504019 617.27,273.948019 617.27,274.428019 C617.27,274.908019 617.15,275.352019 616.91,275.760019 C616.67,276.168019 616.346,276.492019 615.938,276.732019 C615.53,276.972019 615.086,277.092019 614.606,277.092019 Z M624.884,279.144019 C625.448,279.144019 625.961,279.066019 626.423,278.910019 C626.885,278.754019 627.281,278.541019 627.611,278.271019 C627.941,278.001019 628.196,277.692019 628.376,277.344019 C628.556,276.996019 628.646,276.630019 628.646,276.246019 C628.646,275.598019 628.427,275.037019 627.989,274.563019 C627.551,274.089019 626.882,273.744019 625.982,273.528019 L625.982,273.528019 L624.632,273.204019 C624.272,273.108019 623.987,273.000019 623.777,272.880019 C623.567,272.760019 623.462,272.598019 623.462,272.394019 C623.462,272.178019 623.588,272.001019 623.84,271.863019 C624.092,271.725019 624.386,271.656019 624.722,271.656019 C625.046,271.656019 625.37,271.734019 625.694,271.890019 C626.018,272.046019 626.264,272.298019 626.432,272.646019 L626.432,272.646019 L628.466,271.818019 C628.154,271.098019 627.668,270.573019 627.008,270.243019 C626.348,269.913019 625.598,269.748019 624.758,269.748019 C624.254,269.748019 623.783,269.811019 623.345,269.937019 C622.907,270.063019 622.526,270.243019 622.202,270.477019 C621.878,270.711019 621.623,270.996019 621.437,271.332019 C621.251,271.668019 621.158,272.052019 621.158,272.484019 C621.158,272.868019 621.236,273.204019 621.392,273.492019 C621.548,273.780019 621.746,274.026019 621.986,274.230019 C622.226,274.434019 622.493,274.602019 622.787,274.734019 C623.081,274.866019 623.366,274.962019 623.642,275.022019 L623.642,275.022019 L624.884,275.292019 C625.4,275.412019 625.763,275.547019 625.973,275.697019 C626.183,275.847019 626.288,276.042019 626.288,276.282019 C626.288,276.498019 626.162,276.684019 625.91,276.840019 C625.658,276.996019 625.316,277.074019 624.884,277.074019 C624.464,277.074019 624.083,276.963019 623.741,276.741019 C623.399,276.519019 623.126,276.180019 622.922,275.724019 L622.922,275.724019 L620.816,276.624019 C620.936,276.936019 621.11,277.245019 621.338,277.551019 C621.566,277.857019 621.845,278.127019 622.175,278.361019 C622.505,278.595019 622.895,278.784019 623.345,278.928019 C623.795,279.072019 624.308,279.144019 624.884,279.144019 Z M632.588,268.326019 L632.588,265.968019 L630.23,265.968019 L630.23,268.326019 L632.588,268.326019 Z M632.588,278.856019 L632.588,270.036019 L630.23,270.036019 L630.23,278.856019 L632.588,278.856019 Z M637.106,278.856019 L637.106,265.968019 L634.748,265.968019 L634.748,278.856019 L637.106,278.856019 Z M642.47,282.744019 L647.996,270.036019 L645.368,270.036019 L643.226,275.382019 L643.1,275.382019 L640.868,270.036019 L638.186,270.036019 L641.894,278.424019 L639.932,282.744019 L642.47,282.744019 Z M650.354,281.394019 C650.822,280.782019 651.158,280.188019 651.362,279.612019 C651.566,279.036019 651.668,278.358019 651.668,277.578019 L651.668,276.516019 L649.31,276.552019 L649.31,278.910019 L650.264,278.910019 C650.18,279.294019 650.084,279.603019 649.976,279.837019 C649.868,280.071019 649.769,280.260019 649.679,280.404019 C649.589,280.548019 649.532,280.644019 649.508,280.692019 L650.354,281.394019 Z M661.406,279.144019 C661.97,279.144019 662.483,279.066019 662.945,278.910019 C663.407,278.754019 663.803,278.541019 664.133,278.271019 C664.463,278.001019 664.718,277.692019 664.898,277.344019 C665.078,276.996019 665.168,276.630019 665.168,276.246019 C665.168,275.598019 664.949,275.037019 664.511,274.563019 C664.073,274.089019 663.404,273.744019 662.504,273.528019 L662.504,273.528019 L661.154,273.204019 C660.794,273.108019 660.509,273.000019 660.299,272.880019 C660.089,272.760019 659.984,272.598019 659.984,272.394019 C659.984,272.178019 660.11,272.001019 660.362,271.863019 C660.614,271.725019 660.908,271.656019 661.244,271.656019 C661.568,271.656019 661.892,271.734019 662.216,271.890019 C662.54,272.046019 662.786,272.298019 662.954,272.646019 L662.954,272.646019 L664.988,271.818019 C664.676,271.098019 664.19,270.573019 663.53,270.243019 C662.87,269.913019 662.12,269.748019 661.28,269.748019 C660.776,269.748019 660.305,269.811019 659.867,269.937019 C659.429,270.063019 659.048,270.243019 658.724,270.477019 C658.4,270.711019 658.145,270.996019 657.959,271.332019 C657.773,271.668019 657.68,272.052019 657.68,272.484019 C657.68,272.868019 657.758,273.204019 657.914,273.492019 C658.07,273.780019 658.268,274.026019 658.508,274.230019 C658.748,274.434019 659.015,274.602019 659.309,274.734019 C659.603,274.866019 659.888,274.962019 660.164,275.022019 L660.164,275.022019 L661.406,275.292019 C661.922,275.412019 662.285,275.547019 662.495,275.697019 C662.705,275.847019 662.81,276.042019 662.81,276.282019 C662.81,276.498019 662.684,276.684019 662.432,276.840019 C662.18,276.996019 661.838,277.074019 661.406,277.074019 C660.986,277.074019 660.605,276.963019 660.263,276.741019 C659.921,276.519019 659.648,276.180019 659.444,275.724019 L659.444,275.724019 L657.338,276.624019 C657.458,276.936019 657.632,277.245019 657.86,277.551019 C658.088,277.857019 658.367,278.127019 658.697,278.361019 C659.027,278.595019 659.417,278.784019 659.867,278.928019 C660.317,279.072019 660.83,279.144019 661.406,279.144019 Z M669.11,268.326019 L669.11,265.968019 L666.752,265.968019 L666.752,268.326019 L669.11,268.326019 Z M669.11,278.856019 L669.11,270.036019 L666.752,270.036019 L666.752,278.856019 L669.11,278.856019 Z M673.628,278.856019 L673.628,274.572019 C673.628,274.200019 673.67,273.852019 673.754,273.528019 C673.838,273.204019 673.958,272.925019 674.114,272.691019 C674.27,272.457019 674.462,272.271019 674.69,272.133019 C674.918,271.995019 675.182,271.926019 675.482,271.926019 C676.514,271.926019 677.03,272.526019 677.03,273.726019 L677.03,273.726019 L677.03,278.856019 L679.388,278.856019 L679.388,274.572019 C679.388,274.200019 679.433,273.852019 679.523,273.528019 C679.613,273.204019 679.739,272.925019 679.901,272.691019 C680.063,272.457019 680.264,272.271019 680.504,272.133019 C680.744,271.995019 681.02,271.926019 681.332,271.926019 C682.316,271.926019 682.808,272.526019 682.808,273.726019 L682.808,273.726019 L682.808,278.856019 L685.166,278.856019 L685.166,273.294019 C685.166,272.778019 685.1,272.301019 684.968,271.863019 C684.836,271.425019 684.641,271.050019 684.383,270.738019 C684.125,270.426019 683.798,270.183019 683.402,270.009019 C683.006,269.835019 682.538,269.748019 681.998,269.748019 C681.278,269.748019 680.666,269.907019 680.162,270.225019 C679.658,270.543019 679.268,270.924019 678.992,271.368019 C678.8,270.912019 678.476,270.528019 678.02,270.216019 C677.564,269.904019 677,269.748019 676.328,269.748019 C675.752,269.748019 675.227,269.880019 674.753,270.144019 C674.279,270.408019 673.904,270.756019 673.628,271.188019 L673.628,271.188019 L673.484,271.188019 L673.484,270.036019 L671.27,270.036019 L671.27,278.856019 L673.628,278.856019 Z M689.198,282.906019 L689.198,278.262019 C689.51,278.538019 689.894,278.751019 690.35,278.901019 C690.806,279.051019 691.28,279.126019 691.772,279.126019 C692.612,279.126019 693.392,278.916019 694.112,278.496019 C694.832,278.076019 695.405,277.506019 695.831,276.786019 C696.257,276.066019 696.47,275.280019 696.47,274.428019 C696.47,273.576019 696.257,272.793019 695.831,272.079019 C695.405,271.365019 694.832,270.798019 694.112,270.378019 C693.392,269.958019 692.612,269.748019 691.772,269.748019 C690.8,269.748019 689.942,270.030019 689.198,270.594019 L689.198,270.594019 L689.198,270.018019 L686.894,270.018019 L686.894,282.906019 L689.198,282.906019 Z M691.772,277.092019 C691.292,277.092019 690.848,276.972019 690.44,276.732019 C690.032,276.492019 689.708,276.168019 689.468,275.760019 C689.228,275.352019 689.108,274.908019 689.108,274.428019 C689.108,273.948019 689.228,273.504019 689.468,273.096019 C689.708,272.688019 690.032,272.364019 690.44,272.124019 C690.848,271.884019 691.292,271.764019 691.772,271.764019 C692.252,271.764019 692.696,271.884019 693.104,272.124019 C693.512,272.364019 693.836,272.688019 694.076,273.096019 C694.316,273.504019 694.436,273.948019 694.436,274.428019 C694.436,274.908019 694.316,275.352019 694.076,275.760019 C693.836,276.168019 693.512,276.492019 693.104,276.732019 C692.696,276.972019 692.252,277.092019 691.772,277.092019 Z M700.196,278.856019 L700.196,265.968019 L697.838,265.968019 L697.838,278.856019 L700.196,278.856019 Z M705.56,282.744019 L711.086,270.036019 L708.458,270.036019 L706.316,275.382019 L706.19,275.382019 L703.958,270.036019 L701.276,270.036019 L704.984,278.424019 L703.022,282.744019 L705.56,282.744019 Z M713.444,281.394019 C713.912,280.782019 714.248,280.188019 714.452,279.612019 C714.656,279.036019 714.758,278.358019 714.758,277.578019 L714.758,276.516019 L712.4,276.552019 L712.4,278.910019 L713.354,278.910019 C713.27,279.294019 713.174,279.603019 713.066,279.837019 C712.958,280.071019 712.859,280.260019 712.769,280.404019 C712.679,280.548019 712.622,280.644019 712.598,280.692019 L713.444,281.394019 Z M602.096,302.906019 L602.096,298.262019 C602.408,298.538019 602.792,298.751019 603.248,298.901019 C603.704,299.051019 604.178,299.126019 604.67,299.126019 C605.51,299.126019 606.29,298.916019 607.01,298.496019 C607.73,298.076019 608.303,297.506019 608.729,296.786019 C609.155,296.066019 609.368,295.280019 609.368,294.428019 C609.368,293.576019 609.155,292.793019 608.729,292.079019 C608.303,291.365019 607.73,290.798019 607.01,290.378019 C606.29,289.958019 605.51,289.748019 604.67,289.748019 C603.698,289.748019 602.84,290.030019 602.096,290.594019 L602.096,290.594019 L602.096,290.018019 L599.792,290.018019 L599.792,302.906019 L602.096,302.906019 Z M604.67,297.092019 C604.19,297.092019 603.746,296.972019 603.338,296.732019 C602.93,296.492019 602.606,296.168019 602.366,295.760019 C602.126,295.352019 602.006,294.908019 602.006,294.428019 C602.006,293.948019 602.126,293.504019 602.366,293.096019 C602.606,292.688019 602.93,292.364019 603.338,292.124019 C603.746,291.884019 604.19,291.764019 604.67,291.764019 C605.15,291.764019 605.594,291.884019 606.002,292.124019 C606.41,292.364019 606.734,292.688019 606.974,293.096019 C607.214,293.504019 607.334,293.948019 607.334,294.428019 C607.334,294.908019 607.214,295.352019 606.974,295.760019 C606.734,296.168019 606.41,296.492019 606.002,296.732019 C605.594,296.972019 605.15,297.092019 604.67,297.092019 Z M614.93,299.126019 C615.902,299.126019 616.76,298.844019 617.504,298.280019 L617.504,298.280019 L617.504,298.856019 L619.808,298.856019 L619.808,290.036019 L617.504,290.036019 L617.504,290.612019 C617.192,290.336019 616.808,290.123019 616.352,289.973019 C615.896,289.823019 615.422,289.748019 614.93,289.748019 C614.09,289.748019 613.31,289.958019 612.59,290.378019 C611.87,290.798019 611.297,291.368019 610.871,292.088019 C610.445,292.808019 610.232,293.594019 610.232,294.446019 C610.232,295.298019 610.445,296.081019 610.871,296.795019 C611.297,297.509019 611.87,298.076019 612.59,298.496019 C613.31,298.916019 614.09,299.126019 614.93,299.126019 Z M614.93,297.092019 C614.45,297.092019 614.006,296.972019 613.598,296.732019 C613.19,296.492019 612.866,296.168019 612.626,295.760019 C612.386,295.352019 612.266,294.908019 612.266,294.428019 C612.266,293.948019 612.386,293.504019 612.626,293.096019 C612.866,292.688019 613.19,292.364019 613.598,292.124019 C614.006,291.884019 614.45,291.764019 614.93,291.764019 C615.41,291.764019 615.854,291.884019 616.262,292.124019 C616.67,292.364019 616.994,292.688019 617.234,293.096019 C617.474,293.504019 617.594,293.948019 617.594,294.428019 C617.594,294.908019 617.474,295.352019 617.234,295.760019 C616.994,296.168019 616.67,296.492019 616.262,296.732019 C615.854,296.972019 615.41,297.092019 614.93,297.092019 Z M624.074,298.856019 L624.074,285.968019 L621.716,285.968019 L621.716,298.856019 L624.074,298.856019 Z M628.178,302.906019 L628.178,298.262019 C628.49,298.538019 628.874,298.751019 629.33,298.901019 C629.786,299.051019 630.26,299.126019 630.752,299.126019 C631.592,299.126019 632.372,298.916019 633.092,298.496019 C633.812,298.076019 634.385,297.506019 634.811,296.786019 C635.237,296.066019 635.45,295.280019 635.45,294.428019 C635.45,293.576019 635.237,292.793019 634.811,292.079019 C634.385,291.365019 633.812,290.798019 633.092,290.378019 C632.372,289.958019 631.592,289.748019 630.752,289.748019 C629.78,289.748019 628.922,290.030019 628.178,290.594019 L628.178,290.594019 L628.178,290.018019 L625.874,290.018019 L625.874,302.906019 L628.178,302.906019 Z M630.752,297.092019 C630.272,297.092019 629.828,296.972019 629.42,296.732019 C629.012,296.492019 628.688,296.168019 628.448,295.760019 C628.208,295.352019 628.088,294.908019 628.088,294.428019 C628.088,293.948019 628.208,293.504019 628.448,293.096019 C628.688,292.688019 629.012,292.364019 629.42,292.124019 C629.828,291.884019 630.272,291.764019 630.752,291.764019 C631.232,291.764019 631.676,291.884019 632.084,292.124019 C632.492,292.364019 632.816,292.688019 633.056,293.096019 C633.296,293.504019 633.416,293.948019 633.416,294.428019 C633.416,294.908019 633.296,295.352019 633.056,295.760019 C632.816,296.168019 632.492,296.492019 632.084,296.732019 C631.676,296.972019 631.232,297.092019 630.752,297.092019 Z M639.32,288.326019 L639.32,285.968019 L636.962,285.968019 L636.962,288.326019 L639.32,288.326019 Z M639.32,298.856019 L639.32,290.036019 L636.962,290.036019 L636.962,298.856019 L639.32,298.856019 Z M645.386,299.000019 C645.77,299.000019 646.121,298.967019 646.439,298.901019 C646.757,298.835019 647.054,298.736019 647.33,298.604019 L647.33,298.604019 L646.664,296.534019 C646.556,296.606019 646.442,296.663019 646.322,296.705019 C646.202,296.747019 646.04,296.768019 645.836,296.768019 C645.524,296.768019 645.284,296.672019 645.116,296.480019 C644.996,296.360019 644.915,296.213019 644.873,296.039019 C644.831,295.865019 644.81,295.676019 644.81,295.472019 L644.81,295.472019 L644.81,292.052019 L646.97,292.052019 L646.97,290.036019 L644.81,290.036019 L644.81,287.336019 L642.452,287.336019 L642.452,290.036019 L640.904,290.036019 L640.904,292.052019 L642.452,292.052019 L642.452,295.922019 C642.452,296.918019 642.734,297.686019 643.298,298.226019 C643.538,298.466019 643.835,298.655019 644.189,298.793019 C644.543,298.931019 644.942,299.000019 645.386,299.000019 Z M652.892,299.126019 C653.864,299.126019 654.722,298.844019 655.466,298.280019 L655.466,298.280019 L655.466,298.856019 L657.77,298.856019 L657.77,290.036019 L655.466,290.036019 L655.466,290.612019 C655.154,290.336019 654.77,290.123019 654.314,289.973019 C653.858,289.823019 653.384,289.748019 652.892,289.748019 C652.052,289.748019 651.272,289.958019 650.552,290.378019 C649.832,290.798019 649.259,291.368019 648.833,292.088019 C648.407,292.808019 648.194,293.594019 648.194,294.446019 C648.194,295.298019 648.407,296.081019 648.833,296.795019 C649.259,297.509019 649.832,298.076019 650.552,298.496019 C651.272,298.916019 652.052,299.126019 652.892,299.126019 Z M652.892,297.092019 C652.412,297.092019 651.968,296.972019 651.56,296.732019 C651.152,296.492019 650.828,296.168019 650.588,295.760019 C650.348,295.352019 650.228,294.908019 650.228,294.428019 C650.228,293.948019 650.348,293.504019 650.588,293.096019 C650.828,292.688019 651.152,292.364019 651.56,292.124019 C651.968,291.884019 652.412,291.764019 652.892,291.764019 C653.372,291.764019 653.816,291.884019 654.224,292.124019 C654.632,292.364019 654.956,292.688019 655.196,293.096019 C655.436,293.504019 655.556,293.948019 655.556,294.428019 C655.556,294.908019 655.436,295.352019 655.196,295.760019 C654.956,296.168019 654.632,296.492019 654.224,296.732019 C653.816,296.972019 653.372,297.092019 652.892,297.092019 Z M663.584,299.000019 C663.968,299.000019 664.319,298.967019 664.637,298.901019 C664.955,298.835019 665.252,298.736019 665.528,298.604019 L665.528,298.604019 L664.862,296.534019 C664.754,296.606019 664.64,296.663019 664.52,296.705019 C664.4,296.747019 664.238,296.768019 664.034,296.768019 C663.722,296.768019 663.482,296.672019 663.314,296.480019 C663.194,296.360019 663.113,296.213019 663.071,296.039019 C663.029,295.865019 663.008,295.676019 663.008,295.472019 L663.008,295.472019 L663.008,292.052019 L665.168,292.052019 L665.168,290.036019 L663.008,290.036019 L663.008,287.336019 L660.65,287.336019 L660.65,290.036019 L659.102,290.036019 L659.102,292.052019 L660.65,292.052019 L660.65,295.922019 C660.65,296.918019 660.932,297.686019 661.496,298.226019 C661.736,298.466019 662.033,298.655019 662.387,298.793019 C662.741,298.931019 663.14,299.000019 663.584,299.000019 Z M671.072,299.144019 C672.068,299.144019 672.911,298.922019 673.601,298.478019 C674.291,298.034019 674.84,297.452019 675.248,296.732019 L675.248,296.732019 L673.286,295.760019 C673.082,296.132019 672.803,296.441019 672.449,296.687019 C672.095,296.933019 671.648,297.056019 671.108,297.056019 C670.832,297.056019 670.562,297.017019 670.298,296.939019 C670.034,296.861019 669.791,296.735019 669.569,296.561019 C669.347,296.387019 669.161,296.171019 669.011,295.913019 C668.861,295.655019 668.762,295.346019 668.714,294.986019 L668.714,294.986019 L675.356,294.986019 C675.356,294.914019 675.362,294.848019 675.374,294.788019 C675.374,294.728019 675.38,294.662019 675.392,294.590019 L675.392,294.590019 L675.392,294.374019 C675.392,293.714019 675.296,293.102019 675.104,292.538019 C674.912,291.974019 674.63,291.485019 674.258,291.071019 C673.886,290.657019 673.424,290.333019 672.872,290.099019 C672.32,289.865019 671.69,289.748019 670.982,289.748019 C670.31,289.748019 669.695,289.874019 669.137,290.126019 C668.579,290.378019 668.096,290.717019 667.688,291.143019 C667.28,291.569019 666.962,292.067019 666.734,292.637019 C666.506,293.207019 666.392,293.810019 666.392,294.446019 C666.392,295.130019 666.509,295.757019 666.743,296.327019 C666.977,296.897019 667.304,297.392019 667.724,297.812019 C668.144,298.232019 668.639,298.559019 669.209,298.793019 C669.779,299.027019 670.4,299.144019 671.072,299.144019 Z M673.106,293.312019 L668.84,293.312019 C668.996,292.796019 669.266,292.394019 669.65,292.106019 C670.034,291.818019 670.478,291.674019 670.982,291.674019 C671.342,291.674019 671.651,291.728019 671.909,291.836019 C672.167,291.944019 672.383,292.082019 672.557,292.250019 C672.731,292.418019 672.863,292.598019 672.953,292.790019 C673.043,292.982019 673.094,293.156019 673.106,293.312019 L673.106,293.312019 Z" id="Easily,simply,palpitate"></path>
                </g>
            </g>
        </g>
    </g>
</svg>