<?xml version="1.0" encoding="UTF-8"?>
<svg width="144px" height="38px" viewBox="0 0 144 38" version="1.1" xmlns="http://www.w3.org/2000/svg" xmlns:xlink="http://www.w3.org/1999/xlink">
    <!-- Generator: Sketch 60.1 (88133) - https://sketch.com -->
    <title>Travel-optimizedtechniques</title>
    <desc>Created with Sketch.</desc>
    <g id="Page-1" stroke="none" stroke-width="1" fill="none" fill-rule="evenodd">
        <g id="SquareLab_Draft-Copy-5" transform="translate(-1173.000000, -2901.000000)" fill="#FFFFFF" fill-rule="nonzero">
            <g id="Story_03" transform="translate(12.000000, 2148.000000)">
                <path d="M1167.462,766 L1167.462,755.416 L1171.062,755.416 L1171.062,753.112 L1161.432,753.112 L1161.432,755.416 L1165.032,755.416 L1165.032,766 L1167.462,766 Z M1175.076,766 L1175.076,762.508 C1175.076,761.872 1175.202,761.266 1175.454,760.69 C1175.658,760.246 1175.937,759.874 1176.291,759.574 C1176.645,759.274 1177.092,759.124 1177.632,759.124 C1177.836,759.124 1178.076,759.154 1178.352,759.214 L1178.352,759.214 L1178.352,757.144 C1178.184,757.096 1178.058,757.066 1177.974,757.054 C1177.806,757.03 1177.68,757.018 1177.596,757.018 C1177.032,757.018 1176.528,757.156 1176.084,757.432 C1175.64,757.708 1175.304,758.086 1175.076,758.566 L1175.076,758.566 L1175.076,757.198 L1172.754,757.198 L1172.754,766 L1175.076,766 Z M1184.022,766.27 C1184.994,766.27 1185.852,765.988 1186.596,765.424 L1186.596,765.424 L1186.596,766 L1188.9,766 L1188.9,757.18 L1186.596,757.18 L1186.596,757.756 C1186.284,757.48 1185.9,757.267 1185.444,757.117 C1184.988,756.967 1184.514,756.892 1184.022,756.892 C1183.182,756.892 1182.402,757.102 1181.682,757.522 C1180.962,757.942 1180.389,758.512 1179.963,759.232 C1179.537,759.952 1179.324,760.738 1179.324,761.59 C1179.324,762.442 1179.537,763.225 1179.963,763.939 C1180.389,764.653 1180.962,765.22 1181.682,765.64 C1182.402,766.06 1183.182,766.27 1184.022,766.27 Z M1184.022,764.236 C1183.542,764.236 1183.098,764.116 1182.69,763.876 C1182.282,763.636 1181.958,763.312 1181.718,762.904 C1181.478,762.496 1181.358,762.052 1181.358,761.572 C1181.358,761.092 1181.478,760.648 1181.718,760.24 C1181.958,759.832 1182.282,759.508 1182.69,759.268 C1183.098,759.028 1183.542,758.908 1184.022,758.908 C1184.502,758.908 1184.946,759.028 1185.354,759.268 C1185.762,759.508 1186.086,759.832 1186.326,760.24 C1186.566,760.648 1186.686,761.092 1186.686,761.572 C1186.686,762.052 1186.566,762.496 1186.326,762.904 C1186.086,763.312 1185.762,763.636 1185.354,763.876 C1184.946,764.116 1184.502,764.236 1184.022,764.236 Z M1195.956,766 L1199.754,757.18 L1197.09,757.18 L1194.876,762.796 L1194.75,762.796 L1192.554,757.18 L1189.872,757.18 L1193.634,766 L1195.956,766 Z M1205.01,766.288 C1206.006,766.288 1206.849,766.066 1207.539,765.622 C1208.229,765.178 1208.778,764.596 1209.186,763.876 L1209.186,763.876 L1207.224,762.904 C1207.02,763.276 1206.741,763.585 1206.387,763.831 C1206.033,764.077 1205.586,764.2 1205.046,764.2 C1204.77,764.2 1204.5,764.161 1204.236,764.083 C1203.972,764.005 1203.729,763.879 1203.507,763.705 C1203.285,763.531 1203.099,763.315 1202.949,763.057 C1202.799,762.799 1202.7,762.49 1202.652,762.13 L1202.652,762.13 L1209.294,762.13 C1209.294,762.058 1209.3,761.992 1209.312,761.932 C1209.312,761.872 1209.318,761.806 1209.33,761.734 L1209.33,761.734 L1209.33,761.518 C1209.33,760.858 1209.234,760.246 1209.042,759.682 C1208.85,759.118 1208.568,758.629 1208.196,758.215 C1207.824,757.801 1207.362,757.477 1206.81,757.243 C1206.258,757.009 1205.628,756.892 1204.92,756.892 C1204.248,756.892 1203.633,757.018 1203.075,757.27 C1202.517,757.522 1202.034,757.861 1201.626,758.287 C1201.218,758.713 1200.9,759.211 1200.672,759.781 C1200.444,760.351 1200.33,760.954 1200.33,761.59 C1200.33,762.274 1200.447,762.901 1200.681,763.471 C1200.915,764.041 1201.242,764.536 1201.662,764.956 C1202.082,765.376 1202.577,765.703 1203.147,765.937 C1203.717,766.171 1204.338,766.288 1205.01,766.288 Z M1207.044,760.456 L1202.778,760.456 C1202.934,759.94 1203.204,759.538 1203.588,759.25 C1203.972,758.962 1204.416,758.818 1204.92,758.818 C1205.28,758.818 1205.589,758.872 1205.847,758.98 C1206.105,759.088 1206.321,759.226 1206.495,759.394 C1206.669,759.562 1206.801,759.742 1206.891,759.934 C1206.981,760.126 1207.032,760.3 1207.044,760.456 L1207.044,760.456 Z M1213.2,766 L1213.2,753.112 L1210.842,753.112 L1210.842,766 L1213.2,766 Z M1221.318,761.464 L1221.318,759.376 L1215.216,759.376 L1215.216,761.464 L1221.318,761.464 Z M1227.51,766.288 C1228.35,766.288 1229.13,766.078 1229.85,765.658 C1230.57,765.238 1231.143,764.671 1231.569,763.957 C1231.995,763.243 1232.208,762.46 1232.208,761.608 C1232.208,760.756 1231.995,759.967 1231.569,759.241 C1231.143,758.515 1230.57,757.942 1229.85,757.522 C1229.13,757.102 1228.35,756.892 1227.51,756.892 C1226.658,756.892 1225.872,757.102 1225.152,757.522 C1224.432,757.942 1223.862,758.515 1223.442,759.241 C1223.022,759.967 1222.812,760.756 1222.812,761.608 C1222.812,762.46 1223.022,763.243 1223.442,763.957 C1223.862,764.671 1224.432,765.238 1225.152,765.658 C1225.872,766.078 1226.658,766.288 1227.51,766.288 Z M1227.51,764.164 C1227.042,764.164 1226.61,764.05 1226.214,763.822 C1225.818,763.594 1225.506,763.282 1225.278,762.886 C1225.05,762.49 1224.936,762.064 1224.936,761.608 C1224.936,761.14 1225.05,760.708 1225.278,760.312 C1225.506,759.916 1225.818,759.604 1226.214,759.376 C1226.61,759.148 1227.042,759.034 1227.51,759.034 C1227.978,759.034 1228.407,759.148 1228.797,759.376 C1229.187,759.604 1229.496,759.916 1229.724,760.312 C1229.952,760.708 1230.066,761.14 1230.066,761.608 C1230.066,762.064 1229.952,762.49 1229.724,762.886 C1229.496,763.282 1229.187,763.594 1228.797,763.822 C1228.407,764.05 1227.978,764.164 1227.51,764.164 Z M1235.79,770.05 L1235.79,765.406 C1236.102,765.682 1236.486,765.895 1236.942,766.045 C1237.398,766.195 1237.872,766.27 1238.364,766.27 C1239.204,766.27 1239.984,766.06 1240.704,765.64 C1241.424,765.22 1241.997,764.65 1242.423,763.93 C1242.849,763.21 1243.062,762.424 1243.062,761.572 C1243.062,760.72 1242.849,759.937 1242.423,759.223 C1241.997,758.509 1241.424,757.942 1240.704,757.522 C1239.984,757.102 1239.204,756.892 1238.364,756.892 C1237.392,756.892 1236.534,757.174 1235.79,757.738 L1235.79,757.738 L1235.79,757.162 L1233.486,757.162 L1233.486,770.05 L1235.79,770.05 Z M1238.364,764.236 C1237.884,764.236 1237.44,764.116 1237.032,763.876 C1236.624,763.636 1236.3,763.312 1236.06,762.904 C1235.82,762.496 1235.7,762.052 1235.7,761.572 C1235.7,761.092 1235.82,760.648 1236.06,760.24 C1236.3,759.832 1236.624,759.508 1237.032,759.268 C1237.44,759.028 1237.884,758.908 1238.364,758.908 C1238.844,758.908 1239.288,759.028 1239.696,759.268 C1240.104,759.508 1240.428,759.832 1240.668,760.24 C1240.908,760.648 1241.028,761.092 1241.028,761.572 C1241.028,762.052 1240.908,762.496 1240.668,762.904 C1240.428,763.312 1240.104,763.636 1239.696,763.876 C1239.288,764.116 1238.844,764.236 1238.364,764.236 Z M1248.336,766.144 C1248.72,766.144 1249.071,766.111 1249.389,766.045 C1249.707,765.979 1250.004,765.88 1250.28,765.748 L1250.28,765.748 L1249.614,763.678 C1249.506,763.75 1249.392,763.807 1249.272,763.849 C1249.152,763.891 1248.99,763.912 1248.786,763.912 C1248.474,763.912 1248.234,763.816 1248.066,763.624 C1247.946,763.504 1247.865,763.357 1247.823,763.183 C1247.781,763.009 1247.76,762.82 1247.76,762.616 L1247.76,762.616 L1247.76,759.196 L1249.92,759.196 L1249.92,757.18 L1247.76,757.18 L1247.76,754.48 L1245.402,754.48 L1245.402,757.18 L1243.854,757.18 L1243.854,759.196 L1245.402,759.196 L1245.402,763.066 C1245.402,764.062 1245.684,764.83 1246.248,765.37 C1246.488,765.61 1246.785,765.799 1247.139,765.937 C1247.493,766.075 1247.892,766.144 1248.336,766.144 Z M1254.15,755.47 L1254.15,753.112 L1251.792,753.112 L1251.792,755.47 L1254.15,755.47 Z M1254.15,766 L1254.15,757.18 L1251.792,757.18 L1251.792,766 L1254.15,766 Z M1258.668,766 L1258.668,761.716 C1258.668,761.344 1258.71,760.996 1258.794,760.672 C1258.878,760.348 1258.998,760.069 1259.154,759.835 C1259.31,759.601 1259.502,759.415 1259.73,759.277 C1259.958,759.139 1260.222,759.07 1260.522,759.07 C1261.554,759.07 1262.07,759.67 1262.07,760.87 L1262.07,760.87 L1262.07,766 L1264.428,766 L1264.428,761.716 C1264.428,761.344 1264.473,760.996 1264.563,760.672 C1264.653,760.348 1264.779,760.069 1264.941,759.835 C1265.103,759.601 1265.304,759.415 1265.544,759.277 C1265.784,759.139 1266.06,759.07 1266.372,759.07 C1267.356,759.07 1267.848,759.67 1267.848,760.87 L1267.848,760.87 L1267.848,766 L1270.206,766 L1270.206,760.438 C1270.206,759.922 1270.14,759.445 1270.008,759.007 C1269.876,758.569 1269.681,758.194 1269.423,757.882 C1269.165,757.57 1268.838,757.327 1268.442,757.153 C1268.046,756.979 1267.578,756.892 1267.038,756.892 C1266.318,756.892 1265.706,757.051 1265.202,757.369 C1264.698,757.687 1264.308,758.068 1264.032,758.512 C1263.84,758.056 1263.516,757.672 1263.06,757.36 C1262.604,757.048 1262.04,756.892 1261.368,756.892 C1260.792,756.892 1260.267,757.024 1259.793,757.288 C1259.319,757.552 1258.944,757.9 1258.668,758.332 L1258.668,758.332 L1258.524,758.332 L1258.524,757.18 L1256.31,757.18 L1256.31,766 L1258.668,766 Z M1274.652,755.47 L1274.652,753.112 L1272.294,753.112 L1272.294,755.47 L1274.652,755.47 Z M1274.652,766 L1274.652,757.18 L1272.294,757.18 L1272.294,766 L1274.652,766 Z M1283.85,766 L1283.85,763.984 L1279.278,763.984 L1283.778,759.124 L1283.778,757.18 L1276.524,757.18 L1276.524,759.196 L1280.88,759.196 L1276.38,764.056 L1276.38,766 L1283.85,766 Z M1289.61,766.288 C1290.606,766.288 1291.449,766.066 1292.139,765.622 C1292.829,765.178 1293.378,764.596 1293.786,763.876 L1293.786,763.876 L1291.824,762.904 C1291.62,763.276 1291.341,763.585 1290.987,763.831 C1290.633,764.077 1290.186,764.2 1289.646,764.2 C1289.37,764.2 1289.1,764.161 1288.836,764.083 C1288.572,764.005 1288.329,763.879 1288.107,763.705 C1287.885,763.531 1287.699,763.315 1287.549,763.057 C1287.399,762.799 1287.3,762.49 1287.252,762.13 L1287.252,762.13 L1293.894,762.13 C1293.894,762.058 1293.9,761.992 1293.912,761.932 C1293.912,761.872 1293.918,761.806 1293.93,761.734 L1293.93,761.734 L1293.93,761.518 C1293.93,760.858 1293.834,760.246 1293.642,759.682 C1293.45,759.118 1293.168,758.629 1292.796,758.215 C1292.424,757.801 1291.962,757.477 1291.41,757.243 C1290.858,757.009 1290.228,756.892 1289.52,756.892 C1288.848,756.892 1288.233,757.018 1287.675,757.27 C1287.117,757.522 1286.634,757.861 1286.226,758.287 C1285.818,758.713 1285.5,759.211 1285.272,759.781 C1285.044,760.351 1284.93,760.954 1284.93,761.59 C1284.93,762.274 1285.047,762.901 1285.281,763.471 C1285.515,764.041 1285.842,764.536 1286.262,764.956 C1286.682,765.376 1287.177,765.703 1287.747,765.937 C1288.317,766.171 1288.938,766.288 1289.61,766.288 Z M1291.644,760.456 L1287.378,760.456 C1287.534,759.94 1287.804,759.538 1288.188,759.25 C1288.572,758.962 1289.016,758.818 1289.52,758.818 C1289.88,758.818 1290.189,758.872 1290.447,758.98 C1290.705,759.088 1290.921,759.226 1291.095,759.394 C1291.269,759.562 1291.401,759.742 1291.491,759.934 C1291.581,760.126 1291.632,760.3 1291.644,760.456 L1291.644,760.456 Z M1299.456,766.27 C1300.428,766.27 1301.286,765.988 1302.03,765.424 L1302.03,765.424 L1302.03,766 L1304.334,766 L1304.334,753.112 L1302.03,753.112 L1302.03,757.756 C1301.718,757.48 1301.334,757.267 1300.878,757.117 C1300.422,756.967 1299.948,756.892 1299.456,756.892 C1298.616,756.892 1297.836,757.102 1297.116,757.522 C1296.396,757.942 1295.823,758.512 1295.397,759.232 C1294.971,759.952 1294.758,760.738 1294.758,761.59 C1294.758,762.442 1294.971,763.225 1295.397,763.939 C1295.823,764.653 1296.396,765.22 1297.116,765.64 C1297.836,766.06 1298.616,766.27 1299.456,766.27 Z M1299.456,764.236 C1298.976,764.236 1298.532,764.116 1298.124,763.876 C1297.716,763.636 1297.392,763.312 1297.152,762.904 C1296.912,762.496 1296.792,762.052 1296.792,761.572 C1296.792,761.092 1296.912,760.648 1297.152,760.24 C1297.392,759.832 1297.716,759.508 1298.124,759.268 C1298.532,759.028 1298.976,758.908 1299.456,758.908 C1299.936,758.908 1300.38,759.028 1300.788,759.268 C1301.196,759.508 1301.52,759.832 1301.76,760.24 C1302,760.648 1302.12,761.092 1302.12,761.572 C1302.12,762.052 1302,762.496 1301.76,762.904 C1301.52,763.312 1301.196,763.636 1300.788,763.876 C1300.38,764.116 1299.936,764.236 1299.456,764.236 Z M1165.914,786.144 C1166.298,786.144 1166.649,786.111 1166.967,786.045 C1167.285,785.979 1167.582,785.88 1167.858,785.748 L1167.858,785.748 L1167.192,783.678 C1167.084,783.75 1166.97,783.807 1166.85,783.849 C1166.73,783.891 1166.568,783.912 1166.364,783.912 C1166.052,783.912 1165.812,783.816 1165.644,783.624 C1165.524,783.504 1165.443,783.357 1165.401,783.183 C1165.359,783.009 1165.338,782.82 1165.338,782.616 L1165.338,782.616 L1165.338,779.196 L1167.498,779.196 L1167.498,777.18 L1165.338,777.18 L1165.338,774.48 L1162.98,774.48 L1162.98,777.18 L1161.432,777.18 L1161.432,779.196 L1162.98,779.196 L1162.98,783.066 C1162.98,784.062 1163.262,784.83 1163.826,785.37 C1164.066,785.61 1164.363,785.799 1164.717,785.937 C1165.071,786.075 1165.47,786.144 1165.914,786.144 Z M1173.402,786.288 C1174.398,786.288 1175.241,786.066 1175.931,785.622 C1176.621,785.178 1177.17,784.596 1177.578,783.876 L1177.578,783.876 L1175.616,782.904 C1175.412,783.276 1175.133,783.585 1174.779,783.831 C1174.425,784.077 1173.978,784.2 1173.438,784.2 C1173.162,784.2 1172.892,784.161 1172.628,784.083 C1172.364,784.005 1172.121,783.879 1171.899,783.705 C1171.677,783.531 1171.491,783.315 1171.341,783.057 C1171.191,782.799 1171.092,782.49 1171.044,782.13 L1171.044,782.13 L1177.686,782.13 C1177.686,782.058 1177.692,781.992 1177.704,781.932 C1177.704,781.872 1177.71,781.806 1177.722,781.734 L1177.722,781.734 L1177.722,781.518 C1177.722,780.858 1177.626,780.246 1177.434,779.682 C1177.242,779.118 1176.96,778.629 1176.588,778.215 C1176.216,777.801 1175.754,777.477 1175.202,777.243 C1174.65,777.009 1174.02,776.892 1173.312,776.892 C1172.64,776.892 1172.025,777.018 1171.467,777.27 C1170.909,777.522 1170.426,777.861 1170.018,778.287 C1169.61,778.713 1169.292,779.211 1169.064,779.781 C1168.836,780.351 1168.722,780.954 1168.722,781.59 C1168.722,782.274 1168.839,782.901 1169.073,783.471 C1169.307,784.041 1169.634,784.536 1170.054,784.956 C1170.474,785.376 1170.969,785.703 1171.539,785.937 C1172.109,786.171 1172.73,786.288 1173.402,786.288 Z M1175.436,780.456 L1171.17,780.456 C1171.326,779.94 1171.596,779.538 1171.98,779.25 C1172.364,778.962 1172.808,778.818 1173.312,778.818 C1173.672,778.818 1173.981,778.872 1174.239,778.98 C1174.497,779.088 1174.713,779.226 1174.887,779.394 C1175.061,779.562 1175.193,779.742 1175.283,779.934 C1175.373,780.126 1175.424,780.3 1175.436,780.456 L1175.436,780.456 Z M1183.41,786.288 C1184.442,786.288 1185.303,786.051 1185.993,785.577 C1186.683,785.103 1187.22,784.494 1187.604,783.75 L1187.604,783.75 L1185.444,782.814 C1185.24,783.234 1184.967,783.555 1184.625,783.777 C1184.283,783.999 1183.866,784.11 1183.374,784.11 C1183.062,784.11 1182.768,784.05 1182.492,783.93 C1182.216,783.81 1181.973,783.642 1181.763,783.426 C1181.553,783.21 1181.388,782.946 1181.268,782.634 C1181.148,782.322 1181.088,781.974 1181.088,781.59 C1181.088,781.206 1181.148,780.858 1181.268,780.546 C1181.388,780.234 1181.553,779.97 1181.763,779.754 C1181.973,779.538 1182.216,779.37 1182.492,779.25 C1182.768,779.13 1183.062,779.07 1183.374,779.07 C1183.854,779.07 1184.253,779.175 1184.571,779.385 C1184.889,779.595 1185.15,779.904 1185.354,780.312 L1185.354,780.312 L1187.514,779.412 C1187.19,778.668 1186.68,778.062 1185.984,777.594 C1185.288,777.126 1184.43,776.892 1183.41,776.892 C1182.726,776.892 1182.099,777.009 1181.529,777.243 C1180.959,777.477 1180.467,777.801 1180.053,778.215 C1179.639,778.629 1179.315,779.124 1179.081,779.7 C1178.847,780.276 1178.73,780.906 1178.73,781.59 C1178.73,782.274 1178.847,782.901 1179.081,783.471 C1179.315,784.041 1179.639,784.536 1180.053,784.956 C1180.467,785.376 1180.959,785.703 1181.529,785.937 C1182.099,786.171 1182.726,786.288 1183.41,786.288 Z M1191.384,786 L1191.384,780.996 C1191.384,780.708 1191.48,780.441 1191.672,780.195 C1191.864,779.949 1192.11,779.751 1192.41,779.601 C1192.71,779.451 1193.01,779.37 1193.31,779.358 C1193.766,779.37 1194.186,779.538 1194.57,779.862 C1194.954,780.186 1195.146,780.564 1195.146,780.996 L1195.146,786 L1197.468,786 L1197.468,780.996 C1197.468,780.276 1197.288,779.61 1196.928,778.998 C1196.568,778.386 1196.085,777.9 1195.479,777.54 C1194.873,777.18 1194.21,777 1193.49,777 C1192.746,777 1192.044,777.192 1191.384,777.576 L1191.384,773.112 L1189.044,773.112 L1189.044,786 L1191.384,786 Z M1201.734,786 L1201.734,781.68 C1201.734,781.32 1201.779,780.981 1201.869,780.663 C1201.959,780.345 1202.091,780.069 1202.265,779.835 C1202.439,779.601 1202.649,779.415 1202.895,779.277 C1203.141,779.139 1203.426,779.07 1203.75,779.07 C1204.29,779.07 1204.701,779.223 1204.983,779.529 C1205.265,779.835 1205.406,780.306 1205.406,780.942 L1205.406,780.942 L1205.406,786 L1207.764,786 L1207.764,780.654 C1207.764,780.09 1207.695,779.577 1207.557,779.115 C1207.419,778.653 1207.215,778.257 1206.945,777.927 C1206.675,777.597 1206.33,777.342 1205.91,777.162 C1205.49,776.982 1205.004,776.892 1204.452,776.892 C1203.852,776.892 1203.318,777.021 1202.85,777.279 C1202.382,777.537 1202.01,777.888 1201.734,778.332 L1201.734,778.332 L1201.59,778.332 L1201.59,777.18 L1199.376,777.18 L1199.376,786 L1201.734,786 Z M1212.21,775.47 L1212.21,773.112 L1209.852,773.112 L1209.852,775.47 L1212.21,775.47 Z M1212.21,786 L1212.21,777.18 L1209.852,777.18 L1209.852,786 L1212.21,786 Z M1223.298,790.05 L1223.298,777.162 L1220.994,777.162 L1220.994,777.738 C1220.25,777.174 1219.392,776.892 1218.42,776.892 C1217.58,776.892 1216.8,777.102 1216.08,777.522 C1215.36,777.942 1214.787,778.509 1214.361,779.223 C1213.935,779.937 1213.722,780.72 1213.722,781.572 C1213.722,782.424 1213.935,783.21 1214.361,783.93 C1214.787,784.65 1215.36,785.22 1216.08,785.64 C1216.8,786.06 1217.58,786.27 1218.42,786.27 C1218.912,786.27 1219.386,786.195 1219.842,786.045 C1220.298,785.895 1220.682,785.682 1220.994,785.406 L1220.994,785.406 L1220.994,790.05 L1223.298,790.05 Z M1218.42,784.236 C1217.94,784.236 1217.496,784.116 1217.088,783.876 C1216.68,783.636 1216.356,783.312 1216.116,782.904 C1215.876,782.496 1215.756,782.052 1215.756,781.572 C1215.756,781.092 1215.876,780.648 1216.116,780.24 C1216.356,779.832 1216.68,779.508 1217.088,779.268 C1217.496,779.028 1217.94,778.908 1218.42,778.908 C1218.9,778.908 1219.344,779.028 1219.752,779.268 C1220.16,779.508 1220.484,779.832 1220.724,780.24 C1220.964,780.648 1221.084,781.092 1221.084,781.572 C1221.084,782.052 1220.964,782.496 1220.724,782.904 C1220.484,783.312 1220.16,783.636 1219.752,783.876 C1219.344,784.116 1218.9,784.236 1218.42,784.236 Z M1228.212,786.288 C1228.476,786.288 1228.692,786.282 1228.86,786.27 C1229.436,786.222 1229.925,786.078 1230.327,785.838 C1230.729,785.598 1231.026,785.382 1231.218,785.19 L1231.218,785.19 L1231.218,786 L1233.414,786 L1233.414,777.18 L1231.074,777.18 L1231.074,781.518 C1231.074,781.854 1231.026,782.196 1230.93,782.544 C1230.834,782.868 1230.702,783.138 1230.534,783.354 C1230.366,783.606 1230.156,783.792 1229.904,783.912 C1229.676,784.056 1229.394,784.128 1229.058,784.128 C1228.518,784.128 1228.11,783.972 1227.834,783.66 C1227.546,783.348 1227.402,782.88 1227.402,782.256 L1227.402,782.256 L1227.402,777.18 L1225.062,777.18 L1225.062,782.544 C1225.062,783.684 1225.332,784.596 1225.872,785.28 C1226.424,785.952 1227.204,786.288 1228.212,786.288 Z M1239.606,786.288 C1240.602,786.288 1241.445,786.066 1242.135,785.622 C1242.825,785.178 1243.374,784.596 1243.782,783.876 L1243.782,783.876 L1241.82,782.904 C1241.616,783.276 1241.337,783.585 1240.983,783.831 C1240.629,784.077 1240.182,784.2 1239.642,784.2 C1239.366,784.2 1239.096,784.161 1238.832,784.083 C1238.568,784.005 1238.325,783.879 1238.103,783.705 C1237.881,783.531 1237.695,783.315 1237.545,783.057 C1237.395,782.799 1237.296,782.49 1237.248,782.13 L1237.248,782.13 L1243.89,782.13 C1243.89,782.058 1243.896,781.992 1243.908,781.932 C1243.908,781.872 1243.914,781.806 1243.926,781.734 L1243.926,781.734 L1243.926,781.518 C1243.926,780.858 1243.83,780.246 1243.638,779.682 C1243.446,779.118 1243.164,778.629 1242.792,778.215 C1242.42,777.801 1241.958,777.477 1241.406,777.243 C1240.854,777.009 1240.224,776.892 1239.516,776.892 C1238.844,776.892 1238.229,777.018 1237.671,777.27 C1237.113,777.522 1236.63,777.861 1236.222,778.287 C1235.814,778.713 1235.496,779.211 1235.268,779.781 C1235.04,780.351 1234.926,780.954 1234.926,781.59 C1234.926,782.274 1235.043,782.901 1235.277,783.471 C1235.511,784.041 1235.838,784.536 1236.258,784.956 C1236.678,785.376 1237.173,785.703 1237.743,785.937 C1238.313,786.171 1238.934,786.288 1239.606,786.288 Z M1241.64,780.456 L1237.374,780.456 C1237.53,779.94 1237.8,779.538 1238.184,779.25 C1238.568,778.962 1239.012,778.818 1239.516,778.818 C1239.876,778.818 1240.185,778.872 1240.443,778.98 C1240.701,779.088 1240.917,779.226 1241.091,779.394 C1241.265,779.562 1241.397,779.742 1241.487,779.934 C1241.577,780.126 1241.628,780.3 1241.64,780.456 L1241.64,780.456 Z M1248.93,786.288 C1249.494,786.288 1250.007,786.21 1250.469,786.054 C1250.931,785.898 1251.327,785.685 1251.657,785.415 C1251.987,785.145 1252.242,784.836 1252.422,784.488 C1252.602,784.14 1252.692,783.774 1252.692,783.39 C1252.692,782.742 1252.473,782.181 1252.035,781.707 C1251.597,781.233 1250.928,780.888 1250.028,780.672 L1250.028,780.672 L1248.678,780.348 C1248.318,780.252 1248.033,780.144 1247.823,780.024 C1247.613,779.904 1247.508,779.742 1247.508,779.538 C1247.508,779.322 1247.634,779.145 1247.886,779.007 C1248.138,778.869 1248.432,778.8 1248.768,778.8 C1249.092,778.8 1249.416,778.878 1249.74,779.034 C1250.064,779.19 1250.31,779.442 1250.478,779.79 L1250.478,779.79 L1252.512,778.962 C1252.2,778.242 1251.714,777.717 1251.054,777.387 C1250.394,777.057 1249.644,776.892 1248.804,776.892 C1248.3,776.892 1247.829,776.955 1247.391,777.081 C1246.953,777.207 1246.572,777.387 1246.248,777.621 C1245.924,777.855 1245.669,778.14 1245.483,778.476 C1245.297,778.812 1245.204,779.196 1245.204,779.628 C1245.204,780.012 1245.282,780.348 1245.438,780.636 C1245.594,780.924 1245.792,781.17 1246.032,781.374 C1246.272,781.578 1246.539,781.746 1246.833,781.878 C1247.127,782.01 1247.412,782.106 1247.688,782.166 L1247.688,782.166 L1248.93,782.436 C1249.446,782.556 1249.809,782.691 1250.019,782.841 C1250.229,782.991 1250.334,783.186 1250.334,783.426 C1250.334,783.642 1250.208,783.828 1249.956,783.984 C1249.704,784.14 1249.362,784.218 1248.93,784.218 C1248.51,784.218 1248.129,784.107 1247.787,783.885 C1247.445,783.663 1247.172,783.324 1246.968,782.868 L1246.968,782.868 L1244.862,783.768 C1244.982,784.08 1245.156,784.389 1245.384,784.695 C1245.612,785.001 1245.891,785.271 1246.221,785.505 C1246.551,785.739 1246.941,785.928 1247.391,786.072 C1247.841,786.216 1248.354,786.288 1248.93,786.288 Z" id="Travel-optimizedtechniques"></path>
            </g>
        </g>
    </g>
</svg>