<?xml version="1.0" encoding="UTF-8"?>
<svg width="22px" height="14px" viewBox="0 0 22 14" version="1.1" xmlns="http://www.w3.org/2000/svg" xmlns:xlink="http://www.w3.org/1999/xlink">
    <!-- Generator: Sketch 60.1 (88133) - https://sketch.com -->
    <title>03</title>
    <desc>Created with Sketch.</desc>
    <g id="Page-1" stroke="none" stroke-width="1" fill="none" fill-rule="evenodd">
        <g id="SquareLab_Draft-Copy-5" transform="translate(-972.000000, -2921.000000)" fill="#FFFFFF" fill-rule="nonzero">
            <g id="Story_03" transform="translate(12.000000, 2148.000000)">
                <path d="M965.958,786.288 C966.75,786.288 967.464,786.123 968.1,785.793 C968.736,785.463 969.279,785.01 969.729,784.434 C970.179,783.858 970.524,783.177 970.764,782.391 C971.004,781.605 971.124,780.756 971.124,779.844 C971.124,778.932 971.004,778.083 970.764,777.297 C970.524,776.511 970.179,775.83 969.729,775.254 C969.279,774.678 968.736,774.225 968.1,773.895 C967.464,773.565 966.75,773.4 965.958,773.4 C965.166,773.4 964.452,773.565 963.816,773.895 C963.18,774.225 962.637,774.678 962.187,775.254 C961.737,775.83 961.392,776.511 961.152,777.297 C960.912,778.083 960.792,778.932 960.792,779.844 C960.792,780.756 960.912,781.605 961.152,782.391 C961.392,783.177 961.737,783.858 962.187,784.434 C962.637,785.01 963.18,785.463 963.816,785.793 C964.452,786.123 965.166,786.288 965.958,786.288 Z M965.958,784.056 C965.514,784.056 965.118,783.951 964.77,783.741 C964.422,783.531 964.128,783.237 963.888,782.859 C963.648,782.481 963.465,782.034 963.339,781.518 C963.213,781.002 963.15,780.444 963.15,779.844 C963.15,779.232 963.213,778.671 963.339,778.161 C963.465,777.651 963.648,777.207 963.888,776.829 C964.128,776.451 964.422,776.157 964.77,775.947 C965.118,775.737 965.514,775.632 965.958,775.632 C966.39,775.632 966.78,775.737 967.128,775.947 C967.476,776.157 967.773,776.451 968.019,776.829 C968.265,777.207 968.451,777.651 968.577,778.161 C968.703,778.671 968.766,779.232 968.766,779.844 C968.766,780.444 968.703,781.002 968.577,781.518 C968.451,782.034 968.265,782.481 968.019,782.859 C967.773,783.237 967.476,783.531 967.128,783.741 C966.78,783.951 966.39,784.056 965.958,784.056 Z M976.974,786.288 C977.622,786.288 978.21,786.195 978.738,786.009 C979.266,785.823 979.719,785.562 980.097,785.226 C980.475,784.89 980.766,784.497 980.97,784.047 C981.174,783.597 981.276,783.102 981.276,782.562 C981.276,781.794 981.087,781.158 980.709,780.654 C980.331,780.15 979.854,779.784 979.278,779.556 L979.278,779.556 L979.278,779.412 C979.47,779.316 979.659,779.187 979.845,779.025 C980.031,778.863 980.196,778.668 980.34,778.44 C980.484,778.212 980.601,777.954 980.691,777.666 C980.781,777.378 980.826,777.054 980.826,776.694 C980.826,776.226 980.73,775.791 980.538,775.389 C980.346,774.987 980.076,774.639 979.728,774.345 C979.38,774.051 978.963,773.82 978.477,773.652 C977.991,773.484 977.454,773.4 976.866,773.4 C976.29,773.4 975.78,773.481 975.336,773.643 C974.892,773.805 974.505,774.015 974.175,774.273 C973.845,774.531 973.572,774.819 973.356,775.137 C973.14,775.455 972.978,775.764 972.87,776.064 L972.87,776.064 L975.03,776.946 C975.138,776.598 975.333,776.283 975.615,776.001 C975.897,775.719 976.302,775.578 976.83,775.578 C977.322,775.578 977.712,775.707 978,775.965 C978.288,776.223 978.432,776.556 978.432,776.964 C978.432,777.228 978.381,777.459 978.279,777.657 C978.177,777.855 978.039,778.017 977.865,778.143 C977.691,778.269 977.49,778.362 977.262,778.422 C977.034,778.482 976.8,778.512 976.56,778.512 L976.56,778.512 L975.588,778.512 L975.588,780.654 L976.65,780.654 C977.334,780.654 977.871,780.804 978.261,781.104 C978.651,781.404 978.846,781.818 978.846,782.346 C978.846,782.598 978.795,782.823 978.693,783.021 C978.591,783.219 978.456,783.39 978.288,783.534 C978.12,783.678 977.922,783.789 977.694,783.867 C977.466,783.945 977.226,783.984 976.974,783.984 C976.41,783.984 975.942,783.831 975.57,783.525 C975.198,783.219 974.934,782.766 974.778,782.166 L974.778,782.166 L972.564,783.048 C972.72,783.588 972.945,784.062 973.239,784.47 C973.533,784.878 973.872,785.217 974.256,785.487 C974.64,785.757 975.063,785.958 975.525,786.09 C975.987,786.222 976.47,786.288 976.974,786.288 Z" id="03"></path>
            </g>
        </g>
    </g>
</svg>