<?xml version="1.0" encoding="UTF-8"?>
<svg width="23px" height="14px" viewBox="0 0 23 14" version="1.1" xmlns="http://www.w3.org/2000/svg" xmlns:xlink="http://www.w3.org/1999/xlink">
    <!-- Generator: Sketch 60.1 (88133) - https://sketch.com -->
    <title>04</title>
    <desc>Created with Sketch.</desc>
    <g id="Page-1" stroke="none" stroke-width="1" fill="none" fill-rule="evenodd">
        <g id="SquareLab_Draft-Copy-5" transform="translate(-960.000000, -4002.000000)" fill="#FFFFFF" fill-rule="nonzero">
            <g id="Story_04" transform="translate(0.000000, 3228.000000)">
                <path d="M965.958,787.288 C966.75,787.288 967.464,787.123 968.1,786.793 C968.736,786.463 969.279,786.01 969.729,785.434 C970.179,784.858 970.524,784.177 970.764,783.391 C971.004,782.605 971.124,781.756 971.124,780.844 C971.124,779.932 971.004,779.083 970.764,778.297 C970.524,777.511 970.179,776.83 969.729,776.254 C969.279,775.678 968.736,775.225 968.1,774.895 C967.464,774.565 966.75,774.4 965.958,774.4 C965.166,774.4 964.452,774.565 963.816,774.895 C963.18,775.225 962.637,775.678 962.187,776.254 C961.737,776.83 961.392,777.511 961.152,778.297 C960.912,779.083 960.792,779.932 960.792,780.844 C960.792,781.756 960.912,782.605 961.152,783.391 C961.392,784.177 961.737,784.858 962.187,785.434 C962.637,786.01 963.18,786.463 963.816,786.793 C964.452,787.123 965.166,787.288 965.958,787.288 Z M965.958,785.056 C965.514,785.056 965.118,784.951 964.77,784.741 C964.422,784.531 964.128,784.237 963.888,783.859 C963.648,783.481 963.465,783.034 963.339,782.518 C963.213,782.002 963.15,781.444 963.15,780.844 C963.15,780.232 963.213,779.671 963.339,779.161 C963.465,778.651 963.648,778.207 963.888,777.829 C964.128,777.451 964.422,777.157 964.77,776.947 C965.118,776.737 965.514,776.632 965.958,776.632 C966.39,776.632 966.78,776.737 967.128,776.947 C967.476,777.157 967.773,777.451 968.019,777.829 C968.265,778.207 968.451,778.651 968.577,779.161 C968.703,779.671 968.766,780.232 968.766,780.844 C968.766,781.444 968.703,782.002 968.577,782.518 C968.451,783.034 968.265,783.481 968.019,783.859 C967.773,784.237 967.476,784.531 967.128,784.741 C966.78,784.951 966.39,785.056 965.958,785.056 Z M980.664,787 L980.664,784.732 L982.212,784.732 L982.212,782.536 L980.664,782.536 L980.664,774.688 L978.108,774.688 L972.636,782.824 L972.636,784.732 L978.324,784.732 L978.324,787 L980.664,787 Z M978.324,782.536 L975.246,782.536 L978.18,778.198 L978.324,778.198 L978.324,782.536 Z" id="04"></path>
            </g>
        </g>
    </g>
</svg>