<?xml version="1.0" encoding="UTF-8"?>
<svg width="649px" height="104px" viewBox="0 0 649 104" version="1.1" xmlns="http://www.w3.org/2000/svg" xmlns:xlink="http://www.w3.org/1999/xlink">
    <!-- Generator: Sketch 60.1 (88133) - https://sketch.com -->
    <title>Innovation</title>
    <desc>Created with Sketch.</desc>
    <g id="Page-1" stroke="none" stroke-width="1" fill="none" fill-rule="evenodd">
        <g id="SquareLab_Draft-Copy-5" transform="translate(-582.000000, -2661.000000)" fill="#FFFFFF" fill-rule="nonzero">
            <g id="Story_03" transform="translate(12.000000, 2148.000000)">
                <path d="M588.98,614 L588.98,513.76 L570.08,513.76 L570.08,614 L588.98,614 Z M621.786667,614 L621.786667,580.4 C621.786667,577.6 622.136667,574.963333 622.836667,572.49 C623.536667,570.016667 624.563333,567.87 625.916667,566.05 C627.27,564.23 628.903333,562.783333 630.816667,561.71 C632.73,560.636667 634.946667,560.1 637.466667,560.1 C641.666667,560.1 644.863333,561.29 647.056667,563.67 C649.25,566.05 650.346667,569.713333 650.346667,574.66 L650.346667,574.66 L650.346667,614 L668.686667,614 L668.686667,572.42 C668.686667,568.033333 668.15,564.043333 667.076667,560.45 C666.003333,556.856667 664.416667,553.776667 662.316667,551.21 C660.216667,548.643333 657.533333,546.66 654.266667,545.26 C651,543.86 647.22,543.16 642.926667,543.16 C638.26,543.16 634.106667,544.163333 630.466667,546.17 C626.826667,548.176667 623.933333,550.906667 621.786667,554.36 L621.786667,554.36 L620.666667,554.36 L620.666667,545.4 L603.446667,545.4 L603.446667,614 L621.786667,614 Z M698.693333,614 L698.693333,580.4 C698.693333,577.6 699.043333,574.963333 699.743333,572.49 C700.443333,570.016667 701.47,567.87 702.823333,566.05 C704.176667,564.23 705.81,562.783333 707.723333,561.71 C709.636667,560.636667 711.853333,560.1 714.373333,560.1 C718.573333,560.1 721.77,561.29 723.963333,563.67 C726.156667,566.05 727.253333,569.713333 727.253333,574.66 L727.253333,574.66 L727.253333,614 L745.593333,614 L745.593333,572.42 C745.593333,568.033333 745.056667,564.043333 743.983333,560.45 C742.91,556.856667 741.323333,553.776667 739.223333,551.21 C737.123333,548.643333 734.44,546.66 731.173333,545.26 C727.906667,543.86 724.126667,543.16 719.833333,543.16 C715.166667,543.16 711.013333,544.163333 707.373333,546.17 C703.733333,548.176667 700.84,550.906667 698.693333,554.36 L698.693333,554.36 L697.573333,554.36 L697.573333,545.4 L680.353333,545.4 L680.353333,614 L698.693333,614 Z M789.74,616.24 C796.273333,616.24 802.34,614.606667 807.94,611.34 C813.54,608.073333 817.996667,603.663333 821.31,598.11 C824.623333,592.556667 826.28,586.466667 826.28,579.84 C826.28,573.213333 824.623333,567.076667 821.31,561.43 C817.996667,555.783333 813.54,551.326667 807.94,548.06 C802.34,544.793333 796.273333,543.16 789.74,543.16 C783.113333,543.16 777,544.793333 771.4,548.06 C765.8,551.326667 761.366667,555.783333 758.1,561.43 C754.833333,567.076667 753.2,573.213333 753.2,579.84 C753.2,586.466667 754.833333,592.556667 758.1,598.11 C761.366667,603.663333 765.8,608.073333 771.4,611.34 C777,614.606667 783.113333,616.24 789.74,616.24 Z M789.74,599.72 C786.1,599.72 782.74,598.833333 779.66,597.06 C776.58,595.286667 774.153333,592.86 772.38,589.78 C770.606667,586.7 769.72,583.386667 769.72,579.84 C769.72,576.2 770.606667,572.84 772.38,569.76 C774.153333,566.68 776.58,564.253333 779.66,562.48 C782.74,560.706667 786.1,559.82 789.74,559.82 C793.38,559.82 796.716667,560.706667 799.75,562.48 C802.783333,564.253333 805.186667,566.68 806.96,569.76 C808.733333,572.84 809.62,576.2 809.62,579.84 C809.62,583.386667 808.733333,586.7 806.96,589.78 C805.186667,592.86 802.783333,595.286667 799.75,597.06 C796.716667,598.833333 793.38,599.72 789.74,599.72 Z M874.486667,614 L904.026667,545.4 L883.306667,545.4 L866.086667,589.08 L865.106667,589.08 L848.026667,545.4 L827.166667,545.4 L856.426667,614 L874.486667,614 Z M941.593333,616.1 C949.153333,616.1 955.826667,613.906667 961.613333,609.52 L961.613333,609.52 L961.613333,614 L979.533333,614 L979.533333,545.4 L961.613333,545.4 L961.613333,549.88 C959.186667,547.733333 956.2,546.076667 952.653333,544.91 C949.106667,543.743333 945.42,543.16 941.593333,543.16 C935.06,543.16 928.993333,544.793333 923.393333,548.06 C917.793333,551.326667 913.336667,555.76 910.023333,561.36 C906.71,566.96 905.053333,573.073333 905.053333,579.7 C905.053333,586.326667 906.71,592.416667 910.023333,597.97 C913.336667,603.523333 917.793333,607.933333 923.393333,611.2 C928.993333,614.466667 935.06,616.1 941.593333,616.1 Z M941.593333,600.28 C937.86,600.28 934.406667,599.346667 931.233333,597.48 C928.06,595.613333 925.54,593.093333 923.673333,589.92 C921.806667,586.746667 920.873333,583.293333 920.873333,579.56 C920.873333,575.826667 921.806667,572.373333 923.673333,569.2 C925.54,566.026667 928.06,563.506667 931.233333,561.64 C934.406667,559.773333 937.86,558.84 941.593333,558.84 C945.326667,558.84 948.78,559.773333 951.953333,561.64 C955.126667,563.506667 957.646667,566.026667 959.513333,569.2 C961.38,572.373333 962.313333,575.826667 962.313333,579.56 C962.313333,583.293333 961.38,586.746667 959.513333,589.92 C957.646667,593.093333 955.126667,595.613333 951.953333,597.48 C948.78,599.346667 945.326667,600.28 941.593333,600.28 Z M1021.3,615.12 C1024.28667,615.12 1027.01667,614.863333 1029.49,614.35 C1031.96333,613.836667 1034.27333,613.066667 1036.42,612.04 L1036.42,612.04 L1031.24,595.94 C1030.4,596.5 1029.51333,596.943333 1028.58,597.27 C1027.64667,597.596667 1026.38667,597.76 1024.8,597.76 C1022.37333,597.76 1020.50667,597.013333 1019.2,595.52 C1018.26667,594.586667 1017.63667,593.443333 1017.31,592.09 C1016.98333,590.736667 1016.82,589.266667 1016.82,587.68 L1016.82,587.68 L1016.82,561.08 L1033.62,561.08 L1033.62,545.4 L1016.82,545.4 L1016.82,524.4 L998.48,524.4 L998.48,545.4 L986.44,545.4 L986.44,561.08 L998.48,561.08 L998.48,591.18 C998.48,598.926667 1000.67333,604.9 1005.06,609.1 C1006.92667,610.966667 1009.23667,612.436667 1011.99,613.51 C1014.74333,614.583333 1017.84667,615.12 1021.3,615.12 Z M1063.06667,532.1 L1063.06667,513.76 L1044.72667,513.76 L1044.72667,532.1 L1063.06667,532.1 Z M1063.06667,614 L1063.06667,545.4 L1044.72667,545.4 L1044.72667,614 L1063.06667,614 Z M1108.89333,616.24 C1115.42667,616.24 1121.49333,614.606667 1127.09333,611.34 C1132.69333,608.073333 1137.15,603.663333 1140.46333,598.11 C1143.77667,592.556667 1145.43333,586.466667 1145.43333,579.84 C1145.43333,573.213333 1143.77667,567.076667 1140.46333,561.43 C1137.15,555.783333 1132.69333,551.326667 1127.09333,548.06 C1121.49333,544.793333 1115.42667,543.16 1108.89333,543.16 C1102.26667,543.16 1096.15333,544.793333 1090.55333,548.06 C1084.95333,551.326667 1080.52,555.783333 1077.25333,561.43 C1073.98667,567.076667 1072.35333,573.213333 1072.35333,579.84 C1072.35333,586.466667 1073.98667,592.556667 1077.25333,598.11 C1080.52,603.663333 1084.95333,608.073333 1090.55333,611.34 C1096.15333,614.606667 1102.26667,616.24 1108.89333,616.24 Z M1108.89333,599.72 C1105.25333,599.72 1101.89333,598.833333 1098.81333,597.06 C1095.73333,595.286667 1093.30667,592.86 1091.53333,589.78 C1089.76,586.7 1088.87333,583.386667 1088.87333,579.84 C1088.87333,576.2 1089.76,572.84 1091.53333,569.76 C1093.30667,566.68 1095.73333,564.253333 1098.81333,562.48 C1101.89333,560.706667 1105.25333,559.82 1108.89333,559.82 C1112.53333,559.82 1115.87,560.706667 1118.90333,562.48 C1121.93667,564.253333 1124.34,566.68 1126.11333,569.76 C1127.88667,572.84 1128.77333,576.2 1128.77333,579.84 C1128.77333,583.386667 1127.88667,586.7 1126.11333,589.78 C1124.34,592.86 1121.93667,595.286667 1118.90333,597.06 C1115.87,598.833333 1112.53333,599.72 1108.89333,599.72 Z M1171.94,614 L1171.94,580.4 C1171.94,577.6 1172.29,574.963333 1172.99,572.49 C1173.69,570.016667 1174.71667,567.87 1176.07,566.05 C1177.42333,564.23 1179.05667,562.783333 1180.97,561.71 C1182.88333,560.636667 1185.1,560.1 1187.62,560.1 C1191.82,560.1 1195.01667,561.29 1197.21,563.67 C1199.40333,566.05 1200.5,569.713333 1200.5,574.66 L1200.5,574.66 L1200.5,614 L1218.84,614 L1218.84,572.42 C1218.84,568.033333 1218.30333,564.043333 1217.23,560.45 C1216.15667,556.856667 1214.57,553.776667 1212.47,551.21 C1210.37,548.643333 1207.68667,546.66 1204.42,545.26 C1201.15333,543.86 1197.37333,543.16 1193.08,543.16 C1188.41333,543.16 1184.26,544.163333 1180.62,546.17 C1176.98,548.176667 1174.08667,550.906667 1171.94,554.36 L1171.94,554.36 L1170.82,554.36 L1170.82,545.4 L1153.6,545.4 L1153.6,614 L1171.94,614 Z" id="Innovation"></path>
            </g>
        </g>
    </g>
</svg>