<?xml version="1.0" encoding="UTF-8"?>
<svg width="615px" height="133px" viewBox="0 0 615 133" version="1.1" xmlns="http://www.w3.org/2000/svg" xmlns:xlink="http://www.w3.org/1999/xlink">
    <!-- Generator: Sketch 61 (89581) - https://sketch.com -->
    <title>Expension</title>
    <desc>Created with Sketch.</desc>
    <g id="Page-1" stroke="none" stroke-width="1" fill="none" fill-rule="evenodd">
        <g id="SquareLab_Draft-Copy-6" transform="translate(-970.000000, -3742.000000)" fill="#FFFFFF" fill-rule="nonzero">
            <g id="Story_04" transform="translate(0.000000, 3228.000000)">
                <path d="M1033.64,615 L1033.64,597.08 L988.98,597.08 L988.98,573.84 L1029.16,573.84 L1029.16,555.92 L988.98,555.92 L988.98,532.68 L1033.64,532.68 L1033.64,514.76 L970.08,514.76 L970.08,615 L1033.64,615 Z M1060.28667,615 L1072.74667,595.4 L1073.72667,595.4 L1086.60667,615 L1108.16667,615 L1084.08667,580.14 L1108.16667,546.4 L1085.76667,546.4 L1074.00667,565.44 L1073.02667,565.44 L1060.56667,546.4 L1038.86667,546.4 L1062.38667,580.14 L1038.58667,615 L1060.28667,615 Z M1130.05333,646.5 L1130.05333,610.38 C1132.48,612.526667 1135.46667,614.183333 1139.01333,615.35 C1142.56,616.516667 1146.24667,617.1 1150.07333,617.1 C1156.60667,617.1 1162.67333,615.466667 1168.27333,612.2 C1173.87333,608.933333 1178.33,604.5 1181.64333,598.9 C1184.95667,593.3 1186.61333,587.186667 1186.61333,580.56 C1186.61333,573.933333 1184.95667,567.843333 1181.64333,562.29 C1178.33,556.736667 1173.87333,552.326667 1168.27333,549.06 C1162.67333,545.793333 1156.60667,544.16 1150.07333,544.16 C1142.51333,544.16 1135.84,546.353333 1130.05333,550.74 L1130.05333,550.74 L1130.05333,546.26 L1112.13333,546.26 L1112.13333,646.5 L1130.05333,646.5 Z M1150.07333,601.28 C1146.34,601.28 1142.88667,600.346667 1139.71333,598.48 C1136.54,596.613333 1134.02,594.093333 1132.15333,590.92 C1130.28667,587.746667 1129.35333,584.293333 1129.35333,580.56 C1129.35333,576.826667 1130.28667,573.373333 1132.15333,570.2 C1134.02,567.026667 1136.54,564.506667 1139.71333,562.64 C1142.88667,560.773333 1146.34,559.84 1150.07333,559.84 C1153.80667,559.84 1157.26,560.773333 1160.43333,562.64 C1163.60667,564.506667 1166.12667,567.026667 1167.99333,570.2 C1169.86,573.373333 1170.79333,576.826667 1170.79333,580.56 C1170.79333,584.293333 1169.86,587.746667 1167.99333,590.92 C1166.12667,594.093333 1163.60667,596.613333 1160.43333,598.48 C1157.26,600.346667 1153.80667,601.28 1150.07333,601.28 Z M1226.28,617.24 C1234.02667,617.24 1240.58333,615.513333 1245.95,612.06 C1251.31667,608.606667 1255.58667,604.08 1258.76,598.48 L1258.76,598.48 L1243.5,590.92 C1241.91333,593.813333 1239.74333,596.216667 1236.99,598.13 C1234.23667,600.043333 1230.76,601 1226.56,601 C1224.41333,601 1222.31333,600.696667 1220.26,600.09 C1218.20667,599.483333 1216.31667,598.503333 1214.59,597.15 C1212.86333,595.796667 1211.41667,594.116667 1210.25,592.11 C1209.08333,590.103333 1208.31333,587.7 1207.94,584.9 L1207.94,584.9 L1259.6,584.9 C1259.6,584.34 1259.64667,583.826667 1259.74,583.36 C1259.74,582.893333 1259.78667,582.38 1259.88,581.82 L1259.88,581.82 L1259.88,580.14 C1259.88,575.006667 1259.13333,570.246667 1257.64,565.86 C1256.14667,561.473333 1253.95333,557.67 1251.06,554.45 C1248.16667,551.23 1244.57333,548.71 1240.28,546.89 C1235.98667,545.07 1231.08667,544.16 1225.58,544.16 C1220.35333,544.16 1215.57,545.14 1211.23,547.1 C1206.89,549.06 1203.13333,551.696667 1199.96,555.01 C1196.78667,558.323333 1194.31333,562.196667 1192.54,566.63 C1190.76667,571.063333 1189.88,575.753333 1189.88,580.7 C1189.88,586.02 1190.79,590.896667 1192.61,595.33 C1194.43,599.763333 1196.97333,603.613333 1200.24,606.88 C1203.50667,610.146667 1207.35667,612.69 1211.79,614.51 C1216.22333,616.33 1221.05333,617.24 1226.28,617.24 Z M1242.1,571.88 L1208.92,571.88 C1210.13333,567.866667 1212.23333,564.74 1215.22,562.5 C1218.20667,560.26 1221.66,559.14 1225.58,559.14 C1228.38,559.14 1230.78333,559.56 1232.79,560.4 C1234.79667,561.24 1236.47667,562.313333 1237.83,563.62 C1239.18333,564.926667 1240.21,566.326667 1240.91,567.82 C1241.61,569.313333 1242.00667,570.666667 1242.1,571.88 L1242.1,571.88 Z M1286.52667,615 L1286.52667,581.4 C1286.52667,578.6 1286.87667,575.963333 1287.57667,573.49 C1288.27667,571.016667 1289.30333,568.87 1290.65667,567.05 C1292.01,565.23 1293.64333,563.783333 1295.55667,562.71 C1297.47,561.636667 1299.68667,561.1 1302.20667,561.1 C1306.40667,561.1 1309.60333,562.29 1311.79667,564.67 C1313.99,567.05 1315.08667,570.713333 1315.08667,575.66 L1315.08667,575.66 L1315.08667,615 L1333.42667,615 L1333.42667,573.42 C1333.42667,569.033333 1332.89,565.043333 1331.81667,561.45 C1330.74333,557.856667 1329.15667,554.776667 1327.05667,552.21 C1324.95667,549.643333 1322.27333,547.66 1319.00667,546.26 C1315.74,544.86 1311.96,544.16 1307.66667,544.16 C1303,544.16 1298.84667,545.163333 1295.20667,547.17 C1291.56667,549.176667 1288.67333,551.906667 1286.52667,555.36 L1286.52667,555.36 L1285.40667,555.36 L1285.40667,546.4 L1268.18667,546.4 L1268.18667,615 L1286.52667,615 Z M1372.25333,617.24 C1376.64,617.24 1380.63,616.633333 1384.22333,615.42 C1387.81667,614.206667 1390.89667,612.55 1393.46333,610.45 C1396.03,608.35 1398.01333,605.946667 1399.41333,603.24 C1400.81333,600.533333 1401.51333,597.686667 1401.51333,594.7 C1401.51333,589.66 1399.81,585.296667 1396.40333,581.61 C1392.99667,577.923333 1387.79333,575.24 1380.79333,573.56 L1380.79333,573.56 L1370.29333,571.04 C1367.49333,570.293333 1365.27667,569.453333 1363.64333,568.52 C1362.01,567.586667 1361.19333,566.326667 1361.19333,564.74 C1361.19333,563.06 1362.17333,561.683333 1364.13333,560.61 C1366.09333,559.536667 1368.38,559 1370.99333,559 C1373.51333,559 1376.03333,559.606667 1378.55333,560.82 C1381.07333,562.033333 1382.98667,563.993333 1384.29333,566.7 L1384.29333,566.7 L1400.11333,560.26 C1397.68667,554.66 1393.90667,550.576667 1388.77333,548.01 C1383.64,545.443333 1377.80667,544.16 1371.27333,544.16 C1367.35333,544.16 1363.69,544.65 1360.28333,545.63 C1356.87667,546.61 1353.91333,548.01 1351.39333,549.83 C1348.87333,551.65 1346.89,553.866667 1345.44333,556.48 C1343.99667,559.093333 1343.27333,562.08 1343.27333,565.44 C1343.27333,568.426667 1343.88,571.04 1345.09333,573.28 C1346.30667,575.52 1347.84667,577.433333 1349.71333,579.02 C1351.58,580.606667 1353.65667,581.913333 1355.94333,582.94 C1358.23,583.966667 1360.44667,584.713333 1362.59333,585.18 L1362.59333,585.18 L1372.25333,587.28 C1376.26667,588.213333 1379.09,589.263333 1380.72333,590.43 C1382.35667,591.596667 1383.17333,593.113333 1383.17333,594.98 C1383.17333,596.66 1382.19333,598.106667 1380.23333,599.32 C1378.27333,600.533333 1375.61333,601.14 1372.25333,601.14 C1368.98667,601.14 1366.02333,600.276667 1363.36333,598.55 C1360.70333,596.823333 1358.58,594.186667 1356.99333,590.64 L1356.99333,590.64 L1340.61333,597.64 C1341.54667,600.066667 1342.9,602.47 1344.67333,604.85 C1346.44667,607.23 1348.61667,609.33 1351.18333,611.15 C1353.75,612.97 1356.78333,614.44 1360.28333,615.56 C1363.78333,616.68 1367.77333,617.24 1372.25333,617.24 Z M1428.72,533.1 L1428.72,514.76 L1410.38,514.76 L1410.38,533.1 L1428.72,533.1 Z M1428.72,615 L1428.72,546.4 L1410.38,546.4 L1410.38,615 L1428.72,615 Z M1474.54667,617.24 C1481.08,617.24 1487.14667,615.606667 1492.74667,612.34 C1498.34667,609.073333 1502.80333,604.663333 1506.11667,599.11 C1509.43,593.556667 1511.08667,587.466667 1511.08667,580.84 C1511.08667,574.213333 1509.43,568.076667 1506.11667,562.43 C1502.80333,556.783333 1498.34667,552.326667 1492.74667,549.06 C1487.14667,545.793333 1481.08,544.16 1474.54667,544.16 C1467.92,544.16 1461.80667,545.793333 1456.20667,549.06 C1450.60667,552.326667 1446.17333,556.783333 1442.90667,562.43 C1439.64,568.076667 1438.00667,574.213333 1438.00667,580.84 C1438.00667,587.466667 1439.64,593.556667 1442.90667,599.11 C1446.17333,604.663333 1450.60667,609.073333 1456.20667,612.34 C1461.80667,615.606667 1467.92,617.24 1474.54667,617.24 Z M1474.54667,600.72 C1470.90667,600.72 1467.54667,599.833333 1464.46667,598.06 C1461.38667,596.286667 1458.96,593.86 1457.18667,590.78 C1455.41333,587.7 1454.52667,584.386667 1454.52667,580.84 C1454.52667,577.2 1455.41333,573.84 1457.18667,570.76 C1458.96,567.68 1461.38667,565.253333 1464.46667,563.48 C1467.54667,561.706667 1470.90667,560.82 1474.54667,560.82 C1478.18667,560.82 1481.52333,561.706667 1484.55667,563.48 C1487.59,565.253333 1489.99333,567.68 1491.76667,570.76 C1493.54,573.84 1494.42667,577.2 1494.42667,580.84 C1494.42667,584.386667 1493.54,587.7 1491.76667,590.78 C1489.99333,593.86 1487.59,596.286667 1484.55667,598.06 C1481.52333,599.833333 1478.18667,600.72 1474.54667,600.72 Z M1537.59333,615 L1537.59333,581.4 C1537.59333,578.6 1537.94333,575.963333 1538.64333,573.49 C1539.34333,571.016667 1540.37,568.87 1541.72333,567.05 C1543.07667,565.23 1544.71,563.783333 1546.62333,562.71 C1548.53667,561.636667 1550.75333,561.1 1553.27333,561.1 C1557.47333,561.1 1560.67,562.29 1562.86333,564.67 C1565.05667,567.05 1566.15333,570.713333 1566.15333,575.66 L1566.15333,575.66 L1566.15333,615 L1584.49333,615 L1584.49333,573.42 C1584.49333,569.033333 1583.95667,565.043333 1582.88333,561.45 C1581.81,557.856667 1580.22333,554.776667 1578.12333,552.21 C1576.02333,549.643333 1573.34,547.66 1570.07333,546.26 C1566.80667,544.86 1563.02667,544.16 1558.73333,544.16 C1554.06667,544.16 1549.91333,545.163333 1546.27333,547.17 C1542.63333,549.176667 1539.74,551.906667 1537.59333,555.36 L1537.59333,555.36 L1536.47333,555.36 L1536.47333,546.4 L1519.25333,546.4 L1519.25333,615 L1537.59333,615 Z" id="Expension"></path>
            </g>
        </g>
    </g>
</svg>