<?xml version="1.0" standalone="no"?>
<!DOCTYPE svg PUBLIC "-//W3C//DTD SVG 20010904//EN"
 "http://www.w3.org/TR/2001/REC-SVG-20010904/DTD/svg10.dtd">
<svg version="1.0" xmlns="http://www.w3.org/2000/svg"
 width="1024.000000pt" height="1024.000000pt" viewBox="0 0 1024.000000 1024.000000"
 preserveAspectRatio="xMidYMid meet">
<metadata>
Created by potrace 1.11, written by Peter Selinger 2001-2013
</metadata>
<g transform="translate(0.000000,1024.000000) scale(0.100000,-0.100000)"
fill="#000000" stroke="none">
<path d="M2038 9613 l-1418 -3 0 -4489 c0 -2659 4 -4492 9 -4495 5 -3 2028 -3
4495 1 l4486 6 0 4487 0 4487 -2242 6 c-1234 4 -2619 6 -3078 5 -459 -2 -1473
-4 -2252 -5z m4582 -4493 l0 -1500 -1500 0 -1500 0 0 1500 0 1500 1500 0 1500
0 0 -1500z"/>
</g>
</svg>
