<?xml version="1.0" encoding="UTF-8"?>
<svg width="16px" height="14px" viewBox="0 0 16 14" version="1.1" xmlns="http://www.w3.org/2000/svg" xmlns:xlink="http://www.w3.org/1999/xlink">
    <!-- Generator: Sketch 64 (93537) - https://sketch.com -->
    <title>“</title>
    <desc>Created with Sketch.</desc>
    <g id="Page-1" stroke="none" stroke-width="1" fill="none" fill-rule="evenodd" fill-opacity="0.12">
        <g id="SquareLab_Blog" transform="translate(-939.000000, -3071.000000)" fill="#000000" fill-rule="nonzero">
            <g id="Group-7" transform="translate(480.000000, 3071.000000)">
                <path d="M462.308457,14 C463.121752,14 463.786463,13.7494407 464.302592,13.2483221 C464.818721,12.7472036 465.076786,12.0425056 465.076786,11.1342282 C465.076786,10.2885906 464.795261,9.63870246 464.232211,9.18456376 C463.669161,8.73042506 463.02791,8.5033557 462.308457,8.5033557 C462.089494,8.5033557 461.933091,8.51901566 461.839249,8.55033557 C461.87053,7.04697987 462.214616,5.80201342 462.871507,4.81543624 C463.528399,3.82885906 464.513736,2.89709172 465.827519,2.02013423 L465.827519,2.02013423 L464.607578,0 C462.793306,1.06487696 461.409142,2.35682327 460.455085,3.87583893 C459.501028,5.39485459 459.024,7.20357942 459.024,9.30201342 C459.024,10.8053691 459.313345,11.9642058 459.892035,12.7785235 C460.470725,13.5928412 461.276199,14 462.308457,14 Z M471.504938,14 C472.318233,14 472.990764,13.7494407 473.522534,13.2483221 C474.054303,12.7472036 474.320188,12.0425056 474.320188,11.1342282 C474.320188,10.2885906 474.030843,9.63870246 473.452152,9.18456376 C472.873462,8.73042506 472.224391,8.5033557 471.504938,8.5033557 C471.317255,8.5033557 471.176493,8.51901566 471.082651,8.55033557 C471.113932,7.04697987 471.458018,5.80201342 472.114909,4.81543624 C472.771801,3.82885906 473.741498,2.89709172 475.024,2.02013423 L475.024,2.02013423 L473.804059,0 C472.021067,1.06487696 470.652543,2.35682327 469.698487,3.87583893 C468.74443,5.39485459 468.267402,7.20357942 468.267402,9.30201342 C468.267402,10.8053691 468.548927,11.9642058 469.111977,12.7785235 C469.675026,13.5928412 470.47268,14 471.504938,14 Z" id="“"></path>
            </g>
        </g>
    </g>
</svg>