<?xml version="1.0" encoding="UTF-8"?>
<svg width="17px" height="14px" viewBox="0 0 17 14" version="1.1" xmlns="http://www.w3.org/2000/svg" xmlns:xlink="http://www.w3.org/1999/xlink">
    <!-- Generator: Sketch 64 (93537) - https://sketch.com -->
    <title>“ copy</title>
    <desc>Created with Sketch.</desc>
    <g id="Page-1" stroke="none" stroke-width="1" fill="none" fill-rule="evenodd" fill-opacity="0.12">
        <g id="SquareLab_Blog" transform="translate(-939.000000, -3213.000000)" fill="#000000" fill-rule="nonzero">
            <g id="Group-7" transform="translate(480.000000, 3071.000000)">
                <path d="M462.308457,156.048 C463.121752,156.048 463.786463,155.797441 464.302592,155.296322 C464.818721,154.795204 465.076786,154.090506 465.076786,153.182228 C465.076786,152.336591 464.795261,151.686702 464.232211,151.232564 C463.669161,150.778425 463.02791,150.551356 462.308457,150.551356 C462.089494,150.551356 461.933091,150.567016 461.839249,150.598336 C461.87053,149.09498 462.214616,147.850013 462.871507,146.863436 C463.528399,145.876859 464.513736,144.945092 465.827519,144.068134 L465.827519,144.068134 L464.607578,142.048 C462.793306,143.112877 461.409142,144.404823 460.455085,145.923839 C459.501028,147.442855 459.024,149.251579 459.024,151.350013 C459.024,152.853369 459.313345,154.012206 459.892035,154.826523 C460.470725,155.640841 461.276199,156.048 462.308457,156.048 Z M471.504938,156.048 C472.318233,156.048 472.990764,155.797441 473.522534,155.296322 C474.054303,154.795204 474.320188,154.090506 474.320188,153.182228 C474.320188,152.336591 474.030843,151.686702 473.452152,151.232564 C472.873462,150.778425 472.224391,150.551356 471.504938,150.551356 C471.317255,150.551356 471.176493,150.567016 471.082651,150.598336 C471.113932,149.09498 471.458018,147.850013 472.114909,146.863436 C472.771801,145.876859 473.741498,144.945092 475.024,144.068134 L475.024,144.068134 L473.804059,142.048 C472.021067,143.112877 470.652543,144.404823 469.698487,145.923839 C468.74443,147.442855 468.267402,149.251579 468.267402,151.350013 C468.267402,152.853369 468.548927,154.012206 469.111977,154.826523 C469.675026,155.640841 470.47268,156.048 471.504938,156.048 Z" id="“-copy" transform="translate(467.024000, 149.048000) rotate(-180.000000) translate(-467.024000, -149.048000) "></path>
            </g>
        </g>
    </g>
</svg>