<?xml version="1.0" encoding="UTF-8"?>
<svg width="34px" height="223px" viewBox="0 0 34 223" version="1.1" xmlns="http://www.w3.org/2000/svg" xmlns:xlink="http://www.w3.org/1999/xlink">
    <title>Shape</title>
    <g id="Page-1" stroke="none" stroke-width="1" fill="none" fill-rule="evenodd" fill-opacity="0">
        <g id="Apple-TV" transform="translate(-1700.000000, -214.000000)" fill="#FFFFFF" fill-rule="nonzero" stroke="#FFFFFF">
            <path d="M1712.40984,414.560109 C1713.95446,414.560109 1715.41894,414.836976 1716.80328,415.39071 C1718.18761,415.944444 1719.39709,416.716758 1720.43169,417.70765 C1721.4663,418.698543 1722.28962,419.871585 1722.90164,421.226776 C1723.51366,422.581967 1723.81967,424.075592 1723.81967,425.70765 C1723.81967,427.42714 1723.53552,428.957195 1722.96721,430.297814 C1722.39891,431.638434 1721.61202,432.760474 1720.60656,433.663934 C1719.60109,434.567395 1718.41348,435.252277 1717.04372,435.718579 C1715.84517,436.126594 1714.55738,436.356102 1713.18033,436.407104 L1712.5847,436.418033 L1712.06011,436.418033 L1711.8901,436.393746 C1711.78,436.380793 1711.67638,436.374317 1711.57923,436.374317 C1711.48209,436.354888 1711.37847,436.341935 1711.26837,436.335458 L1711.09836,436.330601 L1711.09836,420.199454 L1710.73124,420.256998 C1710.01216,420.387253 1709.38407,420.608509 1708.84699,420.920765 C1708.2204,421.285064 1707.69581,421.736794 1707.27322,422.275956 C1706.85064,422.815118 1706.54463,423.405282 1706.35519,424.046448 C1706.16576,424.687614 1706.07104,425.343352 1706.07104,426.013661 C1706.07104,427.325137 1706.36976,428.410747 1706.96721,429.270492 C1707.48998,430.022769 1708.1299,430.635587 1708.88695,431.108948 L1709.21858,431.303279 L1706.85792,436.068306 L1706.42775,435.813449 C1704.87604,434.852813 1703.60595,433.604432 1702.61749,432.068306 C1701.53916,430.392532 1701,428.345173 1701,425.92623 C1701,424.294171 1701.28415,422.785974 1701.85246,421.401639 C1702.42077,420.017304 1703.21494,418.815118 1704.23497,417.795082 C1705.25501,416.775046 1706.45719,415.980874 1707.84153,415.412568 C1709.22587,414.844262 1710.74863,414.560109 1712.40984,414.560109 Z M1715.16393,420.505464 L1715.16393,430.86612 C1715.54281,430.836976 1715.96539,430.713115 1716.43169,430.494536 C1716.898,430.275956 1717.33515,429.955373 1717.74317,429.532787 C1718.15118,429.1102 1718.48634,428.58561 1718.74863,427.959016 C1719.01093,427.332423 1719.14208,426.581967 1719.14208,425.70765 C1719.14208,424.483607 1718.79235,423.405282 1718.0929,422.472678 C1717.46339,421.633333 1716.60962,421.018251 1715.53158,420.627432 L1715.16393,420.505464 Z M1712.40984,390.734973 C1714.07104,390.734973 1715.60109,391.019126 1717,391.587432 C1718.39891,392.155738 1719.60109,392.942623 1720.60656,393.948087 C1721.61202,394.953552 1722.39891,396.148452 1722.96721,397.532787 C1723.53552,398.917122 1723.81967,400.439891 1723.81967,402.101093 C1723.81967,404.578324 1723.25137,406.662113 1722.11475,408.352459 C1721.06557,409.912778 1719.73082,411.088192 1718.11049,411.878698 L1717.69945,412.068306 L1715.51366,406.822404 L1715.83505,406.652128 C1716.66835,406.184387 1717.31168,405.607266 1717.76503,404.920765 C1718.27505,404.148452 1718.53005,403.179417 1718.53005,402.013661 C1718.53005,401.25592 1718.38434,400.541894 1718.0929,399.871585 C1717.80146,399.201275 1717.39344,398.611111 1716.86885,398.101093 C1716.34426,397.591075 1715.7031,397.190346 1714.94536,396.898907 C1714.18761,396.607468 1713.34244,396.461749 1712.40984,396.461749 C1711.47723,396.461749 1710.63206,396.607468 1709.87432,396.898907 C1709.11658,397.190346 1708.47541,397.591075 1707.95082,398.101093 C1707.42623,398.611111 1707.01821,399.201275 1706.72678,399.871585 C1706.43534,400.541894 1706.28962,401.25592 1706.28962,402.013661 C1706.28962,403.208561 1706.5592,404.221311 1707.09836,405.051913 C1707.57762,405.790225 1708.24685,406.39613 1709.10605,406.869628 L1709.43716,407.040984 L1707.16393,412.286885 L1706.71903,412.045993 C1705.11278,411.134335 1703.78203,409.910443 1702.72678,408.374317 C1701.57559,406.698543 1701,404.607468 1701,402.101093 C1701,400.439891 1701.28415,398.917122 1701.85246,397.532787 C1702.42077,396.148452 1703.21494,394.953552 1704.23497,393.948087 C1705.25501,392.942623 1706.45719,392.155738 1707.84153,391.587432 C1709.22587,391.019126 1710.74863,390.734973 1712.40984,390.734973 Z M1723.12022,366.86612 L1723.12022,372.243169 L1720.3224,372.243169 L1720.3224,372.592896 L1720.67348,372.824968 C1721.58738,373.466853 1722.32281,374.292957 1722.87978,375.303279 C1723.50638,376.439891 1723.81967,377.736794 1723.81967,379.193989 C1723.81967,380.534608 1723.60109,381.714936 1723.16393,382.734973 C1722.72678,383.755009 1722.10747,384.592896 1721.30601,385.248634 C1720.50455,385.904372 1719.54281,386.399818 1718.42077,386.734973 C1717.43898,387.028233 1716.36236,387.193192 1715.19092,387.22985 L1714.68306,387.237705 L1701.69945,387.237705 L1701.69945,381.510929 L1713.98361,381.510929 L1714.33295,381.50485 C1715.70185,381.456219 1716.7293,381.115805 1717.4153,380.483607 C1718.15847,379.798725 1718.53005,378.800546 1718.53005,377.489071 C1718.53005,376.702186 1718.36248,376.010018 1718.02732,375.412568 C1717.69217,374.815118 1717.24044,374.3051 1716.67213,373.882514 C1716.10383,373.459927 1715.43352,373.139344 1714.6612,372.920765 C1714.04335,372.745902 1713.39286,372.640984 1712.70973,372.606011 L1712.19126,372.592896 L1701.69945,372.592896 L1701.69945,366.86612 L1723.12022,366.86612 Z M1712.40984,338.97541 C1714.47905,338.97541 1716.38798,339.492714 1718.13661,340.527322 C1719.88525,341.561931 1721.26958,342.953552 1722.28962,344.702186 C1723.30965,346.45082 1723.81967,348.345173 1723.81967,350.385246 C1723.81967,351.580146 1723.63752,352.73133 1723.27322,353.838798 C1722.95446,354.807832 1722.51856,355.642987 1721.96551,356.344262 L1721.72131,356.636612 L1723.12022,356.636612 L1723.12022,362.23224 L1701.69945,362.23224 L1701.69945,356.636612 L1703.09836,356.636612 L1702.83354,356.271536 C1701.64032,354.550621 1701.04372,352.588525 1701.04372,350.385246 C1701.04372,348.345173 1701.55373,346.45082 1702.57377,344.702186 C1703.59381,342.953552 1704.97086,341.561931 1706.70492,340.527322 C1708.43898,339.492714 1710.34062,338.97541 1712.40984,338.97541 Z M1712.45355,343.915301 C1711.2878,343.915301 1710.20947,344.20674 1709.21858,344.789617 C1708.22769,345.372495 1707.4408,346.159381 1706.85792,347.150273 C1706.27505,348.141166 1705.98361,349.21949 1705.98361,350.385246 C1705.98361,351.551002 1706.27505,352.629326 1706.85792,353.620219 C1707.4408,354.611111 1708.22769,355.397996 1709.21858,355.980874 C1710.20947,356.563752 1711.2878,356.855191 1712.45355,356.855191 C1713.61931,356.855191 1714.69763,356.563752 1715.68852,355.980874 C1716.67942,355.397996 1717.4663,354.611111 1718.04918,353.620219 C1718.63206,352.629326 1718.9235,351.551002 1718.9235,350.385246 C1718.9235,349.21949 1718.63206,348.141166 1718.04918,347.150273 C1717.4663,346.159381 1716.67942,345.372495 1715.68852,344.789617 C1714.69763,344.20674 1713.61931,343.915301 1712.45355,343.915301 Z M1723.0765,323.019126 L1723.0765,328.65847 L1719.7541,328.65847 L1720.09639,328.832459 C1721.10098,329.378033 1721.90492,330.136066 1722.5082,331.106557 C1723.17851,332.184882 1723.51366,333.408925 1723.51366,334.778689 C1723.51366,334.941894 1723.49501,335.170383 1723.4577,335.464153 L1723.42623,335.696721 C1723.40874,335.819126 1723.37552,335.978251 1723.32656,336.174098 L1723.20765,336.614754 L1718.18033,336.614754 L1718.25902,336.22306 C1718.35228,335.714791 1718.39891,335.262477 1718.39891,334.86612 C1718.39891,333.554645 1718.03461,332.469035 1717.30601,331.60929 C1716.57741,330.749545 1715.67395,330.071949 1714.59563,329.576503 C1713.35216,329.032483 1712.05111,328.73025 1710.6925,328.669804 L1710.18033,328.65847 L1701.69945,328.65847 L1701.69945,323.019126 L1723.0765,323.019126 Z M1723.12022,303.478142 L1723.12022,307.237705 L1729.6776,307.237705 L1729.6776,312.964481 L1723.12022,312.964481 L1723.12022,318.210383 L1718.22404,318.210383 L1718.22404,312.964481 L1709.91803,312.964481 L1709.55328,312.974044 C1709.19536,312.993169 1708.85792,313.040984 1708.54098,313.117486 C1708.1184,313.21949 1707.76138,313.416211 1707.46995,313.70765 C1707.00364,314.115665 1706.77049,314.698543 1706.77049,315.456284 C1706.77049,315.95173 1706.82149,316.345173 1706.9235,316.636612 C1706.9915,316.830905 1707.07569,317.018721 1707.17608,317.200061 L1707.3388,317.467213 L1702.31148,319.084699 L1702.12874,318.676393 C1701.89792,318.123825 1701.7184,317.538616 1701.59016,316.920765 C1701.42987,316.148452 1701.34973,315.295993 1701.34973,314.363388 C1701.34973,313.285064 1701.5173,312.316029 1701.85246,311.456284 C1702.18761,310.596539 1702.64663,309.875228 1703.22951,309.29235 C1704.46384,308.003161 1706.18867,307.320649 1708.40401,307.244814 L1708.82514,307.237705 L1718.22404,307.237705 L1718.22404,303.478142 L1723.12022,303.478142 Z M1723.12022,279.784153 L1723.12022,285.161202 L1720.3224,285.161202 L1720.3224,285.510929 L1720.67348,285.743001 C1721.58738,286.384886 1722.32281,287.21099 1722.87978,288.221311 C1723.50638,289.357923 1723.81967,290.654827 1723.81967,292.112022 C1723.81967,293.452641 1723.60109,294.632969 1723.16393,295.653005 C1722.72678,296.673042 1722.10747,297.510929 1721.30601,298.166667 C1720.50455,298.822404 1719.54281,299.317851 1718.42077,299.653005 C1717.43898,299.946266 1716.36236,300.111225 1715.19092,300.147883 L1714.68306,300.155738 L1701.69945,300.155738 L1701.69945,294.428962 L1713.98361,294.428962 L1714.33295,294.422883 C1715.70185,294.374252 1716.7293,294.033838 1717.4153,293.401639 C1718.15847,292.716758 1718.53005,291.718579 1718.53005,290.407104 C1718.53005,289.620219 1718.36248,288.928051 1718.02732,288.330601 C1717.69217,287.733151 1717.24044,287.223133 1716.67213,286.800546 C1716.10383,286.37796 1715.43352,286.057377 1714.6612,285.838798 C1714.04335,285.663934 1713.39286,285.559016 1712.70973,285.524044 L1712.19126,285.510929 L1701.69945,285.510929 L1701.69945,279.784153 L1723.12022,279.784153 Z M1733,255.215847 L1733,275.062842 L1727.40437,275.062842 L1727.40437,261.117486 L1720.14754,261.117486 L1720.14754,273.663934 L1714.55191,273.663934 L1714.55191,261.117486 L1707.29508,261.117486 L1707.29508,275.062842 L1701.69945,275.062842 L1701.69945,255.215847 L1733,255.215847 Z M1715.66462,214.5 L1718.07923,216.859359 L1708.9194,225.809571 L1729.70492,225.809571 L1729.70492,229.146713 L1708.9194,229.146713 L1718.07923,238.096925 L1715.66462,240.456284 L1702.38251,227.478142 L1715.66462,214.5 Z" id="Shape"></path>
        </g>
    </g>
</svg>