<?xml version="1.0" encoding="utf-8"?>
<!-- Generator: Adobe Illustrator 24.2.1, SVG Export Plug-In . SVG Version: 6.00 Build 0)  -->
<svg version="1.1" id="Layer_1" xmlns="http://www.w3.org/2000/svg" xmlns:xlink="http://www.w3.org/1999/xlink" x="0px" y="0px"
	 viewBox="0 0 192 34" style="enable-background:new 0 0 192 34;" xml:space="preserve">
<style type="text/css">
	.st0{fill:#9D00D3;fill-opacity:0;stroke:#FFFFFF;}
</style>
<g id="Page-1">
	<g id="Apple-TV" transform="translate(-1792.000000, -229.000000)">
		<path id="Shape" class="st0" d="M1804.4,262c1.2,0,2.4-0.2,3.7-0.6c1.3-0.4,2.4-0.9,3.4-1.7c1-0.7,1.8-1.7,2.5-2.8s1-2.5,1-4.1
			c0-1.3-0.2-2.4-0.6-3.4c-0.4-1-0.9-1.9-1.7-2.6s-1.6-1.4-2.6-2c-0.9-0.5-1.8-0.9-2.8-1.3l-0.5-0.2l-1.9-0.6
			c-1.7-0.6-3-1.2-3.8-1.9s-1.2-1.4-1.2-2.3c0-0.9,0.4-1.7,1.2-2.3c0.8-0.6,1.9-0.9,3.1-0.9c1.3,0,2.3,0.3,3.1,1
			c0.7,0.6,1.2,1.3,1.5,2.1l0.1,0.3l5.1-2.1c-0.2-0.7-0.6-1.4-1.1-2.2c-0.5-0.8-1.1-1.5-1.9-2.1s-1.7-1.2-2.9-1.6s-2.5-0.6-4-0.6
			c-1.5,0-2.8,0.2-4,0.7c-1.2,0.4-2.3,1.1-3.1,1.8c-0.9,0.8-1.5,1.7-2,2.7c-0.5,1-0.7,2.2-0.7,3.4c0,1.2,0.2,2.2,0.7,3.1
			c0.4,0.9,1,1.7,1.7,2.4c0.7,0.7,1.4,1.3,2.3,1.8c0.7,0.4,1.4,0.7,2.1,1l2.3,0.8c1.1,0.4,2,0.8,2.8,1.2c0.8,0.4,1.4,0.8,1.8,1.2
			s0.8,0.8,1,1.3c0.2,0.5,0.3,1,0.3,1.5c0,0.6-0.1,1.1-0.4,1.6c-0.3,0.5-0.6,0.8-1,1.1c-0.4,0.3-0.9,0.5-1.5,0.7s-1.1,0.2-1.7,0.2
			c-1.6,0-2.9-0.5-3.9-1.5c-0.9-0.9-1.6-2.1-2-3.5l-0.1-0.4l-5.4,2.1c0.4,1.4,1,2.7,1.8,3.7c0.7,1.1,1.6,2,2.6,2.7
			c1,0.7,2.1,1.3,3.3,1.7C1801.9,261.8,1803.1,262,1804.4,262z M1824.6,261.3V251c0-0.9,0.1-1.7,0.3-2.4c0.2-0.8,0.5-1.4,0.9-2
			c0.4-0.6,0.9-1,1.5-1.3c0.6-0.3,1.3-0.5,2-0.5c1.3,0,2.3,0.4,2.9,1.1c0.6,0.7,1,1.7,1,3.1l0,0.3v12h5.6v-12.7
			c0-1.3-0.2-2.6-0.5-3.7c-0.3-1.1-0.8-2-1.5-2.8s-1.5-1.4-2.5-1.8c-1-0.4-2.2-0.6-3.5-0.6c-1.4,0-2.7,0.3-3.8,0.9
			c-1,0.6-1.8,1.3-2.5,2.2l-0.2,0.3h-0.3v-2.7h-5.3v21H1824.6z M1853.5,262c2.2,0,4.1-0.6,5.8-1.8l0.3-0.2v1.4h5.5v-21h-5.5v1.4
			c-0.7-0.7-1.7-1.2-2.7-1.5c-1.1-0.4-2.2-0.5-3.4-0.5c-2,0-3.9,0.5-5.6,1.5c-1.7,1-3.1,2.4-4.1,4.1c-1,1.7-1.5,3.6-1.5,5.6
			c0,2,0.5,3.9,1.5,5.6c1,1.7,2.4,3,4.1,4S1851.5,262,1853.5,262z M1853.5,257.1c-1.1,0-2.2-0.3-3.2-0.9c-1-0.6-1.7-1.3-2.3-2.3
			s-0.9-2-0.9-3.2c0-1.1,0.3-2.2,0.9-3.2s1.3-1.7,2.3-2.3c1-0.6,2-0.9,3.2-0.9c1.1,0,2.2,0.3,3.2,0.9s1.7,1.3,2.3,2.3
			c0.6,1,0.9,2,0.9,3.2c0,1.1-0.3,2.2-0.9,3.2c-0.6,1-1.3,1.7-2.3,2.3S1854.6,257.1,1853.5,257.1z M1879.5,262
			c2.5,0,4.5-0.6,6.1-1.7c1.5-1.1,2.7-2.4,3.6-4l0.2-0.3l-5.1-2.2c-0.5,1-1.1,1.8-1.9,2.3c-0.8,0.5-1.8,0.8-3,0.8
			c-0.7,0-1.4-0.1-2.1-0.4c-0.7-0.3-1.2-0.7-1.7-1.2c-0.5-0.5-0.9-1.1-1.2-1.9c-0.3-0.7-0.4-1.6-0.4-2.5c0-0.9,0.1-1.7,0.4-2.5
			s0.7-1.4,1.2-1.9c0.5-0.5,1.1-0.9,1.7-1.2c0.7-0.3,1.4-0.4,2.1-0.4c1.1,0,2.1,0.2,2.8,0.7c0.7,0.4,1.3,1.1,1.7,1.9l0.1,0.3
			l5.1-2.1c-0.8-1.8-2-3.2-3.6-4.3c-1.7-1.1-3.7-1.7-6.1-1.7c-1.6,0-3.1,0.3-4.5,0.8c-1.4,0.6-2.5,1.3-3.5,2.3c-1,1-1.8,2.2-2.3,3.5
			s-0.8,2.9-0.8,4.5c0,1.6,0.3,3.1,0.8,4.5s1.3,2.5,2.3,3.5c1,1,2.2,1.8,3.5,2.3S1877.9,262,1879.5,262z M1898.5,261.3v-6.8l2.5-2.4
			l0.4-0.4l5.9,9.6h6.1v-0.4l-7.9-13.2l7.3-7.1v-0.3h-6.9l-7,7h-0.3v-16.7h-5.6v30.6H1898.5z M1927.7,262c2,0,3.9-0.5,5.6-1.5
			c1.7-1,3.1-2.3,4.1-4c1-1.7,1.5-3.6,1.5-5.6c0-2-0.5-3.9-1.5-5.6c-1-1.7-2.4-3.1-4.1-4.1c-1.7-1-3.6-1.5-5.6-1.5
			c-1.2,0-2.3,0.2-3.4,0.5c-1,0.3-1.8,0.8-2.5,1.3l-0.3,0.2v-11h-5.5v30.6h5.5v-1.4C1923.4,261.3,1925.4,262,1927.7,262z
			 M1927.7,257.1c-1.1,0-2.2-0.3-3.2-0.9c-1-0.6-1.7-1.3-2.3-2.3s-0.9-2-0.9-3.2c0-1.1,0.3-2.2,0.9-3.2s1.3-1.7,2.3-2.3
			c1-0.6,2-0.9,3.2-0.9c1.1,0,2.2,0.3,3.2,0.9c1,0.6,1.7,1.3,2.3,2.3c0.6,1,0.9,2,0.9,3.2c0,1.1-0.3,2.2-0.9,3.2
			c-0.6,1-1.3,1.7-2.3,2.3C1929.9,256.8,1928.9,257.1,1927.7,257.1z M1952.4,262c2.2,0,4.1-0.6,5.8-1.8l0.3-0.2v1.4h5.5v-21h-5.5
			v1.4c-0.7-0.7-1.7-1.2-2.7-1.5c-1.1-0.4-2.2-0.5-3.4-0.5c-2,0-3.9,0.5-5.6,1.5c-1.7,1-3.1,2.4-4.1,4.1c-1,1.7-1.5,3.6-1.5,5.6
			c0,2,0.5,3.9,1.5,5.6c1,1.7,2.4,3,4.1,4C1948.6,261.5,1950.4,262,1952.4,262z M1952.4,257.1c-1.1,0-2.2-0.3-3.2-0.9
			c-1-0.6-1.7-1.3-2.3-2.3c-0.6-1-0.9-2-0.9-3.2c0-1.1,0.3-2.2,0.9-3.2c0.6-1,1.3-1.7,2.3-2.3c1-0.6,2-0.9,3.2-0.9
			c1.1,0,2.2,0.3,3.2,0.9c1,0.6,1.7,1.3,2.3,2.3c0.6,1,0.9,2,0.9,3.2c0,1.1-0.3,2.2-0.9,3.2c-0.6,1-1.3,1.7-2.3,2.3
			C1954.6,256.8,1953.6,257.1,1952.4,257.1z M1974.7,261.3V253c0-1.5,0.3-3,0.9-4.3c0.5-1.1,1.1-1.9,2-2.7c0.8-0.7,1.9-1.1,3.2-1.1
			c0.4,0,0.9,0,1.4,0.1l0.3,0.1v-4.9c-0.4-0.1-0.7-0.2-0.9-0.2l-0.4,0c-0.2,0-0.4,0-0.5,0c-1.3,0-2.5,0.3-3.6,1
			c-1,0.6-1.7,1.4-2.3,2.4l-0.1,0.3v-3.3h-5.5v20.9H1974.7z"/>
	</g>
</g>
</svg>
