<?xml version="1.0" encoding="UTF-8"?>
<svg width="181px" height="39px" viewBox="0 0 181 39" version="1.1" xmlns="http://www.w3.org/2000/svg" xmlns:xlink="http://www.w3.org/1999/xlink">
    <!-- Generator: Sketch 61 (89581) - https://sketch.com -->
    <title>Expansionofvisionandexperience</title>
    <desc>Created with Sketch.</desc>
    <g id="Page-1" stroke="none" stroke-width="1" fill="none" fill-rule="evenodd">
        <g id="SquareLab_Draft-Copy-4" transform="translate(-248.000000, -3781.000000)" fill="#FFFFFF" fill-rule="nonzero">
            <g id="Story_04" transform="translate(0.000000, 3228.000000)">
                <path d="M257.468,567 L257.468,564.696 L251.726,564.696 L251.726,561.708 L256.892,561.708 L256.892,559.404 L251.726,559.404 L251.726,556.416 L257.468,556.416 L257.468,554.112 L249.296,554.112 L249.296,567 L257.468,567 Z M261.338,567 L262.94,564.48 L263.066,564.48 L264.722,567 L267.494,567 L264.398,562.518 L267.494,558.18 L264.614,558.18 L263.102,560.628 L262.976,560.628 L261.374,558.18 L258.584,558.18 L261.608,562.518 L258.548,567 L261.338,567 Z M270.752,571.05 L270.752,566.406 C271.064,566.682 271.448,566.895 271.904,567.045 C272.36,567.195 272.834,567.27 273.326,567.27 C274.166,567.27 274.946,567.06 275.666,566.64 C276.386,566.22 276.959,565.65 277.385,564.93 C277.811,564.21 278.024,563.424 278.024,562.572 C278.024,561.72 277.811,560.937 277.385,560.223 C276.959,559.509 276.386,558.942 275.666,558.522 C274.946,558.102 274.166,557.892 273.326,557.892 C272.354,557.892 271.496,558.174 270.752,558.738 L270.752,558.738 L270.752,558.162 L268.448,558.162 L268.448,571.05 L270.752,571.05 Z M273.326,565.236 C272.846,565.236 272.402,565.116 271.994,564.876 C271.586,564.636 271.262,564.312 271.022,563.904 C270.782,563.496 270.662,563.052 270.662,562.572 C270.662,562.092 270.782,561.648 271.022,561.24 C271.262,560.832 271.586,560.508 271.994,560.268 C272.402,560.028 272.846,559.908 273.326,559.908 C273.806,559.908 274.25,560.028 274.658,560.268 C275.066,560.508 275.39,560.832 275.63,561.24 C275.87,561.648 275.99,562.092 275.99,562.572 C275.99,563.052 275.87,563.496 275.63,563.904 C275.39,564.312 275.066,564.636 274.658,564.876 C274.25,565.116 273.806,565.236 273.326,565.236 Z M283.586,567.27 C284.558,567.27 285.416,566.988 286.16,566.424 L286.16,566.424 L286.16,567 L288.464,567 L288.464,558.18 L286.16,558.18 L286.16,558.756 C285.848,558.48 285.464,558.267 285.008,558.117 C284.552,557.967 284.078,557.892 283.586,557.892 C282.746,557.892 281.966,558.102 281.246,558.522 C280.526,558.942 279.953,559.512 279.527,560.232 C279.101,560.952 278.888,561.738 278.888,562.59 C278.888,563.442 279.101,564.225 279.527,564.939 C279.953,565.653 280.526,566.22 281.246,566.64 C281.966,567.06 282.746,567.27 283.586,567.27 Z M283.586,565.236 C283.106,565.236 282.662,565.116 282.254,564.876 C281.846,564.636 281.522,564.312 281.282,563.904 C281.042,563.496 280.922,563.052 280.922,562.572 C280.922,562.092 281.042,561.648 281.282,561.24 C281.522,560.832 281.846,560.508 282.254,560.268 C282.662,560.028 283.106,559.908 283.586,559.908 C284.066,559.908 284.51,560.028 284.918,560.268 C285.326,560.508 285.65,560.832 285.89,561.24 C286.13,561.648 286.25,562.092 286.25,562.572 C286.25,563.052 286.13,563.496 285.89,563.904 C285.65,564.312 285.326,564.636 284.918,564.876 C284.51,565.116 284.066,565.236 283.586,565.236 Z M292.73,567 L292.73,562.68 C292.73,562.32 292.775,561.981 292.865,561.663 C292.955,561.345 293.087,561.069 293.261,560.835 C293.435,560.601 293.645,560.415 293.891,560.277 C294.137,560.139 294.422,560.07 294.746,560.07 C295.286,560.07 295.697,560.223 295.979,560.529 C296.261,560.835 296.402,561.306 296.402,561.942 L296.402,561.942 L296.402,567 L298.76,567 L298.76,561.654 C298.76,561.09 298.691,560.577 298.553,560.115 C298.415,559.653 298.211,559.257 297.941,558.927 C297.671,558.597 297.326,558.342 296.906,558.162 C296.486,557.982 296,557.892 295.448,557.892 C294.848,557.892 294.314,558.021 293.846,558.279 C293.378,558.537 293.006,558.888 292.73,559.332 L292.73,559.332 L292.586,559.332 L292.586,558.18 L290.372,558.18 L290.372,567 L292.73,567 Z M304.196,567.288 C304.76,567.288 305.273,567.21 305.735,567.054 C306.197,566.898 306.593,566.685 306.923,566.415 C307.253,566.145 307.508,565.836 307.688,565.488 C307.868,565.14 307.958,564.774 307.958,564.39 C307.958,563.742 307.739,563.181 307.301,562.707 C306.863,562.233 306.194,561.888 305.294,561.672 L305.294,561.672 L303.944,561.348 C303.584,561.252 303.299,561.144 303.089,561.024 C302.879,560.904 302.774,560.742 302.774,560.538 C302.774,560.322 302.9,560.145 303.152,560.007 C303.404,559.869 303.698,559.8 304.034,559.8 C304.358,559.8 304.682,559.878 305.006,560.034 C305.33,560.19 305.576,560.442 305.744,560.79 L305.744,560.79 L307.778,559.962 C307.466,559.242 306.98,558.717 306.32,558.387 C305.66,558.057 304.91,557.892 304.07,557.892 C303.566,557.892 303.095,557.955 302.657,558.081 C302.219,558.207 301.838,558.387 301.514,558.621 C301.19,558.855 300.935,559.14 300.749,559.476 C300.563,559.812 300.47,560.196 300.47,560.628 C300.47,561.012 300.548,561.348 300.704,561.636 C300.86,561.924 301.058,562.17 301.298,562.374 C301.538,562.578 301.805,562.746 302.099,562.878 C302.393,563.01 302.678,563.106 302.954,563.166 L302.954,563.166 L304.196,563.436 C304.712,563.556 305.075,563.691 305.285,563.841 C305.495,563.991 305.6,564.186 305.6,564.426 C305.6,564.642 305.474,564.828 305.222,564.984 C304.97,565.14 304.628,565.218 304.196,565.218 C303.776,565.218 303.395,565.107 303.053,564.885 C302.711,564.663 302.438,564.324 302.234,563.868 L302.234,563.868 L300.128,564.768 C300.248,565.08 300.422,565.389 300.65,565.695 C300.878,566.001 301.157,566.271 301.487,566.505 C301.817,566.739 302.207,566.928 302.657,567.072 C303.107,567.216 303.62,567.288 304.196,567.288 Z M311.9,556.47 L311.9,554.112 L309.542,554.112 L309.542,556.47 L311.9,556.47 Z M311.9,567 L311.9,558.18 L309.542,558.18 L309.542,567 L311.9,567 Z M318.236,567.288 C319.076,567.288 319.856,567.078 320.576,566.658 C321.296,566.238 321.869,565.671 322.295,564.957 C322.721,564.243 322.934,563.46 322.934,562.608 C322.934,561.756 322.721,560.967 322.295,560.241 C321.869,559.515 321.296,558.942 320.576,558.522 C319.856,558.102 319.076,557.892 318.236,557.892 C317.384,557.892 316.598,558.102 315.878,558.522 C315.158,558.942 314.588,559.515 314.168,560.241 C313.748,560.967 313.538,561.756 313.538,562.608 C313.538,563.46 313.748,564.243 314.168,564.957 C314.588,565.671 315.158,566.238 315.878,566.658 C316.598,567.078 317.384,567.288 318.236,567.288 Z M318.236,565.164 C317.768,565.164 317.336,565.05 316.94,564.822 C316.544,564.594 316.232,564.282 316.004,563.886 C315.776,563.49 315.662,563.064 315.662,562.608 C315.662,562.14 315.776,561.708 316.004,561.312 C316.232,560.916 316.544,560.604 316.94,560.376 C317.336,560.148 317.768,560.034 318.236,560.034 C318.704,560.034 319.133,560.148 319.523,560.376 C319.913,560.604 320.222,560.916 320.45,561.312 C320.678,561.708 320.792,562.14 320.792,562.608 C320.792,563.064 320.678,563.49 320.45,563.886 C320.222,564.282 319.913,564.594 319.523,564.822 C319.133,565.05 318.704,565.164 318.236,565.164 Z M326.786,567 L326.786,562.68 C326.786,562.32 326.831,561.981 326.921,561.663 C327.011,561.345 327.143,561.069 327.317,560.835 C327.491,560.601 327.701,560.415 327.947,560.277 C328.193,560.139 328.478,560.07 328.802,560.07 C329.342,560.07 329.753,560.223 330.035,560.529 C330.317,560.835 330.458,561.306 330.458,561.942 L330.458,561.942 L330.458,567 L332.816,567 L332.816,561.654 C332.816,561.09 332.747,560.577 332.609,560.115 C332.471,559.653 332.267,559.257 331.997,558.927 C331.727,558.597 331.382,558.342 330.962,558.162 C330.542,557.982 330.056,557.892 329.504,557.892 C328.904,557.892 328.37,558.021 327.902,558.279 C327.434,558.537 327.062,558.888 326.786,559.332 L326.786,559.332 L326.642,559.332 L326.642,558.18 L324.428,558.18 L324.428,567 L326.786,567 Z M342.896,567.288 C343.736,567.288 344.516,567.078 345.236,566.658 C345.956,566.238 346.529,565.671 346.955,564.957 C347.381,564.243 347.594,563.46 347.594,562.608 C347.594,561.756 347.381,560.967 346.955,560.241 C346.529,559.515 345.956,558.942 345.236,558.522 C344.516,558.102 343.736,557.892 342.896,557.892 C342.044,557.892 341.258,558.102 340.538,558.522 C339.818,558.942 339.248,559.515 338.828,560.241 C338.408,560.967 338.198,561.756 338.198,562.608 C338.198,563.46 338.408,564.243 338.828,564.957 C339.248,565.671 339.818,566.238 340.538,566.658 C341.258,567.078 342.044,567.288 342.896,567.288 Z M342.896,565.164 C342.428,565.164 341.996,565.05 341.6,564.822 C341.204,564.594 340.892,564.282 340.664,563.886 C340.436,563.49 340.322,563.064 340.322,562.608 C340.322,562.14 340.436,561.708 340.664,561.312 C340.892,560.916 341.204,560.604 341.6,560.376 C341.996,560.148 342.428,560.034 342.896,560.034 C343.364,560.034 343.793,560.148 344.183,560.376 C344.573,560.604 344.882,560.916 345.11,561.312 C345.338,561.708 345.452,562.14 345.452,562.608 C345.452,563.064 345.338,563.49 345.11,563.886 C344.882,564.282 344.573,564.594 344.183,564.822 C343.793,565.05 343.364,565.164 342.896,565.164 Z M352.454,567 L352.454,560.196 L354.65,560.196 L354.65,558.18 L352.454,558.18 L352.454,557.46 C352.454,557.064 352.556,556.755 352.76,556.533 C352.964,556.311 353.24,556.2 353.588,556.2 C353.792,556.2 353.963,556.218 354.101,556.254 C354.239,556.29 354.368,556.338 354.488,556.398 L354.488,556.398 L355.154,554.292 C354.926,554.196 354.668,554.118 354.38,554.058 C354.092,553.998 353.78,553.968 353.444,553.968 C352.952,553.968 352.502,554.043 352.094,554.193 C351.686,554.343 351.332,554.559 351.032,554.841 C350.732,555.123 350.501,555.471 350.339,555.885 C350.177,556.299 350.096,556.776 350.096,557.316 L350.096,557.316 L350.096,558.18 L348.512,558.18 L348.512,560.196 L350.096,560.196 L350.096,567 L352.454,567 Z M254.156,587 L257.954,578.18 L255.29,578.18 L253.076,583.796 L252.95,583.796 L250.754,578.18 L248.072,578.18 L251.834,587 L254.156,587 Z M261.536,576.47 L261.536,574.112 L259.178,574.112 L259.178,576.47 L261.536,576.47 Z M261.536,587 L261.536,578.18 L259.178,578.18 L259.178,587 L261.536,587 Z M267.188,587.288 C267.752,587.288 268.265,587.21 268.727,587.054 C269.189,586.898 269.585,586.685 269.915,586.415 C270.245,586.145 270.5,585.836 270.68,585.488 C270.86,585.14 270.95,584.774 270.95,584.39 C270.95,583.742 270.731,583.181 270.293,582.707 C269.855,582.233 269.186,581.888 268.286,581.672 L268.286,581.672 L266.936,581.348 C266.576,581.252 266.291,581.144 266.081,581.024 C265.871,580.904 265.766,580.742 265.766,580.538 C265.766,580.322 265.892,580.145 266.144,580.007 C266.396,579.869 266.69,579.8 267.026,579.8 C267.35,579.8 267.674,579.878 267.998,580.034 C268.322,580.19 268.568,580.442 268.736,580.79 L268.736,580.79 L270.77,579.962 C270.458,579.242 269.972,578.717 269.312,578.387 C268.652,578.057 267.902,577.892 267.062,577.892 C266.558,577.892 266.087,577.955 265.649,578.081 C265.211,578.207 264.83,578.387 264.506,578.621 C264.182,578.855 263.927,579.14 263.741,579.476 C263.555,579.812 263.462,580.196 263.462,580.628 C263.462,581.012 263.54,581.348 263.696,581.636 C263.852,581.924 264.05,582.17 264.29,582.374 C264.53,582.578 264.797,582.746 265.091,582.878 C265.385,583.01 265.67,583.106 265.946,583.166 L265.946,583.166 L267.188,583.436 C267.704,583.556 268.067,583.691 268.277,583.841 C268.487,583.991 268.592,584.186 268.592,584.426 C268.592,584.642 268.466,584.828 268.214,584.984 C267.962,585.14 267.62,585.218 267.188,585.218 C266.768,585.218 266.387,585.107 266.045,584.885 C265.703,584.663 265.43,584.324 265.226,583.868 L265.226,583.868 L263.12,584.768 C263.24,585.08 263.414,585.389 263.642,585.695 C263.87,586.001 264.149,586.271 264.479,586.505 C264.809,586.739 265.199,586.928 265.649,587.072 C266.099,587.216 266.612,587.288 267.188,587.288 Z M274.892,576.47 L274.892,574.112 L272.534,574.112 L272.534,576.47 L274.892,576.47 Z M274.892,587 L274.892,578.18 L272.534,578.18 L272.534,587 L274.892,587 Z M281.228,587.288 C282.068,587.288 282.848,587.078 283.568,586.658 C284.288,586.238 284.861,585.671 285.287,584.957 C285.713,584.243 285.926,583.46 285.926,582.608 C285.926,581.756 285.713,580.967 285.287,580.241 C284.861,579.515 284.288,578.942 283.568,578.522 C282.848,578.102 282.068,577.892 281.228,577.892 C280.376,577.892 279.59,578.102 278.87,578.522 C278.15,578.942 277.58,579.515 277.16,580.241 C276.74,580.967 276.53,581.756 276.53,582.608 C276.53,583.46 276.74,584.243 277.16,584.957 C277.58,585.671 278.15,586.238 278.87,586.658 C279.59,587.078 280.376,587.288 281.228,587.288 Z M281.228,585.164 C280.76,585.164 280.328,585.05 279.932,584.822 C279.536,584.594 279.224,584.282 278.996,583.886 C278.768,583.49 278.654,583.064 278.654,582.608 C278.654,582.14 278.768,581.708 278.996,581.312 C279.224,580.916 279.536,580.604 279.932,580.376 C280.328,580.148 280.76,580.034 281.228,580.034 C281.696,580.034 282.125,580.148 282.515,580.376 C282.905,580.604 283.214,580.916 283.442,581.312 C283.67,581.708 283.784,582.14 283.784,582.608 C283.784,583.064 283.67,583.49 283.442,583.886 C283.214,584.282 282.905,584.594 282.515,584.822 C282.125,585.05 281.696,585.164 281.228,585.164 Z M289.778,587 L289.778,582.68 C289.778,582.32 289.823,581.981 289.913,581.663 C290.003,581.345 290.135,581.069 290.309,580.835 C290.483,580.601 290.693,580.415 290.939,580.277 C291.185,580.139 291.47,580.07 291.794,580.07 C292.334,580.07 292.745,580.223 293.027,580.529 C293.309,580.835 293.45,581.306 293.45,581.942 L293.45,581.942 L293.45,587 L295.808,587 L295.808,581.654 C295.808,581.09 295.739,580.577 295.601,580.115 C295.463,579.653 295.259,579.257 294.989,578.927 C294.719,578.597 294.374,578.342 293.954,578.162 C293.534,577.982 293.048,577.892 292.496,577.892 C291.896,577.892 291.362,578.021 290.894,578.279 C290.426,578.537 290.054,578.888 289.778,579.332 L289.778,579.332 L289.634,579.332 L289.634,578.18 L287.42,578.18 L287.42,587 L289.778,587 Z M305.906,587.27 C306.878,587.27 307.736,586.988 308.48,586.424 L308.48,586.424 L308.48,587 L310.784,587 L310.784,578.18 L308.48,578.18 L308.48,578.756 C308.168,578.48 307.784,578.267 307.328,578.117 C306.872,577.967 306.398,577.892 305.906,577.892 C305.066,577.892 304.286,578.102 303.566,578.522 C302.846,578.942 302.273,579.512 301.847,580.232 C301.421,580.952 301.208,581.738 301.208,582.59 C301.208,583.442 301.421,584.225 301.847,584.939 C302.273,585.653 302.846,586.22 303.566,586.64 C304.286,587.06 305.066,587.27 305.906,587.27 Z M305.906,585.236 C305.426,585.236 304.982,585.116 304.574,584.876 C304.166,584.636 303.842,584.312 303.602,583.904 C303.362,583.496 303.242,583.052 303.242,582.572 C303.242,582.092 303.362,581.648 303.602,581.24 C303.842,580.832 304.166,580.508 304.574,580.268 C304.982,580.028 305.426,579.908 305.906,579.908 C306.386,579.908 306.83,580.028 307.238,580.268 C307.646,580.508 307.97,580.832 308.21,581.24 C308.45,581.648 308.57,582.092 308.57,582.572 C308.57,583.052 308.45,583.496 308.21,583.904 C307.97,584.312 307.646,584.636 307.238,584.876 C306.83,585.116 306.386,585.236 305.906,585.236 Z M315.05,587 L315.05,582.68 C315.05,582.32 315.095,581.981 315.185,581.663 C315.275,581.345 315.407,581.069 315.581,580.835 C315.755,580.601 315.965,580.415 316.211,580.277 C316.457,580.139 316.742,580.07 317.066,580.07 C317.606,580.07 318.017,580.223 318.299,580.529 C318.581,580.835 318.722,581.306 318.722,581.942 L318.722,581.942 L318.722,587 L321.08,587 L321.08,581.654 C321.08,581.09 321.011,580.577 320.873,580.115 C320.735,579.653 320.531,579.257 320.261,578.927 C319.991,578.597 319.646,578.342 319.226,578.162 C318.806,577.982 318.32,577.892 317.768,577.892 C317.168,577.892 316.634,578.021 316.166,578.279 C315.698,578.537 315.326,578.888 315.05,579.332 L315.05,579.332 L314.906,579.332 L314.906,578.18 L312.692,578.18 L312.692,587 L315.05,587 Z M327.038,587.27 C328.01,587.27 328.868,586.988 329.612,586.424 L329.612,586.424 L329.612,587 L331.916,587 L331.916,574.112 L329.612,574.112 L329.612,578.756 C329.3,578.48 328.916,578.267 328.46,578.117 C328.004,577.967 327.53,577.892 327.038,577.892 C326.198,577.892 325.418,578.102 324.698,578.522 C323.978,578.942 323.405,579.512 322.979,580.232 C322.553,580.952 322.34,581.738 322.34,582.59 C322.34,583.442 322.553,584.225 322.979,584.939 C323.405,585.653 323.978,586.22 324.698,586.64 C325.418,587.06 326.198,587.27 327.038,587.27 Z M327.038,585.236 C326.558,585.236 326.114,585.116 325.706,584.876 C325.298,584.636 324.974,584.312 324.734,583.904 C324.494,583.496 324.374,583.052 324.374,582.572 C324.374,582.092 324.494,581.648 324.734,581.24 C324.974,580.832 325.298,580.508 325.706,580.268 C326.114,580.028 326.558,579.908 327.038,579.908 C327.518,579.908 327.962,580.028 328.37,580.268 C328.778,580.508 329.102,580.832 329.342,581.24 C329.582,581.648 329.702,582.092 329.702,582.572 C329.702,583.052 329.582,583.496 329.342,583.904 C329.102,584.312 328.778,584.636 328.37,584.876 C327.962,585.116 327.518,585.236 327.038,585.236 Z M341.96,587.288 C342.956,587.288 343.799,587.066 344.489,586.622 C345.179,586.178 345.728,585.596 346.136,584.876 L346.136,584.876 L344.174,583.904 C343.97,584.276 343.691,584.585 343.337,584.831 C342.983,585.077 342.536,585.2 341.996,585.2 C341.72,585.2 341.45,585.161 341.186,585.083 C340.922,585.005 340.679,584.879 340.457,584.705 C340.235,584.531 340.049,584.315 339.899,584.057 C339.749,583.799 339.65,583.49 339.602,583.13 L339.602,583.13 L346.244,583.13 C346.244,583.058 346.25,582.992 346.262,582.932 C346.262,582.872 346.268,582.806 346.28,582.734 L346.28,582.734 L346.28,582.518 C346.28,581.858 346.184,581.246 345.992,580.682 C345.8,580.118 345.518,579.629 345.146,579.215 C344.774,578.801 344.312,578.477 343.76,578.243 C343.208,578.009 342.578,577.892 341.87,577.892 C341.198,577.892 340.583,578.018 340.025,578.27 C339.467,578.522 338.984,578.861 338.576,579.287 C338.168,579.713 337.85,580.211 337.622,580.781 C337.394,581.351 337.28,581.954 337.28,582.59 C337.28,583.274 337.397,583.901 337.631,584.471 C337.865,585.041 338.192,585.536 338.612,585.956 C339.032,586.376 339.527,586.703 340.097,586.937 C340.667,587.171 341.288,587.288 341.96,587.288 Z M343.994,581.456 L339.728,581.456 C339.884,580.94 340.154,580.538 340.538,580.25 C340.922,579.962 341.366,579.818 341.87,579.818 C342.23,579.818 342.539,579.872 342.797,579.98 C343.055,580.088 343.271,580.226 343.445,580.394 C343.619,580.562 343.751,580.742 343.841,580.934 C343.931,581.126 343.982,581.3 343.994,581.456 L343.994,581.456 Z M349.718,587 L351.32,584.48 L351.446,584.48 L353.102,587 L355.874,587 L352.778,582.518 L355.874,578.18 L352.994,578.18 L351.482,580.628 L351.356,580.628 L349.754,578.18 L346.964,578.18 L349.988,582.518 L346.928,587 L349.718,587 Z M359.132,591.05 L359.132,586.406 C359.444,586.682 359.828,586.895 360.284,587.045 C360.74,587.195 361.214,587.27 361.706,587.27 C362.546,587.27 363.326,587.06 364.046,586.64 C364.766,586.22 365.339,585.65 365.765,584.93 C366.191,584.21 366.404,583.424 366.404,582.572 C366.404,581.72 366.191,580.937 365.765,580.223 C365.339,579.509 364.766,578.942 364.046,578.522 C363.326,578.102 362.546,577.892 361.706,577.892 C360.734,577.892 359.876,578.174 359.132,578.738 L359.132,578.738 L359.132,578.162 L356.828,578.162 L356.828,591.05 L359.132,591.05 Z M361.706,585.236 C361.226,585.236 360.782,585.116 360.374,584.876 C359.966,584.636 359.642,584.312 359.402,583.904 C359.162,583.496 359.042,583.052 359.042,582.572 C359.042,582.092 359.162,581.648 359.402,581.24 C359.642,580.832 359.966,580.508 360.374,580.268 C360.782,580.028 361.226,579.908 361.706,579.908 C362.186,579.908 362.63,580.028 363.038,580.268 C363.446,580.508 363.77,580.832 364.01,581.24 C364.25,581.648 364.37,582.092 364.37,582.572 C364.37,583.052 364.25,583.496 364.01,583.904 C363.77,584.312 363.446,584.636 363.038,584.876 C362.63,585.116 362.186,585.236 361.706,585.236 Z M371.948,587.288 C372.944,587.288 373.787,587.066 374.477,586.622 C375.167,586.178 375.716,585.596 376.124,584.876 L376.124,584.876 L374.162,583.904 C373.958,584.276 373.679,584.585 373.325,584.831 C372.971,585.077 372.524,585.2 371.984,585.2 C371.708,585.2 371.438,585.161 371.174,585.083 C370.91,585.005 370.667,584.879 370.445,584.705 C370.223,584.531 370.037,584.315 369.887,584.057 C369.737,583.799 369.638,583.49 369.59,583.13 L369.59,583.13 L376.232,583.13 C376.232,583.058 376.238,582.992 376.25,582.932 C376.25,582.872 376.256,582.806 376.268,582.734 L376.268,582.734 L376.268,582.518 C376.268,581.858 376.172,581.246 375.98,580.682 C375.788,580.118 375.506,579.629 375.134,579.215 C374.762,578.801 374.3,578.477 373.748,578.243 C373.196,578.009 372.566,577.892 371.858,577.892 C371.186,577.892 370.571,578.018 370.013,578.27 C369.455,578.522 368.972,578.861 368.564,579.287 C368.156,579.713 367.838,580.211 367.61,580.781 C367.382,581.351 367.268,581.954 367.268,582.59 C367.268,583.274 367.385,583.901 367.619,584.471 C367.853,585.041 368.18,585.536 368.6,585.956 C369.02,586.376 369.515,586.703 370.085,586.937 C370.655,587.171 371.276,587.288 371.948,587.288 Z M373.982,581.456 L369.716,581.456 C369.872,580.94 370.142,580.538 370.526,580.25 C370.91,579.962 371.354,579.818 371.858,579.818 C372.218,579.818 372.527,579.872 372.785,579.98 C373.043,580.088 373.259,580.226 373.433,580.394 C373.607,580.562 373.739,580.742 373.829,580.934 C373.919,581.126 373.97,581.3 373.982,581.456 L373.982,581.456 Z M380.354,587 L380.354,583.508 C380.354,582.872 380.48,582.266 380.732,581.69 C380.936,581.246 381.215,580.874 381.569,580.574 C381.923,580.274 382.37,580.124 382.91,580.124 C383.114,580.124 383.354,580.154 383.63,580.214 L383.63,580.214 L383.63,578.144 C383.462,578.096 383.336,578.066 383.252,578.054 C383.084,578.03 382.958,578.018 382.874,578.018 C382.31,578.018 381.806,578.156 381.362,578.432 C380.918,578.708 380.582,579.086 380.354,579.566 L380.354,579.566 L380.354,578.198 L378.032,578.198 L378.032,587 L380.354,587 Z M387.608,576.47 L387.608,574.112 L385.25,574.112 L385.25,576.47 L387.608,576.47 Z M387.608,587 L387.608,578.18 L385.25,578.18 L385.25,587 L387.608,587 Z M393.944,587.288 C394.94,587.288 395.783,587.066 396.473,586.622 C397.163,586.178 397.712,585.596 398.12,584.876 L398.12,584.876 L396.158,583.904 C395.954,584.276 395.675,584.585 395.321,584.831 C394.967,585.077 394.52,585.2 393.98,585.2 C393.704,585.2 393.434,585.161 393.17,585.083 C392.906,585.005 392.663,584.879 392.441,584.705 C392.219,584.531 392.033,584.315 391.883,584.057 C391.733,583.799 391.634,583.49 391.586,583.13 L391.586,583.13 L398.228,583.13 C398.228,583.058 398.234,582.992 398.246,582.932 C398.246,582.872 398.252,582.806 398.264,582.734 L398.264,582.734 L398.264,582.518 C398.264,581.858 398.168,581.246 397.976,580.682 C397.784,580.118 397.502,579.629 397.13,579.215 C396.758,578.801 396.296,578.477 395.744,578.243 C395.192,578.009 394.562,577.892 393.854,577.892 C393.182,577.892 392.567,578.018 392.009,578.27 C391.451,578.522 390.968,578.861 390.56,579.287 C390.152,579.713 389.834,580.211 389.606,580.781 C389.378,581.351 389.264,581.954 389.264,582.59 C389.264,583.274 389.381,583.901 389.615,584.471 C389.849,585.041 390.176,585.536 390.596,585.956 C391.016,586.376 391.511,586.703 392.081,586.937 C392.651,587.171 393.272,587.288 393.944,587.288 Z M395.978,581.456 L391.712,581.456 C391.868,580.94 392.138,580.538 392.522,580.25 C392.906,579.962 393.35,579.818 393.854,579.818 C394.214,579.818 394.523,579.872 394.781,579.98 C395.039,580.088 395.255,580.226 395.429,580.394 C395.603,580.562 395.735,580.742 395.825,580.934 C395.915,581.126 395.966,581.3 395.978,581.456 L395.978,581.456 Z M402.134,587 L402.134,582.68 C402.134,582.32 402.179,581.981 402.269,581.663 C402.359,581.345 402.491,581.069 402.665,580.835 C402.839,580.601 403.049,580.415 403.295,580.277 C403.541,580.139 403.826,580.07 404.15,580.07 C404.69,580.07 405.101,580.223 405.383,580.529 C405.665,580.835 405.806,581.306 405.806,581.942 L405.806,581.942 L405.806,587 L408.164,587 L408.164,581.654 C408.164,581.09 408.095,580.577 407.957,580.115 C407.819,579.653 407.615,579.257 407.345,578.927 C407.075,578.597 406.73,578.342 406.31,578.162 C405.89,577.982 405.404,577.892 404.852,577.892 C404.252,577.892 403.718,578.021 403.25,578.279 C402.782,578.537 402.41,578.888 402.134,579.332 L402.134,579.332 L401.99,579.332 L401.99,578.18 L399.776,578.18 L399.776,587 L402.134,587 Z M414.284,587.288 C415.316,587.288 416.177,587.051 416.867,586.577 C417.557,586.103 418.094,585.494 418.478,584.75 L418.478,584.75 L416.318,583.814 C416.114,584.234 415.841,584.555 415.499,584.777 C415.157,584.999 414.74,585.11 414.248,585.11 C413.936,585.11 413.642,585.05 413.366,584.93 C413.09,584.81 412.847,584.642 412.637,584.426 C412.427,584.21 412.262,583.946 412.142,583.634 C412.022,583.322 411.962,582.974 411.962,582.59 C411.962,582.206 412.022,581.858 412.142,581.546 C412.262,581.234 412.427,580.97 412.637,580.754 C412.847,580.538 413.09,580.37 413.366,580.25 C413.642,580.13 413.936,580.07 414.248,580.07 C414.728,580.07 415.127,580.175 415.445,580.385 C415.763,580.595 416.024,580.904 416.228,581.312 L416.228,581.312 L418.388,580.412 C418.064,579.668 417.554,579.062 416.858,578.594 C416.162,578.126 415.304,577.892 414.284,577.892 C413.6,577.892 412.973,578.009 412.403,578.243 C411.833,578.477 411.341,578.801 410.927,579.215 C410.513,579.629 410.189,580.124 409.955,580.7 C409.721,581.276 409.604,581.906 409.604,582.59 C409.604,583.274 409.721,583.901 409.955,584.471 C410.189,585.041 410.513,585.536 410.927,585.956 C411.341,586.376 411.833,586.703 412.403,586.937 C412.973,587.171 413.6,587.288 414.284,587.288 Z M424.094,587.288 C425.09,587.288 425.933,587.066 426.623,586.622 C427.313,586.178 427.862,585.596 428.27,584.876 L428.27,584.876 L426.308,583.904 C426.104,584.276 425.825,584.585 425.471,584.831 C425.117,585.077 424.67,585.2 424.13,585.2 C423.854,585.2 423.584,585.161 423.32,585.083 C423.056,585.005 422.813,584.879 422.591,584.705 C422.369,584.531 422.183,584.315 422.033,584.057 C421.883,583.799 421.784,583.49 421.736,583.13 L421.736,583.13 L428.378,583.13 C428.378,583.058 428.384,582.992 428.396,582.932 C428.396,582.872 428.402,582.806 428.414,582.734 L428.414,582.734 L428.414,582.518 C428.414,581.858 428.318,581.246 428.126,580.682 C427.934,580.118 427.652,579.629 427.28,579.215 C426.908,578.801 426.446,578.477 425.894,578.243 C425.342,578.009 424.712,577.892 424.004,577.892 C423.332,577.892 422.717,578.018 422.159,578.27 C421.601,578.522 421.118,578.861 420.71,579.287 C420.302,579.713 419.984,580.211 419.756,580.781 C419.528,581.351 419.414,581.954 419.414,582.59 C419.414,583.274 419.531,583.901 419.765,584.471 C419.999,585.041 420.326,585.536 420.746,585.956 C421.166,586.376 421.661,586.703 422.231,586.937 C422.801,587.171 423.422,587.288 424.094,587.288 Z M426.128,581.456 L421.862,581.456 C422.018,580.94 422.288,580.538 422.672,580.25 C423.056,579.962 423.5,579.818 424.004,579.818 C424.364,579.818 424.673,579.872 424.931,579.98 C425.189,580.088 425.405,580.226 425.579,580.394 C425.753,580.562 425.885,580.742 425.975,580.934 C426.065,581.126 426.116,581.3 426.128,581.456 L426.128,581.456 Z" id="Expansionofvisionandexperience"></path>
            </g>
        </g>
    </g>
</svg>