<?xml version="1.0" encoding="UTF-8"?>
<svg width="144px" height="38px" viewBox="0 0 144 38" version="1.1" xmlns="http://www.w3.org/2000/svg" xmlns:xlink="http://www.w3.org/1999/xlink">
    <!-- Generator: Sketch 61 (89581) - https://sketch.com -->
    <title>Travel-optimizedtechnology</title>
    <desc>Created with Sketch.</desc>
    <g id="Page-1" stroke="none" stroke-width="1" fill="none" fill-rule="evenodd">
        <g id="SquareLab_Draft-Copy-6" transform="translate(-1173.000000, -2901.000000)" fill="#FFFFFF" fill-rule="nonzero">
            <g id="Story_03" transform="translate(12.000000, 2148.000000)">
                <g id="Copy" transform="translate(560.000000, 490.000000)">
                    <path d="M607.462,276 L607.462,265.416 L611.062,265.416 L611.062,263.112 L601.432,263.112 L601.432,265.416 L605.032,265.416 L605.032,276 L607.462,276 Z M615.076,276 L615.076,272.508 C615.076,271.872 615.202,271.266 615.454,270.69 C615.658,270.246 615.937,269.874 616.291,269.574 C616.645,269.274 617.092,269.124 617.632,269.124 C617.836,269.124 618.076,269.154 618.352,269.214 L618.352,269.214 L618.352,267.144 C618.184,267.096 618.058,267.066 617.974,267.054 C617.806,267.03 617.68,267.018 617.596,267.018 C617.032,267.018 616.528,267.156 616.084,267.432 C615.64,267.708 615.304,268.086 615.076,268.566 L615.076,268.566 L615.076,267.198 L612.754,267.198 L612.754,276 L615.076,276 Z M624.022,276.27 C624.994,276.27 625.852,275.988 626.596,275.424 L626.596,275.424 L626.596,276 L628.9,276 L628.9,267.18 L626.596,267.18 L626.596,267.756 C626.284,267.48 625.9,267.267 625.444,267.117 C624.988,266.967 624.514,266.892 624.022,266.892 C623.182,266.892 622.402,267.102 621.682,267.522 C620.962,267.942 620.389,268.512 619.963,269.232 C619.537,269.952 619.324,270.738 619.324,271.59 C619.324,272.442 619.537,273.225 619.963,273.939 C620.389,274.653 620.962,275.22 621.682,275.64 C622.402,276.06 623.182,276.27 624.022,276.27 Z M624.022,274.236 C623.542,274.236 623.098,274.116 622.69,273.876 C622.282,273.636 621.958,273.312 621.718,272.904 C621.478,272.496 621.358,272.052 621.358,271.572 C621.358,271.092 621.478,270.648 621.718,270.24 C621.958,269.832 622.282,269.508 622.69,269.268 C623.098,269.028 623.542,268.908 624.022,268.908 C624.502,268.908 624.946,269.028 625.354,269.268 C625.762,269.508 626.086,269.832 626.326,270.24 C626.566,270.648 626.686,271.092 626.686,271.572 C626.686,272.052 626.566,272.496 626.326,272.904 C626.086,273.312 625.762,273.636 625.354,273.876 C624.946,274.116 624.502,274.236 624.022,274.236 Z M635.956,276 L639.754,267.18 L637.09,267.18 L634.876,272.796 L634.75,272.796 L632.554,267.18 L629.872,267.18 L633.634,276 L635.956,276 Z M645.01,276.288 C646.006,276.288 646.849,276.066 647.539,275.622 C648.229,275.178 648.778,274.596 649.186,273.876 L649.186,273.876 L647.224,272.904 C647.02,273.276 646.741,273.585 646.387,273.831 C646.033,274.077 645.586,274.2 645.046,274.2 C644.77,274.2 644.5,274.161 644.236,274.083 C643.972,274.005 643.729,273.879 643.507,273.705 C643.285,273.531 643.099,273.315 642.949,273.057 C642.799,272.799 642.7,272.49 642.652,272.13 L642.652,272.13 L649.294,272.13 C649.294,272.058 649.3,271.992 649.312,271.932 C649.312,271.872 649.318,271.806 649.33,271.734 L649.33,271.734 L649.33,271.518 C649.33,270.858 649.234,270.246 649.042,269.682 C648.85,269.118 648.568,268.629 648.196,268.215 C647.824,267.801 647.362,267.477 646.81,267.243 C646.258,267.009 645.628,266.892 644.92,266.892 C644.248,266.892 643.633,267.018 643.075,267.27 C642.517,267.522 642.034,267.861 641.626,268.287 C641.218,268.713 640.9,269.211 640.672,269.781 C640.444,270.351 640.33,270.954 640.33,271.59 C640.33,272.274 640.447,272.901 640.681,273.471 C640.915,274.041 641.242,274.536 641.662,274.956 C642.082,275.376 642.577,275.703 643.147,275.937 C643.717,276.171 644.338,276.288 645.01,276.288 Z M647.044,270.456 L642.778,270.456 C642.934,269.94 643.204,269.538 643.588,269.25 C643.972,268.962 644.416,268.818 644.92,268.818 C645.28,268.818 645.589,268.872 645.847,268.98 C646.105,269.088 646.321,269.226 646.495,269.394 C646.669,269.562 646.801,269.742 646.891,269.934 C646.981,270.126 647.032,270.3 647.044,270.456 L647.044,270.456 Z M653.2,276 L653.2,263.112 L650.842,263.112 L650.842,276 L653.2,276 Z M661.318,271.464 L661.318,269.376 L655.216,269.376 L655.216,271.464 L661.318,271.464 Z M667.51,276.288 C668.35,276.288 669.13,276.078 669.85,275.658 C670.57,275.238 671.143,274.671 671.569,273.957 C671.995,273.243 672.208,272.46 672.208,271.608 C672.208,270.756 671.995,269.967 671.569,269.241 C671.143,268.515 670.57,267.942 669.85,267.522 C669.13,267.102 668.35,266.892 667.51,266.892 C666.658,266.892 665.872,267.102 665.152,267.522 C664.432,267.942 663.862,268.515 663.442,269.241 C663.022,269.967 662.812,270.756 662.812,271.608 C662.812,272.46 663.022,273.243 663.442,273.957 C663.862,274.671 664.432,275.238 665.152,275.658 C665.872,276.078 666.658,276.288 667.51,276.288 Z M667.51,274.164 C667.042,274.164 666.61,274.05 666.214,273.822 C665.818,273.594 665.506,273.282 665.278,272.886 C665.05,272.49 664.936,272.064 664.936,271.608 C664.936,271.14 665.05,270.708 665.278,270.312 C665.506,269.916 665.818,269.604 666.214,269.376 C666.61,269.148 667.042,269.034 667.51,269.034 C667.978,269.034 668.407,269.148 668.797,269.376 C669.187,269.604 669.496,269.916 669.724,270.312 C669.952,270.708 670.066,271.14 670.066,271.608 C670.066,272.064 669.952,272.49 669.724,272.886 C669.496,273.282 669.187,273.594 668.797,273.822 C668.407,274.05 667.978,274.164 667.51,274.164 Z M675.79,280.05 L675.79,275.406 C676.102,275.682 676.486,275.895 676.942,276.045 C677.398,276.195 677.872,276.27 678.364,276.27 C679.204,276.27 679.984,276.06 680.704,275.64 C681.424,275.22 681.997,274.65 682.423,273.93 C682.849,273.21 683.062,272.424 683.062,271.572 C683.062,270.72 682.849,269.937 682.423,269.223 C681.997,268.509 681.424,267.942 680.704,267.522 C679.984,267.102 679.204,266.892 678.364,266.892 C677.392,266.892 676.534,267.174 675.79,267.738 L675.79,267.738 L675.79,267.162 L673.486,267.162 L673.486,280.05 L675.79,280.05 Z M678.364,274.236 C677.884,274.236 677.44,274.116 677.032,273.876 C676.624,273.636 676.3,273.312 676.06,272.904 C675.82,272.496 675.7,272.052 675.7,271.572 C675.7,271.092 675.82,270.648 676.06,270.24 C676.3,269.832 676.624,269.508 677.032,269.268 C677.44,269.028 677.884,268.908 678.364,268.908 C678.844,268.908 679.288,269.028 679.696,269.268 C680.104,269.508 680.428,269.832 680.668,270.24 C680.908,270.648 681.028,271.092 681.028,271.572 C681.028,272.052 680.908,272.496 680.668,272.904 C680.428,273.312 680.104,273.636 679.696,273.876 C679.288,274.116 678.844,274.236 678.364,274.236 Z M688.336,276.144 C688.72,276.144 689.071,276.111 689.389,276.045 C689.707,275.979 690.004,275.88 690.28,275.748 L690.28,275.748 L689.614,273.678 C689.506,273.75 689.392,273.807 689.272,273.849 C689.152,273.891 688.99,273.912 688.786,273.912 C688.474,273.912 688.234,273.816 688.066,273.624 C687.946,273.504 687.865,273.357 687.823,273.183 C687.781,273.009 687.76,272.82 687.76,272.616 L687.76,272.616 L687.76,269.196 L689.92,269.196 L689.92,267.18 L687.76,267.18 L687.76,264.48 L685.402,264.48 L685.402,267.18 L683.854,267.18 L683.854,269.196 L685.402,269.196 L685.402,273.066 C685.402,274.062 685.684,274.83 686.248,275.37 C686.488,275.61 686.785,275.799 687.139,275.937 C687.493,276.075 687.892,276.144 688.336,276.144 Z M694.15,265.47 L694.15,263.112 L691.792,263.112 L691.792,265.47 L694.15,265.47 Z M694.15,276 L694.15,267.18 L691.792,267.18 L691.792,276 L694.15,276 Z M698.668,276 L698.668,271.716 C698.668,271.344 698.71,270.996 698.794,270.672 C698.878,270.348 698.998,270.069 699.154,269.835 C699.31,269.601 699.502,269.415 699.73,269.277 C699.958,269.139 700.222,269.07 700.522,269.07 C701.554,269.07 702.07,269.67 702.07,270.87 L702.07,270.87 L702.07,276 L704.428,276 L704.428,271.716 C704.428,271.344 704.473,270.996 704.563,270.672 C704.653,270.348 704.779,270.069 704.941,269.835 C705.103,269.601 705.304,269.415 705.544,269.277 C705.784,269.139 706.06,269.07 706.372,269.07 C707.356,269.07 707.848,269.67 707.848,270.87 L707.848,270.87 L707.848,276 L710.206,276 L710.206,270.438 C710.206,269.922 710.14,269.445 710.008,269.007 C709.876,268.569 709.681,268.194 709.423,267.882 C709.165,267.57 708.838,267.327 708.442,267.153 C708.046,266.979 707.578,266.892 707.038,266.892 C706.318,266.892 705.706,267.051 705.202,267.369 C704.698,267.687 704.308,268.068 704.032,268.512 C703.84,268.056 703.516,267.672 703.06,267.36 C702.604,267.048 702.04,266.892 701.368,266.892 C700.792,266.892 700.267,267.024 699.793,267.288 C699.319,267.552 698.944,267.9 698.668,268.332 L698.668,268.332 L698.524,268.332 L698.524,267.18 L696.31,267.18 L696.31,276 L698.668,276 Z M714.652,265.47 L714.652,263.112 L712.294,263.112 L712.294,265.47 L714.652,265.47 Z M714.652,276 L714.652,267.18 L712.294,267.18 L712.294,276 L714.652,276 Z M723.85,276 L723.85,273.984 L719.278,273.984 L723.778,269.124 L723.778,267.18 L716.524,267.18 L716.524,269.196 L720.88,269.196 L716.38,274.056 L716.38,276 L723.85,276 Z M729.61,276.288 C730.606,276.288 731.449,276.066 732.139,275.622 C732.829,275.178 733.378,274.596 733.786,273.876 L733.786,273.876 L731.824,272.904 C731.62,273.276 731.341,273.585 730.987,273.831 C730.633,274.077 730.186,274.2 729.646,274.2 C729.37,274.2 729.1,274.161 728.836,274.083 C728.572,274.005 728.329,273.879 728.107,273.705 C727.885,273.531 727.699,273.315 727.549,273.057 C727.399,272.799 727.3,272.49 727.252,272.13 L727.252,272.13 L733.894,272.13 C733.894,272.058 733.9,271.992 733.912,271.932 C733.912,271.872 733.918,271.806 733.93,271.734 L733.93,271.734 L733.93,271.518 C733.93,270.858 733.834,270.246 733.642,269.682 C733.45,269.118 733.168,268.629 732.796,268.215 C732.424,267.801 731.962,267.477 731.41,267.243 C730.858,267.009 730.228,266.892 729.52,266.892 C728.848,266.892 728.233,267.018 727.675,267.27 C727.117,267.522 726.634,267.861 726.226,268.287 C725.818,268.713 725.5,269.211 725.272,269.781 C725.044,270.351 724.93,270.954 724.93,271.59 C724.93,272.274 725.047,272.901 725.281,273.471 C725.515,274.041 725.842,274.536 726.262,274.956 C726.682,275.376 727.177,275.703 727.747,275.937 C728.317,276.171 728.938,276.288 729.61,276.288 Z M731.644,270.456 L727.378,270.456 C727.534,269.94 727.804,269.538 728.188,269.25 C728.572,268.962 729.016,268.818 729.52,268.818 C729.88,268.818 730.189,268.872 730.447,268.98 C730.705,269.088 730.921,269.226 731.095,269.394 C731.269,269.562 731.401,269.742 731.491,269.934 C731.581,270.126 731.632,270.3 731.644,270.456 L731.644,270.456 Z M739.456,276.27 C740.428,276.27 741.286,275.988 742.03,275.424 L742.03,275.424 L742.03,276 L744.334,276 L744.334,263.112 L742.03,263.112 L742.03,267.756 C741.718,267.48 741.334,267.267 740.878,267.117 C740.422,266.967 739.948,266.892 739.456,266.892 C738.616,266.892 737.836,267.102 737.116,267.522 C736.396,267.942 735.823,268.512 735.397,269.232 C734.971,269.952 734.758,270.738 734.758,271.59 C734.758,272.442 734.971,273.225 735.397,273.939 C735.823,274.653 736.396,275.22 737.116,275.64 C737.836,276.06 738.616,276.27 739.456,276.27 Z M739.456,274.236 C738.976,274.236 738.532,274.116 738.124,273.876 C737.716,273.636 737.392,273.312 737.152,272.904 C736.912,272.496 736.792,272.052 736.792,271.572 C736.792,271.092 736.912,270.648 737.152,270.24 C737.392,269.832 737.716,269.508 738.124,269.268 C738.532,269.028 738.976,268.908 739.456,268.908 C739.936,268.908 740.38,269.028 740.788,269.268 C741.196,269.508 741.52,269.832 741.76,270.24 C742,270.648 742.12,271.092 742.12,271.572 C742.12,272.052 742,272.496 741.76,272.904 C741.52,273.312 741.196,273.636 740.788,273.876 C740.38,274.116 739.936,274.236 739.456,274.236 Z M605.914,296.144 C606.298,296.144 606.649,296.111 606.967,296.045 C607.285,295.979 607.582,295.88 607.858,295.748 L607.858,295.748 L607.192,293.678 C607.084,293.75 606.97,293.807 606.85,293.849 C606.73,293.891 606.568,293.912 606.364,293.912 C606.052,293.912 605.812,293.816 605.644,293.624 C605.524,293.504 605.443,293.357 605.401,293.183 C605.359,293.009 605.338,292.82 605.338,292.616 L605.338,292.616 L605.338,289.196 L607.498,289.196 L607.498,287.18 L605.338,287.18 L605.338,284.48 L602.98,284.48 L602.98,287.18 L601.432,287.18 L601.432,289.196 L602.98,289.196 L602.98,293.066 C602.98,294.062 603.262,294.83 603.826,295.37 C604.066,295.61 604.363,295.799 604.717,295.937 C605.071,296.075 605.47,296.144 605.914,296.144 Z M613.402,296.288 C614.398,296.288 615.241,296.066 615.931,295.622 C616.621,295.178 617.17,294.596 617.578,293.876 L617.578,293.876 L615.616,292.904 C615.412,293.276 615.133,293.585 614.779,293.831 C614.425,294.077 613.978,294.2 613.438,294.2 C613.162,294.2 612.892,294.161 612.628,294.083 C612.364,294.005 612.121,293.879 611.899,293.705 C611.677,293.531 611.491,293.315 611.341,293.057 C611.191,292.799 611.092,292.49 611.044,292.13 L611.044,292.13 L617.686,292.13 C617.686,292.058 617.692,291.992 617.704,291.932 C617.704,291.872 617.71,291.806 617.722,291.734 L617.722,291.734 L617.722,291.518 C617.722,290.858 617.626,290.246 617.434,289.682 C617.242,289.118 616.96,288.629 616.588,288.215 C616.216,287.801 615.754,287.477 615.202,287.243 C614.65,287.009 614.02,286.892 613.312,286.892 C612.64,286.892 612.025,287.018 611.467,287.27 C610.909,287.522 610.426,287.861 610.018,288.287 C609.61,288.713 609.292,289.211 609.064,289.781 C608.836,290.351 608.722,290.954 608.722,291.59 C608.722,292.274 608.839,292.901 609.073,293.471 C609.307,294.041 609.634,294.536 610.054,294.956 C610.474,295.376 610.969,295.703 611.539,295.937 C612.109,296.171 612.73,296.288 613.402,296.288 Z M615.436,290.456 L611.17,290.456 C611.326,289.94 611.596,289.538 611.98,289.25 C612.364,288.962 612.808,288.818 613.312,288.818 C613.672,288.818 613.981,288.872 614.239,288.98 C614.497,289.088 614.713,289.226 614.887,289.394 C615.061,289.562 615.193,289.742 615.283,289.934 C615.373,290.126 615.424,290.3 615.436,290.456 L615.436,290.456 Z M623.41,296.288 C624.442,296.288 625.303,296.051 625.993,295.577 C626.683,295.103 627.22,294.494 627.604,293.75 L627.604,293.75 L625.444,292.814 C625.24,293.234 624.967,293.555 624.625,293.777 C624.283,293.999 623.866,294.11 623.374,294.11 C623.062,294.11 622.768,294.05 622.492,293.93 C622.216,293.81 621.973,293.642 621.763,293.426 C621.553,293.21 621.388,292.946 621.268,292.634 C621.148,292.322 621.088,291.974 621.088,291.59 C621.088,291.206 621.148,290.858 621.268,290.546 C621.388,290.234 621.553,289.97 621.763,289.754 C621.973,289.538 622.216,289.37 622.492,289.25 C622.768,289.13 623.062,289.07 623.374,289.07 C623.854,289.07 624.253,289.175 624.571,289.385 C624.889,289.595 625.15,289.904 625.354,290.312 L625.354,290.312 L627.514,289.412 C627.19,288.668 626.68,288.062 625.984,287.594 C625.288,287.126 624.43,286.892 623.41,286.892 C622.726,286.892 622.099,287.009 621.529,287.243 C620.959,287.477 620.467,287.801 620.053,288.215 C619.639,288.629 619.315,289.124 619.081,289.7 C618.847,290.276 618.73,290.906 618.73,291.59 C618.73,292.274 618.847,292.901 619.081,293.471 C619.315,294.041 619.639,294.536 620.053,294.956 C620.467,295.376 620.959,295.703 621.529,295.937 C622.099,296.171 622.726,296.288 623.41,296.288 Z M631.384,296 L631.384,290.996 C631.384,290.708 631.48,290.441 631.672,290.195 C631.864,289.949 632.11,289.751 632.41,289.601 C632.71,289.451 633.01,289.37 633.31,289.358 C633.766,289.37 634.186,289.538 634.57,289.862 C634.954,290.186 635.146,290.564 635.146,290.996 L635.146,296 L637.468,296 L637.468,290.996 C637.468,290.276 637.288,289.61 636.928,288.998 C636.568,288.386 636.085,287.9 635.479,287.54 C634.873,287.18 634.21,287 633.49,287 C632.746,287 632.044,287.192 631.384,287.576 L631.384,283.112 L629.044,283.112 L629.044,296 L631.384,296 Z M641.734,296 L641.734,291.68 C641.734,291.32 641.779,290.981 641.869,290.663 C641.959,290.345 642.091,290.069 642.265,289.835 C642.439,289.601 642.649,289.415 642.895,289.277 C643.141,289.139 643.426,289.07 643.75,289.07 C644.29,289.07 644.701,289.223 644.983,289.529 C645.265,289.835 645.406,290.306 645.406,290.942 L645.406,290.942 L645.406,296 L647.764,296 L647.764,290.654 C647.764,290.09 647.695,289.577 647.557,289.115 C647.419,288.653 647.215,288.257 646.945,287.927 C646.675,287.597 646.33,287.342 645.91,287.162 C645.49,286.982 645.004,286.892 644.452,286.892 C643.852,286.892 643.318,287.021 642.85,287.279 C642.382,287.537 642.01,287.888 641.734,288.332 L641.734,288.332 L641.59,288.332 L641.59,287.18 L639.376,287.18 L639.376,296 L641.734,296 Z M653.884,296.288 C654.724,296.288 655.504,296.078 656.224,295.658 C656.944,295.238 657.517,294.671 657.943,293.957 C658.369,293.243 658.582,292.46 658.582,291.608 C658.582,290.756 658.369,289.967 657.943,289.241 C657.517,288.515 656.944,287.942 656.224,287.522 C655.504,287.102 654.724,286.892 653.884,286.892 C653.032,286.892 652.246,287.102 651.526,287.522 C650.806,287.942 650.236,288.515 649.816,289.241 C649.396,289.967 649.186,290.756 649.186,291.608 C649.186,292.46 649.396,293.243 649.816,293.957 C650.236,294.671 650.806,295.238 651.526,295.658 C652.246,296.078 653.032,296.288 653.884,296.288 Z M653.884,294.164 C653.416,294.164 652.984,294.05 652.588,293.822 C652.192,293.594 651.88,293.282 651.652,292.886 C651.424,292.49 651.31,292.064 651.31,291.608 C651.31,291.14 651.424,290.708 651.652,290.312 C651.88,289.916 652.192,289.604 652.588,289.376 C652.984,289.148 653.416,289.034 653.884,289.034 C654.352,289.034 654.781,289.148 655.171,289.376 C655.561,289.604 655.87,289.916 656.098,290.312 C656.326,290.708 656.44,291.14 656.44,291.608 C656.44,292.064 656.326,292.49 656.098,292.886 C655.87,293.282 655.561,293.594 655.171,293.822 C654.781,294.05 654.352,294.164 653.884,294.164 Z M662.434,296 L662.434,283.112 L660.076,283.112 L660.076,296 L662.434,296 Z M668.626,296.288 C669.466,296.288 670.246,296.078 670.966,295.658 C671.686,295.238 672.259,294.671 672.685,293.957 C673.111,293.243 673.324,292.46 673.324,291.608 C673.324,290.756 673.111,289.967 672.685,289.241 C672.259,288.515 671.686,287.942 670.966,287.522 C670.246,287.102 669.466,286.892 668.626,286.892 C667.774,286.892 666.988,287.102 666.268,287.522 C665.548,287.942 664.978,288.515 664.558,289.241 C664.138,289.967 663.928,290.756 663.928,291.608 C663.928,292.46 664.138,293.243 664.558,293.957 C664.978,294.671 665.548,295.238 666.268,295.658 C666.988,296.078 667.774,296.288 668.626,296.288 Z M668.626,294.164 C668.158,294.164 667.726,294.05 667.33,293.822 C666.934,293.594 666.622,293.282 666.394,292.886 C666.166,292.49 666.052,292.064 666.052,291.608 C666.052,291.14 666.166,290.708 666.394,290.312 C666.622,289.916 666.934,289.604 667.33,289.376 C667.726,289.148 668.158,289.034 668.626,289.034 C669.094,289.034 669.523,289.148 669.913,289.376 C670.303,289.604 670.612,289.916 670.84,290.312 C671.068,290.708 671.182,291.14 671.182,291.608 C671.182,292.064 671.068,292.49 670.84,292.886 C670.612,293.282 670.303,293.594 669.913,293.822 C669.523,294.05 669.094,294.164 668.626,294.164 Z M679.174,300.212 C679.858,300.212 680.488,300.104 681.064,299.888 C681.64,299.648 682.126,299.33 682.522,298.934 C682.93,298.514 683.248,298.01 683.476,297.422 C683.704,296.798 683.818,296.132 683.818,295.424 L683.818,295.424 L683.818,287.18 L681.568,287.18 L681.568,287.63 C680.812,287.138 679.978,286.892 679.066,286.892 C678.238,286.892 677.473,287.099 676.771,287.513 C676.069,287.927 675.511,288.485 675.097,289.187 C674.683,289.889 674.476,290.654 674.476,291.482 C674.476,292.31 674.683,293.075 675.097,293.777 C675.511,294.479 676.069,295.037 676.771,295.451 C677.473,295.865 678.238,296.072 679.066,296.072 C679.978,296.072 680.812,295.826 681.568,295.334 C681.568,295.766 681.514,296.162 681.406,296.522 C681.298,296.882 681.136,297.176 680.92,297.404 C680.488,297.896 679.906,298.142 679.174,298.142 C678.718,298.142 678.292,298.01 677.896,297.746 C677.704,297.626 677.542,297.47 677.41,297.278 C677.35,297.218 677.302,297.152 677.266,297.08 L677.266,297.08 L675.034,298.034 C675.154,298.226 675.262,298.376 675.358,298.484 C675.574,298.784 675.868,299.072 676.24,299.348 C676.612,299.612 677.038,299.822 677.518,299.978 C677.974,300.134 678.526,300.212 679.174,300.212 Z M679.066,294.11 C678.622,294.11 678.196,293.987 677.788,293.741 C677.38,293.495 677.053,293.168 676.807,292.76 C676.561,292.352 676.438,291.926 676.438,291.482 C676.438,291.038 676.558,290.612 676.798,290.204 C677.038,289.796 677.362,289.469 677.77,289.223 C678.178,288.977 678.61,288.854 679.066,288.854 C679.186,288.854 679.288,288.86 679.372,288.872 C679.456,288.884 679.522,288.896 679.57,288.908 C680.062,289.016 680.503,289.265 680.893,289.655 C681.283,290.045 681.532,290.486 681.64,290.978 C681.652,291.026 681.664,291.092 681.676,291.176 C681.688,291.26 681.694,291.362 681.694,291.482 C681.694,291.926 681.571,292.352 681.325,292.76 C681.079,293.168 680.752,293.495 680.344,293.741 C679.936,293.987 679.51,294.11 679.066,294.11 Z M688.912,299.888 L694.438,287.18 L691.81,287.18 L689.668,292.526 L689.542,292.526 L687.31,287.18 L684.628,287.18 L688.336,295.568 L686.374,299.888 L688.912,299.888 Z" id="Travel-optimizedtechnology"></path>
                </g>
            </g>
        </g>
    </g>
</svg>