<?xml version="1.0" encoding="UTF-8"?>
<svg width="247px" height="41px" viewBox="0 0 247 41" version="1.1" xmlns="http://www.w3.org/2000/svg" xmlns:xlink="http://www.w3.org/1999/xlink">
    <!-- Generator: Sketch 61 (89581) - https://sketch.com -->
    <title>Easily,simply,spontaneously.Justgo.</title>
    <desc>Created with Sketch.</desc>
    <g id="Page-1" stroke="none" stroke-width="1" fill="none" fill-rule="evenodd">
        <g id="SquareLab_Draft-Copy-6" transform="translate(-1159.000000, -1830.000000)" fill="#FFFFFF" fill-rule="nonzero">
            <g id="Story_02" transform="translate(0.000000, 1080.000000)">
                <g id="Copy" transform="translate(560.000000, 484.240278)">
                    <path d="M608.468,278.856019 L608.468,276.552019 L602.726,276.552019 L602.726,273.564019 L607.892,273.564019 L607.892,271.260019 L602.726,271.260019 L602.726,268.272019 L608.468,268.272019 L608.468,265.968019 L600.296,265.968019 L600.296,278.856019 L608.468,278.856019 Z M614.606,279.126019 C615.578,279.126019 616.436,278.844019 617.18,278.280019 L617.18,278.280019 L617.18,278.856019 L619.484,278.856019 L619.484,270.036019 L617.18,270.036019 L617.18,270.612019 C616.868,270.336019 616.484,270.123019 616.028,269.973019 C615.572,269.823019 615.098,269.748019 614.606,269.748019 C613.766,269.748019 612.986,269.958019 612.266,270.378019 C611.546,270.798019 610.973,271.368019 610.547,272.088019 C610.121,272.808019 609.908,273.594019 609.908,274.446019 C609.908,275.298019 610.121,276.081019 610.547,276.795019 C610.973,277.509019 611.546,278.076019 612.266,278.496019 C612.986,278.916019 613.766,279.126019 614.606,279.126019 Z M614.606,277.092019 C614.126,277.092019 613.682,276.972019 613.274,276.732019 C612.866,276.492019 612.542,276.168019 612.302,275.760019 C612.062,275.352019 611.942,274.908019 611.942,274.428019 C611.942,273.948019 612.062,273.504019 612.302,273.096019 C612.542,272.688019 612.866,272.364019 613.274,272.124019 C613.682,271.884019 614.126,271.764019 614.606,271.764019 C615.086,271.764019 615.53,271.884019 615.938,272.124019 C616.346,272.364019 616.67,272.688019 616.91,273.096019 C617.15,273.504019 617.27,273.948019 617.27,274.428019 C617.27,274.908019 617.15,275.352019 616.91,275.760019 C616.67,276.168019 616.346,276.492019 615.938,276.732019 C615.53,276.972019 615.086,277.092019 614.606,277.092019 Z M624.884,279.144019 C625.448,279.144019 625.961,279.066019 626.423,278.910019 C626.885,278.754019 627.281,278.541019 627.611,278.271019 C627.941,278.001019 628.196,277.692019 628.376,277.344019 C628.556,276.996019 628.646,276.630019 628.646,276.246019 C628.646,275.598019 628.427,275.037019 627.989,274.563019 C627.551,274.089019 626.882,273.744019 625.982,273.528019 L625.982,273.528019 L624.632,273.204019 C624.272,273.108019 623.987,273.000019 623.777,272.880019 C623.567,272.760019 623.462,272.598019 623.462,272.394019 C623.462,272.178019 623.588,272.001019 623.84,271.863019 C624.092,271.725019 624.386,271.656019 624.722,271.656019 C625.046,271.656019 625.37,271.734019 625.694,271.890019 C626.018,272.046019 626.264,272.298019 626.432,272.646019 L626.432,272.646019 L628.466,271.818019 C628.154,271.098019 627.668,270.573019 627.008,270.243019 C626.348,269.913019 625.598,269.748019 624.758,269.748019 C624.254,269.748019 623.783,269.811019 623.345,269.937019 C622.907,270.063019 622.526,270.243019 622.202,270.477019 C621.878,270.711019 621.623,270.996019 621.437,271.332019 C621.251,271.668019 621.158,272.052019 621.158,272.484019 C621.158,272.868019 621.236,273.204019 621.392,273.492019 C621.548,273.780019 621.746,274.026019 621.986,274.230019 C622.226,274.434019 622.493,274.602019 622.787,274.734019 C623.081,274.866019 623.366,274.962019 623.642,275.022019 L623.642,275.022019 L624.884,275.292019 C625.4,275.412019 625.763,275.547019 625.973,275.697019 C626.183,275.847019 626.288,276.042019 626.288,276.282019 C626.288,276.498019 626.162,276.684019 625.91,276.840019 C625.658,276.996019 625.316,277.074019 624.884,277.074019 C624.464,277.074019 624.083,276.963019 623.741,276.741019 C623.399,276.519019 623.126,276.180019 622.922,275.724019 L622.922,275.724019 L620.816,276.624019 C620.936,276.936019 621.11,277.245019 621.338,277.551019 C621.566,277.857019 621.845,278.127019 622.175,278.361019 C622.505,278.595019 622.895,278.784019 623.345,278.928019 C623.795,279.072019 624.308,279.144019 624.884,279.144019 Z M632.588,268.326019 L632.588,265.968019 L630.23,265.968019 L630.23,268.326019 L632.588,268.326019 Z M632.588,278.856019 L632.588,270.036019 L630.23,270.036019 L630.23,278.856019 L632.588,278.856019 Z M637.106,278.856019 L637.106,265.968019 L634.748,265.968019 L634.748,278.856019 L637.106,278.856019 Z M642.47,282.744019 L647.996,270.036019 L645.368,270.036019 L643.226,275.382019 L643.1,275.382019 L640.868,270.036019 L638.186,270.036019 L641.894,278.424019 L639.932,282.744019 L642.47,282.744019 Z M650.354,281.394019 C650.822,280.782019 651.158,280.188019 651.362,279.612019 C651.566,279.036019 651.668,278.358019 651.668,277.578019 L651.668,276.516019 L649.31,276.552019 L649.31,278.910019 L650.264,278.910019 C650.18,279.294019 650.084,279.603019 649.976,279.837019 C649.868,280.071019 649.769,280.260019 649.679,280.404019 C649.589,280.548019 649.532,280.644019 649.508,280.692019 L650.354,281.394019 Z M661.406,279.144019 C661.97,279.144019 662.483,279.066019 662.945,278.910019 C663.407,278.754019 663.803,278.541019 664.133,278.271019 C664.463,278.001019 664.718,277.692019 664.898,277.344019 C665.078,276.996019 665.168,276.630019 665.168,276.246019 C665.168,275.598019 664.949,275.037019 664.511,274.563019 C664.073,274.089019 663.404,273.744019 662.504,273.528019 L662.504,273.528019 L661.154,273.204019 C660.794,273.108019 660.509,273.000019 660.299,272.880019 C660.089,272.760019 659.984,272.598019 659.984,272.394019 C659.984,272.178019 660.11,272.001019 660.362,271.863019 C660.614,271.725019 660.908,271.656019 661.244,271.656019 C661.568,271.656019 661.892,271.734019 662.216,271.890019 C662.54,272.046019 662.786,272.298019 662.954,272.646019 L662.954,272.646019 L664.988,271.818019 C664.676,271.098019 664.19,270.573019 663.53,270.243019 C662.87,269.913019 662.12,269.748019 661.28,269.748019 C660.776,269.748019 660.305,269.811019 659.867,269.937019 C659.429,270.063019 659.048,270.243019 658.724,270.477019 C658.4,270.711019 658.145,270.996019 657.959,271.332019 C657.773,271.668019 657.68,272.052019 657.68,272.484019 C657.68,272.868019 657.758,273.204019 657.914,273.492019 C658.07,273.780019 658.268,274.026019 658.508,274.230019 C658.748,274.434019 659.015,274.602019 659.309,274.734019 C659.603,274.866019 659.888,274.962019 660.164,275.022019 L660.164,275.022019 L661.406,275.292019 C661.922,275.412019 662.285,275.547019 662.495,275.697019 C662.705,275.847019 662.81,276.042019 662.81,276.282019 C662.81,276.498019 662.684,276.684019 662.432,276.840019 C662.18,276.996019 661.838,277.074019 661.406,277.074019 C660.986,277.074019 660.605,276.963019 660.263,276.741019 C659.921,276.519019 659.648,276.180019 659.444,275.724019 L659.444,275.724019 L657.338,276.624019 C657.458,276.936019 657.632,277.245019 657.86,277.551019 C658.088,277.857019 658.367,278.127019 658.697,278.361019 C659.027,278.595019 659.417,278.784019 659.867,278.928019 C660.317,279.072019 660.83,279.144019 661.406,279.144019 Z M669.11,268.326019 L669.11,265.968019 L666.752,265.968019 L666.752,268.326019 L669.11,268.326019 Z M669.11,278.856019 L669.11,270.036019 L666.752,270.036019 L666.752,278.856019 L669.11,278.856019 Z M673.628,278.856019 L673.628,274.572019 C673.628,274.200019 673.67,273.852019 673.754,273.528019 C673.838,273.204019 673.958,272.925019 674.114,272.691019 C674.27,272.457019 674.462,272.271019 674.69,272.133019 C674.918,271.995019 675.182,271.926019 675.482,271.926019 C676.514,271.926019 677.03,272.526019 677.03,273.726019 L677.03,273.726019 L677.03,278.856019 L679.388,278.856019 L679.388,274.572019 C679.388,274.200019 679.433,273.852019 679.523,273.528019 C679.613,273.204019 679.739,272.925019 679.901,272.691019 C680.063,272.457019 680.264,272.271019 680.504,272.133019 C680.744,271.995019 681.02,271.926019 681.332,271.926019 C682.316,271.926019 682.808,272.526019 682.808,273.726019 L682.808,273.726019 L682.808,278.856019 L685.166,278.856019 L685.166,273.294019 C685.166,272.778019 685.1,272.301019 684.968,271.863019 C684.836,271.425019 684.641,271.050019 684.383,270.738019 C684.125,270.426019 683.798,270.183019 683.402,270.009019 C683.006,269.835019 682.538,269.748019 681.998,269.748019 C681.278,269.748019 680.666,269.907019 680.162,270.225019 C679.658,270.543019 679.268,270.924019 678.992,271.368019 C678.8,270.912019 678.476,270.528019 678.02,270.216019 C677.564,269.904019 677,269.748019 676.328,269.748019 C675.752,269.748019 675.227,269.880019 674.753,270.144019 C674.279,270.408019 673.904,270.756019 673.628,271.188019 L673.628,271.188019 L673.484,271.188019 L673.484,270.036019 L671.27,270.036019 L671.27,278.856019 L673.628,278.856019 Z M689.198,282.906019 L689.198,278.262019 C689.51,278.538019 689.894,278.751019 690.35,278.901019 C690.806,279.051019 691.28,279.126019 691.772,279.126019 C692.612,279.126019 693.392,278.916019 694.112,278.496019 C694.832,278.076019 695.405,277.506019 695.831,276.786019 C696.257,276.066019 696.47,275.280019 696.47,274.428019 C696.47,273.576019 696.257,272.793019 695.831,272.079019 C695.405,271.365019 694.832,270.798019 694.112,270.378019 C693.392,269.958019 692.612,269.748019 691.772,269.748019 C690.8,269.748019 689.942,270.030019 689.198,270.594019 L689.198,270.594019 L689.198,270.018019 L686.894,270.018019 L686.894,282.906019 L689.198,282.906019 Z M691.772,277.092019 C691.292,277.092019 690.848,276.972019 690.44,276.732019 C690.032,276.492019 689.708,276.168019 689.468,275.760019 C689.228,275.352019 689.108,274.908019 689.108,274.428019 C689.108,273.948019 689.228,273.504019 689.468,273.096019 C689.708,272.688019 690.032,272.364019 690.44,272.124019 C690.848,271.884019 691.292,271.764019 691.772,271.764019 C692.252,271.764019 692.696,271.884019 693.104,272.124019 C693.512,272.364019 693.836,272.688019 694.076,273.096019 C694.316,273.504019 694.436,273.948019 694.436,274.428019 C694.436,274.908019 694.316,275.352019 694.076,275.760019 C693.836,276.168019 693.512,276.492019 693.104,276.732019 C692.696,276.972019 692.252,277.092019 691.772,277.092019 Z M700.196,278.856019 L700.196,265.968019 L697.838,265.968019 L697.838,278.856019 L700.196,278.856019 Z M705.56,282.744019 L711.086,270.036019 L708.458,270.036019 L706.316,275.382019 L706.19,275.382019 L703.958,270.036019 L701.276,270.036019 L704.984,278.424019 L703.022,282.744019 L705.56,282.744019 Z M713.444,281.394019 C713.912,280.782019 714.248,280.188019 714.452,279.612019 C714.656,279.036019 714.758,278.358019 714.758,277.578019 L714.758,276.516019 L712.4,276.552019 L712.4,278.910019 L713.354,278.910019 C713.27,279.294019 713.174,279.603019 713.066,279.837019 C712.958,280.071019 712.859,280.260019 712.769,280.404019 C712.679,280.548019 712.622,280.644019 712.598,280.692019 L713.444,281.394019 Z M724.496,279.144019 C725.06,279.144019 725.573,279.066019 726.035,278.910019 C726.497,278.754019 726.893,278.541019 727.223,278.271019 C727.553,278.001019 727.808,277.692019 727.988,277.344019 C728.168,276.996019 728.258,276.630019 728.258,276.246019 C728.258,275.598019 728.039,275.037019 727.601,274.563019 C727.163,274.089019 726.494,273.744019 725.594,273.528019 L725.594,273.528019 L724.244,273.204019 C723.884,273.108019 723.599,273.000019 723.389,272.880019 C723.179,272.760019 723.074,272.598019 723.074,272.394019 C723.074,272.178019 723.2,272.001019 723.452,271.863019 C723.704,271.725019 723.998,271.656019 724.334,271.656019 C724.658,271.656019 724.982,271.734019 725.306,271.890019 C725.63,272.046019 725.876,272.298019 726.044,272.646019 L726.044,272.646019 L728.078,271.818019 C727.766,271.098019 727.28,270.573019 726.62,270.243019 C725.96,269.913019 725.21,269.748019 724.37,269.748019 C723.866,269.748019 723.395,269.811019 722.957,269.937019 C722.519,270.063019 722.138,270.243019 721.814,270.477019 C721.49,270.711019 721.235,270.996019 721.049,271.332019 C720.863,271.668019 720.77,272.052019 720.77,272.484019 C720.77,272.868019 720.848,273.204019 721.004,273.492019 C721.16,273.780019 721.358,274.026019 721.598,274.230019 C721.838,274.434019 722.105,274.602019 722.399,274.734019 C722.693,274.866019 722.978,274.962019 723.254,275.022019 L723.254,275.022019 L724.496,275.292019 C725.012,275.412019 725.375,275.547019 725.585,275.697019 C725.795,275.847019 725.9,276.042019 725.9,276.282019 C725.9,276.498019 725.774,276.684019 725.522,276.840019 C725.27,276.996019 724.928,277.074019 724.496,277.074019 C724.076,277.074019 723.695,276.963019 723.353,276.741019 C723.011,276.519019 722.738,276.180019 722.534,275.724019 L722.534,275.724019 L720.428,276.624019 C720.548,276.936019 720.722,277.245019 720.95,277.551019 C721.178,277.857019 721.457,278.127019 721.787,278.361019 C722.117,278.595019 722.507,278.784019 722.957,278.928019 C723.407,279.072019 723.92,279.144019 724.496,279.144019 Z M731.786,282.906019 L731.786,278.262019 C732.098,278.538019 732.482,278.751019 732.938,278.901019 C733.394,279.051019 733.868,279.126019 734.36,279.126019 C735.2,279.126019 735.98,278.916019 736.7,278.496019 C737.42,278.076019 737.993,277.506019 738.419,276.786019 C738.845,276.066019 739.058,275.280019 739.058,274.428019 C739.058,273.576019 738.845,272.793019 738.419,272.079019 C737.993,271.365019 737.42,270.798019 736.7,270.378019 C735.98,269.958019 735.2,269.748019 734.36,269.748019 C733.388,269.748019 732.53,270.030019 731.786,270.594019 L731.786,270.594019 L731.786,270.018019 L729.482,270.018019 L729.482,282.906019 L731.786,282.906019 Z M734.36,277.092019 C733.88,277.092019 733.436,276.972019 733.028,276.732019 C732.62,276.492019 732.296,276.168019 732.056,275.760019 C731.816,275.352019 731.696,274.908019 731.696,274.428019 C731.696,273.948019 731.816,273.504019 732.056,273.096019 C732.296,272.688019 732.62,272.364019 733.028,272.124019 C733.436,271.884019 733.88,271.764019 734.36,271.764019 C734.84,271.764019 735.284,271.884019 735.692,272.124019 C736.1,272.364019 736.424,272.688019 736.664,273.096019 C736.904,273.504019 737.024,273.948019 737.024,274.428019 C737.024,274.908019 736.904,275.352019 736.664,275.760019 C736.424,276.168019 736.1,276.492019 735.692,276.732019 C735.284,276.972019 734.84,277.092019 734.36,277.092019 Z M744.602,279.144019 C745.442,279.144019 746.222,278.934019 746.942,278.514019 C747.662,278.094019 748.235,277.527019 748.661,276.813019 C749.087,276.099019 749.3,275.316019 749.3,274.464019 C749.3,273.612019 749.087,272.823019 748.661,272.097019 C748.235,271.371019 747.662,270.798019 746.942,270.378019 C746.222,269.958019 745.442,269.748019 744.602,269.748019 C743.75,269.748019 742.964,269.958019 742.244,270.378019 C741.524,270.798019 740.954,271.371019 740.534,272.097019 C740.114,272.823019 739.904,273.612019 739.904,274.464019 C739.904,275.316019 740.114,276.099019 740.534,276.813019 C740.954,277.527019 741.524,278.094019 742.244,278.514019 C742.964,278.934019 743.75,279.144019 744.602,279.144019 Z M744.602,277.020019 C744.134,277.020019 743.702,276.906019 743.306,276.678019 C742.91,276.450019 742.598,276.138019 742.37,275.742019 C742.142,275.346019 742.028,274.920019 742.028,274.464019 C742.028,273.996019 742.142,273.564019 742.37,273.168019 C742.598,272.772019 742.91,272.460019 743.306,272.232019 C743.702,272.004019 744.134,271.890019 744.602,271.890019 C745.07,271.890019 745.499,272.004019 745.889,272.232019 C746.279,272.460019 746.588,272.772019 746.816,273.168019 C747.044,273.564019 747.158,273.996019 747.158,274.464019 C747.158,274.920019 747.044,275.346019 746.816,275.742019 C746.588,276.138019 746.279,276.450019 745.889,276.678019 C745.499,276.906019 745.07,277.020019 744.602,277.020019 Z M753.152,278.856019 L753.152,274.536019 C753.152,274.176019 753.197,273.837019 753.287,273.519019 C753.377,273.201019 753.509,272.925019 753.683,272.691019 C753.857,272.457019 754.067,272.271019 754.313,272.133019 C754.559,271.995019 754.844,271.926019 755.168,271.926019 C755.708,271.926019 756.119,272.079019 756.401,272.385019 C756.683,272.691019 756.824,273.162019 756.824,273.798019 L756.824,273.798019 L756.824,278.856019 L759.182,278.856019 L759.182,273.510019 C759.182,272.946019 759.113,272.433019 758.975,271.971019 C758.837,271.509019 758.633,271.113019 758.363,270.783019 C758.093,270.453019 757.748,270.198019 757.328,270.018019 C756.908,269.838019 756.422,269.748019 755.87,269.748019 C755.27,269.748019 754.736,269.877019 754.268,270.135019 C753.8,270.393019 753.428,270.744019 753.152,271.188019 L753.152,271.188019 L753.008,271.188019 L753.008,270.036019 L750.794,270.036019 L750.794,278.856019 L753.152,278.856019 Z M765.032,279.000019 C765.416,279.000019 765.767,278.967019 766.085,278.901019 C766.403,278.835019 766.7,278.736019 766.976,278.604019 L766.976,278.604019 L766.31,276.534019 C766.202,276.606019 766.088,276.663019 765.968,276.705019 C765.848,276.747019 765.686,276.768019 765.482,276.768019 C765.17,276.768019 764.93,276.672019 764.762,276.480019 C764.642,276.360019 764.561,276.213019 764.519,276.039019 C764.477,275.865019 764.456,275.676019 764.456,275.472019 L764.456,275.472019 L764.456,272.052019 L766.616,272.052019 L766.616,270.036019 L764.456,270.036019 L764.456,267.336019 L762.098,267.336019 L762.098,270.036019 L760.55,270.036019 L760.55,272.052019 L762.098,272.052019 L762.098,275.922019 C762.098,276.918019 762.38,277.686019 762.944,278.226019 C763.184,278.466019 763.481,278.655019 763.835,278.793019 C764.189,278.931019 764.588,279.000019 765.032,279.000019 Z M772.538,279.126019 C773.51,279.126019 774.368,278.844019 775.112,278.280019 L775.112,278.280019 L775.112,278.856019 L777.416,278.856019 L777.416,270.036019 L775.112,270.036019 L775.112,270.612019 C774.8,270.336019 774.416,270.123019 773.96,269.973019 C773.504,269.823019 773.03,269.748019 772.538,269.748019 C771.698,269.748019 770.918,269.958019 770.198,270.378019 C769.478,270.798019 768.905,271.368019 768.479,272.088019 C768.053,272.808019 767.84,273.594019 767.84,274.446019 C767.84,275.298019 768.053,276.081019 768.479,276.795019 C768.905,277.509019 769.478,278.076019 770.198,278.496019 C770.918,278.916019 771.698,279.126019 772.538,279.126019 Z M772.538,277.092019 C772.058,277.092019 771.614,276.972019 771.206,276.732019 C770.798,276.492019 770.474,276.168019 770.234,275.760019 C769.994,275.352019 769.874,274.908019 769.874,274.428019 C769.874,273.948019 769.994,273.504019 770.234,273.096019 C770.474,272.688019 770.798,272.364019 771.206,272.124019 C771.614,271.884019 772.058,271.764019 772.538,271.764019 C773.018,271.764019 773.462,271.884019 773.87,272.124019 C774.278,272.364019 774.602,272.688019 774.842,273.096019 C775.082,273.504019 775.202,273.948019 775.202,274.428019 C775.202,274.908019 775.082,275.352019 774.842,275.760019 C774.602,276.168019 774.278,276.492019 773.87,276.732019 C773.462,276.972019 773.018,277.092019 772.538,277.092019 Z M781.682,278.856019 L781.682,274.536019 C781.682,274.176019 781.727,273.837019 781.817,273.519019 C781.907,273.201019 782.039,272.925019 782.213,272.691019 C782.387,272.457019 782.597,272.271019 782.843,272.133019 C783.089,271.995019 783.374,271.926019 783.698,271.926019 C784.238,271.926019 784.649,272.079019 784.931,272.385019 C785.213,272.691019 785.354,273.162019 785.354,273.798019 L785.354,273.798019 L785.354,278.856019 L787.712,278.856019 L787.712,273.510019 C787.712,272.946019 787.643,272.433019 787.505,271.971019 C787.367,271.509019 787.163,271.113019 786.893,270.783019 C786.623,270.453019 786.278,270.198019 785.858,270.018019 C785.438,269.838019 784.952,269.748019 784.4,269.748019 C783.8,269.748019 783.266,269.877019 782.798,270.135019 C782.33,270.393019 781.958,270.744019 781.682,271.188019 L781.682,271.188019 L781.538,271.188019 L781.538,270.036019 L779.324,270.036019 L779.324,278.856019 L781.682,278.856019 Z M793.832,279.144019 C794.828,279.144019 795.671,278.922019 796.361,278.478019 C797.051,278.034019 797.6,277.452019 798.008,276.732019 L798.008,276.732019 L796.046,275.760019 C795.842,276.132019 795.563,276.441019 795.209,276.687019 C794.855,276.933019 794.408,277.056019 793.868,277.056019 C793.592,277.056019 793.322,277.017019 793.058,276.939019 C792.794,276.861019 792.551,276.735019 792.329,276.561019 C792.107,276.387019 791.921,276.171019 791.771,275.913019 C791.621,275.655019 791.522,275.346019 791.474,274.986019 L791.474,274.986019 L798.116,274.986019 C798.116,274.914019 798.122,274.848019 798.134,274.788019 C798.134,274.728019 798.14,274.662019 798.152,274.590019 L798.152,274.590019 L798.152,274.374019 C798.152,273.714019 798.056,273.102019 797.864,272.538019 C797.672,271.974019 797.39,271.485019 797.018,271.071019 C796.646,270.657019 796.184,270.333019 795.632,270.099019 C795.08,269.865019 794.45,269.748019 793.742,269.748019 C793.07,269.748019 792.455,269.874019 791.897,270.126019 C791.339,270.378019 790.856,270.717019 790.448,271.143019 C790.04,271.569019 789.722,272.067019 789.494,272.637019 C789.266,273.207019 789.152,273.810019 789.152,274.446019 C789.152,275.130019 789.269,275.757019 789.503,276.327019 C789.737,276.897019 790.064,277.392019 790.484,277.812019 C790.904,278.232019 791.399,278.559019 791.969,278.793019 C792.539,279.027019 793.16,279.144019 793.832,279.144019 Z M795.866,273.312019 L791.6,273.312019 C791.756,272.796019 792.026,272.394019 792.41,272.106019 C792.794,271.818019 793.238,271.674019 793.742,271.674019 C794.102,271.674019 794.411,271.728019 794.669,271.836019 C794.927,271.944019 795.143,272.082019 795.317,272.250019 C795.491,272.418019 795.623,272.598019 795.713,272.790019 C795.803,272.982019 795.854,273.156019 795.866,273.312019 L795.866,273.312019 Z M803.84,279.144019 C804.68,279.144019 805.46,278.934019 806.18,278.514019 C806.9,278.094019 807.473,277.527019 807.899,276.813019 C808.325,276.099019 808.538,275.316019 808.538,274.464019 C808.538,273.612019 808.325,272.823019 807.899,272.097019 C807.473,271.371019 806.9,270.798019 806.18,270.378019 C805.46,269.958019 804.68,269.748019 803.84,269.748019 C802.988,269.748019 802.202,269.958019 801.482,270.378019 C800.762,270.798019 800.192,271.371019 799.772,272.097019 C799.352,272.823019 799.142,273.612019 799.142,274.464019 C799.142,275.316019 799.352,276.099019 799.772,276.813019 C800.192,277.527019 800.762,278.094019 801.482,278.514019 C802.202,278.934019 802.988,279.144019 803.84,279.144019 Z M803.84,277.020019 C803.372,277.020019 802.94,276.906019 802.544,276.678019 C802.148,276.450019 801.836,276.138019 801.608,275.742019 C801.38,275.346019 801.266,274.920019 801.266,274.464019 C801.266,273.996019 801.38,273.564019 801.608,273.168019 C801.836,272.772019 802.148,272.460019 802.544,272.232019 C802.94,272.004019 803.372,271.890019 803.84,271.890019 C804.308,271.890019 804.737,272.004019 805.127,272.232019 C805.517,272.460019 805.826,272.772019 806.054,273.168019 C806.282,273.564019 806.396,273.996019 806.396,274.464019 C806.396,274.920019 806.282,275.346019 806.054,275.742019 C805.826,276.138019 805.517,276.450019 805.127,276.678019 C804.737,276.906019 804.308,277.020019 803.84,277.020019 Z M813.146,279.144019 C813.41,279.144019 813.626,279.138019 813.794,279.126019 C814.37,279.078019 814.859,278.934019 815.261,278.694019 C815.663,278.454019 815.96,278.238019 816.152,278.046019 L816.152,278.046019 L816.152,278.856019 L818.348,278.856019 L818.348,270.036019 L816.008,270.036019 L816.008,274.374019 C816.008,274.710019 815.96,275.052019 815.864,275.400019 C815.768,275.724019 815.636,275.994019 815.468,276.210019 C815.3,276.462019 815.09,276.648019 814.838,276.768019 C814.61,276.912019 814.328,276.984019 813.992,276.984019 C813.452,276.984019 813.044,276.828019 812.768,276.516019 C812.48,276.204019 812.336,275.736019 812.336,275.112019 L812.336,275.112019 L812.336,270.036019 L809.996,270.036019 L809.996,275.400019 C809.996,276.540019 810.266,277.452019 810.806,278.136019 C811.358,278.808019 812.138,279.144019 813.146,279.144019 Z M823.856,279.144019 C824.42,279.144019 824.933,279.066019 825.395,278.910019 C825.857,278.754019 826.253,278.541019 826.583,278.271019 C826.913,278.001019 827.168,277.692019 827.348,277.344019 C827.528,276.996019 827.618,276.630019 827.618,276.246019 C827.618,275.598019 827.399,275.037019 826.961,274.563019 C826.523,274.089019 825.854,273.744019 824.954,273.528019 L824.954,273.528019 L823.604,273.204019 C823.244,273.108019 822.959,273.000019 822.749,272.880019 C822.539,272.760019 822.434,272.598019 822.434,272.394019 C822.434,272.178019 822.56,272.001019 822.812,271.863019 C823.064,271.725019 823.358,271.656019 823.694,271.656019 C824.018,271.656019 824.342,271.734019 824.666,271.890019 C824.99,272.046019 825.236,272.298019 825.404,272.646019 L825.404,272.646019 L827.438,271.818019 C827.126,271.098019 826.64,270.573019 825.98,270.243019 C825.32,269.913019 824.57,269.748019 823.73,269.748019 C823.226,269.748019 822.755,269.811019 822.317,269.937019 C821.879,270.063019 821.498,270.243019 821.174,270.477019 C820.85,270.711019 820.595,270.996019 820.409,271.332019 C820.223,271.668019 820.13,272.052019 820.13,272.484019 C820.13,272.868019 820.208,273.204019 820.364,273.492019 C820.52,273.780019 820.718,274.026019 820.958,274.230019 C821.198,274.434019 821.465,274.602019 821.759,274.734019 C822.053,274.866019 822.338,274.962019 822.614,275.022019 L822.614,275.022019 L823.856,275.292019 C824.372,275.412019 824.735,275.547019 824.945,275.697019 C825.155,275.847019 825.26,276.042019 825.26,276.282019 C825.26,276.498019 825.134,276.684019 824.882,276.840019 C824.63,276.996019 824.288,277.074019 823.856,277.074019 C823.436,277.074019 823.055,276.963019 822.713,276.741019 C822.371,276.519019 822.098,276.180019 821.894,275.724019 L821.894,275.724019 L819.788,276.624019 C819.908,276.936019 820.082,277.245019 820.31,277.551019 C820.538,277.857019 820.817,278.127019 821.147,278.361019 C821.477,278.595019 821.867,278.784019 822.317,278.928019 C822.767,279.072019 823.28,279.144019 823.856,279.144019 Z M831.416,278.856019 L831.416,265.968019 L829.058,265.968019 L829.058,278.856019 L831.416,278.856019 Z M836.78,282.744019 L842.306,270.036019 L839.678,270.036019 L837.536,275.382019 L837.41,275.382019 L835.178,270.036019 L832.496,270.036019 L836.204,278.424019 L834.242,282.744019 L836.78,282.744019 Z M845.978,278.856019 L845.978,276.498019 L843.62,276.498019 L843.62,278.856019 L845.978,278.856019 Z M603.698,302.144019 C604.286,302.144019 604.835,302.051019 605.345,301.865019 C605.855,301.679019 606.299,301.403019 606.677,301.037019 C607.055,300.671019 607.355,300.215019 607.577,299.669019 C607.799,299.123019 607.91,298.490019 607.91,297.770019 L607.91,297.770019 L607.91,288.968019 L605.48,288.968019 L605.48,297.788019 C605.48,298.436019 605.324,298.940019 605.012,299.300019 C604.7,299.660019 604.262,299.840019 603.698,299.840019 C603.194,299.840019 602.768,299.696019 602.42,299.408019 C602.072,299.120019 601.82,298.688019 601.664,298.112019 L601.664,298.112019 L599.432,299.030019 C599.732,300.002019 600.263,300.764019 601.025,301.316019 C601.787,301.868019 602.678,302.144019 603.698,302.144019 Z M613.112,302.144019 C613.376,302.144019 613.592,302.138019 613.76,302.126019 C614.336,302.078019 614.825,301.934019 615.227,301.694019 C615.629,301.454019 615.926,301.238019 616.118,301.046019 L616.118,301.046019 L616.118,301.856019 L618.314,301.856019 L618.314,293.036019 L615.974,293.036019 L615.974,297.374019 C615.974,297.710019 615.926,298.052019 615.83,298.400019 C615.734,298.724019 615.602,298.994019 615.434,299.210019 C615.266,299.462019 615.056,299.648019 614.804,299.768019 C614.576,299.912019 614.294,299.984019 613.958,299.984019 C613.418,299.984019 613.01,299.828019 612.734,299.516019 C612.446,299.204019 612.302,298.736019 612.302,298.112019 L612.302,298.112019 L612.302,293.036019 L609.962,293.036019 L609.962,298.400019 C609.962,299.540019 610.232,300.452019 610.772,301.136019 C611.324,301.808019 612.104,302.144019 613.112,302.144019 Z M623.822,302.144019 C624.386,302.144019 624.899,302.066019 625.361,301.910019 C625.823,301.754019 626.219,301.541019 626.549,301.271019 C626.879,301.001019 627.134,300.692019 627.314,300.344019 C627.494,299.996019 627.584,299.630019 627.584,299.246019 C627.584,298.598019 627.365,298.037019 626.927,297.563019 C626.489,297.089019 625.82,296.744019 624.92,296.528019 L624.92,296.528019 L623.57,296.204019 C623.21,296.108019 622.925,296.000019 622.715,295.880019 C622.505,295.760019 622.4,295.598019 622.4,295.394019 C622.4,295.178019 622.526,295.001019 622.778,294.863019 C623.03,294.725019 623.324,294.656019 623.66,294.656019 C623.984,294.656019 624.308,294.734019 624.632,294.890019 C624.956,295.046019 625.202,295.298019 625.37,295.646019 L625.37,295.646019 L627.404,294.818019 C627.092,294.098019 626.606,293.573019 625.946,293.243019 C625.286,292.913019 624.536,292.748019 623.696,292.748019 C623.192,292.748019 622.721,292.811019 622.283,292.937019 C621.845,293.063019 621.464,293.243019 621.14,293.477019 C620.816,293.711019 620.561,293.996019 620.375,294.332019 C620.189,294.668019 620.096,295.052019 620.096,295.484019 C620.096,295.868019 620.174,296.204019 620.33,296.492019 C620.486,296.780019 620.684,297.026019 620.924,297.230019 C621.164,297.434019 621.431,297.602019 621.725,297.734019 C622.019,297.866019 622.304,297.962019 622.58,298.022019 L622.58,298.022019 L623.822,298.292019 C624.338,298.412019 624.701,298.547019 624.911,298.697019 C625.121,298.847019 625.226,299.042019 625.226,299.282019 C625.226,299.498019 625.1,299.684019 624.848,299.840019 C624.596,299.996019 624.254,300.074019 623.822,300.074019 C623.402,300.074019 623.021,299.963019 622.679,299.741019 C622.337,299.519019 622.064,299.180019 621.86,298.724019 L621.86,298.724019 L619.754,299.624019 C619.874,299.936019 620.048,300.245019 620.276,300.551019 C620.504,300.857019 620.783,301.127019 621.113,301.361019 C621.443,301.595019 621.833,301.784019 622.283,301.928019 C622.733,302.072019 623.246,302.144019 623.822,302.144019 Z M632.93,302.000019 C633.314,302.000019 633.665,301.967019 633.983,301.901019 C634.301,301.835019 634.598,301.736019 634.874,301.604019 L634.874,301.604019 L634.208,299.534019 C634.1,299.606019 633.986,299.663019 633.866,299.705019 C633.746,299.747019 633.584,299.768019 633.38,299.768019 C633.068,299.768019 632.828,299.672019 632.66,299.480019 C632.54,299.360019 632.459,299.213019 632.417,299.039019 C632.375,298.865019 632.354,298.676019 632.354,298.472019 L632.354,298.472019 L632.354,295.052019 L634.514,295.052019 L634.514,293.036019 L632.354,293.036019 L632.354,290.336019 L629.996,290.336019 L629.996,293.036019 L628.448,293.036019 L628.448,295.052019 L629.996,295.052019 L629.996,298.922019 C629.996,299.918019 630.278,300.686019 630.842,301.226019 C631.082,301.466019 631.379,301.655019 631.733,301.793019 C632.087,301.931019 632.486,302.000019 632.93,302.000019 Z M644.558,306.068019 C645.242,306.068019 645.872,305.960019 646.448,305.744019 C647.024,305.504019 647.51,305.186019 647.906,304.790019 C648.314,304.370019 648.632,303.866019 648.86,303.278019 C649.088,302.654019 649.202,301.988019 649.202,301.280019 L649.202,301.280019 L649.202,293.036019 L646.952,293.036019 L646.952,293.486019 C646.196,292.994019 645.362,292.748019 644.45,292.748019 C643.622,292.748019 642.857,292.955019 642.155,293.369019 C641.453,293.783019 640.895,294.341019 640.481,295.043019 C640.067,295.745019 639.86,296.510019 639.86,297.338019 C639.86,298.166019 640.067,298.931019 640.481,299.633019 C640.895,300.335019 641.453,300.893019 642.155,301.307019 C642.857,301.721019 643.622,301.928019 644.45,301.928019 C645.362,301.928019 646.196,301.682019 646.952,301.190019 C646.952,301.622019 646.898,302.018019 646.79,302.378019 C646.682,302.738019 646.52,303.032019 646.304,303.260019 C645.872,303.752019 645.29,303.998019 644.558,303.998019 C644.102,303.998019 643.676,303.866019 643.28,303.602019 C643.088,303.482019 642.926,303.326019 642.794,303.134019 C642.734,303.074019 642.686,303.008019 642.65,302.936019 L642.65,302.936019 L640.418,303.890019 C640.538,304.082019 640.646,304.232019 640.742,304.340019 C640.958,304.640019 641.252,304.928019 641.624,305.204019 C641.996,305.468019 642.422,305.678019 642.902,305.834019 C643.358,305.990019 643.91,306.068019 644.558,306.068019 Z M644.45,299.966019 C644.006,299.966019 643.58,299.843019 643.172,299.597019 C642.764,299.351019 642.437,299.024019 642.191,298.616019 C641.945,298.208019 641.822,297.782019 641.822,297.338019 C641.822,296.894019 641.942,296.468019 642.182,296.060019 C642.422,295.652019 642.746,295.325019 643.154,295.079019 C643.562,294.833019 643.994,294.710019 644.45,294.710019 C644.57,294.710019 644.672,294.716019 644.756,294.728019 C644.84,294.740019 644.906,294.752019 644.954,294.764019 C645.446,294.872019 645.887,295.121019 646.277,295.511019 C646.667,295.901019 646.916,296.342019 647.024,296.834019 C647.036,296.882019 647.048,296.948019 647.06,297.032019 C647.072,297.116019 647.078,297.218019 647.078,297.338019 C647.078,297.782019 646.955,298.208019 646.709,298.616019 C646.463,299.024019 646.136,299.351019 645.728,299.597019 C645.32,299.843019 644.894,299.966019 644.45,299.966019 Z M655.124,302.144019 C655.964,302.144019 656.744,301.934019 657.464,301.514019 C658.184,301.094019 658.757,300.527019 659.183,299.813019 C659.609,299.099019 659.822,298.316019 659.822,297.464019 C659.822,296.612019 659.609,295.823019 659.183,295.097019 C658.757,294.371019 658.184,293.798019 657.464,293.378019 C656.744,292.958019 655.964,292.748019 655.124,292.748019 C654.272,292.748019 653.486,292.958019 652.766,293.378019 C652.046,293.798019 651.476,294.371019 651.056,295.097019 C650.636,295.823019 650.426,296.612019 650.426,297.464019 C650.426,298.316019 650.636,299.099019 651.056,299.813019 C651.476,300.527019 652.046,301.094019 652.766,301.514019 C653.486,301.934019 654.272,302.144019 655.124,302.144019 Z M655.124,300.020019 C654.656,300.020019 654.224,299.906019 653.828,299.678019 C653.432,299.450019 653.12,299.138019 652.892,298.742019 C652.664,298.346019 652.55,297.920019 652.55,297.464019 C652.55,296.996019 652.664,296.564019 652.892,296.168019 C653.12,295.772019 653.432,295.460019 653.828,295.232019 C654.224,295.004019 654.656,294.890019 655.124,294.890019 C655.592,294.890019 656.021,295.004019 656.411,295.232019 C656.801,295.460019 657.11,295.772019 657.338,296.168019 C657.566,296.564019 657.68,296.996019 657.68,297.464019 C657.68,297.920019 657.566,298.346019 657.338,298.742019 C657.11,299.138019 656.801,299.450019 656.411,299.678019 C656.021,299.906019 655.592,300.020019 655.124,300.020019 Z M663.908,301.856019 L663.908,299.498019 L661.55,299.498019 L661.55,301.856019 L663.908,301.856019 Z" id="Easily,simply,spontaneously.Justgo."></path>
                </g>
            </g>
        </g>
    </g>
</svg>