<?xml version="1.0" encoding="UTF-8"?>
<svg width="18px" height="123px" viewBox="0 0 18 123" version="1.1" xmlns="http://www.w3.org/2000/svg" xmlns:xlink="http://www.w3.org/1999/xlink">
    <!-- Generator: Sketch 61 (89581) - https://sketch.com -->
    <title>Recruit Copy</title>
    <desc>Created with Sketch.</desc>
    <g id="Page-1" stroke="none" stroke-width="1" fill="none" fill-rule="evenodd">
        <g id="Recruit-Copy" transform="translate(0.000000, -2.000000)" fill="#00BF68">
            <text id="👋" font-family="AppleColorEmoji, Apple Color Emoji" font-size="14" font-weight="normal">
                <tspan x="0" y="122">👋</tspan>
            </text>
            <path d="M-34.496,55 L-32.704,49.16 L-32.368,47.896 L-32.24,47.896 L-31.904,49.16 L-30.112,55 L-28.032,55 L-24.992,43.544 L-27.28,43.544 L-28.944,50.232 L-29.184,51.448 L-29.312,51.448 L-29.632,50.232 L-31.296,44.76 L-33.312,44.76 L-34.96,50.232 L-35.296,51.464 L-35.424,51.464 L-35.68,50.232 L-37.456,43.544 L-39.744,43.544 L-36.576,55 L-34.496,55 Z M-20.128,55.256 C-19.2426667,55.256 -18.4933333,55.0586667 -17.88,54.664 C-17.2666667,54.2693333 -16.7786667,53.752 -16.416,53.112 L-16.416,53.112 L-18.16,52.248 C-18.3413333,52.5786667 -18.5893333,52.8533333 -18.904,53.072 C-19.2186667,53.2906667 -19.616,53.4 -20.096,53.4 C-20.3413333,53.4 -20.5813333,53.3653333 -20.816,53.296 C-21.0506667,53.2266667 -21.2666667,53.1146667 -21.464,52.96 C-21.6613333,52.8053333 -21.8266667,52.6133333 -21.96,52.384 C-22.0933333,52.1546667 -22.1813333,51.88 -22.224,51.56 L-22.224,51.56 L-16.32,51.56 C-16.32,51.496 -16.3146667,51.4373333 -16.304,51.384 C-16.304,51.3306667 -16.2986667,51.272 -16.288,51.208 L-16.288,51.208 L-16.288,51.016 C-16.288,50.4293333 -16.3733333,49.8853333 -16.544,49.384 C-16.7146667,48.8826667 -16.9653333,48.448 -17.296,48.08 C-17.6266667,47.712 -18.0373333,47.424 -18.528,47.216 C-19.0186667,47.008 -19.5786667,46.904 -20.208,46.904 C-20.8053333,46.904 -21.352,47.016 -21.848,47.24 C-22.344,47.464 -22.7733333,47.7653333 -23.136,48.144 C-23.4986667,48.5226667 -23.7813333,48.9653333 -23.984,49.472 C-24.1866667,49.9786667 -24.288,50.5146667 -24.288,51.08 C-24.288,51.688 -24.184,52.2453333 -23.976,52.752 C-23.768,53.2586667 -23.4773333,53.6986667 -23.104,54.072 C-22.7306667,54.4453333 -22.2906667,54.736 -21.784,54.944 C-21.2773333,55.152 -20.7253333,55.256 -20.128,55.256 Z M-18.32,50.072 L-22.112,50.072 C-21.9733333,49.6133333 -21.7333333,49.256 -21.392,49 C-21.0506667,48.744 -20.656,48.616 -20.208,48.616 C-19.888,48.616 -19.6133333,48.664 -19.384,48.76 C-19.1546667,48.856 -18.9626667,48.9786667 -18.808,49.128 C-18.6533333,49.2773333 -18.536,49.4373333 -18.456,49.608 C-18.376,49.7786667 -18.3306667,49.9333333 -18.32,50.072 L-18.32,50.072 Z M-7.696,55.24 C-6.832,55.24 -6.06933333,54.9893333 -5.408,54.488 L-5.408,54.488 L-5.408,55 L-3.36,55 L-3.36,47.16 L-5.408,47.16 L-5.408,47.672 C-5.68533333,47.4266667 -6.02666667,47.2373333 -6.432,47.104 C-6.83733333,46.9706667 -7.25866667,46.904 -7.696,46.904 C-8.44266667,46.904 -9.136,47.0906667 -9.776,47.464 C-10.416,47.8373333 -10.9253333,48.344 -11.304,48.984 C-11.6826667,49.624 -11.872,50.3226667 -11.872,51.08 C-11.872,51.8373333 -11.6826667,52.5333333 -11.304,53.168 C-10.9253333,53.8026667 -10.416,54.3066667 -9.776,54.68 C-9.136,55.0533333 -8.44266667,55.24 -7.696,55.24 Z M-7.696,53.432 C-8.12266667,53.432 -8.51733333,53.3253333 -8.88,53.112 C-9.24266667,52.8986667 -9.53066667,52.6106667 -9.744,52.248 C-9.95733333,51.8853333 -10.064,51.4906667 -10.064,51.064 C-10.064,50.6373333 -9.95733333,50.2426667 -9.744,49.88 C-9.53066667,49.5173333 -9.24266667,49.2293333 -8.88,49.016 C-8.51733333,48.8026667 -8.12266667,48.696 -7.696,48.696 C-7.26933333,48.696 -6.87466667,48.8026667 -6.512,49.016 C-6.14933333,49.2293333 -5.86133333,49.5173333 -5.648,49.88 C-5.43466667,50.2426667 -5.328,50.6373333 -5.328,51.064 C-5.328,51.4906667 -5.43466667,51.8853333 -5.648,52.248 C-5.86133333,52.6106667 -6.14933333,52.8986667 -6.512,53.112 C-6.87466667,53.3253333 -7.26933333,53.432 -7.696,53.432 Z M0.624,55 L0.624,51.896 C0.624,51.3306667 0.736,50.792 0.96,50.28 C1.14133333,49.8853333 1.38933333,49.5546667 1.704,49.288 C2.01866667,49.0213333 2.416,48.888 2.896,48.888 C3.07733333,48.888 3.29066667,48.9146667 3.536,48.968 L3.536,48.968 L3.536,47.128 C3.38666667,47.0853333 3.27466667,47.0586667 3.2,47.048 C3.05066667,47.0266667 2.93866667,47.016 2.864,47.016 C2.36266667,47.016 1.91466667,47.1386667 1.52,47.384 C1.12533333,47.6293333 0.826666667,47.9653333 0.624,48.392 L0.624,48.392 L0.624,47.176 L-1.44,47.176 L-1.44,55 L0.624,55 Z M8.56,55.256 C9.44533333,55.256 10.1946667,55.0586667 10.808,54.664 C11.4213333,54.2693333 11.9093333,53.752 12.272,53.112 L12.272,53.112 L10.528,52.248 C10.3466667,52.5786667 10.0986667,52.8533333 9.784,53.072 C9.46933333,53.2906667 9.072,53.4 8.592,53.4 C8.34666667,53.4 8.10666667,53.3653333 7.872,53.296 C7.63733333,53.2266667 7.42133333,53.1146667 7.224,52.96 C7.02666667,52.8053333 6.86133333,52.6133333 6.728,52.384 C6.59466667,52.1546667 6.50666667,51.88 6.464,51.56 L6.464,51.56 L12.368,51.56 C12.368,51.496 12.3733333,51.4373333 12.384,51.384 C12.384,51.3306667 12.3893333,51.272 12.4,51.208 L12.4,51.208 L12.4,51.016 C12.4,50.4293333 12.3146667,49.8853333 12.144,49.384 C11.9733333,48.8826667 11.7226667,48.448 11.392,48.08 C11.0613333,47.712 10.6506667,47.424 10.16,47.216 C9.66933333,47.008 9.10933333,46.904 8.48,46.904 C7.88266667,46.904 7.336,47.016 6.84,47.24 C6.344,47.464 5.91466667,47.7653333 5.552,48.144 C5.18933333,48.5226667 4.90666667,48.9653333 4.704,49.472 C4.50133333,49.9786667 4.4,50.5146667 4.4,51.08 C4.4,51.688 4.504,52.2453333 4.712,52.752 C4.92,53.2586667 5.21066667,53.6986667 5.584,54.072 C5.95733333,54.4453333 6.39733333,54.736 6.904,54.944 C7.41066667,55.152 7.96266667,55.256 8.56,55.256 Z M10.368,50.072 L6.576,50.072 C6.71466667,49.6133333 6.95466667,49.256 7.296,49 C7.63733333,48.744 8.032,48.616 8.48,48.616 C8.8,48.616 9.07466667,48.664 9.304,48.76 C9.53333333,48.856 9.72533333,48.9786667 9.88,49.128 C10.0346667,49.2773333 10.152,49.4373333 10.232,49.608 C10.312,49.7786667 10.3573333,49.9333333 10.368,50.072 L10.368,50.072 Z M19.344,55 L19.344,50.552 C19.344,50.296 19.4293333,50.0586667 19.6,49.84 C19.7706667,49.6213333 19.9893333,49.4453333 20.256,49.312 C20.5226667,49.1786667 20.7893333,49.1066667 21.056,49.096 C21.4613333,49.1066667 21.8346667,49.256 22.176,49.544 C22.5173333,49.832 22.688,50.168 22.688,50.552 L22.688,55 L24.752,55 L24.752,50.552 C24.752,49.912 24.592,49.32 24.272,48.776 C23.952,48.232 23.5226667,47.8 22.984,47.48 C22.4453333,47.16 21.856,47 21.216,47 C20.5546667,47 19.9306667,47.1706667 19.344,47.512 L19.344,43.544 L17.264,43.544 L17.264,55 L19.344,55 Z M28.672,45.64 L28.672,43.544 L26.576,43.544 L26.576,45.64 L28.672,45.64 Z M28.672,55 L28.672,47.16 L26.576,47.16 L26.576,55 L28.672,55 Z M32.88,55 L32.88,51.896 C32.88,51.3306667 32.992,50.792 33.216,50.28 C33.3973333,49.8853333 33.6453333,49.5546667 33.96,49.288 C34.2746667,49.0213333 34.672,48.888 35.152,48.888 C35.3333333,48.888 35.5466667,48.9146667 35.792,48.968 L35.792,48.968 L35.792,47.128 C35.6426667,47.0853333 35.5306667,47.0586667 35.456,47.048 C35.3066667,47.0266667 35.1946667,47.016 35.12,47.016 C34.6186667,47.016 34.1706667,47.1386667 33.776,47.384 C33.3813333,47.6293333 33.0826667,47.9653333 32.88,48.392 L32.88,48.392 L32.88,47.176 L30.816,47.176 L30.816,55 L32.88,55 Z M39.328,45.64 L39.328,43.544 L37.232,43.544 L37.232,45.64 L39.328,45.64 Z M39.328,55 L39.328,47.16 L37.232,47.16 L37.232,55 L39.328,55 Z M43.344,55 L43.344,51.16 C43.344,50.84 43.384,50.5386667 43.464,50.256 C43.544,49.9733333 43.6613333,49.728 43.816,49.52 C43.9706667,49.312 44.1573333,49.1466667 44.376,49.024 C44.5946667,48.9013333 44.848,48.84 45.136,48.84 C45.616,48.84 45.9813333,48.976 46.232,49.248 C46.4826667,49.52 46.608,49.9386667 46.608,50.504 L46.608,50.504 L46.608,55 L48.704,55 L48.704,50.248 C48.704,49.7466667 48.6426667,49.2906667 48.52,48.88 C48.3973333,48.4693333 48.216,48.1173333 47.976,47.824 C47.736,47.5306667 47.4293333,47.304 47.056,47.144 C46.6826667,46.984 46.2506667,46.904 45.76,46.904 C45.2266667,46.904 44.752,47.0186667 44.336,47.248 C43.92,47.4773333 43.5893333,47.7893333 43.344,48.184 L43.344,48.184 L43.216,48.184 L43.216,47.16 L41.248,47.16 L41.248,55 L43.344,55 Z M54.304,58.744 C54.912,58.744 55.472,58.648 55.984,58.456 C56.496,58.2426667 56.928,57.96 57.28,57.608 C57.6426667,57.2346667 57.9253333,56.7866667 58.128,56.264 C58.3306667,55.7093333 58.432,55.1173333 58.432,54.488 L58.432,54.488 L58.432,47.16 L56.432,47.16 L56.432,47.56 C55.76,47.1226667 55.0186667,46.904 54.208,46.904 C53.472,46.904 52.792,47.088 52.168,47.456 C51.544,47.824 51.048,48.32 50.68,48.944 C50.312,49.568 50.128,50.248 50.128,50.984 C50.128,51.72 50.312,52.4 50.68,53.024 C51.048,53.648 51.544,54.144 52.168,54.512 C52.792,54.88 53.472,55.064 54.208,55.064 C55.0186667,55.064 55.76,54.8453333 56.432,54.408 C56.432,54.792 56.384,55.144 56.288,55.464 C56.192,55.784 56.048,56.0453333 55.856,56.248 C55.472,56.6853333 54.9546667,56.904 54.304,56.904 C53.8986667,56.904 53.52,56.7866667 53.168,56.552 C52.9973333,56.4453333 52.8533333,56.3066667 52.736,56.136 C52.6826667,56.0826667 52.64,56.024 52.608,55.96 L52.608,55.96 L50.624,56.808 C50.7306667,56.9786667 50.8266667,57.112 50.912,57.208 C51.104,57.4746667 51.3653333,57.7306667 51.696,57.976 C52.0266667,58.2106667 52.4053333,58.3973333 52.832,58.536 C53.2373333,58.6746667 53.728,58.744 54.304,58.744 Z M54.208,53.32 C53.8133333,53.32 53.4346667,53.2106667 53.072,52.992 C52.7093333,52.7733333 52.4186667,52.4826667 52.2,52.12 C51.9813333,51.7573333 51.872,51.3786667 51.872,50.984 C51.872,50.5893333 51.9786667,50.2106667 52.192,49.848 C52.4053333,49.4853333 52.6933333,49.1946667 53.056,48.976 C53.4186667,48.7573333 53.8026667,48.648 54.208,48.648 C54.3146667,48.648 54.4053333,48.6533333 54.48,48.664 C54.5546667,48.6746667 54.6133333,48.6853333 54.656,48.696 C55.0933333,48.792 55.4853333,49.0133333 55.832,49.36 C56.1786667,49.7066667 56.4,50.0986667 56.496,50.536 C56.5066667,50.5786667 56.5173333,50.6373333 56.528,50.712 C56.5386667,50.7866667 56.544,50.8773333 56.544,50.984 C56.544,51.3786667 56.4346667,51.7573333 56.216,52.12 C55.9973333,52.4826667 55.7066667,52.7733333 55.344,52.992 C54.9813333,53.2106667 54.6026667,53.32 54.208,53.32 Z" id="Wearehiring" fill-rule="nonzero" transform="translate(9.344000, 51.144000) rotate(-270.000000) translate(-9.344000, -51.144000) "></path>
        </g>
    </g>
</svg>