<?xml version="1.0" encoding="UTF-8"?>
<svg width="63px" height="33px" viewBox="0 0 63 33" version="1.1" xmlns="http://www.w3.org/2000/svg" xmlns:xlink="http://www.w3.org/1999/xlink">
    <title>kyte-bi</title>
    <g id="Page-1" stroke="none" stroke-width="1" fill="none" fill-rule="evenodd">
        <g id="kyte-bi" fill-rule="nonzero">
            <path d="M63,0.496 L59.216,19.496 L58.966,19.344 C58.71,15.164 57.048,11.367 54.221,8.558 C51.73,6.082 48.435,4.524 45,4.162 L63,0.496 Z" id="Path" fill="#FEC447"></path>
            <path d="M18.811,23.988 L14.377,13.496 L12,13.496 L17.67,27.007 L17.397,27.698 C16.992,28.733 16.043,30.44 14.281,30.236 L13.953,30.199 L13.953,32.459 L14.226,32.482 C14.341,32.492 14.456,32.496 14.571,32.496 C16.676,32.496 18.564,30.899 19.553,28.245 L25,13.496 L22.632,13.496 L18.812,23.988 L18.811,23.988 Z" id="Path" fill="#272727"></path>
            <path d="M12.766,8.496 L9.689,8.496 L2.294,16.449 L2.294,8.496 L0,8.496 L0,27.496 L2.294,27.496 L2.294,19.059 L9.933,27.495 L13,27.495 L4.236,17.735 L12.766,8.496 Z M35.085,15.669 L36,13.339 L31.64,13.339 L31.64,9.496 L29.192,10.216 L29.192,13.34 L26.915,13.34 L26,15.67 L29.192,15.67 L29.192,23.49 C29.192,24.926 29.576,25.95 30.364,26.618 C31.056,27.205 32.06,27.496 33.407,27.496 C33.963,27.496 34.577,27.446 35.253,27.348 L35.52,27.308 L35.52,25.164 L34.738,25.197 C33.412,25.256 32.455,25.298 32.023,24.891 C31.762,24.646 31.64,24.201 31.64,23.49 L31.64,15.67 L35.085,15.67 L35.085,15.669 Z M38.47,19.382 C38.92,17.148 40.73,15.725 43.171,15.725 C45.428,15.725 47.108,17.148 47.533,19.382 L38.47,19.382 Z M43.17,13.496 C39.016,13.496 36,16.44 36,20.496 C36,24.552 39.071,27.496 43.302,27.496 C45.903,27.496 48.108,26.371 49.352,24.408 L49.512,24.158 L47.439,22.974 L47.281,23.248 C46.539,24.533 45.099,25.269 43.329,25.269 C40.809,25.269 38.937,23.845 38.473,21.611 L49.633,21.611 L49.919,21.608 L49.946,21.342 C49.973,21.084 50,20.818 50,20.548 C50,15.968 46.481,13.496 43.17,13.496 Z" id="Shape" fill="#272727"></path>
        </g>
    </g>
</svg>