<?xml version="1.0" encoding="UTF-8"?>
<svg width="223px" height="56px" viewBox="0 0 223 56" version="1.1" xmlns="http://www.w3.org/2000/svg" xmlns:xlink="http://www.w3.org/1999/xlink">
    <title>Artboard</title>
    <g id="Artboard" stroke="none" stroke-width="1" fill="none" fill-rule="evenodd">
        <path d="M203.57,38.19 L184.48,38.19 L184.48,19.09 C184.48,8.54688413 193.026884,0 203.57,0 L203.57,0 C214.114735,0 222.664479,8.54526673 222.67,19.09 L222.67,19.09 C222.67,29.6386387 214.118639,38.19 203.57,38.19 L203.57,38.19 Z" id="Path" fill="#FF1A40" fill-rule="nonzero"></path>
        <path d="M0,30 C0,28.27 1.64,27.43 3.14,27.43 C4.51871767,27.3151474 5.78197139,28.2036359 6.14,29.54 C7.39497699,28.1957884 9.16130765,27.4470968 11,27.48 C15.94,27.48 19.55,30.48 19.55,37.48 C19.55,44.48 15.55,47.48 10.9,47.48 C9.08047641,47.51638 7.34468262,46.7166619 6.19,45.31 L6.19,52.79 C6.19,54.56 4.62,55.4 3.11,55.4 C1.6,55.4 0,54.48 0,52.71 L0,30 Z M6.22,36.29 L6.22,38.29 C6.48,41.63 8.35,42.16 9.29,42.16 C12.16,42.16 13.23,40.09 13.23,37.42 C13.23,34.58 12.03,32.87 9.39,32.87 C8.12,32.86 6.48,33.63 6.22,36.31 L6.22,36.29 Z" id="Shape" fill="#222222" fill-rule="nonzero"></path>
        <path d="M22.92,21.67 C22.92,19.93 24.49,19.1 26.03,19.1 C27.57,19.1 29.14,19.93 29.14,21.67 L29.14,45 C29.14,46.77 27.53,47.64 26.03,47.64 C25.2648407,47.7147506 24.5020661,47.476096 23.9159603,46.9785657 C23.3298545,46.4810354 22.9704984,45.7671416 22.92,45 L22.92,21.67 Z" id="Path" fill="#222222" fill-rule="nonzero"></path>
        <path d="M50,34 L50,44.86 C50.0152758,45.6402694 49.6958866,46.3897715 49.1225054,46.9191936 C48.5491241,47.4486156 47.7765779,47.7073338 47,47.63 C45.3,47.63 44,46.73 44,45.23 C42.69,46.7 40.15,47.3 38.45,47.3 C35.27,47.3 32.67,45.56 32.67,41.49 C32.67,36.44 37.24,34.8 41.32,34.8 C42.191945,34.7973698 43.0633395,34.8441113 43.93,34.94 L43.93,34.67 C43.93,33.23 42.93,32.6 40.75,32.6 C39.7479932,32.6494347 38.7642246,32.8868961 37.85,33.3 C37.2232004,33.5979629 36.5432763,33.767944 35.85,33.8 C34.4604148,33.703788 33.3980833,32.5219441 33.45,31.13 C33.3645763,30.1207033 33.9090557,29.1628966 34.82,28.72 C37.0032409,27.6830472 39.4047287,27.1890269 41.82,27.28 C46.31,27.28 50,29.29 50,34 Z M44,39.88 L44,39.11 C43.3964701,38.9723701 42.7790055,38.9052544 42.16,38.91 C40.26,38.91 38.86,39.48 38.86,40.91 C38.86,42.08 39.86,42.44 40.66,42.44 C42.53,42.45 44,41.32 44,39.88 Z" id="Shape" fill="#222222" fill-rule="nonzero"></path>
        <path d="M66.73,29.05 C68.1,25.58 73.98,27.88 72.37,31.43 L65,47.63 C62.53,53.11 59.72,54.63 56.54,54.63 C55.5041965,54.6549801 54.4702084,54.5303626 53.47,54.26 C50.7,53.39 51.76,48.35 55.01,49.15 C55.4020611,49.2486319 55.8059124,49.2923825 56.21,49.28 C57.31,49.28 58.45,48.62 59.35,46.38 L59.52,45.98 L52.72,31.69 C50.82,27.69 56.83,25.48 58.54,29.39 L62.68,39.48 L66.73,29.05 Z" id="Path" fill="#222222" fill-rule="nonzero"></path>
        <path d="M84.37,30 C85.07,26.42 90.98,26.45 91.72,30 L94,40.32 L96.14,29.32 C96.8,25.88 102.79,26.85 101.78,30.86 L98.4,44.26 C97.9741599,46.3102469 96.1480149,47.7661442 94.0544248,47.7245172 C91.9608347,47.6828903 90.1940054,46.1555538 89.85,44.09 L87.85,34.9 L85.98,44.23 C85.6152283,46.2758221 83.8514427,47.77598 81.7735973,47.8076842 C79.6957519,47.8393885 77.8870185,46.3937408 77.46,44.36 L74,31.13 C72.93,27.02 79.28,25.71 80,29.49 L82.2,40.62 L84.37,30 Z" id="Path" fill="#222222" fill-rule="nonzero"></path>
        <path d="M107.65,19.33 C108.553158,19.3057854 109.428012,19.6463148 110.077135,20.2747411 C110.726258,20.9031674 111.094947,21.7665318 111.1,22.67 C111.106287,23.5761364 110.740807,24.4452297 110.088818,25.0745411 C109.436829,25.7038524 108.555346,26.0383487 107.65,26 C106.76381,26.0271188 105.904593,25.6932308 105.269243,25.0748481 C104.633892,24.4564653 104.276874,23.606599 104.28,22.72 C104.258036,21.8178487 104.605366,20.9458411 105.241582,20.3058496 C105.877797,19.6658582 106.747734,19.3133746 107.65,19.33 Z M104.58,30 C104.58,28.26 106.22,27.43 107.72,27.43 C109.22,27.43 110.79,28.26 110.79,30 L110.79,45 C110.79,46.77 109.19,47.64 107.69,47.64 C106.19,47.64 104.58,46.77 104.58,45 L104.58,30 Z" id="Shape" fill="#222222" fill-rule="nonzero"></path>
        <path d="M127.27,35.94 C127.27,34.23 126.47,32.94 124.39,32.94 C122.96,32.94 121.65,33.94 121.19,35.94 L121.19,44.94 C121.19,46.71 119.62,47.58 118.11,47.58 C116.6,47.58 115,46.73 115,45 L115,30 C115,28.27 116.64,27.43 118.14,27.43 C119.607662,27.3081124 120.918886,28.3439795 121.14,29.8 C122.47187,28.2258117 124.460356,27.3609312 126.52,27.46 C130.4,27.46 133.47,29.8 133.47,34.68 L133.47,45 C133.47,46.77 131.84,47.64 130.3,47.64 C129.547827,47.7062525 128.801353,47.4614446 128.2345,46.9626139 C127.667647,46.4637833 127.329918,45.7544927 127.3,45 L127.27,35.94 Z" id="Path" fill="#222222" fill-rule="nonzero"></path>
        <path d="M150.12,44.23 C148.99743,45.8362664 147.138555,46.7657036 145.18,46.7 C140.5,46.7 136.65,43.92 136.65,37.31 C136.65,30.89 140.93,27.68 144.91,27.68 C146.852226,27.5743827 148.747348,28.3018771 150.12,29.68 C150.414873,28.2468855 151.743827,27.2674295 153.2,27.41 C154.73,27.41 156.34,28.24 156.34,29.98 L156.34,45.16 C156.34,52.01 152.34,55.16 146.18,55.22 C143.740129,55.3143586 141.335792,54.6123623 139.33,53.22 C136.65,51.05 139.33,46.64 142.47,48.68 C143.504776,49.3325705 144.688581,49.7111129 145.91,49.78 C148.99,49.78 150.12,48.38 150.12,45.4 L150.12,44.23 Z M150.12,38.08 L150.12,35.9 C149.988208,34.0851546 148.46956,32.6846724 146.65,32.7 C144.47,32.7 142.97,34.37 142.97,37.14 C142.97,39.91 144.11,41.75 146.81,41.75 C148.25,41.75 149.89,40.85 150.12,38.08 Z" id="Shape" fill="#222222" fill-rule="nonzero"></path>
        <path d="M173.38,28.62 C176.25,30.29 174.04,34.62 171.04,32.93 C170.134311,32.4414168 169.12838,32.167694 168.1,32.13 C166.43,32.13 165.86,32.63 165.86,33.4 C165.86,34.17 166.63,34.6 168.1,34.97 L169.6,35.37 C173.11,36.27 174.91,38.04 174.91,40.98 C174.91,44.86 171.47,47.73 166.63,47.73 C164.52427,47.8095929 162.440486,47.2782279 160.63,46.2 C157.89,44.39 160.26,39.85 163.27,41.52 C164.31611,42.10765 165.4822,42.449612 166.68,42.52 C168.01,42.52 168.85,42.12 168.85,41.28 C168.85,40.44 168.21,40.01 166.48,39.61 L164.8,39.25 C162.03,38.64 159.8,36.74 159.8,33.5 C159.8,30.09 162.6,27.32 167.55,27.32 C169.57312,27.2411566 171.582034,27.6891133 173.38,28.62 L173.38,28.62 Z" id="Path" fill="#222222" fill-rule="nonzero"></path>
    </g>
</svg>