<?xml version="1.0" encoding="UTF-8"?>
<svg width="623px" height="133px" viewBox="0 0 623 133" version="1.1" xmlns="http://www.w3.org/2000/svg" xmlns:xlink="http://www.w3.org/1999/xlink">
    <!-- Generator: Sketch 61 (89581) - https://sketch.com -->
    <title>Expansion</title>
    <desc>Created with Sketch.</desc>
    <g id="Page-1" stroke="none" stroke-width="1" fill="none" fill-rule="evenodd">
        <g id="SquareLab_Draft-Copy-4" transform="translate(-1078.000000, -3348.000000)" fill="#FFFFFF" fill-rule="nonzero">
            <g id="Story_04" transform="translate(0.000000, 3228.000000)">
                <path d="M1141.64,221 L1141.64,203.08 L1096.98,203.08 L1096.98,179.84 L1137.16,179.84 L1137.16,161.92 L1096.98,161.92 L1096.98,138.68 L1141.64,138.68 L1141.64,120.76 L1078.08,120.76 L1078.08,221 L1141.64,221 Z M1168.28667,221 L1180.74667,201.4 L1181.72667,201.4 L1194.60667,221 L1216.16667,221 L1192.08667,186.14 L1216.16667,152.4 L1193.76667,152.4 L1182.00667,171.44 L1181.02667,171.44 L1168.56667,152.4 L1146.86667,152.4 L1170.38667,186.14 L1146.58667,221 L1168.28667,221 Z M1238.05333,252.5 L1238.05333,216.38 C1240.48,218.526667 1243.46667,220.183333 1247.01333,221.35 C1250.56,222.516667 1254.24667,223.1 1258.07333,223.1 C1264.60667,223.1 1270.67333,221.466667 1276.27333,218.2 C1281.87333,214.933333 1286.33,210.5 1289.64333,204.9 C1292.95667,199.3 1294.61333,193.186667 1294.61333,186.56 C1294.61333,179.933333 1292.95667,173.843333 1289.64333,168.29 C1286.33,162.736667 1281.87333,158.326667 1276.27333,155.06 C1270.67333,151.793333 1264.60667,150.16 1258.07333,150.16 C1250.51333,150.16 1243.84,152.353333 1238.05333,156.74 L1238.05333,156.74 L1238.05333,152.26 L1220.13333,152.26 L1220.13333,252.5 L1238.05333,252.5 Z M1258.07333,207.28 C1254.34,207.28 1250.88667,206.346667 1247.71333,204.48 C1244.54,202.613333 1242.02,200.093333 1240.15333,196.92 C1238.28667,193.746667 1237.35333,190.293333 1237.35333,186.56 C1237.35333,182.826667 1238.28667,179.373333 1240.15333,176.2 C1242.02,173.026667 1244.54,170.506667 1247.71333,168.64 C1250.88667,166.773333 1254.34,165.84 1258.07333,165.84 C1261.80667,165.84 1265.26,166.773333 1268.43333,168.64 C1271.60667,170.506667 1274.12667,173.026667 1275.99333,176.2 C1277.86,179.373333 1278.79333,182.826667 1278.79333,186.56 C1278.79333,190.293333 1277.86,193.746667 1275.99333,196.92 C1274.12667,200.093333 1271.60667,202.613333 1268.43333,204.48 C1265.26,206.346667 1261.80667,207.28 1258.07333,207.28 Z M1334.42,223.1 C1341.98,223.1 1348.65333,220.906667 1354.44,216.52 L1354.44,216.52 L1354.44,221 L1372.36,221 L1372.36,152.4 L1354.44,152.4 L1354.44,156.88 C1352.01333,154.733333 1349.02667,153.076667 1345.48,151.91 C1341.93333,150.743333 1338.24667,150.16 1334.42,150.16 C1327.88667,150.16 1321.82,151.793333 1316.22,155.06 C1310.62,158.326667 1306.16333,162.76 1302.85,168.36 C1299.53667,173.96 1297.88,180.073333 1297.88,186.7 C1297.88,193.326667 1299.53667,199.416667 1302.85,204.97 C1306.16333,210.523333 1310.62,214.933333 1316.22,218.2 C1321.82,221.466667 1327.88667,223.1 1334.42,223.1 Z M1334.42,207.28 C1330.68667,207.28 1327.23333,206.346667 1324.06,204.48 C1320.88667,202.613333 1318.36667,200.093333 1316.5,196.92 C1314.63333,193.746667 1313.7,190.293333 1313.7,186.56 C1313.7,182.826667 1314.63333,179.373333 1316.5,176.2 C1318.36667,173.026667 1320.88667,170.506667 1324.06,168.64 C1327.23333,166.773333 1330.68667,165.84 1334.42,165.84 C1338.15333,165.84 1341.60667,166.773333 1344.78,168.64 C1347.95333,170.506667 1350.47333,173.026667 1352.34,176.2 C1354.20667,179.373333 1355.14,182.826667 1355.14,186.56 C1355.14,190.293333 1354.20667,193.746667 1352.34,196.92 C1350.47333,200.093333 1347.95333,202.613333 1344.78,204.48 C1341.60667,206.346667 1338.15333,207.28 1334.42,207.28 Z M1402.08667,221 L1402.08667,187.4 C1402.08667,184.6 1402.43667,181.963333 1403.13667,179.49 C1403.83667,177.016667 1404.86333,174.87 1406.21667,173.05 C1407.57,171.23 1409.20333,169.783333 1411.11667,168.71 C1413.03,167.636667 1415.24667,167.1 1417.76667,167.1 C1421.96667,167.1 1425.16333,168.29 1427.35667,170.67 C1429.55,173.05 1430.64667,176.713333 1430.64667,181.66 L1430.64667,181.66 L1430.64667,221 L1448.98667,221 L1448.98667,179.42 C1448.98667,175.033333 1448.45,171.043333 1447.37667,167.45 C1446.30333,163.856667 1444.71667,160.776667 1442.61667,158.21 C1440.51667,155.643333 1437.83333,153.66 1434.56667,152.26 C1431.3,150.86 1427.52,150.16 1423.22667,150.16 C1418.56,150.16 1414.40667,151.163333 1410.76667,153.17 C1407.12667,155.176667 1404.23333,157.906667 1402.08667,161.36 L1402.08667,161.36 L1400.96667,161.36 L1400.96667,152.4 L1383.74667,152.4 L1383.74667,221 L1402.08667,221 Z M1487.81333,223.24 C1492.2,223.24 1496.19,222.633333 1499.78333,221.42 C1503.37667,220.206667 1506.45667,218.55 1509.02333,216.45 C1511.59,214.35 1513.57333,211.946667 1514.97333,209.24 C1516.37333,206.533333 1517.07333,203.686667 1517.07333,200.7 C1517.07333,195.66 1515.37,191.296667 1511.96333,187.61 C1508.55667,183.923333 1503.35333,181.24 1496.35333,179.56 L1496.35333,179.56 L1485.85333,177.04 C1483.05333,176.293333 1480.83667,175.453333 1479.20333,174.52 C1477.57,173.586667 1476.75333,172.326667 1476.75333,170.74 C1476.75333,169.06 1477.73333,167.683333 1479.69333,166.61 C1481.65333,165.536667 1483.94,165 1486.55333,165 C1489.07333,165 1491.59333,165.606667 1494.11333,166.82 C1496.63333,168.033333 1498.54667,169.993333 1499.85333,172.7 L1499.85333,172.7 L1515.67333,166.26 C1513.24667,160.66 1509.46667,156.576667 1504.33333,154.01 C1499.2,151.443333 1493.36667,150.16 1486.83333,150.16 C1482.91333,150.16 1479.25,150.65 1475.84333,151.63 C1472.43667,152.61 1469.47333,154.01 1466.95333,155.83 C1464.43333,157.65 1462.45,159.866667 1461.00333,162.48 C1459.55667,165.093333 1458.83333,168.08 1458.83333,171.44 C1458.83333,174.426667 1459.44,177.04 1460.65333,179.28 C1461.86667,181.52 1463.40667,183.433333 1465.27333,185.02 C1467.14,186.606667 1469.21667,187.913333 1471.50333,188.94 C1473.79,189.966667 1476.00667,190.713333 1478.15333,191.18 L1478.15333,191.18 L1487.81333,193.28 C1491.82667,194.213333 1494.65,195.263333 1496.28333,196.43 C1497.91667,197.596667 1498.73333,199.113333 1498.73333,200.98 C1498.73333,202.66 1497.75333,204.106667 1495.79333,205.32 C1493.83333,206.533333 1491.17333,207.14 1487.81333,207.14 C1484.54667,207.14 1481.58333,206.276667 1478.92333,204.55 C1476.26333,202.823333 1474.14,200.186667 1472.55333,196.64 L1472.55333,196.64 L1456.17333,203.64 C1457.10667,206.066667 1458.46,208.47 1460.23333,210.85 C1462.00667,213.23 1464.17667,215.33 1466.74333,217.15 C1469.31,218.97 1472.34333,220.44 1475.84333,221.56 C1479.34333,222.68 1483.33333,223.24 1487.81333,223.24 Z M1544.28,139.1 L1544.28,120.76 L1525.94,120.76 L1525.94,139.1 L1544.28,139.1 Z M1544.28,221 L1544.28,152.4 L1525.94,152.4 L1525.94,221 L1544.28,221 Z M1590.10667,223.24 C1596.64,223.24 1602.70667,221.606667 1608.30667,218.34 C1613.90667,215.073333 1618.36333,210.663333 1621.67667,205.11 C1624.99,199.556667 1626.64667,193.466667 1626.64667,186.84 C1626.64667,180.213333 1624.99,174.076667 1621.67667,168.43 C1618.36333,162.783333 1613.90667,158.326667 1608.30667,155.06 C1602.70667,151.793333 1596.64,150.16 1590.10667,150.16 C1583.48,150.16 1577.36667,151.793333 1571.76667,155.06 C1566.16667,158.326667 1561.73333,162.783333 1558.46667,168.43 C1555.2,174.076667 1553.56667,180.213333 1553.56667,186.84 C1553.56667,193.466667 1555.2,199.556667 1558.46667,205.11 C1561.73333,210.663333 1566.16667,215.073333 1571.76667,218.34 C1577.36667,221.606667 1583.48,223.24 1590.10667,223.24 Z M1590.10667,206.72 C1586.46667,206.72 1583.10667,205.833333 1580.02667,204.06 C1576.94667,202.286667 1574.52,199.86 1572.74667,196.78 C1570.97333,193.7 1570.08667,190.386667 1570.08667,186.84 C1570.08667,183.2 1570.97333,179.84 1572.74667,176.76 C1574.52,173.68 1576.94667,171.253333 1580.02667,169.48 C1583.10667,167.706667 1586.46667,166.82 1590.10667,166.82 C1593.74667,166.82 1597.08333,167.706667 1600.11667,169.48 C1603.15,171.253333 1605.55333,173.68 1607.32667,176.76 C1609.1,179.84 1609.98667,183.2 1609.98667,186.84 C1609.98667,190.386667 1609.1,193.7 1607.32667,196.78 C1605.55333,199.86 1603.15,202.286667 1600.11667,204.06 C1597.08333,205.833333 1593.74667,206.72 1590.10667,206.72 Z M1653.15333,221 L1653.15333,187.4 C1653.15333,184.6 1653.50333,181.963333 1654.20333,179.49 C1654.90333,177.016667 1655.93,174.87 1657.28333,173.05 C1658.63667,171.23 1660.27,169.783333 1662.18333,168.71 C1664.09667,167.636667 1666.31333,167.1 1668.83333,167.1 C1673.03333,167.1 1676.23,168.29 1678.42333,170.67 C1680.61667,173.05 1681.71333,176.713333 1681.71333,181.66 L1681.71333,181.66 L1681.71333,221 L1700.05333,221 L1700.05333,179.42 C1700.05333,175.033333 1699.51667,171.043333 1698.44333,167.45 C1697.37,163.856667 1695.78333,160.776667 1693.68333,158.21 C1691.58333,155.643333 1688.9,153.66 1685.63333,152.26 C1682.36667,150.86 1678.58667,150.16 1674.29333,150.16 C1669.62667,150.16 1665.47333,151.163333 1661.83333,153.17 C1658.19333,155.176667 1655.3,157.906667 1653.15333,161.36 L1653.15333,161.36 L1652.03333,161.36 L1652.03333,152.4 L1634.81333,152.4 L1634.81333,221 L1653.15333,221 Z" id="Expansion"></path>
            </g>
        </g>
    </g>
</svg>