<?xml version="1.0" encoding="UTF-8"?>
<svg width="163px" height="39px" viewBox="0 0 163 39" version="1.1" xmlns="http://www.w3.org/2000/svg" xmlns:xlink="http://www.w3.org/1999/xlink">
    <!-- Generator: Sketch 61 (89581) - https://sketch.com -->
    <title>Hello.WeareSquareLab.</title>
    <desc>Created with Sketch.</desc>
    <g id="Page-1" stroke="none" stroke-width="1" fill="none" fill-rule="evenodd">
        <g id="SquareLab_Draft-Copy-6" transform="translate(-560.000000, -644.000000)" fill="#FFFFFF" fill-rule="nonzero">
            <g id="Story_01">
                <g id="Copy" transform="translate(560.000000, 490.000000)">
                    <path d="M3.726,167 L3.726,161.564 L9.144,161.564 L9.144,167 L11.574,167 L11.574,154.112 L9.144,154.112 L9.144,159.26 L3.726,159.26 L3.726,154.112 L1.296,154.112 L1.296,167 L3.726,167 Z M18.054,167.288 C19.05,167.288 19.893,167.066 20.583,166.622 C21.273,166.178 21.822,165.596 22.23,164.876 L22.23,164.876 L20.268,163.904 C20.064,164.276 19.785,164.585 19.431,164.831 C19.077,165.077 18.63,165.2 18.09,165.2 C17.814,165.2 17.544,165.161 17.28,165.083 C17.016,165.005 16.773,164.879 16.551,164.705 C16.329,164.531 16.143,164.315 15.993,164.057 C15.843,163.799 15.744,163.49 15.696,163.13 L15.696,163.13 L22.338,163.13 C22.338,163.058 22.344,162.992 22.356,162.932 C22.356,162.872 22.362,162.806 22.374,162.734 L22.374,162.734 L22.374,162.518 C22.374,161.858 22.278,161.246 22.086,160.682 C21.894,160.118 21.612,159.629 21.24,159.215 C20.868,158.801 20.406,158.477 19.854,158.243 C19.302,158.009 18.672,157.892 17.964,157.892 C17.292,157.892 16.677,158.018 16.119,158.27 C15.561,158.522 15.078,158.861 14.67,159.287 C14.262,159.713 13.944,160.211 13.716,160.781 C13.488,161.351 13.374,161.954 13.374,162.59 C13.374,163.274 13.491,163.901 13.725,164.471 C13.959,165.041 14.286,165.536 14.706,165.956 C15.126,166.376 15.621,166.703 16.191,166.937 C16.761,167.171 17.382,167.288 18.054,167.288 Z M20.088,161.456 L15.822,161.456 C15.978,160.94 16.248,160.538 16.632,160.25 C17.016,159.962 17.46,159.818 17.964,159.818 C18.324,159.818 18.633,159.872 18.891,159.98 C19.149,160.088 19.365,160.226 19.539,160.394 C19.713,160.562 19.845,160.742 19.935,160.934 C20.025,161.126 20.076,161.3 20.088,161.456 L20.088,161.456 Z M26.244,167 L26.244,154.112 L23.886,154.112 L23.886,167 L26.244,167 Z M30.618,167 L30.618,154.112 L28.26,154.112 L28.26,167 L30.618,167 Z M36.81,167.288 C37.65,167.288 38.43,167.078 39.15,166.658 C39.87,166.238 40.443,165.671 40.869,164.957 C41.295,164.243 41.508,163.46 41.508,162.608 C41.508,161.756 41.295,160.967 40.869,160.241 C40.443,159.515 39.87,158.942 39.15,158.522 C38.43,158.102 37.65,157.892 36.81,157.892 C35.958,157.892 35.172,158.102 34.452,158.522 C33.732,158.942 33.162,159.515 32.742,160.241 C32.322,160.967 32.112,161.756 32.112,162.608 C32.112,163.46 32.322,164.243 32.742,164.957 C33.162,165.671 33.732,166.238 34.452,166.658 C35.172,167.078 35.958,167.288 36.81,167.288 Z M36.81,165.164 C36.342,165.164 35.91,165.05 35.514,164.822 C35.118,164.594 34.806,164.282 34.578,163.886 C34.35,163.49 34.236,163.064 34.236,162.608 C34.236,162.14 34.35,161.708 34.578,161.312 C34.806,160.916 35.118,160.604 35.514,160.376 C35.91,160.148 36.342,160.034 36.81,160.034 C37.278,160.034 37.707,160.148 38.097,160.376 C38.487,160.604 38.796,160.916 39.024,161.312 C39.252,161.708 39.366,162.14 39.366,162.608 C39.366,163.064 39.252,163.49 39.024,163.886 C38.796,164.282 38.487,164.594 38.097,164.822 C37.707,165.05 37.278,165.164 36.81,165.164 Z M45.594,167 L45.594,164.642 L43.236,164.642 L43.236,167 L45.594,167 Z M6.192,188 L8.208,181.43 L8.586,180.008 L8.73,180.008 L9.108,181.43 L11.124,188 L13.464,188 L16.884,175.112 L14.31,175.112 L12.438,182.636 L12.168,184.004 L12.024,184.004 L11.664,182.636 L9.792,176.48 L7.524,176.48 L5.67,182.636 L5.292,184.022 L5.148,184.022 L4.86,182.636 L2.862,175.112 L0.288,175.112 L3.852,188 L6.192,188 Z M22.356,188.288 C23.352,188.288 24.195,188.066 24.885,187.622 C25.575,187.178 26.124,186.596 26.532,185.876 L26.532,185.876 L24.57,184.904 C24.366,185.276 24.087,185.585 23.733,185.831 C23.379,186.077 22.932,186.2 22.392,186.2 C22.116,186.2 21.846,186.161 21.582,186.083 C21.318,186.005 21.075,185.879 20.853,185.705 C20.631,185.531 20.445,185.315 20.295,185.057 C20.145,184.799 20.046,184.49 19.998,184.13 L19.998,184.13 L26.64,184.13 C26.64,184.058 26.646,183.992 26.658,183.932 C26.658,183.872 26.664,183.806 26.676,183.734 L26.676,183.734 L26.676,183.518 C26.676,182.858 26.58,182.246 26.388,181.682 C26.196,181.118 25.914,180.629 25.542,180.215 C25.17,179.801 24.708,179.477 24.156,179.243 C23.604,179.009 22.974,178.892 22.266,178.892 C21.594,178.892 20.979,179.018 20.421,179.27 C19.863,179.522 19.38,179.861 18.972,180.287 C18.564,180.713 18.246,181.211 18.018,181.781 C17.79,182.351 17.676,182.954 17.676,183.59 C17.676,184.274 17.793,184.901 18.027,185.471 C18.261,186.041 18.588,186.536 19.008,186.956 C19.428,187.376 19.923,187.703 20.493,187.937 C21.063,188.171 21.684,188.288 22.356,188.288 Z M24.39,182.456 L20.124,182.456 C20.28,181.94 20.55,181.538 20.934,181.25 C21.318,180.962 21.762,180.818 22.266,180.818 C22.626,180.818 22.935,180.872 23.193,180.98 C23.451,181.088 23.667,181.226 23.841,181.394 C24.015,181.562 24.147,181.742 24.237,181.934 C24.327,182.126 24.378,182.3 24.39,182.456 L24.39,182.456 Z M36.342,188.27 C37.314,188.27 38.172,187.988 38.916,187.424 L38.916,187.424 L38.916,188 L41.22,188 L41.22,179.18 L38.916,179.18 L38.916,179.756 C38.604,179.48 38.22,179.267 37.764,179.117 C37.308,178.967 36.834,178.892 36.342,178.892 C35.502,178.892 34.722,179.102 34.002,179.522 C33.282,179.942 32.709,180.512 32.283,181.232 C31.857,181.952 31.644,182.738 31.644,183.59 C31.644,184.442 31.857,185.225 32.283,185.939 C32.709,186.653 33.282,187.22 34.002,187.64 C34.722,188.06 35.502,188.27 36.342,188.27 Z M36.342,186.236 C35.862,186.236 35.418,186.116 35.01,185.876 C34.602,185.636 34.278,185.312 34.038,184.904 C33.798,184.496 33.678,184.052 33.678,183.572 C33.678,183.092 33.798,182.648 34.038,182.24 C34.278,181.832 34.602,181.508 35.01,181.268 C35.418,181.028 35.862,180.908 36.342,180.908 C36.822,180.908 37.266,181.028 37.674,181.268 C38.082,181.508 38.406,181.832 38.646,182.24 C38.886,182.648 39.006,183.092 39.006,183.572 C39.006,184.052 38.886,184.496 38.646,184.904 C38.406,185.312 38.082,185.636 37.674,185.876 C37.266,186.116 36.822,186.236 36.342,186.236 Z M45.702,188 L45.702,184.508 C45.702,183.872 45.828,183.266 46.08,182.69 C46.284,182.246 46.563,181.874 46.917,181.574 C47.271,181.274 47.718,181.124 48.258,181.124 C48.462,181.124 48.702,181.154 48.978,181.214 L48.978,181.214 L48.978,179.144 C48.81,179.096 48.684,179.066 48.6,179.054 C48.432,179.03 48.306,179.018 48.222,179.018 C47.658,179.018 47.154,179.156 46.71,179.432 C46.266,179.708 45.93,180.086 45.702,180.566 L45.702,180.566 L45.702,179.198 L43.38,179.198 L43.38,188 L45.702,188 Z M54.63,188.288 C55.626,188.288 56.469,188.066 57.159,187.622 C57.849,187.178 58.398,186.596 58.806,185.876 L58.806,185.876 L56.844,184.904 C56.64,185.276 56.361,185.585 56.007,185.831 C55.653,186.077 55.206,186.2 54.666,186.2 C54.39,186.2 54.12,186.161 53.856,186.083 C53.592,186.005 53.349,185.879 53.127,185.705 C52.905,185.531 52.719,185.315 52.569,185.057 C52.419,184.799 52.32,184.49 52.272,184.13 L52.272,184.13 L58.914,184.13 C58.914,184.058 58.92,183.992 58.932,183.932 C58.932,183.872 58.938,183.806 58.95,183.734 L58.95,183.734 L58.95,183.518 C58.95,182.858 58.854,182.246 58.662,181.682 C58.47,181.118 58.188,180.629 57.816,180.215 C57.444,179.801 56.982,179.477 56.43,179.243 C55.878,179.009 55.248,178.892 54.54,178.892 C53.868,178.892 53.253,179.018 52.695,179.27 C52.137,179.522 51.654,179.861 51.246,180.287 C50.838,180.713 50.52,181.211 50.292,181.781 C50.064,182.351 49.95,182.954 49.95,183.59 C49.95,184.274 50.067,184.901 50.301,185.471 C50.535,186.041 50.862,186.536 51.282,186.956 C51.702,187.376 52.197,187.703 52.767,187.937 C53.337,188.171 53.958,188.288 54.63,188.288 Z M56.664,182.456 L52.398,182.456 C52.554,181.94 52.824,181.538 53.208,181.25 C53.592,180.962 54.036,180.818 54.54,180.818 C54.9,180.818 55.209,180.872 55.467,180.98 C55.725,181.088 55.941,181.226 56.115,181.394 C56.289,181.562 56.421,181.742 56.511,181.934 C56.601,182.126 56.652,182.3 56.664,182.456 L56.664,182.456 Z M68.652,188.288 C69.156,188.288 69.672,188.21 70.2,188.054 C70.728,187.898 71.202,187.664 71.622,187.352 C72.042,187.04 72.387,186.641 72.657,186.155 C72.927,185.669 73.062,185.09 73.062,184.418 C73.062,183.878 72.981,183.401 72.819,182.987 C72.657,182.573 72.423,182.204 72.117,181.88 C71.811,181.556 71.445,181.277 71.019,181.043 C70.593,180.809 70.122,180.602 69.606,180.422 L69.606,180.422 L68.796,180.152 C68.064,179.9 67.53,179.639 67.194,179.369 C66.858,179.099 66.69,178.772 66.69,178.388 C66.69,177.992 66.864,177.671 67.212,177.425 C67.56,177.179 67.998,177.056 68.526,177.056 C69.078,177.056 69.513,177.2 69.831,177.488 C70.149,177.776 70.368,178.1 70.488,178.46 L70.488,178.46 L72.63,177.56 C72.534,177.272 72.384,176.966 72.18,176.642 C71.976,176.318 71.709,176.021 71.379,175.751 C71.049,175.481 70.647,175.259 70.173,175.085 C69.699,174.911 69.138,174.824 68.49,174.824 C67.866,174.824 67.299,174.917 66.789,175.103 C66.279,175.289 65.841,175.547 65.475,175.877 C65.109,176.207 64.827,176.591 64.629,177.029 C64.431,177.467 64.332,177.938 64.332,178.442 C64.332,178.934 64.425,179.375 64.611,179.765 C64.797,180.155 65.034,180.494 65.322,180.782 C65.61,181.07 65.931,181.316 66.285,181.52 C66.639,181.724 66.99,181.886 67.338,182.006 L67.338,182.006 L68.13,182.294 C68.598,182.462 68.991,182.624 69.309,182.78 C69.627,182.936 69.885,183.098 70.083,183.266 C70.281,183.434 70.422,183.614 70.506,183.806 C70.59,183.998 70.632,184.214 70.632,184.454 C70.632,184.706 70.578,184.928 70.47,185.12 C70.362,185.312 70.215,185.471 70.029,185.597 C69.843,185.723 69.633,185.819 69.399,185.885 C69.165,185.951 68.922,185.984 68.67,185.984 C67.986,185.984 67.434,185.771 67.014,185.345 C66.594,184.919 66.3,184.382 66.132,183.734 L66.132,183.734 L63.846,184.634 C64.026,185.234 64.272,185.759 64.584,186.209 C64.896,186.659 65.262,187.04 65.682,187.352 C66.102,187.664 66.564,187.898 67.068,188.054 C67.572,188.21 68.1,188.288 68.652,188.288 Z M83.7,192.05 L83.7,179.162 L81.396,179.162 L81.396,179.738 C80.652,179.174 79.794,178.892 78.822,178.892 C77.982,178.892 77.202,179.102 76.482,179.522 C75.762,179.942 75.189,180.509 74.763,181.223 C74.337,181.937 74.124,182.72 74.124,183.572 C74.124,184.424 74.337,185.21 74.763,185.93 C75.189,186.65 75.762,187.22 76.482,187.64 C77.202,188.06 77.982,188.27 78.822,188.27 C79.314,188.27 79.788,188.195 80.244,188.045 C80.7,187.895 81.084,187.682 81.396,187.406 L81.396,187.406 L81.396,192.05 L83.7,192.05 Z M78.822,186.236 C78.342,186.236 77.898,186.116 77.49,185.876 C77.082,185.636 76.758,185.312 76.518,184.904 C76.278,184.496 76.158,184.052 76.158,183.572 C76.158,183.092 76.278,182.648 76.518,182.24 C76.758,181.832 77.082,181.508 77.49,181.268 C77.898,181.028 78.342,180.908 78.822,180.908 C79.302,180.908 79.746,181.028 80.154,181.268 C80.562,181.508 80.886,181.832 81.126,182.24 C81.366,182.648 81.486,183.092 81.486,183.572 C81.486,184.052 81.366,184.496 81.126,184.904 C80.886,185.312 80.562,185.636 80.154,185.876 C79.746,186.116 79.302,186.236 78.822,186.236 Z M88.614,188.288 C88.878,188.288 89.094,188.282 89.262,188.27 C89.838,188.222 90.327,188.078 90.729,187.838 C91.131,187.598 91.428,187.382 91.62,187.19 L91.62,187.19 L91.62,188 L93.816,188 L93.816,179.18 L91.476,179.18 L91.476,183.518 C91.476,183.854 91.428,184.196 91.332,184.544 C91.236,184.868 91.104,185.138 90.936,185.354 C90.768,185.606 90.558,185.792 90.306,185.912 C90.078,186.056 89.796,186.128 89.46,186.128 C88.92,186.128 88.512,185.972 88.236,185.66 C87.948,185.348 87.804,184.88 87.804,184.256 L87.804,184.256 L87.804,179.18 L85.464,179.18 L85.464,184.544 C85.464,185.684 85.734,186.596 86.274,187.28 C86.826,187.952 87.606,188.288 88.614,188.288 Z M100.026,188.27 C100.998,188.27 101.856,187.988 102.6,187.424 L102.6,187.424 L102.6,188 L104.904,188 L104.904,179.18 L102.6,179.18 L102.6,179.756 C102.288,179.48 101.904,179.267 101.448,179.117 C100.992,178.967 100.518,178.892 100.026,178.892 C99.186,178.892 98.406,179.102 97.686,179.522 C96.966,179.942 96.393,180.512 95.967,181.232 C95.541,181.952 95.328,182.738 95.328,183.59 C95.328,184.442 95.541,185.225 95.967,185.939 C96.393,186.653 96.966,187.22 97.686,187.64 C98.406,188.06 99.186,188.27 100.026,188.27 Z M100.026,186.236 C99.546,186.236 99.102,186.116 98.694,185.876 C98.286,185.636 97.962,185.312 97.722,184.904 C97.482,184.496 97.362,184.052 97.362,183.572 C97.362,183.092 97.482,182.648 97.722,182.24 C97.962,181.832 98.286,181.508 98.694,181.268 C99.102,181.028 99.546,180.908 100.026,180.908 C100.506,180.908 100.95,181.028 101.358,181.268 C101.766,181.508 102.09,181.832 102.33,182.24 C102.57,182.648 102.69,183.092 102.69,183.572 C102.69,184.052 102.57,184.496 102.33,184.904 C102.09,185.312 101.766,185.636 101.358,185.876 C100.95,186.116 100.506,186.236 100.026,186.236 Z M109.386,188 L109.386,184.508 C109.386,183.872 109.512,183.266 109.764,182.69 C109.968,182.246 110.247,181.874 110.601,181.574 C110.955,181.274 111.402,181.124 111.942,181.124 C112.146,181.124 112.386,181.154 112.662,181.214 L112.662,181.214 L112.662,179.144 C112.494,179.096 112.368,179.066 112.284,179.054 C112.116,179.03 111.99,179.018 111.906,179.018 C111.342,179.018 110.838,179.156 110.394,179.432 C109.95,179.708 109.614,180.086 109.386,180.566 L109.386,180.566 L109.386,179.198 L107.064,179.198 L107.064,188 L109.386,188 Z M118.314,188.288 C119.31,188.288 120.153,188.066 120.843,187.622 C121.533,187.178 122.082,186.596 122.49,185.876 L122.49,185.876 L120.528,184.904 C120.324,185.276 120.045,185.585 119.691,185.831 C119.337,186.077 118.89,186.2 118.35,186.2 C118.074,186.2 117.804,186.161 117.54,186.083 C117.276,186.005 117.033,185.879 116.811,185.705 C116.589,185.531 116.403,185.315 116.253,185.057 C116.103,184.799 116.004,184.49 115.956,184.13 L115.956,184.13 L122.598,184.13 C122.598,184.058 122.604,183.992 122.616,183.932 C122.616,183.872 122.622,183.806 122.634,183.734 L122.634,183.734 L122.634,183.518 C122.634,182.858 122.538,182.246 122.346,181.682 C122.154,181.118 121.872,180.629 121.5,180.215 C121.128,179.801 120.666,179.477 120.114,179.243 C119.562,179.009 118.932,178.892 118.224,178.892 C117.552,178.892 116.937,179.018 116.379,179.27 C115.821,179.522 115.338,179.861 114.93,180.287 C114.522,180.713 114.204,181.211 113.976,181.781 C113.748,182.351 113.634,182.954 113.634,183.59 C113.634,184.274 113.751,184.901 113.985,185.471 C114.219,186.041 114.546,186.536 114.966,186.956 C115.386,187.376 115.881,187.703 116.451,187.937 C117.021,188.171 117.642,188.288 118.314,188.288 Z M120.348,182.456 L116.082,182.456 C116.238,181.94 116.508,181.538 116.892,181.25 C117.276,180.962 117.72,180.818 118.224,180.818 C118.584,180.818 118.893,180.872 119.151,180.98 C119.409,181.088 119.625,181.226 119.799,181.394 C119.973,181.562 120.105,181.742 120.195,181.934 C120.285,182.126 120.336,182.3 120.348,182.456 L120.348,182.456 Z M136.278,188 L136.278,185.696 L130.824,185.696 L130.824,175.112 L128.394,175.112 L128.394,188 L136.278,188 Z M141.912,188.27 C142.884,188.27 143.742,187.988 144.486,187.424 L144.486,187.424 L144.486,188 L146.79,188 L146.79,179.18 L144.486,179.18 L144.486,179.756 C144.174,179.48 143.79,179.267 143.334,179.117 C142.878,178.967 142.404,178.892 141.912,178.892 C141.072,178.892 140.292,179.102 139.572,179.522 C138.852,179.942 138.279,180.512 137.853,181.232 C137.427,181.952 137.214,182.738 137.214,183.59 C137.214,184.442 137.427,185.225 137.853,185.939 C138.279,186.653 138.852,187.22 139.572,187.64 C140.292,188.06 141.072,188.27 141.912,188.27 Z M141.912,186.236 C141.432,186.236 140.988,186.116 140.58,185.876 C140.172,185.636 139.848,185.312 139.608,184.904 C139.368,184.496 139.248,184.052 139.248,183.572 C139.248,183.092 139.368,182.648 139.608,182.24 C139.848,181.832 140.172,181.508 140.58,181.268 C140.988,181.028 141.432,180.908 141.912,180.908 C142.392,180.908 142.836,181.028 143.244,181.268 C143.652,181.508 143.976,181.832 144.216,182.24 C144.456,182.648 144.576,183.092 144.576,183.572 C144.576,184.052 144.456,184.496 144.216,184.904 C143.976,185.312 143.652,185.636 143.244,185.876 C142.836,186.116 142.392,186.236 141.912,186.236 Z M153.288,188.27 C154.128,188.27 154.908,188.06 155.628,187.64 C156.348,187.22 156.921,186.653 157.347,185.939 C157.773,185.225 157.986,184.442 157.986,183.59 C157.986,182.738 157.773,181.952 157.347,181.232 C156.921,180.512 156.348,179.942 155.628,179.522 C154.908,179.102 154.128,178.892 153.288,178.892 C152.796,178.892 152.322,178.967 151.866,179.117 C151.41,179.267 151.026,179.48 150.714,179.756 L150.714,179.756 L150.714,175.112 L148.41,175.112 L148.41,188 L150.714,188 L150.714,187.424 C151.458,187.988 152.316,188.27 153.288,188.27 Z M153.288,186.236 C152.808,186.236 152.364,186.116 151.956,185.876 C151.548,185.636 151.224,185.312 150.984,184.904 C150.744,184.496 150.624,184.052 150.624,183.572 C150.624,183.092 150.744,182.648 150.984,182.24 C151.224,181.832 151.548,181.508 151.956,181.268 C152.364,181.028 152.808,180.908 153.288,180.908 C153.768,180.908 154.212,181.028 154.62,181.268 C155.028,181.508 155.352,181.832 155.592,182.24 C155.832,182.648 155.952,183.092 155.952,183.572 C155.952,184.052 155.832,184.496 155.592,184.904 C155.352,185.312 155.028,185.636 154.62,185.876 C154.212,186.116 153.768,186.236 153.288,186.236 Z M162.09,188 L162.09,185.642 L159.732,185.642 L159.732,188 L162.09,188 Z" id="Hello.WeareSquareLab."></path>
                </g>
            </g>
        </g>
    </g>
</svg>