<?xml version="1.0" encoding="UTF-8"?>
<svg width="156px" height="39px" viewBox="0 0 156 39" version="1.1" xmlns="http://www.w3.org/2000/svg" xmlns:xlink="http://www.w3.org/1999/xlink">
    <!-- Generator: Sketch 60.1 (88133) - https://sketch.com -->
    <title>Hello,weareSquareLab</title>
    <desc>Created with Sketch.</desc>
    <g id="Page-1" stroke="none" stroke-width="1" fill="none" fill-rule="evenodd">
        <g id="SquareLab_Draft-Copy-5" transform="translate(-560.000000, -644.000000)" fill="#FFFFFF" fill-rule="nonzero">
            <g id="Story_01">
                <path d="M563.726,657 L563.726,651.564 L569.144,651.564 L569.144,657 L571.574,657 L571.574,644.112 L569.144,644.112 L569.144,649.26 L563.726,649.26 L563.726,644.112 L561.296,644.112 L561.296,657 L563.726,657 Z M578.054,657.288 C579.05,657.288 579.893,657.066 580.583,656.622 C581.273,656.178 581.822,655.596 582.23,654.876 L582.23,654.876 L580.268,653.904 C580.064,654.276 579.785,654.585 579.431,654.831 C579.077,655.077 578.63,655.2 578.09,655.2 C577.814,655.2 577.544,655.161 577.28,655.083 C577.016,655.005 576.773,654.879 576.551,654.705 C576.329,654.531 576.143,654.315 575.993,654.057 C575.843,653.799 575.744,653.49 575.696,653.13 L575.696,653.13 L582.338,653.13 C582.338,653.058 582.344,652.992 582.356,652.932 C582.356,652.872 582.362,652.806 582.374,652.734 L582.374,652.734 L582.374,652.518 C582.374,651.858 582.278,651.246 582.086,650.682 C581.894,650.118 581.612,649.629 581.24,649.215 C580.868,648.801 580.406,648.477 579.854,648.243 C579.302,648.009 578.672,647.892 577.964,647.892 C577.292,647.892 576.677,648.018 576.119,648.27 C575.561,648.522 575.078,648.861 574.67,649.287 C574.262,649.713 573.944,650.211 573.716,650.781 C573.488,651.351 573.374,651.954 573.374,652.59 C573.374,653.274 573.491,653.901 573.725,654.471 C573.959,655.041 574.286,655.536 574.706,655.956 C575.126,656.376 575.621,656.703 576.191,656.937 C576.761,657.171 577.382,657.288 578.054,657.288 Z M580.088,651.456 L575.822,651.456 C575.978,650.94 576.248,650.538 576.632,650.25 C577.016,649.962 577.46,649.818 577.964,649.818 C578.324,649.818 578.633,649.872 578.891,649.98 C579.149,650.088 579.365,650.226 579.539,650.394 C579.713,650.562 579.845,650.742 579.935,650.934 C580.025,651.126 580.076,651.3 580.088,651.456 L580.088,651.456 Z M586.244,657 L586.244,644.112 L583.886,644.112 L583.886,657 L586.244,657 Z M590.618,657 L590.618,644.112 L588.26,644.112 L588.26,657 L590.618,657 Z M596.81,657.288 C597.65,657.288 598.43,657.078 599.15,656.658 C599.87,656.238 600.443,655.671 600.869,654.957 C601.295,654.243 601.508,653.46 601.508,652.608 C601.508,651.756 601.295,650.967 600.869,650.241 C600.443,649.515 599.87,648.942 599.15,648.522 C598.43,648.102 597.65,647.892 596.81,647.892 C595.958,647.892 595.172,648.102 594.452,648.522 C593.732,648.942 593.162,649.515 592.742,650.241 C592.322,650.967 592.112,651.756 592.112,652.608 C592.112,653.46 592.322,654.243 592.742,654.957 C593.162,655.671 593.732,656.238 594.452,656.658 C595.172,657.078 595.958,657.288 596.81,657.288 Z M596.81,655.164 C596.342,655.164 595.91,655.05 595.514,654.822 C595.118,654.594 594.806,654.282 594.578,653.886 C594.35,653.49 594.236,653.064 594.236,652.608 C594.236,652.14 594.35,651.708 594.578,651.312 C594.806,650.916 595.118,650.604 595.514,650.376 C595.91,650.148 596.342,650.034 596.81,650.034 C597.278,650.034 597.707,650.148 598.097,650.376 C598.487,650.604 598.796,650.916 599.024,651.312 C599.252,651.708 599.366,652.14 599.366,652.608 C599.366,653.064 599.252,653.49 599.024,653.886 C598.796,654.282 598.487,654.594 598.097,654.822 C597.707,655.05 597.278,655.164 596.81,655.164 Z M604.28,659.538 C604.748,658.926 605.084,658.332 605.288,657.756 C605.492,657.18 605.594,656.502 605.594,655.722 L605.594,654.66 L603.236,654.696 L603.236,657.054 L604.19,657.054 C604.106,657.438 604.01,657.747 603.902,657.981 C603.794,658.215 603.695,658.404 603.605,658.548 C603.515,658.692 603.458,658.788 603.434,658.836 L604.28,659.538 Z M565.4,678 L567.164,672.438 L567.29,672.438 L569.054,678 L571.592,678 L574.418,669.18 L571.808,669.18 L570.368,674.706 L570.242,674.706 L568.478,669.18 L566.048,669.18 L564.302,674.706 L564.176,674.706 L562.718,669.18 L560.072,669.18 L562.898,678 L565.4,678 Z M579.674,678.288 C580.67,678.288 581.513,678.066 582.203,677.622 C582.893,677.178 583.442,676.596 583.85,675.876 L583.85,675.876 L581.888,674.904 C581.684,675.276 581.405,675.585 581.051,675.831 C580.697,676.077 580.25,676.2 579.71,676.2 C579.434,676.2 579.164,676.161 578.9,676.083 C578.636,676.005 578.393,675.879 578.171,675.705 C577.949,675.531 577.763,675.315 577.613,675.057 C577.463,674.799 577.364,674.49 577.316,674.13 L577.316,674.13 L583.958,674.13 C583.958,674.058 583.964,673.992 583.976,673.932 C583.976,673.872 583.982,673.806 583.994,673.734 L583.994,673.734 L583.994,673.518 C583.994,672.858 583.898,672.246 583.706,671.682 C583.514,671.118 583.232,670.629 582.86,670.215 C582.488,669.801 582.026,669.477 581.474,669.243 C580.922,669.009 580.292,668.892 579.584,668.892 C578.912,668.892 578.297,669.018 577.739,669.27 C577.181,669.522 576.698,669.861 576.29,670.287 C575.882,670.713 575.564,671.211 575.336,671.781 C575.108,672.351 574.994,672.954 574.994,673.59 C574.994,674.274 575.111,674.901 575.345,675.471 C575.579,676.041 575.906,676.536 576.326,676.956 C576.746,677.376 577.241,677.703 577.811,677.937 C578.381,678.171 579.002,678.288 579.674,678.288 Z M581.708,672.456 L577.442,672.456 C577.598,671.94 577.868,671.538 578.252,671.25 C578.636,670.962 579.08,670.818 579.584,670.818 C579.944,670.818 580.253,670.872 580.511,670.98 C580.769,671.088 580.985,671.226 581.159,671.394 C581.333,671.562 581.465,671.742 581.555,671.934 C581.645,672.126 581.696,672.3 581.708,672.456 L581.708,672.456 Z M593.66,678.27 C594.632,678.27 595.49,677.988 596.234,677.424 L596.234,677.424 L596.234,678 L598.538,678 L598.538,669.18 L596.234,669.18 L596.234,669.756 C595.922,669.48 595.538,669.267 595.082,669.117 C594.626,668.967 594.152,668.892 593.66,668.892 C592.82,668.892 592.04,669.102 591.32,669.522 C590.6,669.942 590.027,670.512 589.601,671.232 C589.175,671.952 588.962,672.738 588.962,673.59 C588.962,674.442 589.175,675.225 589.601,675.939 C590.027,676.653 590.6,677.22 591.32,677.64 C592.04,678.06 592.82,678.27 593.66,678.27 Z M593.66,676.236 C593.18,676.236 592.736,676.116 592.328,675.876 C591.92,675.636 591.596,675.312 591.356,674.904 C591.116,674.496 590.996,674.052 590.996,673.572 C590.996,673.092 591.116,672.648 591.356,672.24 C591.596,671.832 591.92,671.508 592.328,671.268 C592.736,671.028 593.18,670.908 593.66,670.908 C594.14,670.908 594.584,671.028 594.992,671.268 C595.4,671.508 595.724,671.832 595.964,672.24 C596.204,672.648 596.324,673.092 596.324,673.572 C596.324,674.052 596.204,674.496 595.964,674.904 C595.724,675.312 595.4,675.636 594.992,675.876 C594.584,676.116 594.14,676.236 593.66,676.236 Z M603.02,678 L603.02,674.508 C603.02,673.872 603.146,673.266 603.398,672.69 C603.602,672.246 603.881,671.874 604.235,671.574 C604.589,671.274 605.036,671.124 605.576,671.124 C605.78,671.124 606.02,671.154 606.296,671.214 L606.296,671.214 L606.296,669.144 C606.128,669.096 606.002,669.066 605.918,669.054 C605.75,669.03 605.624,669.018 605.54,669.018 C604.976,669.018 604.472,669.156 604.028,669.432 C603.584,669.708 603.248,670.086 603.02,670.566 L603.02,670.566 L603.02,669.198 L600.698,669.198 L600.698,678 L603.02,678 Z M611.948,678.288 C612.944,678.288 613.787,678.066 614.477,677.622 C615.167,677.178 615.716,676.596 616.124,675.876 L616.124,675.876 L614.162,674.904 C613.958,675.276 613.679,675.585 613.325,675.831 C612.971,676.077 612.524,676.2 611.984,676.2 C611.708,676.2 611.438,676.161 611.174,676.083 C610.91,676.005 610.667,675.879 610.445,675.705 C610.223,675.531 610.037,675.315 609.887,675.057 C609.737,674.799 609.638,674.49 609.59,674.13 L609.59,674.13 L616.232,674.13 C616.232,674.058 616.238,673.992 616.25,673.932 C616.25,673.872 616.256,673.806 616.268,673.734 L616.268,673.734 L616.268,673.518 C616.268,672.858 616.172,672.246 615.98,671.682 C615.788,671.118 615.506,670.629 615.134,670.215 C614.762,669.801 614.3,669.477 613.748,669.243 C613.196,669.009 612.566,668.892 611.858,668.892 C611.186,668.892 610.571,669.018 610.013,669.27 C609.455,669.522 608.972,669.861 608.564,670.287 C608.156,670.713 607.838,671.211 607.61,671.781 C607.382,672.351 607.268,672.954 607.268,673.59 C607.268,674.274 607.385,674.901 607.619,675.471 C607.853,676.041 608.18,676.536 608.6,676.956 C609.02,677.376 609.515,677.703 610.085,677.937 C610.655,678.171 611.276,678.288 611.948,678.288 Z M613.982,672.456 L609.716,672.456 C609.872,671.94 610.142,671.538 610.526,671.25 C610.91,670.962 611.354,670.818 611.858,670.818 C612.218,670.818 612.527,670.872 612.785,670.98 C613.043,671.088 613.259,671.226 613.433,671.394 C613.607,671.562 613.739,671.742 613.829,671.934 C613.919,672.126 613.97,672.3 613.982,672.456 L613.982,672.456 Z M625.97,678.288 C626.474,678.288 626.99,678.21 627.518,678.054 C628.046,677.898 628.52,677.664 628.94,677.352 C629.36,677.04 629.705,676.641 629.975,676.155 C630.245,675.669 630.38,675.09 630.38,674.418 C630.38,673.878 630.299,673.401 630.137,672.987 C629.975,672.573 629.741,672.204 629.435,671.88 C629.129,671.556 628.763,671.277 628.337,671.043 C627.911,670.809 627.44,670.602 626.924,670.422 L626.924,670.422 L626.114,670.152 C625.382,669.9 624.848,669.639 624.512,669.369 C624.176,669.099 624.008,668.772 624.008,668.388 C624.008,667.992 624.182,667.671 624.53,667.425 C624.878,667.179 625.316,667.056 625.844,667.056 C626.396,667.056 626.831,667.2 627.149,667.488 C627.467,667.776 627.686,668.1 627.806,668.46 L627.806,668.46 L629.948,667.56 C629.852,667.272 629.702,666.966 629.498,666.642 C629.294,666.318 629.027,666.021 628.697,665.751 C628.367,665.481 627.965,665.259 627.491,665.085 C627.017,664.911 626.456,664.824 625.808,664.824 C625.184,664.824 624.617,664.917 624.107,665.103 C623.597,665.289 623.159,665.547 622.793,665.877 C622.427,666.207 622.145,666.591 621.947,667.029 C621.749,667.467 621.65,667.938 621.65,668.442 C621.65,668.934 621.743,669.375 621.929,669.765 C622.115,670.155 622.352,670.494 622.64,670.782 C622.928,671.07 623.249,671.316 623.603,671.52 C623.957,671.724 624.308,671.886 624.656,672.006 L624.656,672.006 L625.448,672.294 C625.916,672.462 626.309,672.624 626.627,672.78 C626.945,672.936 627.203,673.098 627.401,673.266 C627.599,673.434 627.74,673.614 627.824,673.806 C627.908,673.998 627.95,674.214 627.95,674.454 C627.95,674.706 627.896,674.928 627.788,675.12 C627.68,675.312 627.533,675.471 627.347,675.597 C627.161,675.723 626.951,675.819 626.717,675.885 C626.483,675.951 626.24,675.984 625.988,675.984 C625.304,675.984 624.752,675.771 624.332,675.345 C623.912,674.919 623.618,674.382 623.45,673.734 L623.45,673.734 L621.164,674.634 C621.344,675.234 621.59,675.759 621.902,676.209 C622.214,676.659 622.58,677.04 623,677.352 C623.42,677.664 623.882,677.898 624.386,678.054 C624.89,678.21 625.418,678.288 625.97,678.288 Z M641.018,682.05 L641.018,669.162 L638.714,669.162 L638.714,669.738 C637.97,669.174 637.112,668.892 636.14,668.892 C635.3,668.892 634.52,669.102 633.8,669.522 C633.08,669.942 632.507,670.509 632.081,671.223 C631.655,671.937 631.442,672.72 631.442,673.572 C631.442,674.424 631.655,675.21 632.081,675.93 C632.507,676.65 633.08,677.22 633.8,677.64 C634.52,678.06 635.3,678.27 636.14,678.27 C636.632,678.27 637.106,678.195 637.562,678.045 C638.018,677.895 638.402,677.682 638.714,677.406 L638.714,677.406 L638.714,682.05 L641.018,682.05 Z M636.14,676.236 C635.66,676.236 635.216,676.116 634.808,675.876 C634.4,675.636 634.076,675.312 633.836,674.904 C633.596,674.496 633.476,674.052 633.476,673.572 C633.476,673.092 633.596,672.648 633.836,672.24 C634.076,671.832 634.4,671.508 634.808,671.268 C635.216,671.028 635.66,670.908 636.14,670.908 C636.62,670.908 637.064,671.028 637.472,671.268 C637.88,671.508 638.204,671.832 638.444,672.24 C638.684,672.648 638.804,673.092 638.804,673.572 C638.804,674.052 638.684,674.496 638.444,674.904 C638.204,675.312 637.88,675.636 637.472,675.876 C637.064,676.116 636.62,676.236 636.14,676.236 Z M645.932,678.288 C646.196,678.288 646.412,678.282 646.58,678.27 C647.156,678.222 647.645,678.078 648.047,677.838 C648.449,677.598 648.746,677.382 648.938,677.19 L648.938,677.19 L648.938,678 L651.134,678 L651.134,669.18 L648.794,669.18 L648.794,673.518 C648.794,673.854 648.746,674.196 648.65,674.544 C648.554,674.868 648.422,675.138 648.254,675.354 C648.086,675.606 647.876,675.792 647.624,675.912 C647.396,676.056 647.114,676.128 646.778,676.128 C646.238,676.128 645.83,675.972 645.554,675.66 C645.266,675.348 645.122,674.88 645.122,674.256 L645.122,674.256 L645.122,669.18 L642.782,669.18 L642.782,674.544 C642.782,675.684 643.052,676.596 643.592,677.28 C644.144,677.952 644.924,678.288 645.932,678.288 Z M657.344,678.27 C658.316,678.27 659.174,677.988 659.918,677.424 L659.918,677.424 L659.918,678 L662.222,678 L662.222,669.18 L659.918,669.18 L659.918,669.756 C659.606,669.48 659.222,669.267 658.766,669.117 C658.31,668.967 657.836,668.892 657.344,668.892 C656.504,668.892 655.724,669.102 655.004,669.522 C654.284,669.942 653.711,670.512 653.285,671.232 C652.859,671.952 652.646,672.738 652.646,673.59 C652.646,674.442 652.859,675.225 653.285,675.939 C653.711,676.653 654.284,677.22 655.004,677.64 C655.724,678.06 656.504,678.27 657.344,678.27 Z M657.344,676.236 C656.864,676.236 656.42,676.116 656.012,675.876 C655.604,675.636 655.28,675.312 655.04,674.904 C654.8,674.496 654.68,674.052 654.68,673.572 C654.68,673.092 654.8,672.648 655.04,672.24 C655.28,671.832 655.604,671.508 656.012,671.268 C656.42,671.028 656.864,670.908 657.344,670.908 C657.824,670.908 658.268,671.028 658.676,671.268 C659.084,671.508 659.408,671.832 659.648,672.24 C659.888,672.648 660.008,673.092 660.008,673.572 C660.008,674.052 659.888,674.496 659.648,674.904 C659.408,675.312 659.084,675.636 658.676,675.876 C658.268,676.116 657.824,676.236 657.344,676.236 Z M666.704,678 L666.704,674.508 C666.704,673.872 666.83,673.266 667.082,672.69 C667.286,672.246 667.565,671.874 667.919,671.574 C668.273,671.274 668.72,671.124 669.26,671.124 C669.464,671.124 669.704,671.154 669.98,671.214 L669.98,671.214 L669.98,669.144 C669.812,669.096 669.686,669.066 669.602,669.054 C669.434,669.03 669.308,669.018 669.224,669.018 C668.66,669.018 668.156,669.156 667.712,669.432 C667.268,669.708 666.932,670.086 666.704,670.566 L666.704,670.566 L666.704,669.198 L664.382,669.198 L664.382,678 L666.704,678 Z M675.632,678.288 C676.628,678.288 677.471,678.066 678.161,677.622 C678.851,677.178 679.4,676.596 679.808,675.876 L679.808,675.876 L677.846,674.904 C677.642,675.276 677.363,675.585 677.009,675.831 C676.655,676.077 676.208,676.2 675.668,676.2 C675.392,676.2 675.122,676.161 674.858,676.083 C674.594,676.005 674.351,675.879 674.129,675.705 C673.907,675.531 673.721,675.315 673.571,675.057 C673.421,674.799 673.322,674.49 673.274,674.13 L673.274,674.13 L679.916,674.13 C679.916,674.058 679.922,673.992 679.934,673.932 C679.934,673.872 679.94,673.806 679.952,673.734 L679.952,673.734 L679.952,673.518 C679.952,672.858 679.856,672.246 679.664,671.682 C679.472,671.118 679.19,670.629 678.818,670.215 C678.446,669.801 677.984,669.477 677.432,669.243 C676.88,669.009 676.25,668.892 675.542,668.892 C674.87,668.892 674.255,669.018 673.697,669.27 C673.139,669.522 672.656,669.861 672.248,670.287 C671.84,670.713 671.522,671.211 671.294,671.781 C671.066,672.351 670.952,672.954 670.952,673.59 C670.952,674.274 671.069,674.901 671.303,675.471 C671.537,676.041 671.864,676.536 672.284,676.956 C672.704,677.376 673.199,677.703 673.769,677.937 C674.339,678.171 674.96,678.288 675.632,678.288 Z M677.666,672.456 L673.4,672.456 C673.556,671.94 673.826,671.538 674.21,671.25 C674.594,670.962 675.038,670.818 675.542,670.818 C675.902,670.818 676.211,670.872 676.469,670.98 C676.727,671.088 676.943,671.226 677.117,671.394 C677.291,671.562 677.423,671.742 677.513,671.934 C677.603,672.126 677.654,672.3 677.666,672.456 L677.666,672.456 Z M693.596,678 L693.596,675.696 L688.142,675.696 L688.142,665.112 L685.712,665.112 L685.712,678 L693.596,678 Z M699.23,678.27 C700.202,678.27 701.06,677.988 701.804,677.424 L701.804,677.424 L701.804,678 L704.108,678 L704.108,669.18 L701.804,669.18 L701.804,669.756 C701.492,669.48 701.108,669.267 700.652,669.117 C700.196,668.967 699.722,668.892 699.23,668.892 C698.39,668.892 697.61,669.102 696.89,669.522 C696.17,669.942 695.597,670.512 695.171,671.232 C694.745,671.952 694.532,672.738 694.532,673.59 C694.532,674.442 694.745,675.225 695.171,675.939 C695.597,676.653 696.17,677.22 696.89,677.64 C697.61,678.06 698.39,678.27 699.23,678.27 Z M699.23,676.236 C698.75,676.236 698.306,676.116 697.898,675.876 C697.49,675.636 697.166,675.312 696.926,674.904 C696.686,674.496 696.566,674.052 696.566,673.572 C696.566,673.092 696.686,672.648 696.926,672.24 C697.166,671.832 697.49,671.508 697.898,671.268 C698.306,671.028 698.75,670.908 699.23,670.908 C699.71,670.908 700.154,671.028 700.562,671.268 C700.97,671.508 701.294,671.832 701.534,672.24 C701.774,672.648 701.894,673.092 701.894,673.572 C701.894,674.052 701.774,674.496 701.534,674.904 C701.294,675.312 700.97,675.636 700.562,675.876 C700.154,676.116 699.71,676.236 699.23,676.236 Z M710.606,678.27 C711.446,678.27 712.226,678.06 712.946,677.64 C713.666,677.22 714.239,676.653 714.665,675.939 C715.091,675.225 715.304,674.442 715.304,673.59 C715.304,672.738 715.091,671.952 714.665,671.232 C714.239,670.512 713.666,669.942 712.946,669.522 C712.226,669.102 711.446,668.892 710.606,668.892 C710.114,668.892 709.64,668.967 709.184,669.117 C708.728,669.267 708.344,669.48 708.032,669.756 L708.032,669.756 L708.032,665.112 L705.728,665.112 L705.728,678 L708.032,678 L708.032,677.424 C708.776,677.988 709.634,678.27 710.606,678.27 Z M710.606,676.236 C710.126,676.236 709.682,676.116 709.274,675.876 C708.866,675.636 708.542,675.312 708.302,674.904 C708.062,674.496 707.942,674.052 707.942,673.572 C707.942,673.092 708.062,672.648 708.302,672.24 C708.542,671.832 708.866,671.508 709.274,671.268 C709.682,671.028 710.126,670.908 710.606,670.908 C711.086,670.908 711.53,671.028 711.938,671.268 C712.346,671.508 712.67,671.832 712.91,672.24 C713.15,672.648 713.27,673.092 713.27,673.572 C713.27,674.052 713.15,674.496 712.91,674.904 C712.67,675.312 712.346,675.636 711.938,675.876 C711.53,676.116 711.086,676.236 710.606,676.236 Z" id="Hello,weareSquareLab"></path>
            </g>
        </g>
    </g>
</svg>