<?xml version="1.0" encoding="UTF-8"?>
<svg width="588px" height="104px" viewBox="0 0 588 104" version="1.1" xmlns="http://www.w3.org/2000/svg" xmlns:xlink="http://www.w3.org/1999/xlink">
    <!-- Generator: Sketch 60.1 (88133) - https://sketch.com -->
    <title>Extension</title>
    <desc>Created with Sketch.</desc>
    <g id="Page-1" stroke="none" stroke-width="1" fill="none" fill-rule="evenodd">
        <g id="SquareLab_Draft-Copy-5" transform="translate(-970.000000, -3742.000000)" fill="#FFFFFF" fill-rule="nonzero">
            <g id="Story_04" transform="translate(0.000000, 3228.000000)">
                <path d="M1033.64,615 L1033.64,597.08 L988.98,597.08 L988.98,573.84 L1029.16,573.84 L1029.16,555.92 L988.98,555.92 L988.98,532.68 L1033.64,532.68 L1033.64,514.76 L970.08,514.76 L970.08,615 L1033.64,615 Z M1060.28667,615 L1072.74667,595.4 L1073.72667,595.4 L1086.60667,615 L1108.16667,615 L1084.08667,580.14 L1108.16667,546.4 L1085.76667,546.4 L1074.00667,565.44 L1073.02667,565.44 L1060.56667,546.4 L1038.86667,546.4 L1062.38667,580.14 L1038.58667,615 L1060.28667,615 Z M1144.19333,616.12 C1147.18,616.12 1149.91,615.863333 1152.38333,615.35 C1154.85667,614.836667 1157.16667,614.066667 1159.31333,613.04 L1159.31333,613.04 L1154.13333,596.94 C1153.29333,597.5 1152.40667,597.943333 1151.47333,598.27 C1150.54,598.596667 1149.28,598.76 1147.69333,598.76 C1145.26667,598.76 1143.4,598.013333 1142.09333,596.52 C1141.16,595.586667 1140.53,594.443333 1140.20333,593.09 C1139.87667,591.736667 1139.71333,590.266667 1139.71333,588.68 L1139.71333,588.68 L1139.71333,562.08 L1156.51333,562.08 L1156.51333,546.4 L1139.71333,546.4 L1139.71333,525.4 L1121.37333,525.4 L1121.37333,546.4 L1109.33333,546.4 L1109.33333,562.08 L1121.37333,562.08 L1121.37333,592.18 C1121.37333,599.926667 1123.56667,605.9 1127.95333,610.1 C1129.82,611.966667 1132.13,613.436667 1134.88333,614.51 C1137.63667,615.583333 1140.74,616.12 1144.19333,616.12 Z M1198.98,617.24 C1206.72667,617.24 1213.28333,615.513333 1218.65,612.06 C1224.01667,608.606667 1228.28667,604.08 1231.46,598.48 L1231.46,598.48 L1216.2,590.92 C1214.61333,593.813333 1212.44333,596.216667 1209.69,598.13 C1206.93667,600.043333 1203.46,601 1199.26,601 C1197.11333,601 1195.01333,600.696667 1192.96,600.09 C1190.90667,599.483333 1189.01667,598.503333 1187.29,597.15 C1185.56333,595.796667 1184.11667,594.116667 1182.95,592.11 C1181.78333,590.103333 1181.01333,587.7 1180.64,584.9 L1180.64,584.9 L1232.3,584.9 C1232.3,584.34 1232.34667,583.826667 1232.44,583.36 C1232.44,582.893333 1232.48667,582.38 1232.58,581.82 L1232.58,581.82 L1232.58,580.14 C1232.58,575.006667 1231.83333,570.246667 1230.34,565.86 C1228.84667,561.473333 1226.65333,557.67 1223.76,554.45 C1220.86667,551.23 1217.27333,548.71 1212.98,546.89 C1208.68667,545.07 1203.78667,544.16 1198.28,544.16 C1193.05333,544.16 1188.27,545.14 1183.93,547.1 C1179.59,549.06 1175.83333,551.696667 1172.66,555.01 C1169.48667,558.323333 1167.01333,562.196667 1165.24,566.63 C1163.46667,571.063333 1162.58,575.753333 1162.58,580.7 C1162.58,586.02 1163.49,590.896667 1165.31,595.33 C1167.13,599.763333 1169.67333,603.613333 1172.94,606.88 C1176.20667,610.146667 1180.05667,612.69 1184.49,614.51 C1188.92333,616.33 1193.75333,617.24 1198.98,617.24 Z M1214.8,571.88 L1181.62,571.88 C1182.83333,567.866667 1184.93333,564.74 1187.92,562.5 C1190.90667,560.26 1194.36,559.14 1198.28,559.14 C1201.08,559.14 1203.48333,559.56 1205.49,560.4 C1207.49667,561.24 1209.17667,562.313333 1210.53,563.62 C1211.88333,564.926667 1212.91,566.326667 1213.61,567.82 C1214.31,569.313333 1214.70667,570.666667 1214.8,571.88 L1214.8,571.88 Z M1259.22667,615 L1259.22667,581.4 C1259.22667,578.6 1259.57667,575.963333 1260.27667,573.49 C1260.97667,571.016667 1262.00333,568.87 1263.35667,567.05 C1264.71,565.23 1266.34333,563.783333 1268.25667,562.71 C1270.17,561.636667 1272.38667,561.1 1274.90667,561.1 C1279.10667,561.1 1282.30333,562.29 1284.49667,564.67 C1286.69,567.05 1287.78667,570.713333 1287.78667,575.66 L1287.78667,575.66 L1287.78667,615 L1306.12667,615 L1306.12667,573.42 C1306.12667,569.033333 1305.59,565.043333 1304.51667,561.45 C1303.44333,557.856667 1301.85667,554.776667 1299.75667,552.21 C1297.65667,549.643333 1294.97333,547.66 1291.70667,546.26 C1288.44,544.86 1284.66,544.16 1280.36667,544.16 C1275.7,544.16 1271.54667,545.163333 1267.90667,547.17 C1264.26667,549.176667 1261.37333,551.906667 1259.22667,555.36 L1259.22667,555.36 L1258.10667,555.36 L1258.10667,546.4 L1240.88667,546.4 L1240.88667,615 L1259.22667,615 Z M1344.95333,617.24 C1349.34,617.24 1353.33,616.633333 1356.92333,615.42 C1360.51667,614.206667 1363.59667,612.55 1366.16333,610.45 C1368.73,608.35 1370.71333,605.946667 1372.11333,603.24 C1373.51333,600.533333 1374.21333,597.686667 1374.21333,594.7 C1374.21333,589.66 1372.51,585.296667 1369.10333,581.61 C1365.69667,577.923333 1360.49333,575.24 1353.49333,573.56 L1353.49333,573.56 L1342.99333,571.04 C1340.19333,570.293333 1337.97667,569.453333 1336.34333,568.52 C1334.71,567.586667 1333.89333,566.326667 1333.89333,564.74 C1333.89333,563.06 1334.87333,561.683333 1336.83333,560.61 C1338.79333,559.536667 1341.08,559 1343.69333,559 C1346.21333,559 1348.73333,559.606667 1351.25333,560.82 C1353.77333,562.033333 1355.68667,563.993333 1356.99333,566.7 L1356.99333,566.7 L1372.81333,560.26 C1370.38667,554.66 1366.60667,550.576667 1361.47333,548.01 C1356.34,545.443333 1350.50667,544.16 1343.97333,544.16 C1340.05333,544.16 1336.39,544.65 1332.98333,545.63 C1329.57667,546.61 1326.61333,548.01 1324.09333,549.83 C1321.57333,551.65 1319.59,553.866667 1318.14333,556.48 C1316.69667,559.093333 1315.97333,562.08 1315.97333,565.44 C1315.97333,568.426667 1316.58,571.04 1317.79333,573.28 C1319.00667,575.52 1320.54667,577.433333 1322.41333,579.02 C1324.28,580.606667 1326.35667,581.913333 1328.64333,582.94 C1330.93,583.966667 1333.14667,584.713333 1335.29333,585.18 L1335.29333,585.18 L1344.95333,587.28 C1348.96667,588.213333 1351.79,589.263333 1353.42333,590.43 C1355.05667,591.596667 1355.87333,593.113333 1355.87333,594.98 C1355.87333,596.66 1354.89333,598.106667 1352.93333,599.32 C1350.97333,600.533333 1348.31333,601.14 1344.95333,601.14 C1341.68667,601.14 1338.72333,600.276667 1336.06333,598.55 C1333.40333,596.823333 1331.28,594.186667 1329.69333,590.64 L1329.69333,590.64 L1313.31333,597.64 C1314.24667,600.066667 1315.6,602.47 1317.37333,604.85 C1319.14667,607.23 1321.31667,609.33 1323.88333,611.15 C1326.45,612.97 1329.48333,614.44 1332.98333,615.56 C1336.48333,616.68 1340.47333,617.24 1344.95333,617.24 Z M1401.42,533.1 L1401.42,514.76 L1383.08,514.76 L1383.08,533.1 L1401.42,533.1 Z M1401.42,615 L1401.42,546.4 L1383.08,546.4 L1383.08,615 L1401.42,615 Z M1447.24667,617.24 C1453.78,617.24 1459.84667,615.606667 1465.44667,612.34 C1471.04667,609.073333 1475.50333,604.663333 1478.81667,599.11 C1482.13,593.556667 1483.78667,587.466667 1483.78667,580.84 C1483.78667,574.213333 1482.13,568.076667 1478.81667,562.43 C1475.50333,556.783333 1471.04667,552.326667 1465.44667,549.06 C1459.84667,545.793333 1453.78,544.16 1447.24667,544.16 C1440.62,544.16 1434.50667,545.793333 1428.90667,549.06 C1423.30667,552.326667 1418.87333,556.783333 1415.60667,562.43 C1412.34,568.076667 1410.70667,574.213333 1410.70667,580.84 C1410.70667,587.466667 1412.34,593.556667 1415.60667,599.11 C1418.87333,604.663333 1423.30667,609.073333 1428.90667,612.34 C1434.50667,615.606667 1440.62,617.24 1447.24667,617.24 Z M1447.24667,600.72 C1443.60667,600.72 1440.24667,599.833333 1437.16667,598.06 C1434.08667,596.286667 1431.66,593.86 1429.88667,590.78 C1428.11333,587.7 1427.22667,584.386667 1427.22667,580.84 C1427.22667,577.2 1428.11333,573.84 1429.88667,570.76 C1431.66,567.68 1434.08667,565.253333 1437.16667,563.48 C1440.24667,561.706667 1443.60667,560.82 1447.24667,560.82 C1450.88667,560.82 1454.22333,561.706667 1457.25667,563.48 C1460.29,565.253333 1462.69333,567.68 1464.46667,570.76 C1466.24,573.84 1467.12667,577.2 1467.12667,580.84 C1467.12667,584.386667 1466.24,587.7 1464.46667,590.78 C1462.69333,593.86 1460.29,596.286667 1457.25667,598.06 C1454.22333,599.833333 1450.88667,600.72 1447.24667,600.72 Z M1510.29333,615 L1510.29333,581.4 C1510.29333,578.6 1510.64333,575.963333 1511.34333,573.49 C1512.04333,571.016667 1513.07,568.87 1514.42333,567.05 C1515.77667,565.23 1517.41,563.783333 1519.32333,562.71 C1521.23667,561.636667 1523.45333,561.1 1525.97333,561.1 C1530.17333,561.1 1533.37,562.29 1535.56333,564.67 C1537.75667,567.05 1538.85333,570.713333 1538.85333,575.66 L1538.85333,575.66 L1538.85333,615 L1557.19333,615 L1557.19333,573.42 C1557.19333,569.033333 1556.65667,565.043333 1555.58333,561.45 C1554.51,557.856667 1552.92333,554.776667 1550.82333,552.21 C1548.72333,549.643333 1546.04,547.66 1542.77333,546.26 C1539.50667,544.86 1535.72667,544.16 1531.43333,544.16 C1526.76667,544.16 1522.61333,545.163333 1518.97333,547.17 C1515.33333,549.176667 1512.44,551.906667 1510.29333,555.36 L1510.29333,555.36 L1509.17333,555.36 L1509.17333,546.4 L1491.95333,546.4 L1491.95333,615 L1510.29333,615 Z" id="Extension"></path>
            </g>
        </g>
    </g>
</svg>