<?xml version="1.0" encoding="UTF-8"?>
<svg width="662px" height="103px" viewBox="0 0 662 103" version="1.1" xmlns="http://www.w3.org/2000/svg" xmlns:xlink="http://www.w3.org/1999/xlink">
    <!-- Generator: Sketch 60.1 (88133) - https://sketch.com -->
    <title>Motivation</title>
    <desc>Created with Sketch.</desc>
    <g id="Page-1" stroke="none" stroke-width="1" fill="none" fill-rule="evenodd">
        <g id="SquareLab_Draft-Copy-5" transform="translate(-970.000000, -1588.000000)" fill="#FFFFFF" fill-rule="nonzero">
            <g id="Story_02" transform="translate(0.000000, 1080.000000)">
                <g id="Copy" transform="translate(560.000000, 484.240278)">
                    <path d="M429.12,124 L429.12,59.74 L430.24,59.74 L454.6,102.3 L465.8,102.3 L490.02,59.74 L491.14,59.74 L491.14,124 L509.9,124 L509.9,23.76 L491.28,23.76 L460.62,76.54 L459.64,76.54 L429.12,23.76 L410.5,23.76 L410.5,124 L429.12,124 Z M556.846667,126.24 C563.38,126.24 569.446667,124.606667 575.046667,121.34 C580.646667,118.073333 585.103333,113.663333 588.416667,108.11 C591.73,102.556667 593.386667,96.4666667 593.386667,89.84 C593.386667,83.2133333 591.73,77.0766667 588.416667,71.43 C585.103333,65.7833333 580.646667,61.3266667 575.046667,58.06 C569.446667,54.7933333 563.38,53.16 556.846667,53.16 C550.22,53.16 544.106667,54.7933333 538.506667,58.06 C532.906667,61.3266667 528.473333,65.7833333 525.206667,71.43 C521.94,77.0766667 520.306667,83.2133333 520.306667,89.84 C520.306667,96.4666667 521.94,102.556667 525.206667,108.11 C528.473333,113.663333 532.906667,118.073333 538.506667,121.34 C544.106667,124.606667 550.22,126.24 556.846667,126.24 Z M556.846667,109.72 C553.206667,109.72 549.846667,108.833333 546.766667,107.06 C543.686667,105.286667 541.26,102.86 539.486667,99.78 C537.713333,96.7 536.826667,93.3866667 536.826667,89.84 C536.826667,86.2 537.713333,82.84 539.486667,79.76 C541.26,76.68 543.686667,74.2533333 546.766667,72.48 C549.846667,70.7066667 553.206667,69.82 556.846667,69.82 C560.486667,69.82 563.823333,70.7066667 566.856667,72.48 C569.89,74.2533333 572.293333,76.68 574.066667,79.76 C575.84,82.84 576.726667,86.2 576.726667,89.84 C576.726667,93.3866667 575.84,96.7 574.066667,99.78 C572.293333,102.86 569.89,105.286667 566.856667,107.06 C563.823333,108.833333 560.486667,109.72 556.846667,109.72 Z M631.933333,125.12 C634.92,125.12 637.65,124.863333 640.123333,124.35 C642.596667,123.836667 644.906667,123.066667 647.053333,122.04 L647.053333,122.04 L641.873333,105.94 C641.033333,106.5 640.146667,106.943333 639.213333,107.27 C638.28,107.596667 637.02,107.76 635.433333,107.76 C633.006667,107.76 631.14,107.013333 629.833333,105.52 C628.9,104.586667 628.27,103.443333 627.943333,102.09 C627.616667,100.736667 627.453333,99.2666667 627.453333,97.68 L627.453333,97.68 L627.453333,71.08 L644.253333,71.08 L644.253333,55.4 L627.453333,55.4 L627.453333,34.4 L609.113333,34.4 L609.113333,55.4 L597.073333,55.4 L597.073333,71.08 L609.113333,71.08 L609.113333,101.18 C609.113333,108.926667 611.306667,114.9 615.693333,119.1 C617.56,120.966667 619.87,122.436667 622.623333,123.51 C625.376667,124.583333 628.48,125.12 631.933333,125.12 Z M673.7,42.1 L673.7,23.76 L655.36,23.76 L655.36,42.1 L673.7,42.1 Z M673.7,124 L673.7,55.4 L655.36,55.4 L655.36,124 L673.7,124 Z M727.086667,124 L756.626667,55.4 L735.906667,55.4 L718.686667,99.08 L717.706667,99.08 L700.626667,55.4 L679.766667,55.4 L709.026667,124 L727.086667,124 Z M794.193333,126.1 C801.753333,126.1 808.426667,123.906667 814.213333,119.52 L814.213333,119.52 L814.213333,124 L832.133333,124 L832.133333,55.4 L814.213333,55.4 L814.213333,59.88 C811.786667,57.7333333 808.8,56.0766667 805.253333,54.91 C801.706667,53.7433333 798.02,53.16 794.193333,53.16 C787.66,53.16 781.593333,54.7933333 775.993333,58.06 C770.393333,61.3266667 765.936667,65.76 762.623333,71.36 C759.31,76.96 757.653333,83.0733333 757.653333,89.7 C757.653333,96.3266667 759.31,102.416667 762.623333,107.97 C765.936667,113.523333 770.393333,117.933333 775.993333,121.2 C781.593333,124.466667 787.66,126.1 794.193333,126.1 Z M794.193333,110.28 C790.46,110.28 787.006667,109.346667 783.833333,107.48 C780.66,105.613333 778.14,103.093333 776.273333,99.92 C774.406667,96.7466667 773.473333,93.2933333 773.473333,89.56 C773.473333,85.8266667 774.406667,82.3733333 776.273333,79.2 C778.14,76.0266667 780.66,73.5066667 783.833333,71.64 C787.006667,69.7733333 790.46,68.84 794.193333,68.84 C797.926667,68.84 801.38,69.7733333 804.553333,71.64 C807.726667,73.5066667 810.246667,76.0266667 812.113333,79.2 C813.98,82.3733333 814.913333,85.8266667 814.913333,89.56 C814.913333,93.2933333 813.98,96.7466667 812.113333,99.92 C810.246667,103.093333 807.726667,105.613333 804.553333,107.48 C801.38,109.346667 797.926667,110.28 794.193333,110.28 Z M873.9,125.12 C876.886667,125.12 879.616667,124.863333 882.09,124.35 C884.563333,123.836667 886.873333,123.066667 889.02,122.04 L889.02,122.04 L883.84,105.94 C883,106.5 882.113333,106.943333 881.18,107.27 C880.246667,107.596667 878.986667,107.76 877.4,107.76 C874.973333,107.76 873.106667,107.013333 871.8,105.52 C870.866667,104.586667 870.236667,103.443333 869.91,102.09 C869.583333,100.736667 869.42,99.2666667 869.42,97.68 L869.42,97.68 L869.42,71.08 L886.22,71.08 L886.22,55.4 L869.42,55.4 L869.42,34.4 L851.08,34.4 L851.08,55.4 L839.04,55.4 L839.04,71.08 L851.08,71.08 L851.08,101.18 C851.08,108.926667 853.273333,114.9 857.66,119.1 C859.526667,120.966667 861.836667,122.436667 864.59,123.51 C867.343333,124.583333 870.446667,125.12 873.9,125.12 Z M915.666667,42.1 L915.666667,23.76 L897.326667,23.76 L897.326667,42.1 L915.666667,42.1 Z M915.666667,124 L915.666667,55.4 L897.326667,55.4 L897.326667,124 L915.666667,124 Z M961.493333,126.24 C968.026667,126.24 974.093333,124.606667 979.693333,121.34 C985.293333,118.073333 989.75,113.663333 993.063333,108.11 C996.376667,102.556667 998.033333,96.4666667 998.033333,89.84 C998.033333,83.2133333 996.376667,77.0766667 993.063333,71.43 C989.75,65.7833333 985.293333,61.3266667 979.693333,58.06 C974.093333,54.7933333 968.026667,53.16 961.493333,53.16 C954.866667,53.16 948.753333,54.7933333 943.153333,58.06 C937.553333,61.3266667 933.12,65.7833333 929.853333,71.43 C926.586667,77.0766667 924.953333,83.2133333 924.953333,89.84 C924.953333,96.4666667 926.586667,102.556667 929.853333,108.11 C933.12,113.663333 937.553333,118.073333 943.153333,121.34 C948.753333,124.606667 954.866667,126.24 961.493333,126.24 Z M961.493333,109.72 C957.853333,109.72 954.493333,108.833333 951.413333,107.06 C948.333333,105.286667 945.906667,102.86 944.133333,99.78 C942.36,96.7 941.473333,93.3866667 941.473333,89.84 C941.473333,86.2 942.36,82.84 944.133333,79.76 C945.906667,76.68 948.333333,74.2533333 951.413333,72.48 C954.493333,70.7066667 957.853333,69.82 961.493333,69.82 C965.133333,69.82 968.47,70.7066667 971.503333,72.48 C974.536667,74.2533333 976.94,76.68 978.713333,79.76 C980.486667,82.84 981.373333,86.2 981.373333,89.84 C981.373333,93.3866667 980.486667,96.7 978.713333,99.78 C976.94,102.86 974.536667,105.286667 971.503333,107.06 C968.47,108.833333 965.133333,109.72 961.493333,109.72 Z M1024.54,124 L1024.54,90.4 C1024.54,87.6 1024.89,84.9633333 1025.59,82.49 C1026.29,80.0166667 1027.31667,77.87 1028.67,76.05 C1030.02333,74.23 1031.65667,72.7833333 1033.57,71.71 C1035.48333,70.6366667 1037.7,70.1 1040.22,70.1 C1044.42,70.1 1047.61667,71.29 1049.81,73.67 C1052.00333,76.05 1053.1,79.7133333 1053.1,84.66 L1053.1,84.66 L1053.1,124 L1071.44,124 L1071.44,82.42 C1071.44,78.0333333 1070.90333,74.0433333 1069.83,70.45 C1068.75667,66.8566667 1067.17,63.7766667 1065.07,61.21 C1062.97,58.6433333 1060.28667,56.66 1057.02,55.26 C1053.75333,53.86 1049.97333,53.16 1045.68,53.16 C1041.01333,53.16 1036.86,54.1633333 1033.22,56.17 C1029.58,58.1766667 1026.68667,60.9066667 1024.54,64.36 L1024.54,64.36 L1023.42,64.36 L1023.42,55.4 L1006.2,55.4 L1006.2,124 L1024.54,124 Z" id="Motivation"></path>
                </g>
            </g>
        </g>
    </g>
</svg>