<?xml version="1.0" encoding="UTF-8"?>
<svg width="34px" height="192px" viewBox="0 0 34 192" version="1.1" xmlns="http://www.w3.org/2000/svg" xmlns:xlink="http://www.w3.org/1999/xlink">
    <title>Shape</title>
    <g id="Page-1" stroke="none" stroke-width="1" fill="none" fill-rule="evenodd" fill-opacity="0">
        <g id="Apple-TV" transform="translate(-1792.000000, -229.000000)" fill="#9D00D3" fill-rule="nonzero" stroke="#FFFFFF">
            <path d="M1792.73797,241.684492 C1792.73797,242.882353 1792.92335,244.108734 1793.29412,245.363636 C1793.66488,246.618538 1794.22103,247.745098 1794.96257,248.743316 C1795.7041,249.741533 1796.65241,250.561497 1797.80749,251.203209 C1798.96257,251.84492 1800.33868,252.165775 1801.93583,252.165775 C1803.21925,252.165775 1804.35294,251.973262 1805.3369,251.588235 C1806.32086,251.203209 1807.19786,250.647059 1807.96791,249.919786 C1808.73797,249.192513 1809.40107,248.322638 1809.95722,247.31016 C1810.43392,246.442322 1810.86347,245.495907 1811.24588,244.470916 L1811.43316,243.951872 L1812.07487,242.026738 C1812.6738,240.286988 1813.29412,239.017825 1813.93583,238.219251 C1814.57754,237.420677 1815.35472,237.02139 1816.26738,237.02139 C1817.20856,237.02139 1817.97148,237.434938 1818.55615,238.262032 C1819.14082,239.089127 1819.43316,240.130125 1819.43316,241.385027 C1819.43316,242.69697 1819.09091,243.730838 1818.40642,244.486631 C1817.79037,245.166845 1817.10503,245.656471 1816.35037,245.955508 L1816.09626,246.048128 L1818.23529,251.139037 C1818.91979,250.910873 1819.64706,250.554367 1820.41711,250.069519 C1821.18717,249.58467 1821.89305,248.950089 1822.53476,248.165775 C1823.17647,247.381462 1823.7041,246.426025 1824.11765,245.299465 C1824.53119,244.172906 1824.73797,242.839572 1824.73797,241.299465 C1824.73797,239.816399 1824.51693,238.468806 1824.07487,237.256684 C1823.6328,236.044563 1823.01961,235.003565 1822.23529,234.13369 C1821.45098,233.263815 1820.53832,232.593583 1819.49733,232.122995 C1818.45633,231.652406 1817.3369,231.417112 1816.13904,231.417112 C1814.9697,231.417112 1813.92157,231.638146 1812.99465,232.080214 C1812.06774,232.522282 1811.26203,233.085561 1810.57754,233.770053 C1809.89305,234.454545 1809.30838,235.217469 1808.82353,236.058824 C1808.41949,236.759952 1808.08477,237.45613 1807.81937,238.147356 L1806.98396,240.44385 C1806.58467,241.55615 1806.19964,242.490196 1805.82888,243.245989 C1805.45811,244.001783 1805.07308,244.614973 1804.6738,245.085561 C1804.27451,245.55615 1803.8467,245.891266 1803.39037,246.090909 C1802.93405,246.290553 1802.42068,246.390374 1801.85027,246.390374 C1801.25134,246.390374 1800.72371,246.262032 1800.26738,246.005348 C1799.81105,245.748663 1799.43316,245.399287 1799.13369,244.957219 C1798.83422,244.515152 1798.60606,244.016043 1798.4492,243.459893 C1798.29234,242.903743 1798.2139,242.326203 1798.2139,241.727273 C1798.2139,240.101604 1798.72014,238.789661 1799.73262,237.791444 C1800.66722,236.870012 1801.8266,236.203746 1803.21077,235.792646 L1803.5615,235.695187 L1801.42246,230.262032 C1799.99643,230.68984 1798.74866,231.27451 1797.67914,232.016043 C1796.60963,232.757576 1795.7041,233.627451 1794.96257,234.625668 C1794.22103,235.623886 1793.66488,236.721925 1793.29412,237.919786 C1792.92335,239.117647 1792.73797,240.372549 1792.73797,241.684492 Z M1793.42246,261.834225 L1803.68984,261.834225 C1804.54545,261.834225 1805.35116,261.941176 1806.10695,262.15508 C1806.86275,262.368984 1807.51872,262.682709 1808.07487,263.096257 C1808.63102,263.509804 1809.07308,264.008913 1809.40107,264.593583 C1809.72906,265.178253 1809.89305,265.855615 1809.89305,266.625668 C1809.89305,267.909091 1809.52941,268.885918 1808.80214,269.55615 C1808.12335,270.181699 1807.10295,270.515326 1805.74094,270.557029 L1805.44385,270.561497 L1793.42246,270.561497 L1793.42246,276.165775 L1806.12834,276.165775 C1807.46881,276.165775 1808.68806,276.001783 1809.7861,275.673797 C1810.88414,275.345811 1811.82531,274.860963 1812.60963,274.219251 C1813.39394,273.57754 1814,272.757576 1814.42781,271.759358 C1814.85561,270.761141 1815.06952,269.606061 1815.06952,268.294118 C1815.06952,266.868093 1814.76292,265.59893 1814.14973,264.486631 C1813.59229,263.47545 1812.85217,262.652834 1811.92938,262.018783 L1811.64706,261.834225 L1811.64706,261.491979 L1814.38503,261.491979 L1814.38503,256.229947 L1793.42246,256.229947 L1793.42246,261.834225 Z M1792.78075,290.754011 C1792.78075,292.935829 1793.37858,294.875971 1794.57424,296.574437 L1794.79144,296.871658 L1793.42246,296.871658 L1793.42246,302.347594 L1814.38503,302.347594 L1814.38503,296.871658 L1813.01604,296.871658 C1813.67201,296.130125 1814.17825,295.217469 1814.53476,294.13369 C1814.89127,293.049911 1815.06952,291.923351 1815.06952,290.754011 C1815.06952,288.757576 1814.57041,286.903743 1813.57219,285.192513 C1812.57398,283.481283 1811.21925,282.11943 1809.50802,281.106952 C1807.79679,280.094474 1805.9287,279.588235 1803.90374,279.588235 C1801.87879,279.588235 1800.01783,280.094474 1798.32086,281.106952 C1796.62389,282.11943 1795.27629,283.481283 1794.27807,285.192513 C1793.27986,286.903743 1792.78075,288.757576 1792.78075,290.754011 Z M1797.61497,290.754011 C1797.61497,289.613191 1797.90018,288.557932 1798.47059,287.588235 C1799.041,286.618538 1799.81105,285.848485 1800.78075,285.278075 C1801.75045,284.707665 1802.8057,284.42246 1803.94652,284.42246 C1805.08734,284.42246 1806.1426,284.707665 1807.1123,285.278075 C1808.082,285.848485 1808.85205,286.618538 1809.42246,287.588235 C1809.99287,288.557932 1810.27807,289.613191 1810.27807,290.754011 C1810.27807,291.894831 1809.99287,292.950089 1809.42246,293.919786 C1808.85205,294.889483 1808.082,295.659537 1807.1123,296.229947 C1806.1426,296.800357 1805.08734,297.085561 1803.94652,297.085561 C1802.8057,297.085561 1801.75045,296.800357 1800.78075,296.229947 C1799.81105,295.659537 1799.041,294.889483 1798.47059,293.919786 C1797.90018,292.950089 1797.61497,291.894831 1797.61497,290.754011 Z M1792.73797,316.807487 C1792.73797,319.26025 1793.30125,321.306595 1794.42781,322.946524 C1795.47926,324.477124 1796.81022,325.690957 1798.42068,326.588021 L1798.77005,326.775401 L1800.99465,321.641711 C1799.99643,321.156863 1799.23351,320.508021 1798.70588,319.695187 C1798.17825,318.882353 1797.91444,317.891266 1797.91444,316.721925 C1797.91444,315.980392 1798.05704,315.28164 1798.34225,314.625668 C1798.62745,313.969697 1799.02674,313.392157 1799.54011,312.893048 C1800.05348,312.393939 1800.68093,312.001783 1801.42246,311.716578 C1802.16399,311.431373 1802.99109,311.28877 1803.90374,311.28877 C1804.8164,311.28877 1805.64349,311.431373 1806.38503,311.716578 C1807.12656,312.001783 1807.75401,312.393939 1808.26738,312.893048 C1808.78075,313.392157 1809.18004,313.969697 1809.46524,314.625668 C1809.75045,315.28164 1809.89305,315.980392 1809.89305,316.721925 C1809.89305,317.862745 1809.64349,318.811052 1809.14439,319.566845 C1808.69519,320.247059 1808.0554,320.81754 1807.22503,321.278289 L1806.94118,321.427807 L1809.08021,326.561497 C1810.84848,325.791444 1812.28877,324.579323 1813.40107,322.925134 C1814.51337,321.270945 1815.06952,319.231729 1815.06952,316.807487 C1815.06952,315.181818 1814.79144,313.691622 1814.23529,312.336898 C1813.67914,310.982175 1812.90909,309.812834 1811.92513,308.828877 C1810.94118,307.84492 1809.76471,307.074866 1808.39572,306.518717 C1807.02674,305.962567 1805.52941,305.684492 1803.90374,305.684492 C1802.27807,305.684492 1800.78788,305.962567 1799.43316,306.518717 C1798.07843,307.074866 1796.90196,307.84492 1795.90374,308.828877 C1794.90553,309.812834 1794.12834,310.982175 1793.57219,312.336898 C1793.01604,313.691622 1792.73797,315.181818 1792.73797,316.807487 Z M1793.42246,335.802139 L1800.18182,335.802139 L1802.62032,338.283422 L1803.00535,338.668449 L1793.42246,344.529412 L1793.42246,350.647059 L1793.80749,350.647059 L1806.98396,342.73262 L1814.04278,350.005348 L1814.38503,350.005348 L1814.38503,343.074866 L1807.36898,336.058824 L1807.36898,335.802139 L1824.05348,335.802139 L1824.05348,330.197861 L1793.42246,330.197861 L1793.42246,335.802139 Z M1792.78075,364.97861 C1792.78075,366.975045 1793.27986,368.828877 1794.27807,370.540107 C1795.27629,372.251337 1796.62389,373.613191 1798.32086,374.625668 C1800.01783,375.638146 1801.87879,376.144385 1803.90374,376.144385 C1805.9287,376.144385 1807.79679,375.638146 1809.50802,374.625668 C1811.21925,373.613191 1812.57398,372.251337 1813.57219,370.540107 C1814.57041,368.828877 1815.06952,366.975045 1815.06952,364.97861 C1815.06952,363.809269 1814.89127,362.682709 1814.53476,361.59893 C1814.21786,360.635571 1813.78266,359.807421 1813.22915,359.114478 L1813.01604,358.860963 L1824.05348,358.860963 L1824.05348,353.385027 L1793.42246,353.385027 L1793.42246,358.860963 L1794.79144,358.860963 C1793.45098,360.629234 1792.78075,362.668449 1792.78075,364.97861 Z M1797.61497,364.97861 C1797.61497,363.83779 1797.90018,362.782531 1798.47059,361.812834 C1799.041,360.843137 1799.81105,360.073084 1800.78075,359.502674 C1801.75045,358.932264 1802.8057,358.647059 1803.94652,358.647059 C1805.08734,358.647059 1806.1426,358.932264 1807.1123,359.502674 C1808.082,360.073084 1808.85205,360.843137 1809.42246,361.812834 C1809.99287,362.782531 1810.27807,363.83779 1810.27807,364.97861 C1810.27807,366.11943 1809.99287,367.174688 1809.42246,368.144385 C1808.85205,369.114082 1808.082,369.884135 1807.1123,370.454545 C1806.1426,371.024955 1805.08734,371.31016 1803.94652,371.31016 C1802.8057,371.31016 1801.75045,371.024955 1800.78075,370.454545 C1799.81105,369.884135 1799.041,369.114082 1798.47059,368.144385 C1797.90018,367.174688 1797.61497,366.11943 1797.61497,364.97861 Z M1792.78075,389.705882 C1792.78075,391.887701 1793.37858,393.827843 1794.57424,395.526309 L1794.79144,395.823529 L1793.42246,395.823529 L1793.42246,401.299465 L1814.38503,401.299465 L1814.38503,395.823529 L1813.01604,395.823529 C1813.67201,395.081996 1814.17825,394.16934 1814.53476,393.085561 C1814.89127,392.001783 1815.06952,390.875223 1815.06952,389.705882 C1815.06952,387.709447 1814.57041,385.855615 1813.57219,384.144385 C1812.57398,382.433155 1811.21925,381.071301 1809.50802,380.058824 C1807.79679,379.046346 1805.9287,378.540107 1803.90374,378.540107 C1801.87879,378.540107 1800.01783,379.046346 1798.32086,380.058824 C1796.62389,381.071301 1795.27629,382.433155 1794.27807,384.144385 C1793.27986,385.855615 1792.78075,387.709447 1792.78075,389.705882 Z M1797.61497,389.705882 C1797.61497,388.565062 1797.90018,387.509804 1798.47059,386.540107 C1799.041,385.57041 1799.81105,384.800357 1800.78075,384.229947 C1801.75045,383.659537 1802.8057,383.374332 1803.94652,383.374332 C1805.08734,383.374332 1806.1426,383.659537 1807.1123,384.229947 C1808.082,384.800357 1808.85205,385.57041 1809.42246,386.540107 C1809.99287,387.509804 1810.27807,388.565062 1810.27807,389.705882 C1810.27807,390.846702 1809.99287,391.901961 1809.42246,392.871658 C1808.85205,393.841355 1808.082,394.611408 1807.1123,395.181818 C1806.1426,395.752228 1805.08734,396.037433 1803.94652,396.037433 C1802.8057,396.037433 1801.75045,395.752228 1800.78075,395.181818 C1799.81105,394.611408 1799.041,393.841355 1798.47059,392.871658 C1797.90018,391.901961 1797.61497,390.846702 1797.61497,389.705882 Z M1793.42246,411.951872 L1801.72193,411.951872 C1803.23351,411.951872 1804.6738,412.251337 1806.04278,412.850267 C1807.09804,413.335116 1807.98217,413.998217 1808.69519,414.839572 C1809.4082,415.680927 1809.76471,416.743316 1809.76471,418.026738 C1809.76471,418.430778 1809.71519,418.894236 1809.61616,419.417112 L1809.5508,419.737968 L1814.47059,419.737968 C1814.58467,419.338681 1814.65597,419.039216 1814.68449,418.839572 L1814.73203,418.473559 C1814.75738,418.251733 1814.77005,418.074272 1814.77005,417.941176 C1814.77005,416.600713 1814.44207,415.402852 1813.7861,414.347594 C1813.18479,413.380273 1812.37978,412.628639 1811.37106,412.092692 L1811.09091,411.951872 L1814.34225,411.951872 L1814.34225,406.433155 L1793.42246,406.433155 L1793.42246,411.951872 Z" id="Shape"></path>
        </g>
    </g>
</svg>