<svg xmlns="http://www.w3.org/2000/svg" viewBox="0 0 222.67 55.32"><defs><style>.cls-1{fill:#ff1a40;}.cls-2{fill:#222;}</style></defs><title>basic_eng</title><g id="Layer_2" data-name="Layer 2"><g id="basic_eng"><path class="cls-1" d="M203.57,38.19H184.48V19.09A19.09,19.09,0,0,1,203.57,0h0a19.1,19.1,0,0,1,19.1,19.09h0A19.1,19.1,0,0,1,203.57,38.19Z"/><path class="cls-2" d="M0,30c0-1.73,1.64-2.57,3.14-2.57a2.86,2.86,0,0,1,3,2.11A6.49,6.49,0,0,1,11,27.48c4.94,0,8.55,3,8.55,10s-4,10-8.65,10a5.94,5.94,0,0,1-4.71-2.17v7.48c0,1.77-1.57,2.61-3.08,2.61S0,54.48,0,52.71Zm6.22,6.29v2c.26,3.34,2.13,3.87,3.07,3.87,2.87,0,3.94-2.07,3.94-4.74,0-2.84-1.2-4.55-3.84-4.55C8.12,32.86,6.48,33.63,6.22,36.31Z"/><path class="cls-2" d="M22.92,21.67c0-1.74,1.57-2.57,3.11-2.57s3.11.83,3.11,2.57V45c0,1.77-1.61,2.64-3.11,2.64A2.84,2.84,0,0,1,22.92,45Z"/><path class="cls-2" d="M50,34V44.86a2.73,2.73,0,0,1-3,2.77c-1.7,0-3-.9-3-2.4-1.31,1.47-3.85,2.07-5.55,2.07-3.18,0-5.78-1.74-5.78-5.81,0-5.05,4.57-6.69,8.65-6.69a23.1,23.1,0,0,1,2.61.14v-.27c0-1.44-1-2.07-3.18-2.07a8,8,0,0,0-2.9.7,5.22,5.22,0,0,1-2,.5,2.58,2.58,0,0,1-2.4-2.67,2.45,2.45,0,0,1,1.37-2.41,15,15,0,0,1,7-1.44C46.31,27.28,50,29.29,50,34Zm-6,5.88v-.77a8,8,0,0,0-1.84-.2c-1.9,0-3.3.57-3.3,2,0,1.17,1,1.53,1.8,1.53C42.53,42.45,44,41.32,44,39.88Z"/><path class="cls-2" d="M66.73,29.05c1.37-3.47,7.25-1.17,5.64,2.38L65,47.63c-2.47,5.48-5.28,7-8.46,7a10.77,10.77,0,0,1-3.07-.37c-2.77-.87-1.71-5.91,1.54-5.11a4.37,4.37,0,0,0,1.2.13c1.1,0,2.24-.66,3.14-2.9l.17-.4L52.72,31.69c-1.9-4,4.11-6.21,5.82-2.3l4.14,10.09Z"/><path class="cls-2" d="M84.37,30c.7-3.58,6.61-3.55,7.35,0L94,40.32l2.14-11c.66-3.44,6.65-2.47,5.64,1.54L98.4,44.26a4.35,4.35,0,0,1-8.55-.17l-2-9.19-1.87,9.33a4.34,4.34,0,0,1-8.52.13L74,31.13c-1.07-4.11,5.28-5.42,6-1.64l2.2,11.13Z"/><path class="cls-2" d="M107.65,19.33a3.36,3.36,0,0,1,3.45,3.34A3.31,3.31,0,0,1,107.65,26a3.27,3.27,0,0,1-3.37-3.28A3.31,3.31,0,0,1,107.65,19.33ZM104.58,30c0-1.74,1.64-2.57,3.14-2.57s3.07.83,3.07,2.57V45c0,1.77-1.6,2.64-3.1,2.64s-3.11-.87-3.11-2.64Z"/><path class="cls-2" d="M127.27,35.94c0-1.71-.8-3-2.88-3-1.43,0-2.74,1-3.2,3v9c0,1.77-1.57,2.64-3.08,2.64S115,46.73,115,45V30c0-1.73,1.64-2.57,3.14-2.57a2.8,2.8,0,0,1,3,2.37,6.63,6.63,0,0,1,5.38-2.34c3.88,0,6.95,2.34,6.95,7.22V45c0,1.77-1.63,2.64-3.17,2.64a2.76,2.76,0,0,1-3-2.64Z"/><path class="cls-2" d="M150.12,44.23a5.79,5.79,0,0,1-4.94,2.47c-4.68,0-8.53-2.78-8.53-9.39,0-6.42,4.28-9.63,8.26-9.63a6.83,6.83,0,0,1,5.21,2,2.86,2.86,0,0,1,3.08-2.27c1.53,0,3.14.83,3.14,2.57V45.16c0,6.85-4,10-10.16,10.06a11.25,11.25,0,0,1-6.85-2c-2.68-2.17,0-6.58,3.14-4.54a7.21,7.21,0,0,0,3.44,1.1c3.08,0,4.21-1.4,4.21-4.38Zm0-6.15V35.9a3.45,3.45,0,0,0-3.47-3.2c-2.18,0-3.68,1.67-3.68,4.44s1.14,4.61,3.84,4.61C148.25,41.75,149.89,40.85,150.12,38.08Z"/><path class="cls-2" d="M173.38,28.62c2.87,1.67.66,6-2.34,4.31a6.71,6.71,0,0,0-2.94-.8c-1.67,0-2.24.5-2.24,1.27s.77,1.2,2.24,1.57l1.5.4c3.51.9,5.31,2.67,5.31,5.61,0,3.88-3.44,6.75-8.28,6.75a10.92,10.92,0,0,1-6-1.53c-2.74-1.81-.37-6.35,2.64-4.68a7.91,7.91,0,0,0,3.41,1c1.33,0,2.17-.4,2.17-1.24s-.64-1.27-2.37-1.67l-1.68-.36c-2.77-.61-5-2.51-5-5.75,0-3.41,2.8-6.18,7.75-6.18A11.69,11.69,0,0,1,173.38,28.62Z"/></g></g></svg>