<?xml version="1.0" encoding="UTF-8"?>
<svg width="18px" height="123px" viewBox="0 0 18 123" version="1.1" xmlns="http://www.w3.org/2000/svg" xmlns:xlink="http://www.w3.org/1999/xlink">
    <!-- Generator: Sketch 61 (89581) - https://sketch.com -->
    <title>Recruit Copy</title>
    <desc>Created with Sketch.</desc>
    <g id="Page-1" stroke="none" stroke-width="1" fill="none" fill-rule="evenodd">
        <g id="Recruit-Copy" transform="translate(0.000000, -2.000000)" fill="#00BF68">
            <text id="👋" font-family="AppleColorEmoji, Apple Color Emoji" font-size="14" font-weight="normal">
                <tspan x="0" y="122">👋</tspan>
            </text>
            <path d="M-36.496,57 L-34.704,51.16 L-34.368,49.896 L-34.24,49.896 L-33.904,51.16 L-32.112,57 L-30.032,57 L-26.992,45.544 L-29.28,45.544 L-30.944,52.232 L-31.184,53.448 L-31.312,53.448 L-31.632,52.232 L-33.296,46.76 L-35.312,46.76 L-36.96,52.232 L-37.296,53.464 L-37.424,53.464 L-37.68,52.232 L-39.456,45.544 L-41.744,45.544 L-38.576,57 L-36.496,57 Z M-22.128,57.256 C-21.2426667,57.256 -20.4933333,57.0586667 -19.88,56.664 C-19.2666667,56.2693333 -18.7786667,55.752 -18.416,55.112 L-18.416,55.112 L-20.16,54.248 C-20.3413333,54.5786667 -20.5893333,54.8533333 -20.904,55.072 C-21.2186667,55.2906667 -21.616,55.4 -22.096,55.4 C-22.3413333,55.4 -22.5813333,55.3653333 -22.816,55.296 C-23.0506667,55.2266667 -23.2666667,55.1146667 -23.464,54.96 C-23.6613333,54.8053333 -23.8266667,54.6133333 -23.96,54.384 C-24.0933333,54.1546667 -24.1813333,53.88 -24.224,53.56 L-24.224,53.56 L-18.32,53.56 C-18.32,53.496 -18.3146667,53.4373333 -18.304,53.384 C-18.304,53.3306667 -18.2986667,53.272 -18.288,53.208 L-18.288,53.208 L-18.288,53.016 C-18.288,52.4293333 -18.3733333,51.8853333 -18.544,51.384 C-18.7146667,50.8826667 -18.9653333,50.448 -19.296,50.08 C-19.6266667,49.712 -20.0373333,49.424 -20.528,49.216 C-21.0186667,49.008 -21.5786667,48.904 -22.208,48.904 C-22.8053333,48.904 -23.352,49.016 -23.848,49.24 C-24.344,49.464 -24.7733333,49.7653333 -25.136,50.144 C-25.4986667,50.5226667 -25.7813333,50.9653333 -25.984,51.472 C-26.1866667,51.9786667 -26.288,52.5146667 -26.288,53.08 C-26.288,53.688 -26.184,54.2453333 -25.976,54.752 C-25.768,55.2586667 -25.4773333,55.6986667 -25.104,56.072 C-24.7306667,56.4453333 -24.2906667,56.736 -23.784,56.944 C-23.2773333,57.152 -22.7253333,57.256 -22.128,57.256 Z M-20.32,52.072 L-24.112,52.072 C-23.9733333,51.6133333 -23.7333333,51.256 -23.392,51 C-23.0506667,50.744 -22.656,50.616 -22.208,50.616 C-21.888,50.616 -21.6133333,50.664 -21.384,50.76 C-21.1546667,50.856 -20.9626667,50.9786667 -20.808,51.128 C-20.6533333,51.2773333 -20.536,51.4373333 -20.456,51.608 C-20.376,51.7786667 -20.3306667,51.9333333 -20.32,52.072 L-20.32,52.072 Z M-9.696,57.24 C-8.832,57.24 -8.06933333,56.9893333 -7.408,56.488 L-7.408,56.488 L-7.408,57 L-5.36,57 L-5.36,49.16 L-7.408,49.16 L-7.408,49.672 C-7.68533333,49.4266667 -8.02666667,49.2373333 -8.432,49.104 C-8.83733333,48.9706667 -9.25866667,48.904 -9.696,48.904 C-10.4426667,48.904 -11.136,49.0906667 -11.776,49.464 C-12.416,49.8373333 -12.9253333,50.344 -13.304,50.984 C-13.6826667,51.624 -13.872,52.3226667 -13.872,53.08 C-13.872,53.8373333 -13.6826667,54.5333333 -13.304,55.168 C-12.9253333,55.8026667 -12.416,56.3066667 -11.776,56.68 C-11.136,57.0533333 -10.4426667,57.24 -9.696,57.24 Z M-9.696,55.432 C-10.1226667,55.432 -10.5173333,55.3253333 -10.88,55.112 C-11.2426667,54.8986667 -11.5306667,54.6106667 -11.744,54.248 C-11.9573333,53.8853333 -12.064,53.4906667 -12.064,53.064 C-12.064,52.6373333 -11.9573333,52.2426667 -11.744,51.88 C-11.5306667,51.5173333 -11.2426667,51.2293333 -10.88,51.016 C-10.5173333,50.8026667 -10.1226667,50.696 -9.696,50.696 C-9.26933333,50.696 -8.87466667,50.8026667 -8.512,51.016 C-8.14933333,51.2293333 -7.86133333,51.5173333 -7.648,51.88 C-7.43466667,52.2426667 -7.328,52.6373333 -7.328,53.064 C-7.328,53.4906667 -7.43466667,53.8853333 -7.648,54.248 C-7.86133333,54.6106667 -8.14933333,54.8986667 -8.512,55.112 C-8.87466667,55.3253333 -9.26933333,55.432 -9.696,55.432 Z M-1.376,57 L-1.376,53.896 C-1.376,53.3306667 -1.264,52.792 -1.04,52.28 C-0.858666667,51.8853333 -0.610666667,51.5546667 -0.296,51.288 C0.0186666667,51.0213333 0.416,50.888 0.896,50.888 C1.07733333,50.888 1.29066667,50.9146667 1.536,50.968 L1.536,50.968 L1.536,49.128 C1.38666667,49.0853333 1.27466667,49.0586667 1.2,49.048 C1.05066667,49.0266667 0.938666667,49.016 0.864,49.016 C0.362666667,49.016 -0.0853333333,49.1386667 -0.48,49.384 C-0.874666667,49.6293333 -1.17333333,49.9653333 -1.376,50.392 L-1.376,50.392 L-1.376,49.176 L-3.44,49.176 L-3.44,57 L-1.376,57 Z M6.56,57.256 C7.44533333,57.256 8.19466667,57.0586667 8.808,56.664 C9.42133333,56.2693333 9.90933333,55.752 10.272,55.112 L10.272,55.112 L8.528,54.248 C8.34666667,54.5786667 8.09866667,54.8533333 7.784,55.072 C7.46933333,55.2906667 7.072,55.4 6.592,55.4 C6.34666667,55.4 6.10666667,55.3653333 5.872,55.296 C5.63733333,55.2266667 5.42133333,55.1146667 5.224,54.96 C5.02666667,54.8053333 4.86133333,54.6133333 4.728,54.384 C4.59466667,54.1546667 4.50666667,53.88 4.464,53.56 L4.464,53.56 L10.368,53.56 C10.368,53.496 10.3733333,53.4373333 10.384,53.384 C10.384,53.3306667 10.3893333,53.272 10.4,53.208 L10.4,53.208 L10.4,53.016 C10.4,52.4293333 10.3146667,51.8853333 10.144,51.384 C9.97333333,50.8826667 9.72266667,50.448 9.392,50.08 C9.06133333,49.712 8.65066667,49.424 8.16,49.216 C7.66933333,49.008 7.10933333,48.904 6.48,48.904 C5.88266667,48.904 5.336,49.016 4.84,49.24 C4.344,49.464 3.91466667,49.7653333 3.552,50.144 C3.18933333,50.5226667 2.90666667,50.9653333 2.704,51.472 C2.50133333,51.9786667 2.4,52.5146667 2.4,53.08 C2.4,53.688 2.504,54.2453333 2.712,54.752 C2.92,55.2586667 3.21066667,55.6986667 3.584,56.072 C3.95733333,56.4453333 4.39733333,56.736 4.904,56.944 C5.41066667,57.152 5.96266667,57.256 6.56,57.256 Z M8.368,52.072 L4.576,52.072 C4.71466667,51.6133333 4.95466667,51.256 5.296,51 C5.63733333,50.744 6.032,50.616 6.48,50.616 C6.8,50.616 7.07466667,50.664 7.304,50.76 C7.53333333,50.856 7.72533333,50.9786667 7.88,51.128 C8.03466667,51.2773333 8.152,51.4373333 8.232,51.608 C8.312,51.7786667 8.35733333,51.9333333 8.368,52.072 L8.368,52.072 Z M17.344,57 L17.344,52.552 C17.344,52.296 17.4293333,52.0586667 17.6,51.84 C17.7706667,51.6213333 17.9893333,51.4453333 18.256,51.312 C18.5226667,51.1786667 18.7893333,51.1066667 19.056,51.096 C19.4613333,51.1066667 19.8346667,51.256 20.176,51.544 C20.5173333,51.832 20.688,52.168 20.688,52.552 L20.688,57 L22.752,57 L22.752,52.552 C22.752,51.912 22.592,51.32 22.272,50.776 C21.952,50.232 21.5226667,49.8 20.984,49.48 C20.4453333,49.16 19.856,49 19.216,49 C18.5546667,49 17.9306667,49.1706667 17.344,49.512 L17.344,45.544 L15.264,45.544 L15.264,57 L17.344,57 Z M26.672,47.64 L26.672,45.544 L24.576,45.544 L24.576,47.64 L26.672,47.64 Z M26.672,57 L26.672,49.16 L24.576,49.16 L24.576,57 L26.672,57 Z M30.88,57 L30.88,53.896 C30.88,53.3306667 30.992,52.792 31.216,52.28 C31.3973333,51.8853333 31.6453333,51.5546667 31.96,51.288 C32.2746667,51.0213333 32.672,50.888 33.152,50.888 C33.3333333,50.888 33.5466667,50.9146667 33.792,50.968 L33.792,50.968 L33.792,49.128 C33.6426667,49.0853333 33.5306667,49.0586667 33.456,49.048 C33.3066667,49.0266667 33.1946667,49.016 33.12,49.016 C32.6186667,49.016 32.1706667,49.1386667 31.776,49.384 C31.3813333,49.6293333 31.0826667,49.9653333 30.88,50.392 L30.88,50.392 L30.88,49.176 L28.816,49.176 L28.816,57 L30.88,57 Z M37.328,47.64 L37.328,45.544 L35.232,45.544 L35.232,47.64 L37.328,47.64 Z M37.328,57 L37.328,49.16 L35.232,49.16 L35.232,57 L37.328,57 Z M41.344,57 L41.344,53.16 C41.344,52.84 41.384,52.5386667 41.464,52.256 C41.544,51.9733333 41.6613333,51.728 41.816,51.52 C41.9706667,51.312 42.1573333,51.1466667 42.376,51.024 C42.5946667,50.9013333 42.848,50.84 43.136,50.84 C43.616,50.84 43.9813333,50.976 44.232,51.248 C44.4826667,51.52 44.608,51.9386667 44.608,52.504 L44.608,52.504 L44.608,57 L46.704,57 L46.704,52.248 C46.704,51.7466667 46.6426667,51.2906667 46.52,50.88 C46.3973333,50.4693333 46.216,50.1173333 45.976,49.824 C45.736,49.5306667 45.4293333,49.304 45.056,49.144 C44.6826667,48.984 44.2506667,48.904 43.76,48.904 C43.2266667,48.904 42.752,49.0186667 42.336,49.248 C41.92,49.4773333 41.5893333,49.7893333 41.344,50.184 L41.344,50.184 L41.216,50.184 L41.216,49.16 L39.248,49.16 L39.248,57 L41.344,57 Z M52.304,60.744 C52.912,60.744 53.472,60.648 53.984,60.456 C54.496,60.2426667 54.928,59.96 55.28,59.608 C55.6426667,59.2346667 55.9253333,58.7866667 56.128,58.264 C56.3306667,57.7093333 56.432,57.1173333 56.432,56.488 L56.432,56.488 L56.432,49.16 L54.432,49.16 L54.432,49.56 C53.76,49.1226667 53.0186667,48.904 52.208,48.904 C51.472,48.904 50.792,49.088 50.168,49.456 C49.544,49.824 49.048,50.32 48.68,50.944 C48.312,51.568 48.128,52.248 48.128,52.984 C48.128,53.72 48.312,54.4 48.68,55.024 C49.048,55.648 49.544,56.144 50.168,56.512 C50.792,56.88 51.472,57.064 52.208,57.064 C53.0186667,57.064 53.76,56.8453333 54.432,56.408 C54.432,56.792 54.384,57.144 54.288,57.464 C54.192,57.784 54.048,58.0453333 53.856,58.248 C53.472,58.6853333 52.9546667,58.904 52.304,58.904 C51.8986667,58.904 51.52,58.7866667 51.168,58.552 C50.9973333,58.4453333 50.8533333,58.3066667 50.736,58.136 C50.6826667,58.0826667 50.64,58.024 50.608,57.96 L50.608,57.96 L48.624,58.808 C48.7306667,58.9786667 48.8266667,59.112 48.912,59.208 C49.104,59.4746667 49.3653333,59.7306667 49.696,59.976 C50.0266667,60.2106667 50.4053333,60.3973333 50.832,60.536 C51.2373333,60.6746667 51.728,60.744 52.304,60.744 Z M52.208,55.32 C51.8133333,55.32 51.4346667,55.2106667 51.072,54.992 C50.7093333,54.7733333 50.4186667,54.4826667 50.2,54.12 C49.9813333,53.7573333 49.872,53.3786667 49.872,52.984 C49.872,52.5893333 49.9786667,52.2106667 50.192,51.848 C50.4053333,51.4853333 50.6933333,51.1946667 51.056,50.976 C51.4186667,50.7573333 51.8026667,50.648 52.208,50.648 C52.3146667,50.648 52.4053333,50.6533333 52.48,50.664 C52.5546667,50.6746667 52.6133333,50.6853333 52.656,50.696 C53.0933333,50.792 53.4853333,51.0133333 53.832,51.36 C54.1786667,51.7066667 54.4,52.0986667 54.496,52.536 C54.5066667,52.5786667 54.5173333,52.6373333 54.528,52.712 C54.5386667,52.7866667 54.544,52.8773333 54.544,52.984 C54.544,53.3786667 54.4346667,53.7573333 54.216,54.12 C53.9973333,54.4826667 53.7066667,54.7733333 53.344,54.992 C52.9813333,55.2106667 52.6026667,55.32 52.208,55.32 Z M60.288,57 L60.288,54.904 L58.192,54.904 L58.192,57 L60.288,57 Z" id="Wearehiring." fill-rule="nonzero" transform="translate(9.272000, 53.144000) rotate(-270.000000) translate(-9.272000, -53.144000) "></path>
        </g>
    </g>
</svg>