<?xml version="1.0" encoding="UTF-8"?>
<svg width="79px" height="83px" viewBox="0 0 79 83" version="1.1" xmlns="http://www.w3.org/2000/svg" xmlns:xlink="http://www.w3.org/1999/xlink">
    <!-- Generator: Sketch 61 (89581) - https://sketch.com -->
    <title>Recruit Copy</title>
    <desc>Created with Sketch.</desc>
    <g id="Page-1" stroke="none" stroke-width="1" fill="none" fill-rule="evenodd">
        <g id="SquareLab_W" transform="translate(-1514.000000, -319.000000)" fill="#00BF68">
            <g id="Recruit-Copy" transform="translate(1514.000000, 317.000000)">
                <path d="M22.6845884,60.8948628 L33.8948628,72.1051372 L22.8948628,83.1051372 L20.0922942,80.3025686 L26.45,73.944 L0,73.9445436 L0,70.0554564 L26.345,70.055 L19.9345884,63.6448628 L22.6845884,60.8948628 Z" id="Combined-Shape"></path>
                <path d="M8.256,20 L10.944,11.24 L11.448,9.344 L11.64,9.344 L12.144,11.24 L14.832,20 L17.952,20 L22.512,2.816 L19.08,2.816 L16.584,12.848 L16.224,14.672 L16.032,14.672 L15.552,12.848 L13.056,4.64 L10.032,4.64 L7.56,12.848 L7.056,14.696 L6.864,14.696 L6.48,12.848 L3.816,2.816 L0.384,2.816 L5.136,20 L8.256,20 Z M29.808,20.384 C31.136,20.384 32.26,20.088 33.18,19.496 C34.1,18.904 34.832,18.128 35.376,17.168 L35.376,17.168 L32.76,15.872 C32.488,16.368 32.116,16.78 31.644,17.108 C31.172,17.436 30.576,17.6 29.856,17.6 C29.488,17.6 29.128,17.548 28.776,17.444 C28.424,17.34 28.1,17.172 27.804,16.94 C27.508,16.708 27.26,16.42 27.06,16.076 C26.86,15.732 26.728,15.32 26.664,14.84 L26.664,14.84 L35.52,14.84 C35.52,14.744 35.528,14.656 35.544,14.576 C35.544,14.496 35.552,14.408 35.568,14.312 L35.568,14.312 L35.568,14.024 C35.568,13.144 35.44,12.328 35.184,11.576 C34.928,10.824 34.552,10.172 34.056,9.62 C33.56,9.068 32.944,8.636 32.208,8.324 C31.472,8.012 30.632,7.856 29.688,7.856 C28.792,7.856 27.972,8.024 27.228,8.36 C26.484,8.696 25.84,9.148 25.296,9.716 C24.752,10.284 24.328,10.948 24.024,11.708 C23.72,12.468 23.568,13.272 23.568,14.12 C23.568,15.032 23.724,15.868 24.036,16.628 C24.348,17.388 24.784,18.048 25.344,18.608 C25.904,19.168 26.564,19.604 27.324,19.916 C28.084,20.228 28.912,20.384 29.808,20.384 Z M32.52,12.608 L26.832,12.608 C27.04,11.92 27.4,11.384 27.912,11 C28.424,10.616 29.016,10.424 29.688,10.424 C30.168,10.424 30.58,10.496 30.924,10.64 C31.268,10.784 31.556,10.968 31.788,11.192 C32.02,11.416 32.196,11.656 32.316,11.912 C32.436,12.168 32.504,12.4 32.52,12.608 L32.52,12.608 Z M48.456,20.36 C49.752,20.36 50.896,19.984 51.888,19.232 L51.888,19.232 L51.888,20 L54.96,20 L54.96,8.24 L51.888,8.24 L51.888,9.008 C51.472,8.64 50.96,8.356 50.352,8.156 C49.744,7.956 49.112,7.856 48.456,7.856 C47.336,7.856 46.296,8.136 45.336,8.696 C44.376,9.256 43.612,10.016 43.044,10.976 C42.476,11.936 42.192,12.984 42.192,14.12 C42.192,15.256 42.476,16.3 43.044,17.252 C43.612,18.204 44.376,18.96 45.336,19.52 C46.296,20.08 47.336,20.36 48.456,20.36 Z M48.456,17.648 C47.816,17.648 47.224,17.488 46.68,17.168 C46.136,16.848 45.704,16.416 45.384,15.872 C45.064,15.328 44.904,14.736 44.904,14.096 C44.904,13.456 45.064,12.864 45.384,12.32 C45.704,11.776 46.136,11.344 46.68,11.024 C47.224,10.704 47.816,10.544 48.456,10.544 C49.096,10.544 49.688,10.704 50.232,11.024 C50.776,11.344 51.208,11.776 51.528,12.32 C51.848,12.864 52.008,13.456 52.008,14.096 C52.008,14.736 51.848,15.328 51.528,15.872 C51.208,16.416 50.776,16.848 50.232,17.168 C49.688,17.488 49.096,17.648 48.456,17.648 Z M60.936,20 L60.936,15.344 C60.936,14.496 61.104,13.688 61.44,12.92 C61.712,12.328 62.084,11.832 62.556,11.432 C63.028,11.032 63.624,10.832 64.344,10.832 C64.616,10.832 64.936,10.872 65.304,10.952 L65.304,10.952 L65.304,8.192 C65.08,8.128 64.912,8.088 64.8,8.072 C64.576,8.04 64.408,8.024 64.296,8.024 C63.544,8.024 62.872,8.208 62.28,8.576 C61.688,8.944 61.24,9.448 60.936,10.088 L60.936,10.088 L60.936,8.264 L57.84,8.264 L57.84,20 L60.936,20 Z M72.84,20.384 C74.168,20.384 75.292,20.088 76.212,19.496 C77.132,18.904 77.864,18.128 78.408,17.168 L78.408,17.168 L75.792,15.872 C75.52,16.368 75.148,16.78 74.676,17.108 C74.204,17.436 73.608,17.6 72.888,17.6 C72.52,17.6 72.16,17.548 71.808,17.444 C71.456,17.34 71.132,17.172 70.836,16.94 C70.54,16.708 70.292,16.42 70.092,16.076 C69.892,15.732 69.76,15.32 69.696,14.84 L69.696,14.84 L78.552,14.84 C78.552,14.744 78.56,14.656 78.576,14.576 C78.576,14.496 78.584,14.408 78.6,14.312 L78.6,14.312 L78.6,14.024 C78.6,13.144 78.472,12.328 78.216,11.576 C77.96,10.824 77.584,10.172 77.088,9.62 C76.592,9.068 75.976,8.636 75.24,8.324 C74.504,8.012 73.664,7.856 72.72,7.856 C71.824,7.856 71.004,8.024 70.26,8.36 C69.516,8.696 68.872,9.148 68.328,9.716 C67.784,10.284 67.36,10.948 67.056,11.708 C66.752,12.468 66.6,13.272 66.6,14.12 C66.6,15.032 66.756,15.868 67.068,16.628 C67.38,17.388 67.816,18.048 68.376,18.608 C68.936,19.168 69.596,19.604 70.356,19.916 C71.116,20.228 71.944,20.384 72.84,20.384 Z M75.552,12.608 L69.864,12.608 C70.072,11.92 70.432,11.384 70.944,11 C71.456,10.616 72.048,10.424 72.72,10.424 C73.2,10.424 73.612,10.496 73.956,10.64 C74.3,10.784 74.588,10.968 74.82,11.192 C75.052,11.416 75.228,11.656 75.348,11.912 C75.468,12.168 75.536,12.4 75.552,12.608 L75.552,12.608 Z M4.464,46 L4.464,39.328 C4.464,38.944 4.592,38.588 4.848,38.26 C5.104,37.932 5.432,37.668 5.832,37.468 C6.232,37.268 6.632,37.16 7.032,37.144 C7.64,37.16 8.2,37.384 8.712,37.816 C9.224,38.248 9.48,38.752 9.48,39.328 L9.48,46 L12.576,46 L12.576,39.328 C12.576,38.368 12.336,37.48 11.856,36.664 C11.376,35.848 10.732,35.2 9.924,34.72 C9.116,34.24 8.232,34 7.272,34 C6.28,34 5.344,34.256 4.464,34.768 L4.464,28.816 L1.344,28.816 L1.344,46 L4.464,46 Z M18.456,31.96 L18.456,28.816 L15.312,28.816 L15.312,31.96 L18.456,31.96 Z M18.456,46 L18.456,34.24 L15.312,34.24 L15.312,46 L18.456,46 Z M24.768,46 L24.768,41.344 C24.768,40.496 24.936,39.688 25.272,38.92 C25.544,38.328 25.916,37.832 26.388,37.432 C26.86,37.032 27.456,36.832 28.176,36.832 C28.448,36.832 28.768,36.872 29.136,36.952 L29.136,36.952 L29.136,34.192 C28.912,34.128 28.744,34.088 28.632,34.072 C28.408,34.04 28.24,34.024 28.128,34.024 C27.376,34.024 26.704,34.208 26.112,34.576 C25.52,34.944 25.072,35.448 24.768,36.088 L24.768,36.088 L24.768,34.264 L21.672,34.264 L21.672,46 L24.768,46 Z M34.44,31.96 L34.44,28.816 L31.296,28.816 L31.296,31.96 L34.44,31.96 Z M34.44,46 L34.44,34.24 L31.296,34.24 L31.296,46 L34.44,46 Z M40.464,46 L40.464,40.24 C40.464,39.76 40.524,39.308 40.644,38.884 C40.764,38.46 40.94,38.092 41.172,37.78 C41.404,37.468 41.684,37.22 42.012,37.036 C42.34,36.852 42.72,36.76 43.152,36.76 C43.872,36.76 44.42,36.964 44.796,37.372 C45.172,37.78 45.36,38.408 45.36,39.256 L45.36,39.256 L45.36,46 L48.504,46 L48.504,38.872 C48.504,38.12 48.412,37.436 48.228,36.82 C48.044,36.204 47.772,35.676 47.412,35.236 C47.052,34.796 46.592,34.456 46.032,34.216 C45.472,33.976 44.824,33.856 44.088,33.856 C43.288,33.856 42.576,34.028 41.952,34.372 C41.328,34.716 40.832,35.184 40.464,35.776 L40.464,35.776 L40.272,35.776 L40.272,34.24 L37.32,34.24 L37.32,46 L40.464,46 Z M56.904,51.616 C57.816,51.616 58.656,51.472 59.424,51.184 C60.192,50.864 60.84,50.44 61.368,49.912 C61.912,49.352 62.336,48.68 62.64,47.896 C62.944,47.064 63.096,46.176 63.096,45.232 L63.096,45.232 L63.096,34.24 L60.096,34.24 L60.096,34.84 C59.088,34.184 57.976,33.856 56.76,33.856 C55.656,33.856 54.636,34.132 53.7,34.684 C52.764,35.236 52.02,35.98 51.468,36.916 C50.916,37.852 50.64,38.872 50.64,39.976 C50.64,41.08 50.916,42.1 51.468,43.036 C52.02,43.972 52.764,44.716 53.7,45.268 C54.636,45.82 55.656,46.096 56.76,46.096 C57.976,46.096 59.088,45.768 60.096,45.112 C60.096,45.688 60.024,46.216 59.88,46.696 C59.736,47.176 59.52,47.568 59.232,47.872 C58.656,48.528 57.88,48.856 56.904,48.856 C56.296,48.856 55.728,48.68 55.2,48.328 C54.944,48.168 54.728,47.96 54.552,47.704 C54.472,47.624 54.408,47.536 54.36,47.44 L54.36,47.44 L51.384,48.712 C51.544,48.968 51.688,49.168 51.816,49.312 C52.104,49.712 52.496,50.096 52.992,50.464 C53.488,50.816 54.056,51.096 54.696,51.304 C55.304,51.512 56.04,51.616 56.904,51.616 Z M56.76,43.48 C56.168,43.48 55.6,43.316 55.056,42.988 C54.512,42.66 54.076,42.224 53.748,41.68 C53.42,41.136 53.256,40.568 53.256,39.976 C53.256,39.384 53.416,38.816 53.736,38.272 C54.056,37.728 54.488,37.292 55.032,36.964 C55.576,36.636 56.152,36.472 56.76,36.472 C56.92,36.472 57.056,36.48 57.168,36.496 C57.28,36.512 57.368,36.528 57.432,36.544 C58.088,36.688 58.676,37.02 59.196,37.54 C59.716,38.06 60.048,38.648 60.192,39.304 C60.208,39.368 60.224,39.456 60.24,39.568 C60.256,39.68 60.264,39.816 60.264,39.976 C60.264,40.568 60.1,41.136 59.772,41.68 C59.444,42.224 59.008,42.66 58.464,42.988 C57.92,43.316 57.352,43.48 56.76,43.48 Z M68.88,46 L68.88,42.856 L65.736,42.856 L65.736,46 L68.88,46 Z" id="Wearehiring." fill-rule="nonzero"></path>
                <text id="👋" font-family="AppleColorEmoji, Apple Color Emoji" font-size="26" font-weight="normal">
                    <tspan x="42" y="83">👋</tspan>
                </text>
            </g>
        </g>
    </g>
</svg>