<?xml version="1.0" encoding="UTF-8"?>
<svg width="21px" height="14px" viewBox="0 0 21 14" version="1.1" xmlns="http://www.w3.org/2000/svg" xmlns:xlink="http://www.w3.org/1999/xlink">
    <!-- Generator: Sketch 60.1 (88133) - https://sketch.com -->
    <title>02</title>
    <desc>Created with Sketch.</desc>
    <g id="Page-1" stroke="none" stroke-width="1" fill="none" fill-rule="evenodd">
        <g id="SquareLab_Draft-Copy-5" transform="translate(-960.000000, -1845.000000)" fill="#FFFFFF" fill-rule="nonzero">
            <g id="Story_02" transform="translate(0.000000, 1080.000000)">
                <g id="Copy" transform="translate(560.000000, 484.240278)">
                    <path d="M405.958,294.093093 C406.75,294.093093 407.464,293.928093 408.1,293.598093 C408.736,293.268093 409.279,292.815093 409.729,292.239093 C410.179,291.663093 410.524,290.982093 410.764,290.196093 C411.004,289.410093 411.124,288.561093 411.124,287.649093 C411.124,286.737093 411.004,285.888093 410.764,285.102093 C410.524,284.316093 410.179,283.635093 409.729,283.059093 C409.279,282.483093 408.736,282.030093 408.1,281.700093 C407.464,281.370093 406.75,281.205093 405.958,281.205093 C405.166,281.205093 404.452,281.370093 403.816,281.700093 C403.18,282.030093 402.637,282.483093 402.187,283.059093 C401.737,283.635093 401.392,284.316093 401.152,285.102093 C400.912,285.888093 400.792,286.737093 400.792,287.649093 C400.792,288.561093 400.912,289.410093 401.152,290.196093 C401.392,290.982093 401.737,291.663093 402.187,292.239093 C402.637,292.815093 403.18,293.268093 403.816,293.598093 C404.452,293.928093 405.166,294.093093 405.958,294.093093 Z M405.958,291.861093 C405.514,291.861093 405.118,291.756093 404.77,291.546093 C404.422,291.336093 404.128,291.042093 403.888,290.664093 C403.648,290.286093 403.465,289.839093 403.339,289.323093 C403.213,288.807093 403.15,288.249093 403.15,287.649093 C403.15,287.037093 403.213,286.476093 403.339,285.966093 C403.465,285.456093 403.648,285.012093 403.888,284.634093 C404.128,284.256093 404.422,283.962093 404.77,283.752093 C405.118,283.542093 405.514,283.437093 405.958,283.437093 C406.39,283.437093 406.78,283.542093 407.128,283.752093 C407.476,283.962093 407.773,284.256093 408.019,284.634093 C408.265,285.012093 408.451,285.456093 408.577,285.966093 C408.703,286.476093 408.766,287.037093 408.766,287.649093 C408.766,288.249093 408.703,288.807093 408.577,289.323093 C408.451,289.839093 408.265,290.286093 408.019,290.664093 C407.773,291.042093 407.476,291.336093 407.128,291.546093 C406.78,291.756093 406.39,291.861093 405.958,291.861093 Z M420.934,293.805093 L420.934,291.735093 L415.948,291.735093 L415.876,291.627093 C416.392,291.123093 416.854,290.667093 417.262,290.259093 L417.262,290.259093 L418.81,288.711093 C419.35,288.159093 419.809,287.562093 420.187,286.920093 C420.565,286.278093 420.754,285.573093 420.754,284.805093 C420.754,284.301093 420.658,283.830093 420.466,283.392093 C420.274,282.954093 420.004,282.573093 419.656,282.249093 C419.308,281.925093 418.882,281.670093 418.378,281.484093 C417.874,281.298093 417.31,281.205093 416.686,281.205093 C416.11,281.205093 415.591,281.292093 415.129,281.466093 C414.667,281.640093 414.268,281.862093 413.932,282.132093 C413.596,282.402093 413.32,282.708093 413.104,283.050093 C412.888,283.392093 412.732,283.725093 412.636,284.049093 L412.636,284.049093 L414.778,284.931093 C414.886,284.547093 415.09,284.202093 415.39,283.896093 C415.69,283.590093 416.11,283.437093 416.65,283.437093 C417.19,283.437093 417.616,283.584093 417.928,283.878093 C418.24,284.172093 418.396,284.517093 418.396,284.913093 C418.396,285.117093 418.372,285.306093 418.324,285.480093 C418.276,285.654093 418.207,285.828093 418.117,286.002093 C418.027,286.176093 417.907,286.353093 417.757,286.533093 C417.607,286.713093 417.436,286.917093 417.244,287.145093 C417.148,287.253093 417.01,287.400093 416.83,287.586093 C416.65,287.772093 416.446,287.979093 416.218,288.207093 C416.142,288.283093 416.064,288.361093 415.984,288.441093 L415.0885,289.336593 L415.0885,289.336593 L414.706,289.719093 C414.106,290.319093 413.452,290.967093 412.744,291.663093 L412.744,291.663093 L412.744,293.805093 L420.934,293.805093 Z" id="02"></path>
                </g>
            </g>
        </g>
    </g>
</svg>