<?xml version="1.0" encoding="UTF-8"?>
<svg width="441px" height="135px" viewBox="0 0 441 135" version="1.1" xmlns="http://www.w3.org/2000/svg" xmlns:xlink="http://www.w3.org/1999/xlink">
    <!-- Generator: Sketch 61.2 (89653) - https://sketch.com -->
    <title>Square</title>
    <desc>Created with Sketch.</desc>
    <g id="Page-1" stroke="none" stroke-width="1" fill="none" fill-rule="evenodd" fill-opacity="0.87">
        <path d="M37.74,105.24 C41.66,105.24 45.6733333,104.633333 49.78,103.42 C53.8866667,102.206667 57.5733333,100.386667 60.84,97.96 C64.1066667,95.5333333 66.79,92.43 68.89,88.65 C70.99,84.87 72.04,80.3666667 72.04,75.14 C72.04,70.94 71.41,67.23 70.15,64.01 C68.89,60.79 67.07,57.92 64.69,55.4 C62.31,52.88 59.4633333,50.71 56.15,48.89 C52.8366667,47.07 49.1733333,45.46 45.16,44.06 L45.16,44.06 L38.86,41.96 C33.1666667,40 29.0133333,37.97 26.4,35.87 C23.7866667,33.77 22.48,31.2266667 22.48,28.24 C22.48,25.16 23.8333333,22.6633333 26.54,20.75 C29.2466667,18.8366667 32.6533333,17.88 36.76,17.88 C41.0533333,17.88 44.4366667,19 46.91,21.24 C49.3833333,23.48 51.0866667,26 52.02,28.8 L52.02,28.8 L68.68,21.8 C67.9333333,19.56 66.7666667,17.18 65.18,14.66 C63.5933333,12.14 61.5166667,9.83 58.95,7.73 C56.3833333,5.63 53.2566667,3.90333333 49.57,2.55 C45.8833333,1.19666667 41.52,0.52 36.48,0.52 C31.6266667,0.52 27.2166667,1.24333333 23.25,2.69 C19.2833333,4.13666667 15.8766667,6.14333333 13.03,8.71 C10.1833333,11.2766667 7.99,14.2633333 6.45,17.67 C4.91,21.0766667 4.14,24.74 4.14,28.66 C4.14,32.4866667 4.86333333,35.9166667 6.31,38.95 C7.75666667,41.9833333 9.6,44.62 11.84,46.86 C14.08,49.1 16.5766667,51.0133333 19.33,52.6 C22.0833333,54.1866667 24.8133333,55.4466667 27.52,56.38 L27.52,56.38 L33.68,58.62 C37.32,59.9266667 40.3766667,61.1866667 42.85,62.4 C45.3233333,63.6133333 47.33,64.8733333 48.87,66.18 C50.41,67.4866667 51.5066667,68.8866667 52.16,70.38 C52.8133333,71.8733333 53.14,73.5533333 53.14,75.42 C53.14,77.38 52.72,79.1066667 51.88,80.6 C51.04,82.0933333 49.8966667,83.33 48.45,84.31 C47.0033333,85.29 45.37,86.0366667 43.55,86.55 C41.73,87.0633333 39.84,87.32 37.88,87.32 C32.56,87.32 28.2666667,85.6633333 25,82.35 C21.7333333,79.0366667 19.4466667,74.86 18.14,69.82 L18.14,69.82 L0.36,76.82 C1.76,81.4866667 3.67333333,85.57 6.1,89.07 C8.52666667,92.57 11.3733333,95.5333333 14.64,97.96 C17.9066667,100.386667 21.5,102.206667 25.42,103.42 C29.34,104.633333 33.4466667,105.24 37.74,105.24 Z M151.326667,134.5 L151.326667,34.26 L133.406667,34.26 L133.406667,38.74 C127.62,34.3533333 120.946667,32.16 113.386667,32.16 C106.853333,32.16 100.786667,33.7933333 95.1866667,37.06 C89.5866667,40.3266667 85.13,44.7366667 81.8166667,50.29 C78.5033333,55.8433333 76.8466667,61.9333333 76.8466667,68.56 C76.8466667,75.1866667 78.5033333,81.3 81.8166667,86.9 C85.13,92.5 89.5866667,96.9333333 95.1866667,100.2 C100.786667,103.466667 106.853333,105.1 113.386667,105.1 C117.213333,105.1 120.9,104.516667 124.446667,103.35 C127.993333,102.183333 130.98,100.526667 133.406667,98.38 L133.406667,98.38 L133.406667,134.5 L151.326667,134.5 Z M113.386667,89.28 C109.653333,89.28 106.2,88.3466667 103.026667,86.48 C99.8533333,84.6133333 97.3333333,82.0933333 95.4666667,78.92 C93.6,75.7466667 92.6666667,72.2933333 92.6666667,68.56 C92.6666667,64.8266667 93.6,61.3733333 95.4666667,58.2 C97.3333333,55.0266667 99.8533333,52.5066667 103.026667,50.64 C106.2,48.7733333 109.653333,47.84 113.386667,47.84 C117.12,47.84 120.573333,48.7733333 123.746667,50.64 C126.92,52.5066667 129.44,55.0266667 131.306667,58.2 C133.173333,61.3733333 134.106667,64.8266667 134.106667,68.56 C134.106667,72.2933333 133.173333,75.7466667 131.306667,78.92 C129.44,82.0933333 126.92,84.6133333 123.746667,86.48 C120.573333,88.3466667 117.12,89.28 113.386667,89.28 Z M186.093333,105.24 C188.146667,105.24 189.826667,105.193333 191.133333,105.1 C195.613333,104.726667 199.416667,103.606667 202.543333,101.74 C205.67,99.8733333 207.98,98.1933333 209.473333,96.7 L209.473333,96.7 L209.473333,103 L226.553333,103 L226.553333,34.4 L208.353333,34.4 L208.353333,68.14 C208.353333,70.7533333 207.98,73.4133333 207.233333,76.12 C206.486667,78.64 205.46,80.74 204.153333,82.42 C202.846667,84.38 201.213333,85.8266667 199.253333,86.76 C197.48,87.88 195.286667,88.44 192.673333,88.44 C188.473333,88.44 185.3,87.2266667 183.153333,84.8 C180.913333,82.3733333 179.793333,78.7333333 179.793333,73.88 L179.793333,73.88 L179.793333,34.4 L161.593333,34.4 L161.593333,76.12 C161.593333,84.9866667 163.693333,92.08 167.893333,97.4 C172.186667,102.626667 178.253333,105.24 186.093333,105.24 Z M271.4,105.1 C278.96,105.1 285.633333,102.906667 291.42,98.52 L291.42,98.52 L291.42,103 L309.34,103 L309.34,34.4 L291.42,34.4 L291.42,38.88 C288.993333,36.7333333 286.006667,35.0766667 282.46,33.91 C278.913333,32.7433333 275.226667,32.16 271.4,32.16 C264.866667,32.16 258.8,33.7933333 253.2,37.06 C247.6,40.3266667 243.143333,44.76 239.83,50.36 C236.516667,55.96 234.86,62.0733333 234.86,68.7 C234.86,75.3266667 236.516667,81.4166667 239.83,86.97 C243.143333,92.5233333 247.6,96.9333333 253.2,100.2 C258.8,103.466667 264.866667,105.1 271.4,105.1 Z M271.4,89.28 C267.666667,89.28 264.213333,88.3466667 261.04,86.48 C257.866667,84.6133333 255.346667,82.0933333 253.48,78.92 C251.613333,75.7466667 250.68,72.2933333 250.68,68.56 C250.68,64.8266667 251.613333,61.3733333 253.48,58.2 C255.346667,55.0266667 257.866667,52.5066667 261.04,50.64 C264.213333,48.7733333 267.666667,47.84 271.4,47.84 C275.133333,47.84 278.586667,48.7733333 281.76,50.64 C284.933333,52.5066667 287.453333,55.0266667 289.32,58.2 C291.186667,61.3733333 292.12,64.8266667 292.12,68.56 C292.12,72.2933333 291.186667,75.7466667 289.32,78.92 C287.453333,82.0933333 284.933333,84.6133333 281.76,86.48 C278.586667,88.3466667 275.133333,89.28 271.4,89.28 Z M340.746667,103 L340.746667,75.84 C340.746667,70.8933333 341.726667,66.18 343.686667,61.7 C345.273333,58.2466667 347.443333,55.3533333 350.196667,53.02 C352.95,50.6866667 356.426667,49.52 360.626667,49.52 C362.213333,49.52 364.08,49.7533333 366.226667,50.22 L366.226667,50.22 L366.226667,34.12 C364.92,33.7466667 363.94,33.5133333 363.286667,33.42 C361.98,33.2333333 361,33.14 360.346667,33.14 C355.96,33.14 352.04,34.2133333 348.586667,36.36 C345.133333,38.5066667 342.52,41.4466667 340.746667,45.18 L340.746667,45.18 L340.746667,34.54 L322.686667,34.54 L322.686667,103 L340.746667,103 Z M406.733333,105.24 C414.48,105.24 421.036667,103.513333 426.403333,100.06 C431.77,96.6066667 436.04,92.08 439.213333,86.48 L439.213333,86.48 L423.953333,78.92 C422.366667,81.8133333 420.196667,84.2166667 417.443333,86.13 C414.69,88.0433333 411.213333,89 407.013333,89 C404.866667,89 402.766667,88.6966667 400.713333,88.09 C398.66,87.4833333 396.77,86.5033333 395.043333,85.15 C393.316667,83.7966667 391.87,82.1166667 390.703333,80.11 C389.536667,78.1033333 388.766667,75.7 388.393333,72.9 L388.393333,72.9 L440.053333,72.9 C440.053333,72.34 440.1,71.8266667 440.193333,71.36 C440.193333,70.8933333 440.24,70.38 440.333333,69.82 L440.333333,69.82 L440.333333,68.14 C440.333333,63.0066667 439.586667,58.2466667 438.093333,53.86 C436.6,49.4733333 434.406667,45.67 431.513333,42.45 C428.62,39.23 425.026667,36.71 420.733333,34.89 C416.44,33.07 411.54,32.16 406.033333,32.16 C400.806667,32.16 396.023333,33.14 391.683333,35.1 C387.343333,37.06 383.586667,39.6966667 380.413333,43.01 C377.24,46.3233333 374.766667,50.1966667 372.993333,54.63 C371.22,59.0633333 370.333333,63.7533333 370.333333,68.7 C370.333333,74.02 371.243333,78.8966667 373.063333,83.33 C374.883333,87.7633333 377.426667,91.6133333 380.693333,94.88 C383.96,98.1466667 387.81,100.69 392.243333,102.51 C396.676667,104.33 401.506667,105.24 406.733333,105.24 Z M422.553333,59.88 L389.373333,59.88 C390.586667,55.8666667 392.686667,52.74 395.673333,50.5 C398.66,48.26 402.113333,47.14 406.033333,47.14 C408.833333,47.14 411.236667,47.56 413.243333,48.4 C415.25,49.24 416.93,50.3133333 418.283333,51.62 C419.636667,52.9266667 420.663333,54.3266667 421.363333,55.82 C422.063333,57.3133333 422.46,58.6666667 422.553333,59.88 L422.553333,59.88 Z" id="Square" fill="#000000" fill-rule="nonzero"></path>
    </g>
</svg>