<?xml version="1.0" encoding="UTF-8"?>
<svg width="386px" height="104px" viewBox="0 0 386 104" version="1.1" xmlns="http://www.w3.org/2000/svg" xmlns:xlink="http://www.w3.org/1999/xlink">
    <!-- Generator: Sketch 60.1 (88133) - https://sketch.com -->
    <title>Travel</title>
    <desc>Created with Sketch.</desc>
    <g id="Page-1" stroke="none" stroke-width="1" fill="none" fill-rule="evenodd">
        <g id="SquareLab_Draft-Copy-5" transform="translate(-963.000000, -513.000000)" fill="#FFFFFF" fill-rule="nonzero">
            <g id="Story_01">
                <path d="M1010.26,614 L1010.26,531.68 L1038.26,531.68 L1038.26,513.76 L963.36,513.76 L963.36,531.68 L991.36,531.68 L991.36,614 L1010.26,614 Z M1066.02667,614 L1066.02667,586.84 C1066.02667,581.893333 1067.00667,577.18 1068.96667,572.7 C1070.55333,569.246667 1072.72333,566.353333 1075.47667,564.02 C1078.23,561.686667 1081.70667,560.52 1085.90667,560.52 C1087.49333,560.52 1089.36,560.753333 1091.50667,561.22 L1091.50667,561.22 L1091.50667,545.12 C1090.2,544.746667 1089.22,544.513333 1088.56667,544.42 C1087.26,544.233333 1086.28,544.14 1085.62667,544.14 C1081.24,544.14 1077.32,545.213333 1073.86667,547.36 C1070.41333,549.506667 1067.8,552.446667 1066.02667,556.18 L1066.02667,556.18 L1066.02667,545.54 L1047.96667,545.54 L1047.96667,614 L1066.02667,614 Z M1132.15333,616.1 C1139.71333,616.1 1146.38667,613.906667 1152.17333,609.52 L1152.17333,609.52 L1152.17333,614 L1170.09333,614 L1170.09333,545.4 L1152.17333,545.4 L1152.17333,549.88 C1149.74667,547.733333 1146.76,546.076667 1143.21333,544.91 C1139.66667,543.743333 1135.98,543.16 1132.15333,543.16 C1125.62,543.16 1119.55333,544.793333 1113.95333,548.06 C1108.35333,551.326667 1103.89667,555.76 1100.58333,561.36 C1097.27,566.96 1095.61333,573.073333 1095.61333,579.7 C1095.61333,586.326667 1097.27,592.416667 1100.58333,597.97 C1103.89667,603.523333 1108.35333,607.933333 1113.95333,611.2 C1119.55333,614.466667 1125.62,616.1 1132.15333,616.1 Z M1132.15333,600.28 C1128.42,600.28 1124.96667,599.346667 1121.79333,597.48 C1118.62,595.613333 1116.1,593.093333 1114.23333,589.92 C1112.36667,586.746667 1111.43333,583.293333 1111.43333,579.56 C1111.43333,575.826667 1112.36667,572.373333 1114.23333,569.2 C1116.1,566.026667 1118.62,563.506667 1121.79333,561.64 C1124.96667,559.773333 1128.42,558.84 1132.15333,558.84 C1135.88667,558.84 1139.34,559.773333 1142.51333,561.64 C1145.68667,563.506667 1148.20667,566.026667 1150.07333,569.2 C1151.94,572.373333 1152.87333,575.826667 1152.87333,579.56 C1152.87333,583.293333 1151.94,586.746667 1150.07333,589.92 C1148.20667,593.093333 1145.68667,595.613333 1142.51333,597.48 C1139.34,599.346667 1135.88667,600.28 1132.15333,600.28 Z M1221.52,614 L1251.06,545.4 L1230.34,545.4 L1213.12,589.08 L1212.14,589.08 L1195.06,545.4 L1174.2,545.4 L1203.46,614 L1221.52,614 Z M1288.48667,616.24 C1296.23333,616.24 1302.79,614.513333 1308.15667,611.06 C1313.52333,607.606667 1317.79333,603.08 1320.96667,597.48 L1320.96667,597.48 L1305.70667,589.92 C1304.12,592.813333 1301.95,595.216667 1299.19667,597.13 C1296.44333,599.043333 1292.96667,600 1288.76667,600 C1286.62,600 1284.52,599.696667 1282.46667,599.09 C1280.41333,598.483333 1278.52333,597.503333 1276.79667,596.15 C1275.07,594.796667 1273.62333,593.116667 1272.45667,591.11 C1271.29,589.103333 1270.52,586.7 1270.14667,583.9 L1270.14667,583.9 L1321.80667,583.9 C1321.80667,583.34 1321.85333,582.826667 1321.94667,582.36 C1321.94667,581.893333 1321.99333,581.38 1322.08667,580.82 L1322.08667,580.82 L1322.08667,579.14 C1322.08667,574.006667 1321.34,569.246667 1319.84667,564.86 C1318.35333,560.473333 1316.16,556.67 1313.26667,553.45 C1310.37333,550.23 1306.78,547.71 1302.48667,545.89 C1298.19333,544.07 1293.29333,543.16 1287.78667,543.16 C1282.56,543.16 1277.77667,544.14 1273.43667,546.1 C1269.09667,548.06 1265.34,550.696667 1262.16667,554.01 C1258.99333,557.323333 1256.52,561.196667 1254.74667,565.63 C1252.97333,570.063333 1252.08667,574.753333 1252.08667,579.7 C1252.08667,585.02 1252.99667,589.896667 1254.81667,594.33 C1256.63667,598.763333 1259.18,602.613333 1262.44667,605.88 C1265.71333,609.146667 1269.56333,611.69 1273.99667,613.51 C1278.43,615.33 1283.26,616.24 1288.48667,616.24 Z M1304.30667,570.88 L1271.12667,570.88 C1272.34,566.866667 1274.44,563.74 1277.42667,561.5 C1280.41333,559.26 1283.86667,558.14 1287.78667,558.14 C1290.58667,558.14 1292.99,558.56 1294.99667,559.4 C1297.00333,560.24 1298.68333,561.313333 1300.03667,562.62 C1301.39,563.926667 1302.41667,565.326667 1303.11667,566.82 C1303.81667,568.313333 1304.21333,569.666667 1304.30667,570.88 L1304.30667,570.88 Z M1348.73333,614 L1348.73333,513.76 L1330.39333,513.76 L1330.39333,614 L1348.73333,614 Z" id="Travel"></path>
            </g>
        </g>
    </g>
</svg>